<svg width="75" height="74" viewBox="0 0 75 74" fill="none" xmlns="http://www.w3.org/2000/svg">
<path d="M72.9664 35.2938C72.4924 25.3495 68.0257 16.5379 61.189 10.3368C56.9312 6.47314 51.7414 3.6216 46.0295 2.14362C44.0452 1.62954 41.9966 1.28414 39.8998 1.11546C38.518 1.003 37.1121 0.970873 35.6901 1.0271C35.5616 1.0271 35.425 1.0271 35.2965 1.04317C33.4648 1.13152 31.6653 1.35643 29.922 1.70183C23.9208 2.89868 18.49 5.56547 13.9912 9.31665C5.61203 16.2969 0.486537 26.9801 1.04086 38.7076C1.68356 52.1862 9.65297 63.5762 20.9242 69.2151C22.8121 70.1629 24.7804 70.9421 26.829 71.5445C29.6408 72.3718 32.5891 72.8618 35.6259 72.9743C36.6461 73.0144 37.6664 73.0064 38.7028 72.9582C38.8956 72.9502 39.0884 72.9422 39.2812 72.9261C43.8604 72.6369 48.1986 71.4963 52.1351 69.6729C54.6496 68.5082 56.9955 67.0624 59.1485 65.3836C68.0418 58.4354 73.5368 47.4229 72.9584 35.2938H72.9664Z" fill="#00A8D0" stroke="#130000" stroke-width="2" stroke-miterlimit="10"/>
<path d="M36.3885 43.7341C36.1005 43.7341 35.9405 43.5741 35.9085 43.2541C35.5885 38.5181 35.0285 32.1661 34.2285 24.1981L34.0845 22.5661C34.0845 22.1501 34.1325 21.8621 34.2285 21.7021C34.3565 21.5101 34.5965 21.2861 34.9485 21.0301C35.6525 20.5821 36.3405 20.1981 37.0125 19.8781C37.6845 19.5581 38.1485 19.3981 38.4045 19.3981C38.6925 19.3981 38.9165 19.5101 39.0765 19.7341C39.2685 19.9581 39.3485 20.2461 39.3165 20.5981C39.2845 21.6221 39.0925 24.3101 38.7405 28.6621C38.2605 34.8061 37.9725 39.3341 37.8765 42.2461C37.8445 42.5981 37.6685 42.9341 37.3485 43.2541C37.0285 43.5741 36.7085 43.7341 36.3885 43.7341ZM36.3405 52.4701C36.2125 52.4701 36.0685 52.4221 35.9085 52.3261C35.7805 52.2621 35.6845 52.1661 35.6205 52.0381C35.4285 51.7181 35.0445 51.2061 34.4685 50.5021L33.8445 49.6861C33.7165 49.5261 33.6525 49.3821 33.6525 49.2541C33.6525 49.1261 33.7165 49.0301 33.8445 48.9661C34.2925 48.6781 34.8365 48.3741 35.4765 48.0541C36.1485 47.7341 36.7405 47.4621 37.2525 47.2381C37.2845 47.2061 37.3485 47.1901 37.4445 47.1901C37.6045 47.1901 37.7485 47.2381 37.8765 47.3341C38.0045 47.4301 38.1325 47.5261 38.2605 47.6221C38.6765 47.9741 39.0765 48.4381 39.4605 49.0141C39.8765 49.5581 40.0845 49.9741 40.0845 50.2621C40.0845 50.3581 40.0205 50.4541 39.8925 50.5501C38.3565 51.5741 37.2365 52.1981 36.5325 52.4221L36.3405 52.4701Z" fill="#130000"/>
</svg>
