<svg width="67" height="67" viewBox="0 0 67 67" fill="none" xmlns="http://www.w3.org/2000/svg">
<path d="M65.7817 32.3012C65.3604 23.4619 61.3899 15.6293 55.3129 10.1172C51.5281 6.68289 46.915 4.14818 41.8377 2.83442C40.0739 2.37746 38.2529 2.07044 36.3891 1.9205C35.1608 1.82054 33.9112 1.79198 32.6472 1.84196C32.5329 1.84196 32.4115 1.84196 32.2973 1.85624C30.6691 1.93478 29.0695 2.1347 27.5199 2.44172C22.1856 3.50558 17.3582 5.87607 13.3592 9.21045C5.9111 15.4151 1.35511 24.9113 1.84784 35.3357C2.41913 47.3167 9.50305 57.4412 19.5219 62.4535C21.2001 63.296 22.9497 63.9886 24.7706 64.5241C27.27 65.2595 29.8908 65.6951 32.5901 65.795C33.497 65.8307 34.4039 65.8236 35.3251 65.7807C35.4965 65.7736 35.6679 65.7665 35.8392 65.7522C39.9096 65.4951 43.7658 64.4813 47.2649 62.8605C49.5001 61.8252 51.5853 60.54 53.4991 59.0477C61.4042 52.8716 66.2887 43.0826 65.7745 32.3012H65.7817Z" fill="#FAEED5" stroke="#130000" stroke-width="2" stroke-miterlimit="10"/>
<path d="M32.224 44.32C31.968 44.32 31.744 44.096 31.552 43.648C31.008 42.368 30.736 41.136 30.736 39.952C30.736 38.672 31.056 37.376 31.696 36.064C32.336 34.72 33.36 33.28 34.768 31.744C35.632 30.784 36.272 29.808 36.688 28.816C37.136 27.792 37.36 26.832 37.36 25.936C37.36 24.56 36.944 23.392 36.112 22.432C35.312 21.44 34.32 20.944 33.136 20.944C32.08 20.944 31.104 21.296 30.208 22C29.344 22.672 28.896 23.536 28.864 24.592C28.864 24.848 28.608 25.2 28.096 25.648C27.584 26.096 27.008 26.496 26.368 26.848C25.728 27.2 25.216 27.376 24.832 27.376C24.48 27.376 24.32 27.2 24.352 26.848C24.448 25.76 25.12 24.64 26.368 23.488C27.616 22.304 29.104 21.328 30.832 20.56C32.592 19.76 34.192 19.36 35.632 19.36C37.392 19.36 38.8 19.904 39.856 20.992C40.944 22.08 41.488 23.504 41.488 25.264C41.488 26.928 41.088 28.368 40.288 29.584C39.52 30.768 38.368 32.128 36.832 33.664C35.36 35.136 34.256 36.432 33.52 37.552C32.784 38.64 32.416 39.936 32.416 41.44C32.416 42.112 32.48 42.752 32.608 43.36C32.64 43.456 32.656 43.6 32.656 43.792C32.656 44.144 32.512 44.32 32.224 44.32ZM32.128 52.288C32 52.288 31.856 52.24 31.696 52.144C31.568 52.08 31.472 51.984 31.408 51.856C31.216 51.536 30.832 51.024 30.256 50.32L29.632 49.504C29.504 49.344 29.44 49.2 29.44 49.072C29.44 48.944 29.504 48.848 29.632 48.784C30.08 48.496 30.624 48.192 31.264 47.872C31.936 47.552 32.528 47.28 33.04 47.056C33.072 47.024 33.136 47.008 33.232 47.008C33.392 47.008 33.536 47.056 33.664 47.152C33.792 47.248 33.92 47.344 34.048 47.44C34.464 47.792 34.864 48.256 35.248 48.832C35.664 49.376 35.872 49.792 35.872 50.08C35.872 50.176 35.808 50.272 35.68 50.368C34.144 51.392 33.024 52.016 32.32 52.24L32.128 52.288Z" fill="black"/>
</svg>
