<svg width="66" height="66" viewBox="0 0 66 66" fill="none" xmlns="http://www.w3.org/2000/svg">
<path d="M64.5988 31.3123C64.1799 22.5226 60.2324 14.7339 54.1903 9.25278C50.4273 5.8377 45.8408 3.31721 40.7927 2.01082C39.039 1.55642 37.2285 1.25114 35.3754 1.10205C34.1542 1.00265 32.9117 0.974257 31.655 1.02396C31.5414 1.02396 31.4208 1.02393 31.3072 1.03813C29.6884 1.11623 28.098 1.31503 26.5573 1.62033C21.2536 2.67822 16.454 5.03539 12.4781 8.35107C5.07281 14.5209 0.543051 23.9639 1.04005 34.3298C1.60804 46.2435 8.6512 56.3113 18.6124 61.2954C20.2809 62.1332 22.0204 62.8219 23.8309 63.3544C26.3159 64.0857 28.9216 64.5188 31.6053 64.6182C32.507 64.6537 33.4087 64.6466 34.3246 64.604C34.495 64.5969 34.6654 64.5898 34.8358 64.5756C38.8828 64.32 42.7168 63.3118 46.1957 61.7001C48.418 60.6706 50.4912 59.3927 52.394 57.9088C60.2537 51.7673 65.11 42.0333 64.5988 31.3123Z" fill="#00A8D0" stroke="#130000" stroke-width="2" stroke-miterlimit="10"/>
<path d="M34.8356 64.5756C35.3823 64.5472 36.5466 64.4194 36.9584 64.3626C49.6035 52.4915 54.6445 27.4358 33.3943 6.82459C33.2949 6.72519 32.9541 6.3844 32.9541 6.3844C32.9541 6.3844 40.48 42.1397 34.8356 64.5756Z" fill="#F8B733" stroke="#130000" stroke-width="0.4" stroke-miterlimit="10"/>
<path d="M30.3055 64.5259C30.6818 64.5614 31.9385 64.6254 32.4 64.6538C28.7861 57.1633 15.1968 26.8678 32.9538 6.37732C32.9538 6.37732 16.0275 8.5073 13.8691 30.6876C12.3639 46.1797 25.0657 62.893 30.3055 64.5189V64.5259Z" fill="#F8B733" stroke="#130000" stroke-width="0.4" stroke-miterlimit="10"/>
<path d="M1.03244 34.3298C1.60754 47.2305 10.66 60.2944 25.1865 63.7378C19.1373 59.6341 2.16844 47.3441 8.75719 24.7875C15.2821 2.44396 32.9467 6.37734 32.9467 6.37734C32.9467 6.37734 26.1663 2.57174 12.4705 8.3511C5.0652 14.521 0.570945 23.9568 1.03244 34.3298Z" fill="#F8B733" stroke="#130000" stroke-width="0.4" stroke-miterlimit="10"/>
<path d="M32.9541 6.37743C67.6871 9.77121 63.7253 53.8974 42.6242 63.106C54.4102 59.8046 66.1677 46.3928 64.5986 31.3054C63.6898 22.5511 60.2321 14.727 54.19 9.2458C53.9273 9.0683 53.6575 8.89792 53.3806 8.73462C42.6597 2.30206 32.9541 6.37743 32.9541 6.37743Z" fill="#F8B733" stroke="#130000" stroke-width="0.4" stroke-miterlimit="10"/>
<path d="M32.9537 6.37728C32.9537 6.37728 32.4922 3.74321 31.6544 1.02393C31.5408 1.02393 31.4201 1.0239 31.3065 1.0381C29.6877 1.1162 28.0973 1.315 26.5566 1.6203C28.9919 2.57879 31.5266 4.07689 32.9537 6.37728Z" fill="#F8B733" stroke="#130000" stroke-width="0.4" stroke-miterlimit="10"/>
<path d="M40.7856 2.01082C39.0319 1.55643 37.2214 1.25115 35.3683 1.10205C34.8713 2.93384 34.0975 4.96442 32.9473 6.37731C32.9473 6.37731 32.9473 6.37731 32.9544 6.37731C33.1603 6.27081 37.5764 4.02011 40.7856 2.01082Z" fill="#F8B733" stroke="#130000" stroke-width="0.4" stroke-miterlimit="10"/>
</svg>
