<svg width="92" height="92" viewBox="0 0 92 92" fill="none" xmlns="http://www.w3.org/2000/svg">
<path d="M90.5762 43.6937C89.9862 31.3137 84.4262 20.3437 75.9162 12.6237C70.6162 7.81371 64.1562 4.2637 57.0462 2.4237C54.5762 1.7837 52.0262 1.35373 49.4162 1.14373C47.6962 1.00373 45.9462 0.963742 44.1762 1.03374C44.0162 1.03374 43.8462 1.0337 43.6862 1.0537C41.4062 1.1637 39.1662 1.44371 36.9962 1.87371C29.5262 3.36371 22.7662 6.68369 17.1662 11.3537C6.73617 20.0437 0.356185 33.3437 1.05619 47.9437C1.85619 64.7237 11.7762 78.9037 25.8062 85.9237C28.1562 87.1037 30.6062 88.0737 33.1562 88.8237C36.6562 89.8537 40.3262 90.4637 44.1062 90.6037C45.3762 90.6537 46.6462 90.6437 47.9362 90.5837C48.1762 90.5737 48.4162 90.5637 48.6562 90.5437C54.3562 90.1837 59.7562 88.7637 64.6562 86.4937C67.7862 85.0437 70.7062 83.2437 73.3862 81.1537C84.4562 72.5037 91.2962 58.7937 90.5762 43.6937Z" fill="#FAEED5" stroke="#130000" stroke-width="2" stroke-miterlimit="10"/>
<path d="M48.6558 90.5437C49.4258 90.5037 51.0658 90.3237 51.6458 90.2437C69.4558 73.5237 76.5559 38.2337 46.6259 9.20374C46.4859 9.06374 46.0059 8.58374 46.0059 8.58374C46.0059 8.58374 56.6058 58.9437 48.6558 90.5437Z" fill="#F72D37" stroke="#130000" stroke-width="0.4" stroke-miterlimit="10"/>
<path d="M42.2754 90.4737C42.8054 90.5237 44.5754 90.6137 45.2254 90.6537C40.1354 80.1037 20.9954 37.4337 46.0054 8.57373C46.0054 8.57373 22.1654 11.5737 19.1254 42.8137C17.0054 64.6337 34.8954 88.1737 42.2754 90.4637V90.4737Z" fill="#F72D37" stroke="#130000" stroke-width="0.4" stroke-miterlimit="10"/>
<path d="M1.04569 47.9437C1.85569 66.1137 14.6057 84.5137 35.0657 89.3637C26.5457 83.5837 2.6457 66.2737 11.9257 34.5037C21.1157 3.03375 45.9957 8.57375 45.9957 8.57375C45.9957 8.57375 36.4457 3.21372 17.1557 11.3537C6.72568 20.0437 0.395693 33.3337 1.04569 47.9437Z" fill="#F72D37" stroke="#130000" stroke-width="0.4" stroke-miterlimit="10"/>
<path d="M46.0059 8.57382C94.9259 13.3538 89.3459 75.5038 59.6259 88.4738C76.2259 83.8238 92.7859 64.9338 90.5759 43.6838C89.2959 31.3538 84.4258 20.3338 75.9158 12.6138C75.5458 12.3638 75.1658 12.1238 74.7758 11.8938C59.6758 2.83382 46.0059 8.57382 46.0059 8.57382Z" fill="#F72D37" stroke="#130000" stroke-width="0.4" stroke-miterlimit="10"/>
<path d="M46.0061 8.57367C46.0061 8.57367 45.3561 4.86369 44.1761 1.03369C44.0161 1.03369 43.8461 1.03365 43.6861 1.05365C41.4061 1.16365 39.1661 1.44366 36.9961 1.87366C40.4261 3.22366 43.9961 5.33367 46.0061 8.57367Z" fill="#F72D37" stroke="#130000" stroke-width="0.4" stroke-miterlimit="10"/>
<path d="M57.0361 2.42377C54.5661 1.78377 52.0161 1.3538 49.4061 1.1438C48.7061 3.7238 47.6161 6.58379 45.9961 8.57379C45.9961 8.57379 45.9961 8.57379 46.0061 8.57379C46.2961 8.42379 52.5161 5.25377 57.0361 2.42377Z" fill="#F72D37" stroke="#130000" stroke-width="0.4" stroke-miterlimit="10"/>
</svg>
