<svg width="80" height="81" viewBox="0 0 80 81" fill="none" xmlns="http://www.w3.org/2000/svg">
<path d="M78.8279 38.853C78.3153 28.0968 73.4845 18.5656 66.0907 11.8582C61.4858 7.67905 55.8731 4.59466 49.6957 2.996C47.5496 2.43994 45.3341 2.06637 43.0664 1.88391C41.572 1.76227 40.0515 1.72753 38.5137 1.78835C38.3747 1.78835 38.227 1.78831 38.088 1.80569C36.107 1.90126 34.1608 2.14454 32.2754 2.51815C25.7852 3.81272 19.9118 6.69725 15.0463 10.7547C5.98432 18.3049 0.44114 29.8605 1.04933 42.5456C1.7444 57.1247 10.3633 69.4449 22.5531 75.5441C24.5949 76.5693 26.7235 77.4121 28.9391 78.0638C31.98 78.9587 35.1687 79.4886 38.4529 79.6103C39.5563 79.6537 40.6597 79.6451 41.7805 79.5929C41.9891 79.5843 42.1976 79.5755 42.4061 79.5582C47.3585 79.2454 52.0502 78.0116 56.3075 76.0394C59.027 74.7795 61.564 73.2157 63.8925 71.3998C73.5106 63.8843 79.4534 51.9725 78.8279 38.853Z" fill="#00A8D0" stroke="#130000" stroke-width="2" stroke-miterlimit="10"/>
<path d="M42.4049 79.5581C43.0739 79.5233 44.4988 79.367 45.0028 79.2974C60.4768 64.7704 66.6456 34.1091 40.6412 8.8867C40.5196 8.76506 40.1025 8.34802 40.1025 8.34802C40.1025 8.34802 49.3122 52.1028 42.4049 79.5581Z" fill="#025A8B" stroke="#130000" stroke-width="0.4" stroke-miterlimit="10"/>
<path d="M36.8618 79.4973C37.3223 79.5407 38.8602 79.619 39.4249 79.6537C35.0025 70.4875 18.373 33.4141 40.1026 8.33936C40.1026 8.33936 19.3895 10.9459 16.7482 38.0884C14.9063 57.0465 30.4498 77.499 36.8618 79.4886V79.4973Z" fill="#025A8B" stroke="#130000" stroke-width="0.4" stroke-miterlimit="10"/>
<path d="M1.0397 42.5456C1.74346 58.3325 12.8212 74.3191 30.5976 78.533C23.1951 73.5111 2.42985 58.4715 10.4927 30.8684C18.4773 3.52604 40.0941 8.33942 40.0941 8.33942C40.0941 8.33942 31.7966 3.68241 15.0367 10.7548C5.9747 18.305 0.474954 29.8519 1.0397 42.5456Z" fill="#025A8B" stroke="#130000" stroke-width="0.4" stroke-miterlimit="10"/>
<path d="M40.1025 8.33949C82.6062 12.4925 77.758 66.4909 51.9361 77.7598C66.3589 73.7196 80.7469 57.3073 78.8267 38.8444C77.7146 28.1317 73.4833 18.557 66.0895 11.8496C65.768 11.6324 65.4379 11.4239 65.099 11.224C51.9795 3.35236 40.1025 8.33949 40.1025 8.33949Z" fill="#025A8B" stroke="#130000" stroke-width="0.4" stroke-miterlimit="10"/>
<path d="M40.1027 8.33936C40.1027 8.33936 39.5379 5.11599 38.5127 1.78833C38.3737 1.78833 38.226 1.78829 38.087 1.80567C36.106 1.90124 34.1598 2.14452 32.2744 2.51813C35.2545 3.69106 38.3563 5.52432 40.1027 8.33936Z" fill="#025A8B" stroke="#130000" stroke-width="0.4" stroke-miterlimit="10"/>
<path d="M49.6867 2.996C47.5407 2.43994 45.3251 2.06637 43.0574 1.88391C42.4493 4.12552 41.5022 6.61039 40.0947 8.33938C40.0947 8.33938 40.0947 8.33938 40.1034 8.33938C40.3554 8.20906 45.7595 5.45481 49.6867 2.996Z" fill="#025A8B" stroke="#130000" stroke-width="0.4" stroke-miterlimit="10"/>
</svg>
