<svg width="103" height="104" viewBox="0 0 103 104" fill="none" xmlns="http://www.w3.org/2000/svg">
<path d="M101.777 49.822C101.113 35.8941 94.8579 23.5524 85.2839 14.8671C79.3212 9.45571 72.0535 5.46181 64.0545 3.39175C61.2756 2.67172 58.4068 2.188 55.4704 1.95174C53.5354 1.79423 51.5666 1.74925 49.5752 1.828C49.3952 1.828 49.204 1.82795 49.024 1.85045C46.4589 1.97421 43.9388 2.28923 41.4975 2.77299C33.0935 4.4493 25.4882 8.18439 19.188 13.4383C7.45389 23.2149 0.276173 38.1779 1.0637 54.6034C1.96373 73.4815 13.1241 89.4345 28.9083 97.3323C31.5522 98.6598 34.3085 99.7511 37.1773 100.595C41.115 101.754 45.2439 102.44 49.4965 102.597C50.9253 102.654 52.3541 102.642 53.8054 102.575C54.0754 102.564 54.3454 102.552 54.6154 102.53C61.0281 102.125 67.1033 100.527 72.616 97.9735C76.1373 96.3422 79.4225 94.3172 82.4376 91.9659C94.8917 82.2343 102.587 66.81 101.777 49.822Z" fill="#F8B733" stroke="#130000" stroke-width="2" stroke-miterlimit="10"/>
<path d="M54.6141 102.53C55.4804 102.485 57.3254 102.282 57.978 102.192C78.0149 83.3818 86.0027 43.6793 52.3303 11.0195C52.1728 10.862 51.6328 10.322 51.6328 10.322C51.6328 10.322 63.5582 66.9788 54.6141 102.53Z" fill="#EE5229" stroke="#130000" stroke-width="0.4" stroke-miterlimit="10"/>
<path d="M47.4368 102.451C48.033 102.507 50.0244 102.609 50.7556 102.654C45.0292 90.7846 23.496 42.7793 51.6332 10.3108C51.6332 10.3108 24.8123 13.6859 21.3922 48.832C19.0071 73.3803 39.134 99.8637 47.4368 102.44V102.451Z" fill="#EE5229" stroke="#130000" stroke-width="0.4" stroke-miterlimit="10"/>
<path d="M1.05141 54.6034C1.96269 75.0454 16.3069 95.746 39.3252 101.202C29.7398 94.6997 2.85147 75.2254 13.2918 39.483C23.6309 4.07808 51.6218 10.3108 51.6218 10.3108C51.6218 10.3108 40.8777 4.28056 19.1757 13.4384C7.44159 23.2149 0.320133 38.1667 1.05141 54.6034Z" fill="#EE5229" stroke="#130000" stroke-width="0.4" stroke-miterlimit="10"/>
<path d="M51.6328 10.3108C106.67 15.6885 100.392 85.6094 66.9558 100.201C85.6314 94.9697 104.262 73.7178 101.776 49.8108C100.336 35.9391 94.8567 23.5412 85.2826 14.856C84.8663 14.5747 84.4388 14.3047 84.0001 14.046C67.012 3.85313 51.6328 10.3108 51.6328 10.3108Z" fill="#EE5229" stroke="#130000" stroke-width="0.4" stroke-miterlimit="10"/>
<path d="M51.6337 10.3107C51.6337 10.3107 50.9024 6.13689 49.5748 1.828C49.3948 1.828 49.2036 1.82796 49.0236 1.85046C46.4585 1.97421 43.9384 2.28923 41.4971 2.77299C45.3559 4.29179 49.3723 6.66563 51.6337 10.3107Z" fill="#EE5229" stroke="#130000" stroke-width="0.4" stroke-miterlimit="10"/>
<path d="M64.0424 3.39179C61.2636 2.67177 58.3948 2.18804 55.4584 1.95178C54.6709 4.85438 53.4446 8.07197 51.6221 10.3108C51.6221 10.3108 51.6221 10.3108 51.6333 10.3108C51.9596 10.142 58.9573 6.57564 64.0424 3.39179Z" fill="#EE5229" stroke="#130000" stroke-width="0.4" stroke-miterlimit="10"/>
</svg>
