<svg width="93" height="93" viewBox="0 0 93 93" fill="none" xmlns="http://www.w3.org/2000/svg">
<path d="M91.1543 44.6035C90.5643 32.2235 85.0043 21.2535 76.4943 13.5335C71.1943 8.7235 64.7343 5.17349 57.6243 3.33349C55.1543 2.69349 52.6043 2.26352 49.9943 2.05352C48.2743 1.91352 46.5243 1.87353 44.7543 1.94353C44.5943 1.94353 44.4243 1.94349 44.2643 1.96349C41.9843 2.07349 39.7443 2.3535 37.5743 2.7835C30.1043 4.2735 23.3443 7.59348 17.7443 12.2635C7.31429 20.9535 0.93431 34.2535 1.63431 48.8535C2.43431 65.6335 12.3543 79.8135 26.3843 86.8335C28.7343 88.0135 31.1843 88.9835 33.7343 89.7335C37.2343 90.7635 40.9043 91.3735 44.6843 91.5135C45.9543 91.5635 47.2243 91.5535 48.5143 91.4935C48.7543 91.4835 48.9943 91.4735 49.2343 91.4535C54.9343 91.0935 60.3343 89.6735 65.2343 87.4035C68.3643 85.9535 71.2843 84.1535 73.9643 82.0635C85.0343 73.4135 91.8743 59.7035 91.1543 44.6035Z" fill="#F43430" stroke="#130000" stroke-width="2" stroke-miterlimit="10"/>
<path d="M49.2339 91.4534C50.0039 91.4134 51.6439 91.2334 52.2239 91.1534C70.0339 74.4334 77.134 39.1434 47.204 10.1134C47.064 9.9734 46.584 9.49341 46.584 9.49341C46.584 9.49341 57.1839 59.8534 49.2339 91.4534Z" fill="#025A8B" stroke="#130000" stroke-width="0.4" stroke-miterlimit="10"/>
<path d="M42.8535 91.3834C43.3835 91.4334 45.1535 91.5234 45.8035 91.5634C40.7135 81.0134 21.5736 38.3434 46.5836 9.4834C46.5836 9.4834 22.7436 12.4834 19.7036 43.7234C17.5836 65.5434 35.4735 89.0834 42.8535 91.3734V91.3834Z" fill="#025A8B" stroke="#130000" stroke-width="0.4" stroke-miterlimit="10"/>
<path d="M1.62382 48.8534C2.43382 67.0234 15.1838 85.4234 35.6438 90.2734C27.1238 84.4934 3.22382 67.1834 12.5038 35.4134C21.6938 3.94341 46.5738 9.48342 46.5738 9.48342C46.5738 9.48342 37.0238 4.12339 17.7338 12.2634C7.3038 20.9534 0.973818 34.2434 1.62382 48.8534Z" fill="#025A8B" stroke="#130000" stroke-width="0.4" stroke-miterlimit="10"/>
<path d="M46.584 9.48349C95.504 14.2635 89.924 76.4134 60.204 89.3834C76.804 84.7334 93.364 65.8435 91.154 44.5935C89.874 32.2635 85.004 21.2435 76.494 13.5235C76.124 13.2735 75.7439 13.0335 75.3539 12.8035C60.2539 3.74349 46.584 9.48349 46.584 9.48349Z" fill="#025A8B" stroke="#130000" stroke-width="0.4" stroke-miterlimit="10"/>
<path d="M46.5842 9.48358C46.5842 9.48358 45.9342 5.7736 44.7542 1.9436C44.5942 1.9436 44.4242 1.94356 44.2642 1.96356C41.9842 2.07356 39.7442 2.35357 37.5742 2.78357C41.0042 4.13357 44.5742 6.24358 46.5842 9.48358Z" fill="#025A8B" stroke="#130000" stroke-width="0.4" stroke-miterlimit="10"/>
<path d="M57.6142 3.33344C55.1442 2.69344 52.5942 2.26347 49.9842 2.05347C49.2842 4.63347 48.1942 7.49346 46.5742 9.48346C46.5742 9.48346 46.5742 9.48346 46.5842 9.48346C46.8742 9.33346 53.0942 6.16343 57.6142 3.33344Z" fill="#025A8B" stroke="#130000" stroke-width="0.4" stroke-miterlimit="10"/>
</svg>
