<svg width="92" height="92" viewBox="0 0 92 92" fill="none" xmlns="http://www.w3.org/2000/svg">
<path d="M90.5809 43.6937C89.9909 31.3137 84.4309 20.3437 75.9209 12.6237C70.6209 7.81374 64.1609 4.26374 57.0509 2.42374C54.5809 1.78374 52.0309 1.35374 49.4209 1.14374C47.7009 1.00374 45.9509 0.963738 44.1809 1.03374C44.0209 1.03374 43.8509 1.03374 43.6909 1.05374C41.4109 1.16374 39.1709 1.44374 37.0009 1.87374C29.5309 3.36374 22.7709 6.68374 17.1709 11.3537C6.74086 20.0437 0.360862 33.3437 1.05086 47.9437C1.85086 64.7237 11.7709 78.9037 25.8009 85.9237C28.1509 87.1037 30.6009 88.0737 33.1509 88.8237C36.6509 89.8537 40.3209 90.4637 44.1009 90.6037C45.3709 90.6537 46.6409 90.6437 47.9309 90.5837C48.1709 90.5737 48.4109 90.5637 48.6509 90.5437C54.3509 90.1837 59.7509 88.7637 64.6509 86.4937C67.7809 85.0437 70.7009 83.2437 73.3809 81.1537C84.4509 72.5037 91.2909 58.7937 90.5709 43.6937H90.5809Z" fill="#00A8D0" stroke="#130000" stroke-width="2" stroke-miterlimit="10"/>
<path d="M28.184 58.72C26.616 58.72 25.144 58.304 23.768 57.472C22.392 56.608 21.288 55.376 20.456 53.776C19.624 52.176 19.208 50.304 19.208 48.16C19.208 46.56 19.432 45.088 19.88 43.744C20.36 42.368 21.032 41.232 21.896 40.336C23.112 39.056 24.536 38.08 26.168 37.408C27.832 36.736 29.592 36.4 31.448 36.4C32.568 36.4 33.592 36.608 34.52 37.024C35.48 37.408 35.96 38.016 35.96 38.848C35.96 39.296 35.736 39.84 35.288 40.48C34.84 41.12 34.328 41.696 33.752 42.208C33.208 42.72 32.824 42.976 32.6 42.976C32.504 42.976 32.44 42.928 32.408 42.832C32.408 42.736 32.456 42.64 32.552 42.544C32.744 42.256 32.84 41.936 32.84 41.584C32.84 40.624 32.344 39.76 31.352 38.992C30.392 38.224 29.288 37.84 28.04 37.84C27.496 37.84 26.968 37.952 26.456 38.176C25.944 38.368 25.528 38.592 25.208 38.848C24.504 39.488 23.944 40.48 23.528 41.824C23.144 43.168 22.952 44.576 22.952 46.048C22.952 48.096 23.304 49.952 24.008 51.616C24.744 53.28 25.752 54.592 27.032 55.552C28.312 56.48 29.72 56.944 31.256 56.944C32.088 56.944 32.872 56.752 33.608 56.368C34.376 55.984 35.16 55.424 35.96 54.688C36.216 54.432 36.424 54.304 36.584 54.304C36.712 54.304 36.776 54.384 36.776 54.544C36.776 54.64 36.728 54.768 36.632 54.928C35.896 55.888 34.744 56.768 33.176 57.568C31.608 58.336 29.944 58.72 28.184 58.72ZM44.2389 58.24C43.5989 58.24 43.0869 58.016 42.7029 57.568C42.3189 57.12 42.0949 56.432 42.0309 55.504L41.9829 53.824C41.9829 52.576 42.0469 50.736 42.1749 48.304C42.3029 45.872 42.3669 44.032 42.3669 42.784L42.3189 40.576C42.2869 40.064 42.1429 39.664 41.8869 39.376C41.6309 39.088 41.2789 38.944 40.8309 38.944C40.4469 38.944 40.0149 39.088 39.5349 39.376C39.4389 39.44 39.3429 39.456 39.2469 39.424C39.1829 39.36 39.1509 39.28 39.1509 39.184C39.1509 39.056 39.2149 38.944 39.3429 38.848C40.6229 38.08 41.9029 37.472 43.1829 37.024C43.5349 36.928 43.8389 36.88 44.0949 36.88C44.7349 36.88 45.2309 37.136 45.5829 37.648C45.9349 38.16 46.1429 38.848 46.2069 39.712C46.7509 39.456 47.3109 39.136 47.8869 38.752C49.1989 37.984 50.0469 37.52 50.4309 37.36C51.7109 36.752 52.8789 36.448 53.9349 36.448C54.9909 36.448 55.9189 36.752 56.7189 37.36C57.5509 37.936 58.1749 38.8 58.5909 39.952L59.7429 39.328C61.5029 38.304 62.7189 37.648 63.3909 37.36C64.7029 36.752 65.8709 36.448 66.8949 36.448C68.3989 36.448 69.5989 37.024 70.4949 38.176C71.4229 39.296 71.9189 40.992 71.9829 43.264C72.0149 44.32 71.9669 45.936 71.8389 48.112C71.7109 49.968 71.6469 51.424 71.6469 52.48L71.6949 54.544C71.7269 55.6 72.1909 56.128 73.0869 56.128C73.4389 56.128 73.8869 56.016 74.4309 55.792C74.5269 55.728 74.6069 55.728 74.6709 55.792C74.7669 55.824 74.8149 55.888 74.8149 55.984C74.8149 56.08 74.7509 56.176 74.6229 56.272C73.0549 57.136 71.7909 57.744 70.8309 58.096C70.5429 58.192 70.2549 58.24 69.9669 58.24C69.3269 58.24 68.8149 58.016 68.4309 57.568C68.0469 57.12 67.8389 56.432 67.8069 55.504C67.7749 55.12 67.7589 54.592 67.7589 53.92C67.7589 52.544 67.8389 51.136 67.9989 49.696C68.1269 48.032 68.1909 46.736 68.1909 45.808C68.1909 43.728 67.9349 42.08 67.4229 40.864C66.9109 39.616 65.8069 38.992 64.1109 38.992C62.6709 38.992 60.9109 39.552 58.8309 40.672C59.0229 41.696 59.1189 42.56 59.1189 43.264C59.1189 44.032 59.1029 44.8 59.0709 45.568C59.0389 46.336 59.0069 47.088 58.9749 47.824C58.8469 49.872 58.7829 51.424 58.7829 52.48L58.8309 54.592C58.8629 55.616 59.3269 56.128 60.2229 56.128C60.5429 56.128 60.9749 56.016 61.5189 55.792C61.8069 55.664 61.9509 55.728 61.9509 55.984C61.9509 56.08 61.8869 56.176 61.7589 56.272C60.1909 57.136 58.9429 57.744 58.0149 58.096C57.6949 58.192 57.3749 58.24 57.0549 58.24C56.4149 58.24 55.9029 58.016 55.5189 57.568C55.1349 57.12 54.9269 56.432 54.8949 55.504C54.8629 54.544 54.8629 53.584 54.8949 52.624C54.9269 51.632 54.9749 50.704 55.0389 49.84C55.1669 48.176 55.2309 46.896 55.2309 46C55.2309 43.824 54.9749 42.112 54.4629 40.864C53.9829 39.616 52.8949 38.992 51.1989 38.992C49.7589 38.992 48.0949 39.488 46.2069 40.48C46.2389 41.92 46.1909 44.048 46.0629 46.864C46.0309 47.696 45.9989 48.528 45.9669 49.36C45.9349 50.192 45.9189 51.024 45.9189 51.856L46.0149 54.544C46.0469 55.088 46.1909 55.504 46.4469 55.792C46.7029 56.08 47.0549 56.224 47.5029 56.224C47.8549 56.224 48.2869 56.096 48.7989 55.84C48.8949 55.808 48.9749 55.824 49.0389 55.888C49.1029 55.92 49.1349 55.968 49.1349 56.032C49.1349 56.16 49.0709 56.272 48.9429 56.368C47.8869 57.008 46.6229 57.584 45.1509 58.096C44.8309 58.192 44.5269 58.24 44.2389 58.24Z" fill="white"/>
</svg>
