<svg width="192" height="110" viewBox="0 0 192 110" fill="none" xmlns="http://www.w3.org/2000/svg">
<path d="M190.911 52.4407C189.661 37.5243 177.873 24.3068 159.832 15.0052C148.596 9.20971 134.901 4.9324 119.828 2.71543C114.591 1.94431 109.185 1.42621 103.652 1.17319C100.006 1.0045 96.2958 0.956309 92.5434 1.04065C92.2042 1.04065 91.8438 1.04065 91.5046 1.06475C86.671 1.19728 81.9222 1.53465 77.3218 2.05275C61.4854 3.84801 47.1542 7.8482 35.2822 13.475C13.1706 23.9454 -0.354972 39.9702 1.10783 57.5614C2.80383 77.7792 23.8342 94.8644 53.5778 103.323C58.5598 104.744 63.7538 105.913 69.1598 106.817C76.5798 108.058 84.3602 108.793 92.3738 108.961C95.0662 109.022 97.7586 109.01 100.493 108.937C101.002 108.925 101.511 108.913 102.02 108.889C114.104 108.455 125.552 106.744 135.94 104.009C142.575 102.262 148.766 100.094 154.447 97.5754C177.916 87.1532 192.417 70.6343 190.89 52.4407H190.911Z" fill="#025A8B" stroke="#130000" stroke-width="2" stroke-miterlimit="10"/>
<path d="M29.184 67.72C27.616 67.72 26.144 67.304 24.768 66.472C23.392 65.608 22.288 64.376 21.456 62.776C20.624 61.176 20.208 59.304 20.208 57.16C20.208 55.56 20.432 54.088 20.88 52.744C21.36 51.368 22.032 50.232 22.896 49.336C24.112 48.056 25.536 47.08 27.168 46.408C28.832 45.736 30.592 45.4 32.448 45.4C33.568 45.4 34.592 45.608 35.52 46.024C36.48 46.408 36.96 47.016 36.96 47.848C36.96 48.296 36.736 48.84 36.288 49.48C35.84 50.12 35.328 50.696 34.752 51.208C34.208 51.72 33.824 51.976 33.6 51.976C33.504 51.976 33.44 51.928 33.408 51.832C33.408 51.736 33.456 51.64 33.552 51.544C33.744 51.256 33.84 50.936 33.84 50.584C33.84 49.624 33.344 48.76 32.352 47.992C31.392 47.224 30.288 46.84 29.04 46.84C28.496 46.84 27.968 46.952 27.456 47.176C26.944 47.368 26.528 47.592 26.208 47.848C25.504 48.488 24.944 49.48 24.528 50.824C24.144 52.168 23.952 53.576 23.952 55.048C23.952 57.096 24.304 58.952 25.008 60.616C25.744 62.28 26.752 63.592 28.032 64.552C29.312 65.48 30.72 65.944 32.256 65.944C33.088 65.944 33.872 65.752 34.608 65.368C35.376 64.984 36.16 64.424 36.96 63.688C37.216 63.432 37.424 63.304 37.584 63.304C37.712 63.304 37.776 63.384 37.776 63.544C37.776 63.64 37.728 63.768 37.632 63.928C36.896 64.888 35.744 65.768 34.176 66.568C32.608 67.336 30.944 67.72 29.184 67.72ZM45.1909 67.192C43.8789 67.192 43.1749 66.296 43.0789 64.504L43.0309 62.296C43.0309 61.432 43.0469 60.584 43.0789 59.752C43.1109 58.888 43.1429 58.04 43.1749 57.208C43.2709 55.512 43.3189 53.832 43.3189 52.168L43.2709 49.576C43.2389 49.032 43.0949 48.616 42.8389 48.328C42.6149 48.04 42.3269 47.896 41.9749 47.896C41.5269 47.896 41.0309 48.04 40.4869 48.328C40.3909 48.36 40.2949 48.36 40.1989 48.328C40.1349 48.296 40.1029 48.232 40.1029 48.136C40.1029 48.008 40.1669 47.896 40.2949 47.8C41.7989 46.936 43.0629 46.328 44.0869 45.976C44.3749 45.88 44.6469 45.832 44.9029 45.832C45.7349 45.832 46.3269 46.264 46.6789 47.128C47.0309 47.992 47.2069 49.016 47.2069 50.2C48.2949 48.92 49.1109 48.04 49.6549 47.56C50.3909 46.888 51.1749 46.36 52.0069 45.976C52.8389 45.592 53.5909 45.4 54.2629 45.4C54.8709 45.4 55.3669 45.56 55.7509 45.88C56.1669 46.2 56.3749 46.648 56.3749 47.224C56.3749 47.704 56.1189 48.264 55.6069 48.904C55.1269 49.544 54.5829 50.104 53.9749 50.584C53.3989 51.064 53.0309 51.304 52.8709 51.304C52.7749 51.304 52.6949 51.256 52.6309 51.16C52.5989 51.032 52.6309 50.904 52.7269 50.776C52.9829 50.424 53.1109 50.088 53.1109 49.768C53.1109 49.416 52.9829 49.096 52.7269 48.808C52.4709 48.488 52.1189 48.328 51.6709 48.328C50.7429 48.328 49.2549 49.24 47.2069 51.064C47.2069 52.28 47.1429 54.072 47.0149 56.44C46.9829 57.304 46.9509 58.184 46.9189 59.08C46.8869 59.944 46.8709 60.824 46.8709 61.72C46.8709 62.52 46.8869 63.128 46.9189 63.544C47.0149 64.632 47.4949 65.176 48.3589 65.176C48.7109 65.176 49.1429 65.048 49.6549 64.792C49.7829 64.728 49.8789 64.696 49.9429 64.696C50.0389 64.696 50.0869 64.776 50.0869 64.936C50.1189 65.064 50.0709 65.16 49.9429 65.224C47.7349 66.536 46.1509 67.192 45.1909 67.192ZM67.6796 67.72C66.0156 67.72 64.4636 67.32 63.0236 66.52C61.6156 65.688 60.4636 64.472 59.5676 62.872C58.7036 61.272 58.2716 59.368 58.2716 57.16C58.2716 55.528 58.4956 54.04 58.9436 52.696C59.4236 51.32 60.1116 50.184 61.0076 49.288C62.2556 48.04 63.6796 47.096 65.2796 46.456C66.8796 45.784 68.5276 45.448 70.2236 45.448C71.1516 45.448 71.9996 45.608 72.7676 45.928C73.5356 46.248 74.1276 46.648 74.5436 47.128C74.9916 47.608 75.2156 48.104 75.2156 48.616C75.2156 49.416 74.6396 50.344 73.4876 51.4C72.0156 52.712 70.5596 53.88 69.1196 54.904C67.7116 55.928 65.4876 57.368 62.4476 59.224C62.7676 60.504 63.3276 61.672 64.1276 62.728C64.9596 63.784 65.9516 64.6 67.1036 65.176C68.2876 65.752 69.5196 65.992 70.7996 65.896C71.6316 65.832 72.4956 65.528 73.3916 64.984C74.2876 64.44 75.0076 63.864 75.5516 63.256C75.7756 63 75.9836 62.872 76.1756 62.872C76.3036 62.872 76.3676 62.936 76.3676 63.064C76.3676 63.288 76.2076 63.576 75.8876 63.928C75.1836 64.792 74.0316 65.64 72.4316 66.472C70.8316 67.304 69.2476 67.72 67.6796 67.72ZM62.2076 58.264C64.8316 56.792 66.7676 55.576 68.0156 54.616C69.2956 53.656 70.2236 52.808 70.7996 52.072C71.2156 51.56 71.4236 50.984 71.4236 50.344C71.4236 49.672 71.1836 49.08 70.7036 48.568C70.2236 48.056 69.6316 47.672 68.9276 47.416C68.2236 47.128 67.5996 46.984 67.0556 46.984C65.9996 46.984 64.9916 47.304 64.0316 47.944C63.2956 48.424 62.7516 49.32 62.3996 50.632C62.0476 51.912 61.8716 53.32 61.8716 54.856C61.8716 56.328 61.9836 57.464 62.2076 58.264ZM84.267 67.768C82.571 67.768 81.195 67.448 80.139 66.808C79.115 66.168 78.603 65.256 78.603 64.072C78.603 62.472 80.011 60.792 82.827 59.032C83.403 58.648 84.843 57.816 87.147 56.536C89.451 55.224 91.083 54.344 92.043 53.896L92.091 52.936C92.091 51.304 91.723 49.96 90.987 48.904C90.251 47.816 89.147 47.272 87.675 47.272C86.811 47.272 86.027 47.512 85.323 47.992C84.651 48.472 84.203 49.128 83.979 49.96C83.883 50.312 83.387 50.712 82.491 51.16C81.627 51.576 80.939 51.784 80.427 51.784C80.043 51.784 79.931 51.608 80.091 51.256C80.507 50.424 81.451 49.512 82.923 48.52C84.427 47.496 85.787 46.76 87.003 46.312C88.443 45.768 89.739 45.496 90.891 45.496C92.843 45.496 94.171 46.264 94.875 47.8C95.611 49.336 95.979 51.432 95.979 54.088C95.979 54.824 95.963 55.56 95.931 56.296C95.899 57.032 95.867 57.768 95.835 58.504C95.739 59.784 95.691 61 95.691 62.152C95.691 62.792 95.707 63.256 95.739 63.544C95.771 64.6 96.251 65.128 97.179 65.128C97.467 65.128 97.755 65.08 98.043 64.984C98.363 64.856 98.587 64.776 98.715 64.744C98.843 64.744 98.907 64.824 98.907 64.984C98.939 65.112 98.891 65.208 98.763 65.272C97.931 65.72 97.051 66.152 96.123 66.568C95.195 66.984 94.459 67.192 93.915 67.192C92.795 67.192 92.107 66.52 91.851 65.176C90.795 65.944 89.691 66.568 88.539 67.048C87.419 67.528 85.995 67.768 84.267 67.768ZM87.339 66.04C88.043 66.04 88.795 65.88 89.595 65.56C90.427 65.24 91.115 64.776 91.659 64.168C91.627 62.664 91.707 60.408 91.899 57.4L92.043 54.856C90.699 55.496 88.987 56.456 86.907 57.736C84.827 58.984 83.547 59.896 83.067 60.472C82.651 60.984 82.443 61.576 82.443 62.248C82.443 63.24 82.875 64.12 83.739 64.888C84.635 65.656 85.835 66.04 87.339 66.04ZM110.206 67.624C108.318 67.624 107.006 67 106.27 65.752C105.566 64.472 105.214 62.52 105.214 59.896C105.214 59 105.246 57.496 105.31 55.384C105.374 52.76 105.406 50.488 105.406 48.568C103.518 48.568 102.03 48.792 100.942 49.24C100.782 49.304 100.67 49.288 100.606 49.192C100.574 49.096 100.606 49 100.702 48.904C101.31 48.392 102.094 47.848 103.054 47.272C104.014 46.696 104.83 46.36 105.502 46.264C105.598 43.992 106.398 42.104 107.902 40.6C108.766 39.736 109.566 39.096 110.302 38.68C110.558 38.52 110.766 38.44 110.926 38.44C111.118 38.44 111.214 38.536 111.214 38.728C111.214 38.888 111.07 39.064 110.782 39.256C110.27 39.608 109.886 40.024 109.63 40.504C109.374 40.952 109.214 41.624 109.15 42.52L109.102 46.168L115.342 46.216L117.31 46.264C117.406 46.264 117.47 46.312 117.502 46.408C117.534 46.504 117.502 46.6 117.406 46.696C117.086 47.016 116.606 47.352 115.966 47.704C115.358 48.024 114.862 48.216 114.478 48.28C113.838 48.408 112.046 48.472 109.102 48.472L109.054 54.52C109.022 55.512 109.006 56.984 109.006 58.936C109.006 60.952 109.246 62.632 109.726 63.976C110.238 65.288 111.198 65.944 112.606 65.944C113.758 65.944 114.91 65.368 116.062 64.216C116.222 64.056 116.366 63.976 116.494 63.976C116.654 63.976 116.734 64.056 116.734 64.216C116.734 64.44 116.59 64.696 116.302 64.984C115.566 65.72 114.654 66.344 113.566 66.856C112.51 67.368 111.39 67.624 110.206 67.624ZM124.137 67.24C123.497 67.24 122.985 67.016 122.601 66.568C122.217 66.12 122.009 65.448 121.977 64.552C121.945 64.136 121.929 63.496 121.929 62.632C121.929 61.512 121.993 59.8 122.121 57.496C122.249 55.256 122.313 53.576 122.313 52.456C122.313 51.304 122.281 50.44 122.217 49.864C122.153 49.352 122.041 48.984 121.881 48.76C121.721 48.536 121.449 48.424 121.065 48.424C120.777 48.424 120.425 48.504 120.009 48.664C119.913 48.696 119.833 48.696 119.769 48.664C119.705 48.6 119.673 48.536 119.673 48.472C119.673 48.344 119.721 48.264 119.817 48.232C120.489 47.848 121.465 47.352 122.745 46.744C124.057 46.104 124.905 45.784 125.289 45.784C125.801 45.784 126.073 46.072 126.105 46.648C126.137 47.032 126.153 47.624 126.153 48.424C126.153 49.832 126.089 52.008 125.961 54.952C125.833 57.96 125.769 60.152 125.769 61.528C125.769 62.456 125.785 63.128 125.817 63.544C125.913 64.6 126.409 65.128 127.305 65.128C127.657 65.128 128.121 65 128.697 64.744C128.825 64.712 128.921 64.728 128.985 64.792C129.049 64.824 129.081 64.888 129.081 64.984C129.081 65.08 129.001 65.176 128.841 65.272C126.569 66.584 125.001 67.24 124.137 67.24ZM123.369 39.928C123.177 39.928 123.001 39.832 122.841 39.64C122.169 38.872 121.577 38.248 121.065 37.768C120.905 37.608 120.825 37.448 120.825 37.288C120.825 37.064 120.921 36.904 121.113 36.808C122.361 36.168 123.417 35.688 124.281 35.368C124.473 35.304 124.601 35.272 124.665 35.272C124.857 35.272 125.065 35.384 125.289 35.608C126.537 36.856 127.161 37.672 127.161 38.056C127.161 38.216 127.081 38.344 126.921 38.44C126.633 38.6 126.137 38.824 125.433 39.112C124.761 39.4 124.153 39.656 123.609 39.88L123.369 39.928ZM140.151 67.624C140.087 67.656 139.975 67.672 139.815 67.672C139.495 67.672 139.319 67.4 139.287 66.856C139.159 64.68 138.471 61.816 137.223 58.264C136.007 54.712 134.791 51.928 133.575 49.912C132.743 48.408 131.831 47.656 130.839 47.656C130.487 47.656 130.103 47.752 129.687 47.944C129.431 48.04 129.303 47.992 129.303 47.8C129.303 47.704 129.351 47.608 129.447 47.512C129.863 47.224 130.375 46.936 130.983 46.648C131.623 46.36 132.183 46.136 132.663 45.976C133.079 45.816 133.463 45.736 133.815 45.736C135.287 45.736 136.599 46.856 137.751 49.096C138.903 51.368 139.943 53.944 140.871 56.824C141.799 59.704 142.391 62.184 142.647 64.264C144.279 62.312 145.639 60.088 146.727 57.592C147.815 55.096 148.359 52.952 148.359 51.16C148.359 50.424 148.231 49.752 147.975 49.144C147.719 48.536 147.399 48.088 147.015 47.8C146.631 47.512 146.279 47.448 145.959 47.608C145.639 47.736 145.479 47.688 145.479 47.464C145.479 47.368 145.527 47.272 145.623 47.176C146.071 46.792 146.679 46.408 147.447 46.024C148.247 45.64 148.887 45.448 149.367 45.448C149.847 45.448 150.231 45.64 150.519 46.024C150.839 46.408 150.999 46.952 150.999 47.656C150.999 49.064 150.455 51.192 149.367 54.04C148.311 56.888 146.935 59.624 145.239 62.248C143.575 64.84 141.879 66.632 140.151 67.624ZM163.961 67.72C162.297 67.72 160.745 67.32 159.305 66.52C157.897 65.688 156.745 64.472 155.849 62.872C154.985 61.272 154.553 59.368 154.553 57.16C154.553 55.528 154.777 54.04 155.225 52.696C155.705 51.32 156.393 50.184 157.289 49.288C158.537 48.04 159.961 47.096 161.561 46.456C163.161 45.784 164.809 45.448 166.505 45.448C167.433 45.448 168.281 45.608 169.049 45.928C169.817 46.248 170.409 46.648 170.825 47.128C171.273 47.608 171.497 48.104 171.497 48.616C171.497 49.416 170.921 50.344 169.769 51.4C168.297 52.712 166.841 53.88 165.401 54.904C163.993 55.928 161.769 57.368 158.729 59.224C159.049 60.504 159.609 61.672 160.409 62.728C161.241 63.784 162.233 64.6 163.385 65.176C164.569 65.752 165.801 65.992 167.081 65.896C167.913 65.832 168.777 65.528 169.673 64.984C170.569 64.44 171.289 63.864 171.833 63.256C172.057 63 172.265 62.872 172.457 62.872C172.585 62.872 172.649 62.936 172.649 63.064C172.649 63.288 172.489 63.576 172.169 63.928C171.465 64.792 170.313 65.64 168.713 66.472C167.113 67.304 165.529 67.72 163.961 67.72ZM158.489 58.264C161.113 56.792 163.049 55.576 164.297 54.616C165.577 53.656 166.505 52.808 167.081 52.072C167.497 51.56 167.705 50.984 167.705 50.344C167.705 49.672 167.465 49.08 166.985 48.568C166.505 48.056 165.913 47.672 165.209 47.416C164.505 47.128 163.881 46.984 163.337 46.984C162.281 46.984 161.273 47.304 160.313 47.944C159.577 48.424 159.033 49.32 158.681 50.632C158.329 51.912 158.153 53.32 158.153 54.856C158.153 56.328 158.265 57.464 158.489 58.264Z" fill="white"/>
</svg>
