<svg width="347" height="500" viewBox="0 0 347 500" fill="none" xmlns="http://www.w3.org/2000/svg">
<path d="M140.17 499.75C139.35 499.73 138.56 499.71 137.78 499.67L137.26 499.64C136.93 499.62 136.59 499.6 136.26 499.58C135.91 499.56 135.38 499.52 134.81 499.47C134.76 499.47 134.43 499.43 134.43 499.43C133.83 499.38 133.23 499.32 132.64 499.26L131.06 499.09C130.66 499.04 130.31 499 130.07 498.97C124.54 498.26 118.99 497.03 113.61 495.3V495.34C96.0899 490.43 79.0099 478.18 66.7399 461.73C53.3399 443.77 47.1199 422.63 49.2199 402.21C50.2099 381.72 57.6799 362.62 70.7999 346.96C72.6099 344.8 74.51 342.73 76.45 340.81C77.57 339.69 78.6299 338.68 79.6699 337.73C80.1999 337.25 80.7599 336.76 81.3499 336.25C80.9599 335.84 80.6999 335.43 80.5399 335.01C80.2099 334.12 80.06 332.73 80.08 330.52C80.09 327.01 80.5299 321.78 81.0299 315.73C81.6199 308.59 82.29 300.5 82.33 294.05C82.33 291.37 82.2299 289.14 82.0199 287.42C81.2999 281.67 76.7099 271.06 71.8499 259.82C67.4499 249.66 62.5799 238.4 59.8099 228.91C55.3899 238.98 48.2699 251.17 42.0999 258.95C40.6299 260.8 39.0199 262.74 37.2999 264.79C30.5499 272.88 22.15 282.95 17.95 294.01C14.79 302.35 16.4 311.63 17.58 318.4C18.4 323.14 18.9999 326.56 18.0599 328.91C17.1099 331.29 15.2499 332.65 12.9699 332.65C8.98992 332.65 5.01993 328.56 2.84993 322.23C-2.69007 306.07 5.34991 294.87 11.2099 286.7C11.6099 286.15 11.9999 285.6 12.3699 285.07C13.5599 283.39 15.7499 280.57 18.5299 277C28.1699 264.62 46.12 241.58 48.7 231.11C51.63 219.27 52.3499 214.95 53.1099 210.38C53.3699 208.8 53.64 207.2 54 205.27C55.42 197.69 59.4999 189.69 64.6599 188.52C72.5099 173.46 86.6299 158.43 105.59 144.96C119.31 135.21 139.61 122.11 154.68 112.68C150.81 106.1 145.12 87.74 158.21 68.4C162.04 62.75 168.02 59.0599 176 57.4299C177.4 57.1399 178.81 56.93 180.2 56.78H180.31C182.19 56.57 184.19 56.4699 186.24 56.4699C192.84 56.4699 198.99 57.5099 202.99 58.3799C203.14 58.4099 203.72 58.5399 203.72 58.5399C204.96 58.8299 205.9 59.0799 206.5 59.2399L209.58 57.8699C211.27 57.1099 213.75 55.9999 217.35 54.3799L221.64 52.45C227.19 49.97 232.99 48.7599 239.38 48.7599C243.53 48.7599 247.83 49.2699 252.55 50.3199C255.67 51.0199 258.94 51.9399 262.55 53.1299C265.67 54.1599 268.67 55.2599 271.57 56.3199C275.45 57.7399 279.11 59.0799 282.39 59.9899L282.73 60.09C284.39 60.54 285.78 60.84 287.05 61.02C287.37 61.07 287.66 61.0999 287.95 61.1299C288.77 61.2099 289.56 61.2499 290.33 61.2499C292.5 61.2499 294.54 60.9299 296.42 60.2899L296.74 60.1799C297.99 59.7399 299.15 59.16 300.21 58.46C302.05 57.24 303.55 55.6299 304.45 53.9299C304.7 53.4499 304.89 53.0099 305.04 52.5599C305.28 51.8199 305.47 51.0799 305.6 50.3699C305.97 48.4299 306.01 46.5499 305.7 44.7599C305.5 43.6099 305.17 42.4699 304.71 41.3499C303.97 39.6099 302.9 37.92 301.52 36.34C300.69 35.38 299.69 34.4199 298.56 33.4699C297.46 32.5599 296.26 31.6799 294.98 30.8699C294.51 30.5699 293.89 30.29 293.15 30.03L292.68 29.8699C291.65 29.5499 290.47 29.2799 289.15 29.0699C287.05 28.7299 284.62 28.51 281.91 28.4C280.91 28.36 279.89 28.3299 278.89 28.3199C278.43 28.3199 277.98 28.3199 277.53 28.3199C275.83 28.3199 274.14 28.35 272.5 28.4C271.08 28.45 269.74 28.51 268.56 28.58C265.26 28.78 263.02 28.9899 263 28.9899L262.19 29.0699L261.56 28.5599C251.91 20.8399 254.05 10.07 256.53 5.44995L256.92 4.71991L257.71 4.47992C262 3.17992 262.75 3.03991 266.33 2.34991L266.8 2.25995C273.1 1.02995 279.21 0.409912 284.93 0.409912C308.2 0.409912 326.45 10.46 339.17 30.28C351.93 50.15 346.04 76.7799 332.97 91.0399C329.84 94.4599 324.81 98.47 318.03 102.95C317.14 103.53 316.22 104.13 315.27 104.73C316.47 104.67 317.47 104.65 318.1 104.65C320.44 104.65 326.14 104.83 328.4 106.46C329.51 107.27 329.68 108.25 329.68 108.77C329.68 109.89 329.68 111.57 314.95 123.22C309.43 127.59 300.87 134.02 298.62 135.09C298.14 135.5 296.86 137.17 295.72 138.65C294.03 140.85 291.86 143.67 289.24 146.64C299.92 148.07 312.43 150.22 321.23 151.81C325.03 152.51 327.85 155.67 328.1 159.49C329.08 174.58 324.36 184.46 320.24 190.09C315.6 196.41 309.79 199.96 306.35 200.58C306.01 200.64 305.64 200.67 305.27 200.67C302.43 200.67 299.27 198.81 295.62 196.66C290.99 193.93 285.75 190.84 280.19 190.84C280.15 190.84 280.11 190.84 280.07 190.84C288.86 198.16 299.26 208.2 303.73 212.58C305.84 214.63 306.72 217.57 306.09 220.43C299.33 250.95 279.88 253.91 274.08 254.09C273.97 254.09 273.87 254.09 273.76 254.09C270.05 254.09 268.1 251.93 265.99 248.2C257.43 233.04 247.34 222.86 243.29 222.86C243.11 222.86 242.95 222.88 242.82 222.93C241.7 223.34 240.04 223.53 237.58 223.53C234.79 223.53 231.47 223.28 228.55 223.07C228.17 223.04 227.8 223.01 227.45 222.99L227.36 223.3L225.77 223.19C224.99 223.14 224.36 223.11 223.88 223.11H223.67C221.97 223.14 220.43 224.11 219.66 225.64L218.23 228.47L217.89 228.03C214.85 234.3 208 245.39 192.94 260.77C189.2 264.59 185.1 267.9 180.72 270.64C180.86 270.86 181.93 272.64 181.93 272.64L181.74 272.84C181.85 273.02 181.95 273.19 182.06 273.37C187.13 281.83 190.26 288.55 191.35 293.35C193.66 303.49 196.66 321.44 196.44 331C198.13 332.21 199.75 333.46 201.28 334.72L201.73 335.08C202.49 335.71 203.24 336.36 203.98 337.02C204.32 337.31 204.68 337.64 205.04 337.98C205.3 338.21 205.59 338.48 205.87 338.75C206.5 339.34 207.07 339.89 207.63 340.44C208.11 340.91 208.6 341.41 209.08 341.91C209.58 342.42 210.09 342.96 210.58 343.5C210.97 343.91 211.39 344.37 211.79 344.84C211.87 344.92 211.95 345.01 212.02 345.1C212.37 345.49 212.76 345.95 213.16 346.43C213.24 346.51 213.31 346.59 213.37 346.68C213.78 347.17 214.2 347.68 214.62 348.2C214.97 348.62 215.33 349.07 215.68 349.53C216.17 350.15 216.64 350.78 217.11 351.41L217.18 351.5C217.68 352.19 218.17 352.88 218.66 353.58C219.59 354.9 220.53 356.32 221.43 357.8C221.85 358.48 222.27 359.18 222.69 359.9C222.81 360.12 222.89 360.27 222.98 360.41C222.98 360.41 223.77 361.82 223.96 362.15L224.63 363.39C232.35 378.04 236 394.53 235.21 411.09C235.17 411.9 235.12 412.71 235.07 413.51C235.01 414.35 234.94 415.15 234.85 415.96C234.73 417.23 234.57 418.51 234.39 419.76C234.31 420.31 234.23 420.87 234.14 421.43L233.85 423.13C231.36 437.16 225.54 450.61 217.03 462.06C216.81 462.36 216.56 462.7 216.32 463.03C215.6 463.98 214.99 464.76 214.38 465.5C208.29 473.1 201.08 479.66 192.97 484.96C184.26 490.63 174.69 494.74 164.51 497.15L164.49 497.09C161.01 497.95 157.47 498.6 153.96 499.05C151.2 499.39 148.44 499.61 145.75 499.71C145.61 499.71 145.45 499.71 145.28 499.72C145.21 499.72 143.88 499.8 143.5 499.82L140.06 500L140.18 499.76L140.17 499.75ZM143.12 313.6C143.12 312.07 143.18 310.64 143.28 309.25C143.32 308.75 143.33 308.26 143.33 307.76C143.28 303.89 142.14 300.09 140.05 296.81L138.32 294.11C138.5 295.2 138.68 295.87 138.83 296.28C139.24 297.38 139.95 300.39 141.42 313.6C141.65 313.6 141.89 313.6 142.12 313.6C142.45 313.6 142.78 313.6 143.11 313.6H143.12Z" fill="#130000"/>
<path d="M233.2 411C233.16 411.8 233.11 412.6 233.06 413.39C233 414.19 232.93 414.97 232.85 415.76C232.73 417 232.58 418.24 232.4 419.47C232.31 420.11 232.21 420.74 232.11 421.38C232.03 421.85 231.95 422.32 231.87 422.79C229.36 436.92 223.6 449.86 215.42 460.86C215.19 461.18 214.95 461.5 214.71 461.82C214.1 462.63 213.48 463.43 212.83 464.22C206.79 471.62 199.62 478.04 191.6 483.22C188.8 485.03 185.89 486.69 182.89 488.19C178.12 490.58 173.12 492.56 167.94 494.08C166.7 494.45 165.45 494.79 164.19 495.1H164.18C160.75 495.95 157.26 496.61 153.7 497.06C151.06 497.39 148.38 497.61 145.67 497.7C145.49 497.71 145.32 497.71 145.14 497.71C145.1 497.72 145.06 497.72 145.02 497.72C144.49 497.74 143.96 497.75 143.42 497.76C141.59 497.78 139.74 497.76 137.88 497.67C137.4 497.64 136.91 497.62 136.43 497.58C136.04 497.56 135.54 497.52 134.99 497.47C134.85 497.46 134.71 497.44 134.57 497.43C133.87 497.37 133.11 497.29 132.41 497.22C132.12 497.19 131.84 497.16 131.58 497.13C131.08 497.07 130.64 497.02 130.35 496.98C124.63 496.25 119.1 494.98 113.78 493.24C110.39 492.13 107.1 490.83 103.91 489.35C97.55 486.4 91.61 482.75 86.17 478.5C63.67 460.92 49.76 433.04 51.22 402.35C52.21 381.68 60 362.95 72.34 348.23C74.09 346.14 75.93 344.13 77.86 342.22C78.89 341.19 79.94 340.18 81.02 339.2C84.08 336.43 87.32 333.87 90.72 331.55C99.34 325.62 109.02 321.15 119.38 318.47C124.4 317.17 129.58 316.29 134.88 315.87C136.75 315.72 138.64 315.63 140.54 315.61C142.2 315.57 143.86 315.59 145.53 315.66C145.87 315.65 146.2 315.66 146.53 315.69C151.17 315.91 155.71 316.47 160.14 317.36C175.31 320.38 189.07 327.14 200.44 336.63H200.45C201.19 337.24 201.92 337.87 202.63 338.51C202.98 338.81 203.32 339.12 203.66 339.44C203.96 339.71 204.26 339.99 204.56 340.27C205.12 340.79 205.67 341.32 206.21 341.86C206.69 342.33 207.16 342.81 207.63 343.3C208.13 343.81 208.62 344.33 209.09 344.85C209.51 345.29 209.92 345.75 210.32 346.21C210.37 346.26 210.42 346.31 210.46 346.36C210.87 346.82 211.27 347.29 211.67 347.77C211.73 347.83 211.78 347.89 211.83 347.95C212.24 348.44 212.65 348.94 213.06 349.45C213.42 349.88 213.76 350.31 214.1 350.75C214.6 351.39 215.08 352.03 215.56 352.67C216.05 353.35 216.54 354.03 217.02 354.72C217.97 356.06 218.87 357.44 219.72 358.84C220.14 359.52 220.55 360.21 220.96 360.91C221.06 361.1 221.17 361.29 221.29 361.48C221.59 362.02 221.9 362.56 222.2 363.11C222.42 363.52 222.64 363.93 222.86 364.34C230.18 378.23 234.01 394.19 233.2 411Z" fill="#F43430" stroke="#130000" stroke-width="0.81" stroke-miterlimit="10"/>
<path d="M133.72 484.47C134.47 488.98 135.37 493.36 136.43 497.58C136.04 497.56 135.54 497.52 134.99 497.47C134.85 497.46 134.71 497.44 134.57 497.43C133.87 497.37 133.11 497.29 132.41 497.22C132.12 497.19 131.84 497.16 131.58 497.13C131.08 497.07 130.64 497.02 130.35 496.98C117.54 484.95 107.46 468.2 102.48 448.95C99.24 436.44 98.14 422.88 99.86 408.88C100.39 404.54 101.19 400.15 102.28 395.75C107.55 374.45 119.58 352.59 140.55 332.24C140.83 331.96 141.81 330.98 141.81 330.98C141.81 330.98 128.47 394.37 130.67 452.69C130.73 454.28 130.8 455.87 130.89 457.45C131.37 466.72 132.28 475.82 133.72 484.47Z" fill="#025A8B" stroke="#130000" stroke-width="0.81" stroke-miterlimit="10"/>
<path d="M176.06 470.57C174.47 473 172.85 475.32 171.23 477.49C164.37 486.67 157.4 493.37 152.11 496.25C151.14 496.79 150.22 497.19 149.38 497.45C148.64 497.52 146.7 497.63 145.14 497.71C145.1 497.72 145.06 497.72 145.02 497.72C144.36 497.76 143.77 497.79 143.39 497.81C143.4 497.79 143.41 497.78 143.42 497.76C144.09 496.36 144.89 494.67 145.77 492.74C148.34 487.15 151.64 479.45 154.89 470.27C167.73 434.02 179.71 374.7 141.81 330.98C141.81 330.98 190.26 337.07 196.45 400.58C198.89 425.58 188.38 451.7 176.06 470.57Z" fill="#025A8B" stroke="#130000" stroke-width="0.81" stroke-miterlimit="10"/>
<path d="M233.2 411C233.16 411.8 233.11 412.6 233.06 413.39C233 414.19 232.93 414.97 232.85 415.76C232.73 417 232.58 418.24 232.4 419.47C232.31 420.11 232.21 420.74 232.11 421.38C232.03 421.85 231.95 422.32 231.87 422.79C229.4 436.28 223.77 449.44 215.4 460.87C215.18 461.19 214.95 461.5 214.71 461.82C214.1 462.63 213.48 463.43 212.83 464.22C206.98 471.52 199.94 478 191.87 483.28C183.63 488.65 174.32 492.76 164.04 495.2C164.09 495.17 164.13 495.14 164.18 495.1H164.19C168.72 492.02 175.35 487.35 182.34 481C186.84 476.91 191.5 472.13 195.83 466.61C210.64 447.8 221.83 420.53 211.07 383.69C192.62 320.5 143.04 330.72 141.83 330.97C142.51 330.6 161.92 320.37 200.44 336.63H200.45C201.19 337.24 201.92 337.87 202.63 338.51C202.98 338.81 203.32 339.12 203.66 339.44C203.96 339.71 204.26 339.99 204.56 340.27C205.12 340.79 205.67 341.32 206.21 341.86C206.69 342.33 207.16 342.81 207.63 343.3C208.13 343.81 208.62 344.33 209.09 344.85C209.51 345.29 209.92 345.75 210.32 346.21C210.37 346.26 210.42 346.31 210.46 346.36C210.87 346.82 211.27 347.29 211.67 347.77C211.73 347.83 211.78 347.89 211.83 347.95C212.24 348.44 212.65 348.94 213.06 349.45C213.42 349.88 213.76 350.31 214.1 350.75C214.6 351.39 215.08 352.03 215.56 352.67C216.05 353.35 216.54 354.03 217.02 354.72C217.95 356.07 218.85 357.44 219.72 358.84C220.14 359.52 220.55 360.21 220.96 360.91C221.06 361.1 221.17 361.29 221.29 361.48C221.59 362.02 221.9 362.56 222.2 363.11C222.42 363.52 222.64 363.93 222.86 364.34C230.14 378.22 233.95 394.19 233.2 411Z" fill="#025A8B" stroke="#130000" stroke-width="0.81" stroke-miterlimit="10"/>
<path d="M75.6999 374.25C56.2399 416.28 74.5899 475.83 113.78 493.24C113.9 493.29 114.02 493.35 114.14 493.4C80.3999 483.94 46.7399 445.54 51.2199 402.35C53.3499 381.82 60.3699 363.08 72.3499 348.36C74.0799 346.22 75.9199 344.18 77.8599 342.22C78.8899 341.19 79.9399 340.18 81.0199 339.2C81.7799 338.69 82.5499 338.2 83.3299 337.73C85.9099 336.18 88.4599 334.85 90.9799 333.71C107.07 326.39 121.73 326.7 131.12 328.22C137.48 329.24 141.43 330.82 141.78 330.97H141.81C136.77 331.47 132.02 332.26 127.55 333.33C113.46 336.67 102.11 342.7 93.2399 350.54C85.5999 357.28 79.8099 365.38 75.6999 374.25Z" fill="#025A8B" stroke="#130000" stroke-width="0.81" stroke-miterlimit="10"/>
<path d="M141.81 330.98C141.81 330.98 143.12 323.45 145.53 315.66C145.86 315.66 146.2 315.68 146.53 315.69C151.16 315.91 155.71 316.48 160.13 317.36C153.16 320.11 145.9 324.38 141.81 330.98Z" fill="#025A8B" stroke="#130000" stroke-width="0.81" stroke-miterlimit="10"/>
<path d="M141.81 330.98H141.79C141.79 330.98 141.79 330.97 141.78 330.97C141.42 330.78 137.55 328.81 132.62 326.13C128.46 323.86 123.56 321.1 119.38 318.47C124.4 317.17 129.58 316.29 134.88 315.87C135.33 317.51 135.85 319.21 136.46 320.9C137.8 324.59 139.54 328.21 141.81 330.98Z" fill="#025A8B" stroke="#130000" stroke-width="0.81" stroke-miterlimit="10"/>
<path d="M193.61 336.17C191.4 340.59 168.38 342.06 155.26 340.28C153.94 340.11 152.73 339.89 151.64 339.65C149.91 339.26 148.56 337.91 148.12 336.18C146.86 331.23 144.49 320.1 145.28 309.4C145.64 304.47 144.4 299.55 141.74 295.38L125.56 270.04C123.85 267.35 125.18 263.78 128.23 262.87L161.78 252.93C163.73 252.36 165.83 253.07 167.02 254.72L171.92 261.5C171.92 261.5 176.05 267.26 180.35 274.42C184.18 280.81 188.15 288.31 189.4 293.81C192.05 305.46 196.26 330.87 193.61 336.17Z" fill="#907044" stroke="#130000" stroke-width="0.81" stroke-miterlimit="10"/>
<path d="M318.64 188.91C314.11 195.08 308.73 198.12 306.01 198.61C300.18 199.67 289.59 186.96 277.41 189.08C268.48 190.63 245.62 193.04 234.04 194.21C230.31 194.59 227.06 191.69 227.01 187.94L226.64 157.36C226.6 154.03 229.1 151.24 232.41 150.92C242.46 149.96 262.7 148.02 270.53 147.24C273.77 146.92 280.17 147.49 287.5 148.43C299.35 149.96 313.64 152.47 320.89 153.78C323.76 154.31 325.93 156.71 326.12 159.62C326.99 173.07 323.25 182.62 318.64 188.91Z" fill="#907044" stroke="#130000" stroke-width="0.81" stroke-miterlimit="10"/>
<path d="M318.64 188.91C314.11 195.08 308.73 198.12 306.01 198.61C300.18 199.67 289.59 186.96 277.41 189.08C268.48 190.63 245.62 193.04 234.04 194.21C230.31 194.59 227.06 191.69 227.01 187.94L226.64 157.36C226.6 154.03 229.1 151.24 232.41 150.92C242.46 149.96 262.7 148.02 270.53 147.24C273.77 146.92 280.17 147.49 287.5 148.43C284.48 152.39 278.88 159.06 270.18 162.64C259.36 167.09 252.36 160.41 250.45 162.32C248.54 164.23 239.85 174.04 244.45 174.78C248.55 175.44 272.51 183.97 274.86 183.39C282.25 181.57 289.91 187.46 294.36 189.37C298.82 191.27 303.27 195.73 307.09 195.09C309.45 194.7 314.86 191.38 318.64 188.91Z" fill="#130000"/>
<g style="mix-blend-mode:overlay" opacity="0.4">
<path d="M215.42 460.86C215.19 461.18 214.95 461.5 214.71 461.82C214.1 462.63 213.48 463.43 212.83 464.22C206.98 471.52 199.94 478 191.87 483.28C183.63 488.65 174.32 492.76 164.04 495.2C164.09 495.17 164.13 495.14 164.18 495.1C160.75 495.95 157.26 496.61 153.7 497.06C151.06 497.39 148.38 497.61 145.67 497.7C145.49 497.71 145.32 497.71 145.14 497.71C145.1 497.72 145.06 497.72 145.02 497.72C144.36 497.76 143.77 497.79 143.39 497.81C143.4 497.79 143.41 497.78 143.42 497.76C141.59 497.78 139.74 497.76 137.88 497.67C137.4 497.64 136.91 497.62 136.43 497.58C136.04 497.56 135.54 497.52 134.99 497.47C134.85 497.46 134.71 497.44 134.57 497.43C133.87 497.37 133.11 497.29 132.41 497.22C132.12 497.19 131.84 497.16 131.58 497.13C131.08 497.07 130.64 497.02 130.35 496.98C124.63 496.25 119.1 494.98 113.78 493.24C113.9 493.29 114.02 493.35 114.14 493.4C80.3999 483.94 46.7399 445.54 51.2199 402.35C52.2099 381.68 59.9999 362.95 72.3399 348.23C74.0899 346.14 75.9299 344.13 77.8599 342.22C78.8899 341.19 79.9399 340.18 81.0199 339.2C84.0799 336.43 87.3199 333.87 90.7199 331.55C99.3399 325.62 109.02 321.15 119.38 318.47C124.4 317.17 129.58 316.29 134.88 315.87C136.75 315.72 138.64 315.63 140.54 315.61C139.34 317.12 137.97 318.9 136.46 320.9C135.26 322.5 133.97 324.25 132.62 326.13C132.12 326.81 131.62 327.51 131.12 328.22C129.96 329.85 128.77 331.56 127.55 333.33C113.72 353.64 97.1699 383.08 99.3699 405.13C99.4999 406.4 100.39 411.36 100.59 412.59C103.99 433.84 115.52 447.72 129.45 458.42C138.19 465.13 148.62 467.6 155.08 469.22C161.54 470.84 171.02 470.87 179.07 469.8C185.52 468.95 189.32 468.27 195.83 466.61C203 464.79 209.81 462.71 215.4 460.87C215.41 460.87 215.42 460.87 215.42 460.86Z" fill="#130000"/>
</g>
<path d="M179.43 272.37C175.55 276.38 171.97 279.61 164.36 282.34C155.4 285.55 144.67 280.51 144.16 288.02C143.6 296.22 152.41 302.29 151.28 307.52C150.44 311.47 144.09 322.13 153.86 340.2C152.54 340.03 152.73 340.24 151.64 340C149.91 339.61 148.56 338.26 148.12 336.53C146.86 331.58 144.49 320.45 145.28 309.75C145.64 304.82 144.4 299.9 141.74 295.73L125.56 270.39C123.85 267.7 125.18 264.13 128.23 263.22L161.78 253.28C163.73 252.71 165.83 253.42 167.02 255.07L171.92 261.85C171.92 261.85 175.13 265.21 179.43 272.37Z" fill="#130000"/>
<path d="M304.15 220C297.64 249.4 279.21 251.93 274.03 252.09C271.25 252.18 269.79 250.83 267.75 247.22C259.37 232.39 247.54 219.1 242.16 221.06C239.28 222.11 230.35 221.14 225.39 220.85C224.48 220.79 223.7 220.76 223.12 220.77C220.66 220.81 218.46 222.22 217.36 224.39C217.29 224.52 217.23 224.67 217.17 224.81C214.79 230.52 208.38 242.16 191.52 259.38C173.88 277.39 153.07 278.92 142.42 278.28C138.58 278.05 135.39 281.23 135.55 285.08C135.75 289.58 136.14 294.78 136.97 296.98C138.23 300.34 140.48 323.32 141.37 332.72C141.61 335.35 140.24 337.89 137.89 339.11C127.29 344.59 112.72 343.94 101.17 341.54C90.9699 339.41 83.1199 335.92 82.4199 334.06C80.8299 329.82 85.5999 299.63 84.0099 286.92C82.4199 274.21 63.8799 241.38 60.1799 221.78C56.4699 202.19 68.6199 173.7 106.78 146.58C122.21 135.62 144.76 121.23 157.5 113.29C160.68 111.32 163.25 109.74 164.94 108.72C166.36 107.87 168.05 107.58 169.68 107.93L175.43 109.16L247.73 124.69C251.02 125.4 253.23 128.48 252.84 131.83C251.98 139.06 250.32 151.11 248.18 157.17C247.94 157.86 247.68 158.52 247.4 159.17C246.27 161.85 244.89 164.19 243.57 166.11C241.31 169.4 242.57 173.94 246.18 175.65C252.74 178.75 261.94 182.91 266.72 184.18C273.27 185.93 294.93 206.74 302.34 214.01C303.93 215.56 304.63 217.82 304.15 220Z" fill="#907765" stroke="#130000" stroke-width="0.81" stroke-miterlimit="10"/>
<path d="M171.87 121.47C171.87 121.47 185.44 131.57 191.3 141.24C195.21 147.7 201.69 164.68 208.58 168.33C213.96 171.18 223.77 167.37 225 160.38C227.05 148.69 228.65 138.86 228.65 138.86C228.65 138.86 236.05 158.18 247.19 160.88C258.33 163.58 265.73 163.03 265.73 163.03L257.55 144.45L227.16 120.47L210.61 146.13L182.92 117.43L172.79 125.53" fill="#130000"/>
<path d="M331.52 89.6999C328.15 93.3799 322.84 97.3998 316.95 101.29C312.13 104.46 306.9 107.55 302.04 110.28C302.03 110.29 302.03 110.3 302.02 110.29C296.9 113.16 292.18 115.63 288.72 117.38C286.03 118.75 284.1 119.69 283.36 120.06C283.51 120.01 283.67 119.95 283.81 119.89C285.1 119.34 287.81 118.19 290.88 116.76C290.93 116.74 290.99 116.71 291.04 116.68C295.4 114.64 300.44 112.05 303.17 109.87C308.12 105.91 324.34 105.99 327.25 108.09C327.54 108.3 327.7 108.53 327.7 108.78C327.7 111.5 300.44 132.22 297.72 133.31C296.43 133.83 291.96 141.07 285.17 148.14C277.64 156 267.25 163.66 255.2 161.65C252.55 161.21 250.15 160.45 247.96 159.45C247.77 159.36 247.59 159.28 247.4 159.17C244.04 157.56 241.21 155.35 238.84 152.88C238.1 152.11 237.41 151.32 236.76 150.51C229.39 141.33 227.4 130.04 227.4 130.04C227.4 130.04 226.46 146.95 225.01 155.05C224.9 155.67 224.79 156.24 224.67 156.75C223.29 162.75 219.56 166.81 214.13 166.56C213.16 166.53 212.12 166.35 211.04 166.01C202.05 163.24 190.46 130.57 179.97 128.4C176.74 127.73 173.95 126.79 171.54 125.67C164.05 122.21 160.15 117.14 157.81 113.74C157.74 113.64 157.67 113.54 157.6 113.44C157.57 113.39 157.53 113.34 157.5 113.29C157.39 113.13 157.29 112.98 157.2 112.83C157.12 112.72 157.04 112.61 156.97 112.5C152.82 106.36 147.36 88.0399 159.9 69.5099C163.85 63.6799 169.93 60.7099 176.43 59.3799C177.75 59.1099 179.1 58.8999 180.44 58.7599H180.45C189.02 57.8299 197.68 59.2499 202.59 60.3199C202.84 60.3699 203.09 60.4298 203.32 60.4798C205.43 60.9698 206.68 61.3498 206.68 61.3498L210.42 59.6799C212.72 58.6399 216.45 56.9699 222.49 54.2599C232.5 49.7799 242.63 50.1399 252.15 52.2599C255.51 53.0099 258.79 53.9699 261.96 55.0199C269.31 57.4399 276.09 60.2998 281.89 61.9098C282.04 61.9498 282.18 61.9999 282.31 62.0299C283.89 62.4599 285.39 62.7898 286.81 62.9898C287.15 63.0398 287.48 63.0798 287.81 63.1098C291.37 63.4698 294.47 63.0699 297.1 62.1799H297.11C298.71 61.6499 300.13 60.9399 301.36 60.1199C303.62 58.6199 305.27 56.7398 306.26 54.8598C306.56 54.2898 306.8 53.7298 306.98 53.1698C307.24 52.3598 307.45 51.5398 307.6 50.7298C308.01 48.6098 308.06 46.4998 307.7 44.4198C307.48 43.1298 307.11 41.8499 306.59 40.5899C305.78 38.6799 304.62 36.8199 303.06 35.0299C302.14 33.9699 301.07 32.9399 299.87 31.9399C298.73 30.9899 297.47 30.0699 296.08 29.1899C295.45 28.7899 294.7 28.4499 293.84 28.1499C292.59 27.7099 291.12 27.3598 289.5 27.0998C287.21 26.7298 284.64 26.5098 282.02 26.4098C281 26.3698 279.96 26.3399 278.94 26.3299C276.7 26.3099 274.49 26.3398 272.46 26.4098C271.02 26.4598 269.67 26.5199 268.47 26.5899C265.09 26.7899 262.83 27.0099 262.83 27.0099C251.93 18.2899 258.31 6.40983 258.31 6.40983C262.68 5.08983 263.2 5.00985 267.2 4.23985C302.73 -2.69015 324.45 11.0199 337.51 31.3699C349.93 50.7199 343.51 76.6099 331.52 89.6999Z" fill="#907765" stroke="#130000" stroke-width="0.81" stroke-miterlimit="10"/>
<path d="M277.55 104.42C277.55 104.42 317.89 82.0699 328.25 68.4399C328.25 68.4399 328.8 102.24 283 120.23" fill="#FAEED5"/>
<path d="M277.55 104.42C277.55 104.42 317.89 82.0699 328.25 68.4399C328.25 68.4399 328.8 102.24 283 120.23" stroke="#130000" stroke-width="0.81" stroke-miterlimit="10"/>
<path d="M55.9999 205.64C54.5999 213.13 54.6398 215.57 50.6698 231.59C47.2398 245.44 19.4398 278.56 14.0198 286.22C8.26982 294.35 -0.820126 305.32 4.75987 321.57C7.87987 330.66 14.2698 333.03 16.2198 328.15C18.1698 323.27 10.7298 307.42 16.0898 293.28C21.4498 279.14 33.1098 267.04 40.5398 257.68C49.1198 246.87 59.6699 227.29 61.8199 217.1C63.5299 208.99 67.3198 190.16 65.5298 190.38C61.3298 190.91 57.3499 198.44 55.9999 205.62V205.64Z" fill="#130000"/>
<path d="M252.74 99.1598C255.325 99.1598 257.42 97.0645 257.42 94.4798C257.42 91.8951 255.325 89.7998 252.74 89.7998C250.155 89.7998 248.06 91.8951 248.06 94.4798C248.06 97.0645 250.155 99.1598 252.74 99.1598Z" fill="#130000"/>
<g style="mix-blend-mode:overlay" opacity="0.3">
<path d="M182.52 130.74C179.7 128.15 173.99 127.86 172.34 127.84C151.89 127.57 121.42 146.08 109.7 162.6C94.75 183.69 69.3399 213.3 81.8799 240.78C92.2199 263.44 111.3 275.66 104.08 299.72C100.66 311.14 100.48 327.45 101.17 341.77C90.9699 339.64 83.1199 336.15 82.4199 334.29C80.8299 330.05 85.5999 299.86 84.0099 287.15C82.4199 274.44 63.8799 241.61 60.1799 222.01C56.4699 202.42 68.6199 173.93 106.78 146.81C121.94 136.04 144.73 121.48 157.6 113.44C157.84 113.29 157.5 113.37 157.73 113.23C157.58 113.02 157.55 112.89 157.2 112.83C157.12 112.72 157.04 112.61 156.97 112.5C152.82 106.36 147.36 88.0398 159.9 69.5098C163.85 63.6798 169.93 60.7098 176.43 59.3798C177.75 59.1098 179.1 58.8998 180.44 58.7598C178.3 59.9498 176.53 61.1698 175.45 62.3698C155.16 85.0398 163.09 98.4898 166.7 110.02C167.42 112.31 171.95 123.17 177.82 126.07C190.32 132.25 188.91 136.57 182.52 130.74Z" fill="#130000"/>
</g>
<g style="mix-blend-mode:overlay" opacity="0.3">
<path d="M320.85 37.18C330.37 60.42 292.93 89.53 280.1 76.7C275.57 72.17 271.58 50.62 229.18 51.94C241.09 47.22 258.79 53.98 261.96 55.03C269.31 57.45 276.09 60.31 281.89 61.92C282.04 61.96 282.18 62.01 282.31 62.04C283.89 62.47 285.39 62.8 286.81 63C287.15 63.05 287.48 63.09 287.81 63.12C291.37 63.48 294.47 63.08 297.1 62.19H297.11C298.71 61.66 300.13 60.95 301.36 60.13C303.62 58.63 305.27 56.75 306.26 54.87C306.56 54.3 306.8 53.74 306.98 53.18C307.24 52.37 307.45 51.55 307.6 50.74C308.01 48.62 308.06 46.51 307.7 44.43C307.48 43.14 307.11 41.86 306.59 40.6C305.78 38.69 304.62 36.83 303.06 35.04C302.14 33.98 301.07 32.95 299.87 31.95C298.73 31 297.47 30.08 296.08 29.2C295.45 28.8 294.7 28.46 293.84 28.16C292.59 27.72 291.12 27.37 289.5 27.11C287.21 26.74 284.64 26.52 282.02 26.42C281 26.38 279.96 26.35 278.94 26.34C276.7 26.32 274.49 26.35 272.46 26.42C271.02 26.47 269.67 26.53 268.47 26.6C265.09 26.8 262.83 27.02 262.83 27.02C251.93 18.3 258.31 6.41998 258.31 6.41998C262.68 5.09998 263.2 5.02 267.2 4.25C268.02 8.03 270.43 11.82 276.48 13.24C290.11 16.45 312.34 16.41 320.85 37.18Z" fill="#130000"/>
</g>
<path d="M136.25 282.25C136.25 282.25 137.87 281.04 139.33 280.2C140.08 279.77 141.57 268.31 141.15 261.29C140.75 254.68 138.47 252.48 138.47 252.48C138.47 252.48 140.14 256.49 139.92 263.18C139.64 271.64 136.9 281.47 136.25 282.24" fill="#130000"/>
<path d="M81.2999 275.8C81.2999 275.8 83.1799 281.61 83.8699 283.86C84.7599 286.77 84.8599 297.62 84.8599 297.62C84.8599 297.62 85.2499 283.29 88.5899 282.35C88.9399 282.25 88.9999 281.79 88.6799 281.62C86.8099 280.66 83.97 278.37 82.7 275.73C81.43 273.09 76.4399 263.82 76.4399 263.82L81.2999 275.79" fill="#130000"/>
<path d="M327.25 108.09C312.65 106.13 296.24 114.37 291.04 116.68C295.4 114.64 300.44 112.05 303.17 109.87C308.12 105.91 324.34 105.99 327.25 108.09Z" fill="#130000"/>
<path d="M259.99 91.3698C260.51 91.6998 248.31 88.2298 241.83 93.9998C241.83 93.9998 245.33 81.9098 259.99 91.3698Z" fill="#130000"/>
<path d="M226.01 220.88C226.01 220.88 225.98 221 225.92 221.2C225.01 221.14 224.23 221.11 223.65 221.12C221.19 221.16 218.99 222.57 217.89 224.74C213.72 219.33 204.37 214.58 202.97 213.54C201.45 212.42 197.05 208.47 196.86 208.17C197.13 208.48 202.77 212.64 209 215.6C212.84 217.43 219.98 220.3 223.35 220.39L226.01 220.88Z" fill="#130000"/>
<path d="M318.1 60.07C314.28 55.64 309.38 54.84 306.26 54.86C306.56 54.29 306.8 53.73 306.98 53.17C307.24 52.36 307.45 51.54 307.6 50.73C316.53 52.88 318.01 59.61 318.1 60.07Z" fill="#130000"/>
<path d="M301.06 75.1899C302.19 68.8399 299.21 64.4199 297.11 62.1799C298.71 61.6499 300.13 60.9399 301.36 60.1199C306.19 68.9799 301.06 75.1899 301.06 75.1899Z" fill="#130000"/>
<path d="M287.81 63.11C287.67 75.19 279.69 78.96 279.69 78.96C283.74 72.73 283.31 66.24 282.31 62.03C283.89 62.46 285.39 62.79 286.81 62.99C287.15 63.04 287.48 63.08 287.81 63.11Z" fill="#130000"/>
<path d="M318.8 42.18C314.01 41.26 310.23 42.76 307.7 44.42C307.48 43.13 307.11 41.85 306.59 40.59C314.06 38.06 318.8 42.18 318.8 42.18Z" fill="#130000"/>
<path d="M314.24 30.6499C308.88 30.4299 305.25 32.8399 303.06 35.0299C302.14 33.9699 301.07 32.9399 299.87 31.9399C307.69 26.6199 314.24 30.6499 314.24 30.6499Z" fill="#130000"/>
<path d="M302.12 19.3299C297.17 21.4199 294.89 25.2199 293.84 28.1399C292.59 27.7099 291.12 27.3599 289.5 27.0999C294.34 18.3899 302.12 19.3299 302.12 19.3299Z" fill="#130000"/>
<path d="M282.02 26.41C281 26.37 279.96 26.3401 278.94 26.3301C279.07 18.2501 283.39 15.93 283.67 15.79C281.63 19.45 281.58 23.42 282.02 26.41Z" fill="#130000"/>
<path d="M272.46 26.4099C271.02 26.4599 269.67 26.52 268.47 26.59C264.54 19.79 267.24 15.4299 267.24 15.4299C267.46 20.4299 270.25 24.1899 272.46 26.4099Z" fill="#130000"/>
<path d="M168.99 107.01C168.99 107.01 157.9 84.8198 179.74 73.7198C190.84 68.0798 208.57 74.0498 208.57 74.0498C208.57 74.0498 168.04 64.3098 168.99 107.01Z" fill="#130000"/>
</svg>
