<svg width="346" height="500" viewBox="0 0 346 500" fill="none" xmlns="http://www.w3.org/2000/svg">
<path d="M206.203 499.58L202.762 499.4C202.392 499.38 201.052 499.31 200.982 499.3C200.812 499.3 200.652 499.3 200.512 499.29C197.822 499.2 195.053 498.98 192.303 498.63C188.803 498.19 185.263 497.53 181.773 496.67L181.752 496.73C171.572 494.31 162.003 490.21 153.293 484.54C145.183 479.23 137.972 472.68 131.882 465.08C131.282 464.34 130.663 463.56 129.943 462.61C129.693 462.28 129.442 461.95 129.232 461.64C120.722 450.19 114.903 436.74 112.413 422.71L112.122 421.01C112.032 420.45 111.952 419.89 111.872 419.34C111.692 418.09 111.533 416.81 111.413 415.54C111.333 414.73 111.263 413.93 111.193 413.09C111.143 412.29 111.093 411.48 111.053 410.67C110.253 394.11 113.912 377.61 121.632 362.97L122.303 361.73C122.483 361.39 123.283 359.99 123.283 359.99C123.373 359.85 123.453 359.7 123.573 359.48C123.993 358.77 124.413 358.06 124.833 357.38C125.733 355.9 126.662 354.47 127.602 353.16C128.092 352.46 128.583 351.77 129.083 351.08L129.153 350.99C129.623 350.36 130.103 349.73 130.583 349.11C130.943 348.65 131.293 348.2 131.643 347.78C132.063 347.26 132.483 346.75 132.893 346.26C132.963 346.18 133.032 346.1 133.102 346.01C133.502 345.53 133.902 345.07 134.242 344.68C134.312 344.6 134.392 344.51 134.472 344.42C134.882 343.95 135.293 343.49 135.683 343.08C136.173 342.54 136.683 342 137.183 341.49C137.663 340.99 138.152 340.49 138.632 340.02C139.192 339.46 139.753 338.92 140.393 338.33C140.683 338.06 140.972 337.79 141.222 337.56C141.582 337.22 141.953 336.89 142.283 336.6C143.013 335.94 143.763 335.29 144.533 334.66L144.982 334.3C146.512 333.04 148.143 331.79 149.823 330.58C149.603 321.02 152.603 303.07 154.913 292.93C156.003 288.14 159.123 281.42 164.203 272.95C164.313 272.77 164.413 272.59 164.523 272.42L164.333 272.22C164.333 272.22 165.403 270.44 165.543 270.22C161.163 267.48 157.063 264.17 153.323 260.35C138.263 244.97 131.412 233.88 128.372 227.61L128.033 228.05L126.602 225.22C125.822 223.69 124.293 222.72 122.593 222.7H122.382C121.902 222.7 121.262 222.72 120.492 222.78L118.903 222.89L118.813 222.58C118.453 222.61 118.083 222.63 117.713 222.66C114.783 222.88 111.473 223.12 108.683 223.12C106.223 223.12 104.563 222.93 103.443 222.52C103.313 222.47 103.152 222.45 102.972 222.45C98.9225 222.45 88.8425 232.63 80.2725 247.79C78.1625 251.52 76.2225 253.68 72.5025 253.68C72.4025 253.68 72.2925 253.68 72.1825 253.68C66.3825 253.5 46.9325 250.54 40.1725 220.02C39.5425 217.16 40.4325 214.23 42.5325 212.17C46.9925 207.79 57.3926 197.75 66.1926 190.43C66.1526 190.43 66.1126 190.43 66.0726 190.43C60.5126 190.43 55.2625 193.52 50.6425 196.25C46.9925 198.4 43.8325 200.26 40.9925 200.26C40.6225 200.26 40.2525 200.23 39.9125 200.17C36.4725 199.55 30.6625 196.01 26.0225 189.68C21.8925 184.05 17.1825 174.17 18.1625 159.08C18.4125 155.26 21.2325 152.1 25.0325 151.4C33.8225 149.81 46.3325 147.66 57.0225 146.23C54.4125 143.26 52.2425 140.44 50.5425 138.24C49.4025 136.76 48.1225 135.09 47.6425 134.68C45.3825 133.62 36.8325 127.18 31.3125 122.81C16.5826 111.17 16.5826 109.48 16.5826 108.36C16.5826 107.84 16.7525 106.85 17.8625 106.05C20.1225 104.42 25.8225 104.24 28.1625 104.24C28.8025 104.24 29.7925 104.25 30.9925 104.32C30.0425 103.72 29.1225 103.12 28.2325 102.54C21.4525 98.06 16.4225 94.06 13.2925 90.63C0.23253 76.37 -5.65742 49.7401 7.09258 29.8701C19.8126 10.0501 38.0626 0 61.3326 0C67.0626 0 73.1626 0.620037 79.4626 1.85004L79.9325 1.94C83.5125 2.63 84.2625 2.77001 88.5525 4.07001L89.3426 4.31L89.7325 5.04004C92.2125 9.66004 94.3526 20.43 84.7026 28.15L84.0726 28.66L83.2625 28.58C83.2625 28.58 80.9926 28.36 77.7026 28.17C76.5126 28.1 75.1825 28.0401 73.7625 27.9901C72.1325 27.9301 70.4325 27.91 68.7325 27.91C68.2825 27.91 67.8225 27.91 67.3725 27.91C66.3725 27.91 65.3525 27.9501 64.3525 27.9901C61.6425 28.0901 59.2125 28.32 57.1125 28.66C55.8025 28.87 54.6126 29.14 53.5826 29.46L53.1125 29.6201C52.3725 29.8801 51.7625 30.16 51.2825 30.46C50.0025 31.27 48.8026 32.14 47.7026 33.06C46.5626 34.01 45.5725 34.9701 44.7425 35.9301C43.3625 37.5101 42.2925 39.2 41.5525 40.94C41.0925 42.05 40.7625 43.2 40.5625 44.35C40.2525 46.14 40.2825 48.02 40.6625 49.96C40.7925 50.67 40.9825 51.41 41.2225 52.15C41.3625 52.6 41.5625 53.05 41.8125 53.52C42.7125 55.22 44.2125 56.83 46.0525 58.05C47.1125 58.76 48.2825 59.33 49.5225 59.77L49.8426 59.88C51.7126 60.51 53.7625 60.84 55.9325 60.84C56.7025 60.84 57.4925 60.8 58.3125 60.72C58.6025 60.69 58.9026 60.66 59.2126 60.61C60.4826 60.43 61.8725 60.1301 63.5325 59.6801L63.8725 59.58C67.1525 58.67 70.8126 57.33 74.6926 55.91C77.5926 54.85 80.5826 53.75 83.7126 52.72C87.3326 51.52 90.6026 50.6 93.7126 49.91C98.4326 48.86 102.742 48.35 106.882 48.35C113.272 48.35 119.072 49.56 124.622 52.04L128.913 53.97C132.523 55.59 134.993 56.7 136.683 57.46L139.762 58.83C140.362 58.67 141.313 58.42 142.543 58.13C142.543 58.13 143.123 58 143.273 57.97C147.263 57.1 153.413 56.06 160.023 56.06C162.073 56.06 164.063 56.16 165.953 56.36H166.063C167.453 56.52 168.872 56.74 170.262 57.02C178.242 58.65 184.223 62.3401 188.053 67.9901C201.143 87.3401 195.453 105.69 191.583 112.27C206.663 121.7 226.953 134.8 240.673 144.55C259.633 158.02 273.752 173.06 281.602 188.11C286.762 189.29 290.843 197.29 292.263 204.86C292.623 206.79 292.893 208.39 293.153 209.97C293.913 214.54 294.633 218.85 297.563 230.7C300.153 241.17 318.092 264.21 327.732 276.59C330.512 280.16 332.713 282.98 333.893 284.66C334.263 285.19 334.653 285.73 335.053 286.29C340.923 294.46 348.953 305.66 343.413 321.82C341.243 328.15 337.273 332.24 333.293 332.24C331.003 332.24 329.153 330.88 328.203 328.5C327.263 326.15 327.853 322.73 328.683 317.99C329.863 311.21 331.483 301.93 328.313 293.6C324.113 282.54 315.713 272.47 308.963 264.38C307.253 262.33 305.633 260.39 304.163 258.54C297.993 250.76 290.873 238.57 286.453 228.5C283.693 237.99 278.813 249.25 274.413 259.41C269.553 270.64 264.952 281.25 264.242 287.01C264.022 288.73 263.923 290.97 263.933 293.64C263.973 300.1 264.642 308.19 265.232 315.32C265.732 321.37 266.173 326.6 266.183 330.11C266.203 332.32 266.062 333.71 265.722 334.6C265.562 335.03 265.293 335.43 264.913 335.84C265.513 336.35 266.063 336.84 266.593 337.32C267.633 338.27 268.693 339.28 269.813 340.4C271.743 342.32 273.643 344.38 275.463 346.55C288.593 362.21 296.053 381.32 297.043 401.8C299.143 422.22 292.923 443.36 279.523 461.32C267.253 477.77 250.173 490.02 232.663 494.93V494.89C227.263 496.62 221.723 497.86 216.183 498.56C215.943 498.59 215.593 498.63 215.193 498.68L213.612 498.85C213.032 498.91 212.423 498.97 211.823 499.02C211.823 499.02 211.503 499.05 211.443 499.06C210.863 499.11 210.342 499.15 209.992 499.17C209.662 499.2 209.322 499.22 208.992 499.23L208.472 499.26C207.692 499.3 206.903 499.32 206.083 499.34L206.203 499.58ZM204.122 313.19C204.352 313.19 204.593 313.19 204.823 313.19C206.293 299.98 207.003 296.97 207.413 295.87C207.563 295.46 207.743 294.79 207.923 293.7L206.193 296.4C204.103 299.68 202.963 303.48 202.913 307.35C202.913 307.85 202.923 308.35 202.963 308.84C203.063 310.23 203.122 311.66 203.122 313.19C203.452 313.19 203.782 313.19 204.112 313.19H204.122Z" fill="#130000"/>
<path d="M113.036 410.578C113.076 411.378 113.126 412.178 113.176 412.968C113.236 413.768 113.306 414.548 113.386 415.338C113.506 416.578 113.655 417.818 113.835 419.048C113.925 419.688 114.026 420.318 114.126 420.958C114.206 421.428 114.285 421.898 114.365 422.368C116.875 436.498 122.636 449.438 130.816 460.438C131.046 460.758 131.286 461.078 131.526 461.398C132.136 462.208 132.756 463.008 133.406 463.798C139.446 471.198 146.616 477.618 154.636 482.798C157.436 484.608 160.345 486.268 163.345 487.768C168.115 490.158 173.116 492.138 178.296 493.658C179.536 494.028 180.786 494.368 182.046 494.678H182.056C185.486 495.528 188.976 496.188 192.536 496.638C195.176 496.968 197.856 497.188 200.566 497.278C200.746 497.288 200.915 497.288 201.095 497.288C201.135 497.298 201.175 497.298 201.215 497.298C201.745 497.318 202.276 497.328 202.816 497.338C204.646 497.358 206.495 497.338 208.355 497.248C208.835 497.218 209.326 497.198 209.806 497.158C210.196 497.138 210.695 497.098 211.245 497.048C211.385 497.038 211.526 497.018 211.666 497.008C212.366 496.948 213.125 496.868 213.825 496.798C214.115 496.768 214.396 496.738 214.656 496.708C215.156 496.648 215.596 496.598 215.886 496.558C221.606 495.828 227.135 494.558 232.455 492.818C235.845 491.708 239.135 490.408 242.325 488.928C248.685 485.978 254.626 482.328 260.066 478.078C282.566 460.498 296.476 432.618 295.016 401.928C294.026 381.258 286.236 362.528 273.896 347.808C272.146 345.718 270.306 343.708 268.376 341.798C267.346 340.768 266.295 339.758 265.215 338.778C262.155 336.008 258.916 333.448 255.516 331.128C246.896 325.198 237.215 320.728 226.855 318.048C221.835 316.748 216.655 315.868 211.355 315.448C209.485 315.298 207.595 315.208 205.695 315.188C204.035 315.148 202.375 315.168 200.705 315.238C200.365 315.228 200.035 315.238 199.705 315.268C195.065 315.488 190.525 316.048 186.095 316.938C170.925 319.958 157.166 326.718 145.796 336.208H145.786C145.046 336.818 144.315 337.448 143.605 338.088C143.255 338.388 142.915 338.698 142.575 339.018C142.275 339.288 141.976 339.568 141.676 339.848C141.116 340.368 140.566 340.898 140.026 341.438C139.546 341.908 139.075 342.388 138.605 342.878C138.105 343.388 137.616 343.908 137.146 344.428C136.726 344.868 136.316 345.328 135.916 345.788C135.866 345.838 135.816 345.888 135.776 345.938C135.366 346.398 134.966 346.868 134.566 347.348C134.506 347.408 134.456 347.468 134.406 347.528C133.996 348.018 133.586 348.518 133.176 349.028C132.816 349.458 132.476 349.888 132.136 350.328C131.636 350.968 131.156 351.608 130.676 352.248C130.186 352.928 129.695 353.608 129.215 354.298C128.265 355.638 127.366 357.018 126.516 358.418C126.096 359.098 125.686 359.788 125.276 360.488C125.176 360.678 125.065 360.868 124.945 361.058C124.645 361.598 124.336 362.138 124.036 362.688C123.816 363.098 123.596 363.508 123.376 363.918C116.056 377.808 112.226 393.768 113.036 410.578Z" fill="#F43430" stroke="#130000" stroke-width="0.81" stroke-miterlimit="10"/>
<path d="M212.516 484.048C211.766 488.558 210.866 492.938 209.806 497.158C210.196 497.138 210.695 497.098 211.245 497.048C211.385 497.038 211.526 497.018 211.666 497.008C212.366 496.948 213.125 496.868 213.825 496.798C214.115 496.768 214.396 496.738 214.656 496.708C215.156 496.648 215.595 496.598 215.885 496.558C228.695 484.528 238.775 467.778 243.755 448.528C246.995 436.018 248.095 422.458 246.375 408.458C245.845 404.118 245.045 399.728 243.955 395.328C238.685 374.028 226.656 352.168 205.686 331.818C205.406 331.538 204.426 330.558 204.426 330.558C204.426 330.558 217.766 393.948 215.566 452.268C215.506 453.858 215.435 455.448 215.345 457.028C214.865 466.298 213.956 475.398 212.516 484.048Z" fill="#025A8B" stroke="#130000" stroke-width="0.81" stroke-miterlimit="10"/>
<path d="M170.175 470.148C171.765 472.578 173.385 474.898 175.005 477.068C181.865 486.248 188.835 492.948 194.125 495.828C195.095 496.368 196.015 496.768 196.855 497.028C197.595 497.098 199.535 497.208 201.095 497.288C201.135 497.298 201.175 497.298 201.215 497.298C201.875 497.338 202.465 497.368 202.845 497.388C202.835 497.368 202.825 497.358 202.815 497.338C202.145 495.938 201.345 494.248 200.465 492.318C197.895 486.728 194.595 479.028 191.345 469.848C178.505 433.598 166.525 374.278 204.425 330.558C204.425 330.558 155.975 336.648 149.785 400.158C147.345 425.158 157.855 451.278 170.175 470.148Z" fill="#025A8B" stroke="#130000" stroke-width="0.81" stroke-miterlimit="10"/>
<path d="M113.036 410.578C113.076 411.378 113.126 412.178 113.176 412.968C113.236 413.768 113.305 414.548 113.385 415.338C113.505 416.578 113.655 417.818 113.835 419.048C113.925 419.688 114.025 420.318 114.125 420.958C114.205 421.428 114.285 421.898 114.365 422.368C116.835 435.858 122.465 449.018 130.835 460.448C131.055 460.768 131.286 461.078 131.526 461.398C132.136 462.208 132.756 463.008 133.406 463.798C139.256 471.098 146.295 477.578 154.365 482.858C162.605 488.228 171.915 492.338 182.195 494.778C182.145 494.748 182.106 494.718 182.056 494.678H182.046C177.516 491.598 170.885 486.928 163.896 480.578C159.396 476.488 154.736 471.708 150.406 466.188C135.596 447.378 124.406 420.108 135.166 383.268C153.616 320.078 203.196 330.298 204.406 330.548C203.726 330.178 184.316 319.948 145.796 336.208H145.786C145.046 336.818 144.315 337.448 143.605 338.088C143.255 338.388 142.915 338.698 142.575 339.018C142.275 339.288 141.976 339.568 141.676 339.848C141.116 340.368 140.566 340.898 140.026 341.438C139.546 341.908 139.075 342.388 138.605 342.878C138.105 343.388 137.616 343.908 137.146 344.428C136.726 344.868 136.316 345.328 135.916 345.788C135.866 345.838 135.816 345.888 135.776 345.938C135.366 346.398 134.966 346.868 134.566 347.348C134.506 347.408 134.456 347.468 134.406 347.528C133.996 348.018 133.586 348.518 133.176 349.028C132.816 349.458 132.475 349.888 132.135 350.328C131.635 350.968 131.156 351.608 130.676 352.248C130.186 352.928 129.695 353.608 129.215 354.298C128.285 355.648 127.385 357.018 126.515 358.418C126.095 359.098 125.686 359.788 125.276 360.488C125.176 360.678 125.065 360.868 124.945 361.058C124.645 361.598 124.336 362.138 124.036 362.688C123.816 363.098 123.595 363.508 123.375 363.918C116.095 377.798 112.286 393.768 113.036 410.578Z" fill="#025A8B" stroke="#130000" stroke-width="0.81" stroke-miterlimit="10"/>
<path d="M270.536 373.828C289.996 415.858 271.645 475.408 232.455 492.818C232.335 492.868 232.215 492.928 232.095 492.978C265.835 483.518 299.496 445.118 295.016 401.928C292.886 381.398 285.865 362.658 273.885 347.938C272.155 345.798 270.315 343.758 268.375 341.798C267.345 340.768 266.295 339.758 265.215 338.778C264.455 338.268 263.686 337.778 262.906 337.308C260.326 335.758 257.775 334.428 255.255 333.288C239.165 325.968 224.505 326.278 215.115 327.798C208.755 328.818 204.805 330.398 204.455 330.548H204.426C209.466 331.048 214.216 331.838 218.686 332.908C232.776 336.248 244.125 342.278 252.995 350.118C260.635 356.858 266.426 364.958 270.536 373.828Z" fill="#025A8B" stroke="#130000" stroke-width="0.81" stroke-miterlimit="10"/>
<path d="M204.416 330.558C204.416 330.558 203.105 323.028 200.695 315.238C200.365 315.238 200.025 315.258 199.695 315.268C195.065 315.488 190.515 316.058 186.095 316.938C193.065 319.688 200.326 323.958 204.416 330.558Z" fill="#025A8B" stroke="#130000" stroke-width="0.81" stroke-miterlimit="10"/>
<path d="M204.426 330.558H204.445C204.445 330.558 204.445 330.548 204.455 330.548C204.815 330.358 208.685 328.388 213.615 325.708C217.775 323.438 222.675 320.678 226.855 318.048C221.835 316.748 216.655 315.868 211.355 315.448C210.905 317.088 210.386 318.788 209.776 320.478C208.436 324.168 206.696 327.788 204.426 330.558Z" fill="#025A8B" stroke="#130000" stroke-width="0.81" stroke-miterlimit="10"/>
<path d="M152.626 335.748C154.836 340.168 177.856 341.638 190.976 339.858C192.296 339.688 193.506 339.468 194.596 339.228C196.326 338.838 197.676 337.488 198.116 335.758C199.376 330.808 201.745 319.678 200.955 308.978C200.595 304.048 201.836 299.128 204.496 294.958L220.676 269.618C222.386 266.928 221.056 263.358 218.006 262.448L184.455 252.508C182.505 251.938 180.405 252.648 179.215 254.298L174.316 261.078C174.316 261.078 170.186 266.838 165.886 273.998C162.056 280.388 158.085 287.888 156.835 293.388C154.185 305.038 149.976 330.448 152.626 335.748Z" fill="#907044" stroke="#130000" stroke-width="0.81" stroke-miterlimit="10"/>
<path d="M27.5955 188.488C32.1255 194.658 37.5055 197.698 40.2255 198.188C46.0555 199.248 56.6455 186.538 68.8255 188.658C77.7555 190.208 100.615 192.618 112.195 193.788C115.925 194.168 119.175 191.268 119.225 187.518L119.595 156.938C119.635 153.608 117.135 150.818 113.825 150.498C103.775 149.538 83.5355 147.598 75.7055 146.818C72.4655 146.498 66.0655 147.068 58.7355 148.008C46.8855 149.538 32.5955 152.048 25.3455 153.358C22.4755 153.888 20.3055 156.288 20.1155 159.198C19.2455 172.648 22.9855 182.198 27.5955 188.488Z" fill="#907044" stroke="#130000" stroke-width="0.81" stroke-miterlimit="10"/>
<path d="M27.5955 188.488C32.1255 194.658 37.5055 197.698 40.2255 198.188C46.0555 199.248 56.6454 186.538 68.8254 188.658C77.7554 190.208 100.615 192.618 112.195 193.788C115.925 194.168 119.175 191.268 119.225 187.518L119.595 156.938C119.635 153.608 117.135 150.818 113.825 150.498C103.775 149.538 83.5354 147.598 75.7054 146.818C72.4654 146.498 66.0655 147.068 58.7355 148.008C61.7555 151.968 67.3555 158.638 76.0555 162.218C86.8755 166.668 93.8755 159.988 95.7855 161.898C97.6955 163.808 106.386 173.618 101.786 174.358C97.6855 175.018 73.7255 183.548 71.3755 182.968C63.9855 181.148 56.3255 187.038 51.8755 188.948C47.4155 190.848 42.9655 195.308 39.1455 194.668C36.7855 194.278 31.3755 190.958 27.5955 188.488Z" fill="#130000"/>
<g style="mix-blend-mode:overlay" opacity="0.4">
<path d="M130.815 460.438C131.045 460.758 131.285 461.078 131.525 461.398C132.135 462.208 132.755 463.008 133.405 463.798C139.255 471.098 146.295 477.578 154.365 482.858C162.605 488.228 171.915 492.338 182.195 494.778C182.145 494.748 182.105 494.718 182.055 494.678C185.485 495.528 188.975 496.188 192.535 496.638C195.175 496.968 197.855 497.188 200.565 497.278C200.745 497.288 200.915 497.288 201.095 497.288C201.135 497.298 201.175 497.298 201.215 497.298C201.875 497.338 202.465 497.368 202.845 497.388C202.835 497.368 202.825 497.358 202.815 497.338C204.645 497.358 206.495 497.338 208.355 497.248C208.835 497.218 209.325 497.198 209.805 497.158C210.195 497.138 210.695 497.098 211.245 497.048C211.385 497.038 211.525 497.018 211.665 497.008C212.365 496.948 213.125 496.868 213.825 496.798C214.115 496.768 214.395 496.738 214.655 496.708C215.155 496.648 215.595 496.598 215.885 496.558C221.605 495.828 227.135 494.558 232.455 492.818C232.335 492.868 232.215 492.928 232.095 492.978C265.835 483.518 299.495 445.118 295.015 401.928C294.025 381.258 286.235 362.528 273.895 347.808C272.145 345.718 270.305 343.708 268.375 341.798C267.345 340.768 266.295 339.758 265.215 338.778C262.155 336.008 258.915 333.448 255.515 331.128C246.895 325.198 237.215 320.728 226.855 318.048C221.835 316.748 216.655 315.868 211.355 315.448C209.485 315.298 207.595 315.208 205.695 315.188C206.895 316.698 208.265 318.478 209.775 320.478C210.975 322.078 212.265 323.828 213.615 325.708C214.115 326.388 214.615 327.088 215.115 327.798C216.275 329.428 217.465 331.138 218.685 332.908C232.515 353.218 249.065 382.658 246.865 404.708C246.735 405.978 245.845 410.938 245.645 412.168C242.245 433.418 230.715 447.298 216.785 457.998C208.045 464.708 197.615 467.178 191.155 468.798C185.015 470.338 175.215 470.448 167.165 469.378C160.715 468.528 156.915 467.848 150.405 466.188C143.235 464.368 136.425 462.288 130.835 460.448C130.825 460.448 130.815 460.448 130.815 460.438Z" fill="#130000"/>
</g>
<path d="M166.806 271.948C170.686 275.958 174.266 279.188 181.876 281.918C190.836 285.128 201.566 280.088 202.076 287.598C202.636 295.798 193.826 301.868 194.956 307.098C195.796 311.048 202.146 321.708 192.376 339.778C193.696 339.608 193.506 339.818 194.596 339.578C196.326 339.188 197.676 337.838 198.116 336.108C199.376 331.158 201.746 320.028 200.956 309.328C200.596 304.398 201.836 299.478 204.496 295.308L220.676 269.968C222.386 267.278 221.056 263.708 218.006 262.798L184.456 252.858C182.506 252.288 180.406 252.998 179.216 254.648L174.316 261.428C174.316 261.428 171.106 264.788 166.806 271.948Z" fill="#130000"/>
<path d="M42.0855 219.578C48.5955 248.978 67.0255 251.508 72.2055 251.668C74.9855 251.758 76.4455 250.408 78.4855 246.798C86.8655 231.968 98.6955 218.678 104.075 220.638C106.955 221.688 115.886 220.718 120.846 220.428C121.756 220.368 122.536 220.338 123.116 220.348C125.576 220.388 127.776 221.798 128.876 223.968C128.946 224.098 129.006 224.248 129.066 224.388C131.446 230.098 137.855 241.738 154.715 258.958C172.355 276.968 193.166 278.498 203.816 277.858C207.656 277.628 210.846 280.808 210.686 284.658C210.486 289.158 210.096 294.358 209.266 296.558C208.006 299.918 205.756 322.898 204.866 332.298C204.626 334.928 205.996 337.468 208.346 338.688C218.946 344.168 233.516 343.518 245.066 341.118C255.266 338.988 263.116 335.498 263.816 333.638C265.406 329.398 260.636 299.208 262.226 286.498C263.816 273.788 282.356 240.958 286.056 221.358C289.766 201.768 277.615 173.278 239.455 146.158C224.025 135.198 201.476 120.808 188.736 112.868C185.556 110.898 182.986 109.318 181.296 108.298C179.876 107.448 178.186 107.158 176.556 107.508L170.806 108.738L98.5055 124.268C95.2155 124.978 93.0056 128.058 93.3956 131.408C94.2556 138.638 95.9156 150.688 98.0556 156.748C98.2956 157.438 98.5555 158.098 98.8355 158.748C99.9655 161.428 101.346 163.768 102.666 165.688C104.926 168.978 103.666 173.518 100.056 175.228C93.4956 178.328 84.2955 182.488 79.5155 183.758C72.9655 185.508 51.3056 206.318 43.8956 213.588C42.3056 215.138 41.6055 217.398 42.0855 219.578Z" fill="#907765" stroke="#130000" stroke-width="0.81" stroke-miterlimit="10"/>
<path d="M174.365 121.048C174.365 121.048 160.795 131.148 154.935 140.818C151.025 147.278 144.545 164.258 137.655 167.908C132.275 170.758 122.465 166.948 121.235 159.958C119.185 148.268 117.585 138.438 117.585 138.438C117.585 138.438 110.185 157.758 99.0454 160.458C87.9054 163.158 80.5054 162.608 80.5054 162.608L88.6854 144.028L119.075 120.048L135.625 145.708L163.315 117.008L173.445 125.108" fill="#130000"/>
<path d="M14.7155 89.2778C18.0855 92.9578 23.3955 96.9777 29.2855 100.868C34.1055 104.038 39.3355 107.128 44.1955 109.858C44.2055 109.868 44.2055 109.878 44.2155 109.868C49.3355 112.738 54.0555 115.208 57.5155 116.958C60.2055 118.328 62.1355 119.268 62.8755 119.638C62.7255 119.588 62.5656 119.528 62.4256 119.468C61.1356 118.918 58.4255 117.768 55.3555 116.338C55.3055 116.318 55.2455 116.288 55.1955 116.258C50.8355 114.218 45.7956 111.628 43.0656 109.448C38.1156 105.488 21.8955 105.568 18.9855 107.668C18.6955 107.878 18.5355 108.108 18.5355 108.358C18.5355 111.078 45.7955 131.798 48.5155 132.888C49.8055 133.408 54.2756 140.648 61.0656 147.718C68.5956 155.578 78.9855 163.238 91.0355 161.228C93.6855 160.788 96.0855 160.028 98.2755 159.028C98.4655 158.938 98.6455 158.858 98.8355 158.748C102.195 157.138 105.026 154.928 107.396 152.458C108.136 151.688 108.825 150.898 109.475 150.088C116.845 140.908 118.835 129.618 118.835 129.618C118.835 129.618 119.775 146.528 121.225 154.628C121.335 155.248 121.446 155.818 121.566 156.328C122.946 162.328 126.675 166.388 132.105 166.138C133.075 166.108 134.115 165.928 135.195 165.588C144.185 162.818 155.776 130.148 166.266 127.978C169.496 127.308 172.285 126.368 174.695 125.248C182.185 121.788 186.086 116.718 188.426 113.318C188.496 113.218 188.566 113.118 188.636 113.018C188.666 112.968 188.705 112.918 188.735 112.868C188.845 112.708 188.946 112.558 189.036 112.408C189.116 112.298 189.196 112.188 189.266 112.078C193.416 105.938 198.875 87.6178 186.335 69.0878C182.385 63.2578 176.306 60.2877 169.806 58.9577C168.486 58.6877 167.136 58.4777 165.796 58.3377H165.786C157.216 57.4077 148.556 58.8277 143.646 59.8977C143.396 59.9477 143.146 60.0077 142.916 60.0577C140.806 60.5477 139.556 60.9277 139.556 60.9277L135.816 59.2577C133.516 58.2177 129.786 56.5477 123.746 53.8377C113.736 49.3577 103.605 49.7177 94.0855 51.8377C90.7255 52.5877 87.4455 53.5478 84.2755 54.5978C76.9255 57.0178 70.1455 59.8777 64.3455 61.4877C64.1955 61.5277 64.0556 61.5778 63.9256 61.6078C62.3456 62.0378 60.8456 62.3677 59.4256 62.5677C59.0856 62.6177 58.7556 62.6577 58.4256 62.6877C54.8656 63.0477 51.7655 62.6477 49.1355 61.7577H49.1255C47.5255 61.2277 46.1055 60.5177 44.8755 59.6977C42.6155 58.1977 40.9655 56.3177 39.9755 54.4377C39.6755 53.8677 39.4355 53.3077 39.2555 52.7477C38.9955 51.9377 38.7855 51.1177 38.6355 50.3077C38.2255 48.1877 38.1755 46.0777 38.5355 43.9977C38.7555 42.7077 39.1255 41.4278 39.6455 40.1678C40.4555 38.2578 41.6156 36.3978 43.1756 34.6078C44.0956 33.5478 45.1655 32.5177 46.3655 31.5177C47.5055 30.5677 48.7655 29.6477 50.1555 28.7677C50.7855 28.3677 51.5355 28.0278 52.3955 27.7278C53.6455 27.2878 55.1155 26.9377 56.7355 26.6777C59.0255 26.3077 61.5955 26.0877 64.2155 25.9877C65.2355 25.9477 66.2756 25.9178 67.2956 25.9078C69.5356 25.8878 71.7455 25.9177 73.7755 25.9877C75.2155 26.0377 76.5655 26.0978 77.7655 26.1678C81.1455 26.3678 83.4055 26.5877 83.4055 26.5877C94.3055 17.8677 87.9256 5.98771 87.9256 5.98771C83.5556 4.66771 83.0355 4.58773 79.0355 3.81773C43.5055 -3.11227 21.7855 10.5977 8.72548 30.9477C-3.69452 50.2977 2.72547 76.1878 14.7155 89.2778Z" fill="#907765" stroke="#130000" stroke-width="0.81" stroke-miterlimit="10"/>
<path d="M68.6857 103.998C68.6857 103.998 28.3457 81.6478 17.9857 68.0178C17.9857 68.0178 17.4357 101.818 63.2357 119.808" fill="#FAEED5"/>
<path d="M68.6857 103.998C68.6857 103.998 28.3457 81.6478 17.9857 68.0178C17.9857 68.0178 17.4357 101.818 63.2357 119.808" stroke="#130000" stroke-width="0.81" stroke-miterlimit="10"/>
<path d="M290.235 205.218C291.635 212.708 291.595 215.148 295.565 231.168C298.995 245.018 326.795 278.138 332.215 285.798C337.965 293.928 347.055 304.898 341.475 321.148C338.355 330.238 331.965 332.608 330.015 327.728C328.065 322.848 335.505 306.998 330.145 292.858C324.785 278.718 313.125 266.618 305.695 257.258C297.115 246.448 286.565 226.868 284.415 216.678C282.705 208.568 278.915 189.738 280.705 189.958C284.905 190.488 288.885 198.018 290.235 205.198V205.218Z" fill="#130000"/>
<path d="M93.4954 98.7377C96.0801 98.7377 98.1754 96.6424 98.1754 94.0577C98.1754 91.473 96.0801 89.3777 93.4954 89.3777C90.9107 89.3777 88.8154 91.473 88.8154 94.0577C88.8154 96.6424 90.9107 98.7377 93.4954 98.7377Z" fill="#130000"/>
<g style="mix-blend-mode:overlay" opacity="0.3">
<path d="M163.715 130.318C166.535 127.728 172.245 127.438 173.895 127.418C194.345 127.148 224.816 145.658 236.536 162.178C251.486 183.268 276.895 212.878 264.355 240.358C254.015 263.018 234.936 275.238 242.156 299.298C245.576 310.718 245.756 327.028 245.066 341.348C255.266 339.218 263.116 335.728 263.816 333.868C265.406 329.628 260.635 299.438 262.225 286.728C263.815 274.018 282.356 241.188 286.056 221.588C289.766 201.998 277.615 173.508 239.455 146.388C224.295 135.618 201.505 121.058 188.635 113.018C188.395 112.868 188.735 112.948 188.505 112.808C188.655 112.598 188.686 112.468 189.036 112.408C189.116 112.298 189.195 112.188 189.265 112.078C193.415 105.938 198.875 87.6179 186.335 69.0879C182.385 63.2579 176.306 60.2879 169.806 58.9579C168.486 58.6879 167.136 58.4779 165.796 58.3379C167.936 59.5279 169.706 60.7479 170.786 61.9479C191.076 84.6179 183.146 98.0679 179.536 109.598C178.816 111.888 174.286 122.748 168.416 125.648C155.916 131.828 157.325 136.148 163.715 130.318Z" fill="#130000"/>
</g>
<g style="mix-blend-mode:overlay" opacity="0.3">
<path d="M25.3855 36.7576C15.8655 59.9976 53.3055 89.1076 66.1355 76.2776C70.6655 71.7476 74.6556 50.1976 117.056 51.5176C105.146 46.7976 87.4456 53.5577 84.2756 54.6077C76.9256 57.0277 70.1455 59.8876 64.3455 61.4976C64.1955 61.5376 64.0556 61.5876 63.9256 61.6176C62.3456 62.0476 60.8456 62.3776 59.4256 62.5776C59.0856 62.6276 58.7556 62.6676 58.4256 62.6976C54.8656 63.0576 51.7655 62.6576 49.1355 61.7676H49.1255C47.5255 61.2376 46.1055 60.5276 44.8755 59.7076C42.6155 58.2076 40.9655 56.3276 39.9755 54.4476C39.6755 53.8776 39.4355 53.3176 39.2555 52.7576C38.9955 51.9476 38.7855 51.1276 38.6355 50.3176C38.2255 48.1976 38.1756 46.0876 38.5356 44.0076C38.7556 42.7176 39.1256 41.4376 39.6456 40.1776C40.4556 38.2676 41.6156 36.4076 43.1756 34.6176C44.0956 33.5576 45.1655 32.5276 46.3655 31.5276C47.5055 30.5776 48.7656 29.6576 50.1556 28.7776C50.7856 28.3776 51.5355 28.0376 52.3955 27.7376C53.6455 27.2976 55.1155 26.9476 56.7355 26.6876C59.0255 26.3176 61.5955 26.0976 64.2155 25.9976C65.2355 25.9576 66.2756 25.9277 67.2956 25.9177C69.5356 25.8977 71.7456 25.9276 73.7756 25.9976C75.2156 26.0476 76.5655 26.1076 77.7655 26.1776C81.1455 26.3776 83.4056 26.5977 83.4056 26.5977C94.3056 17.8777 87.9256 5.99762 87.9256 5.99762C83.5556 4.67762 83.0356 4.59764 79.0356 3.82764C78.2156 7.60764 75.8055 11.3976 69.7555 12.8176C56.1255 16.0276 33.8955 15.9876 25.3855 36.7576Z" fill="#130000"/>
</g>
<path d="M209.985 281.828C209.985 281.828 208.366 280.618 206.906 279.778C206.156 279.348 204.665 267.888 205.085 260.868C205.485 254.258 207.766 252.058 207.766 252.058C207.766 252.058 206.096 256.068 206.316 262.758C206.596 271.218 209.335 281.048 209.985 281.818" fill="#130000"/>
<path d="M264.936 275.378C264.936 275.378 263.056 281.188 262.366 283.438C261.476 286.348 261.376 297.198 261.376 297.198C261.376 297.198 260.986 282.868 257.646 281.928C257.296 281.828 257.236 281.368 257.556 281.198C259.426 280.238 262.266 277.948 263.536 275.308C264.816 272.648 269.796 263.398 269.796 263.398L264.936 275.368" fill="#130000"/>
<path d="M18.9854 107.668C33.5854 105.708 49.9953 113.948 55.1953 116.258C50.8353 114.218 45.7954 111.628 43.0654 109.448C38.1154 105.488 21.8954 105.568 18.9854 107.668Z" fill="#130000"/>
<path d="M86.2456 90.9479C85.7256 91.2779 97.9256 87.8079 104.406 93.5779C104.406 93.5779 100.906 81.4879 86.2456 90.9479Z" fill="#130000"/>
<path d="M120.226 220.458C120.226 220.458 120.256 220.578 120.316 220.778C121.226 220.718 122.006 220.688 122.586 220.698C125.046 220.738 127.246 222.148 128.346 224.318C132.516 218.908 141.866 214.158 143.266 213.118C144.786 211.998 149.186 208.048 149.376 207.748C149.106 208.058 143.466 212.218 137.236 215.178C133.396 217.008 126.256 219.878 122.886 219.968L120.226 220.458Z" fill="#130000"/>
<path d="M28.1355 59.6479C31.9555 55.2179 36.8555 54.4179 39.9755 54.4379C39.6755 53.8679 39.4355 53.3079 39.2555 52.7479C38.9955 51.9379 38.7855 51.1179 38.6355 50.3079C29.7055 52.4579 28.2255 59.1879 28.1355 59.6479Z" fill="#130000"/>
<path d="M45.1755 74.7678C44.0455 68.4178 47.0255 63.9978 49.1255 61.7578C47.5255 61.2278 46.1055 60.5178 44.8755 59.6978C40.0455 68.5578 45.1755 74.7678 45.1755 74.7678Z" fill="#130000"/>
<path d="M58.4255 62.6879C58.5655 74.7679 66.5455 78.5379 66.5455 78.5379C62.4955 72.3079 62.9255 65.8179 63.9255 61.6079C62.3455 62.0379 60.8455 62.3679 59.4255 62.5679C59.0855 62.6179 58.7555 62.6579 58.4255 62.6879Z" fill="#130000"/>
<path d="M27.4355 41.7578C32.2255 40.8378 36.0055 42.3378 38.5355 43.9978C38.7555 42.7078 39.1255 41.4279 39.6455 40.1679C32.1755 37.6379 27.4355 41.7578 27.4355 41.7578Z" fill="#130000"/>
<path d="M31.9956 30.2278C37.3556 30.0078 40.9857 32.4178 43.1757 34.6078C44.0957 33.5478 45.1656 32.5178 46.3656 31.5178C38.5456 26.1978 31.9956 30.2278 31.9956 30.2278Z" fill="#130000"/>
<path d="M44.1155 18.9078C49.0655 20.9978 51.3455 24.7978 52.3955 27.7178C53.6455 27.2878 55.1155 26.9378 56.7355 26.6778C51.8955 17.9678 44.1155 18.9078 44.1155 18.9078Z" fill="#130000"/>
<path d="M64.2153 25.9877C65.2353 25.9477 66.2754 25.9177 67.2954 25.9077C67.1654 17.8277 62.8454 15.5077 62.5654 15.3677C64.6054 19.0277 64.6553 22.9977 64.2153 25.9877Z" fill="#130000"/>
<path d="M73.7754 25.9878C75.2154 26.0378 76.5654 26.0978 77.7654 26.1678C81.6954 19.3678 78.9954 15.0078 78.9954 15.0078C78.7754 20.0078 75.9854 23.7678 73.7754 25.9878Z" fill="#130000"/>
<path d="M177.235 106.588C177.235 106.588 188.325 84.3977 166.485 73.2977C155.385 67.6577 137.656 73.6277 137.656 73.6277C137.656 73.6277 178.185 63.8877 177.235 106.588Z" fill="#130000"/>
</svg>
