<svg width="386" height="164" viewBox="0 0 386 164" fill="none" xmlns="http://www.w3.org/2000/svg">
<path d="M270.02 162.07C260.14 162.07 252.11 154.04 252.11 144.17V137.17H18.9C9.03 137.17 1 129.14 1 119.27V43.8C1 33.93 9.03 25.9 18.9 25.9H252.11V18.9C252.11 9.03 260.14 1 270.02 1C273.48 1 276.84 2 279.76 3.89L376.21 66.52C381.31 69.83 384.36 75.45 384.36 81.53C384.36 87.61 381.31 93.23 376.21 96.54L279.76 159.17C276.84 161.06 273.48 162.06 270.02 162.06V162.07Z" fill="#F72D37" stroke="#130000" stroke-width="2" stroke-miterlimit="10"/>
<path d="M368.58 78.27L272.13 15.64C269.54 13.96 266.11 15.82 266.11 18.91V36.01C266.11 38.16 264.36 39.91 262.21 39.91H18.9C16.75 39.91 15 41.66 15 43.81V119.28C15 121.43 16.75 123.18 18.9 123.18H262.21C264.36 123.18 266.11 124.93 266.11 127.08V144.18C266.11 147.27 269.54 149.13 272.13 147.45L368.58 84.82C370.95 83.28 370.95 79.82 368.58 78.28V78.27Z" fill="#F8B733" stroke="#130000" stroke-miterlimit="10"/>
</svg>
