<svg width="1398" height="906" viewBox="0 0 1398 906" fill="none" xmlns="http://www.w3.org/2000/svg">
<mask id="mask0_211_1816" style="mask-type:luminance" maskUnits="userSpaceOnUse" x="2" y="21" width="1394" height="884">
<path d="M1268.82 903.79C1305.48 903.79 1394.23 895.71 1394.23 837.18C1394.23 746.36 1395.26 546.42 1395.26 428.14C1395.26 383.7 1383.09 351.88 1374.87 343.2C1355 322.2 1345.65 308.39 1345.76 273.87C1345.87 239.35 1341 136.64 1328.83 124.51C1316.66 112.38 1359.93 95.7699 1355.07 66.1599C1350.21 36.5499 1312.66 9.81994 1287.86 27.0099C1263.06 44.1999 1256.36 68.5799 1224.19 68.5799C1192.02 68.5799 1031.69 68.4299 1021.8 68.4299C1011.91 68.4299 979.43 39.3999 954.59 68.9199C929.75 98.4399 881.33 47.15 881.33 47.15C881.33 47.15 904.51 107.94 840.26 73.2199C776.01 38.4999 771.08 31.0899 724.05 30.9499C677.02 30.8099 597.73 36.9899 543.14 83.6799C488.55 130.38 504.71 64.0499 504.71 64.0499C504.71 64.0499 467.6 72.31 414.55 62.09C396.04 58.53 113.88 65.8199 113.88 65.8199L45.4 176.9L47.5 302.68L2.76001 364.2C2.76001 364.2 4.26001 712.7 4.26001 837.5C4.26001 863.11 37.34 904.09 103.04 904.09C179.93 904.09 1236.02 903.79 1268.82 903.79Z" fill="white"/>
</mask>
<g mask="url(#mask0_211_1816)">
<path d="M699.01 720.84L1681.3 1429.13L1803.56 1217.38L699.01 720.84Z" fill="url(#paint0_linear_211_1816)"/>
<path d="M699.01 720.84L1308.29 1767.43L1506.11 1623.71L699.01 720.84Z" fill="url(#paint1_linear_211_1816)"/>
<path d="M699.01 720.84L829.93 1924.76L1069.1 1873.92L699.01 720.84Z" fill="url(#paint2_linear_211_1816)"/>
<path d="M699.01 720.84L328.93 1873.92L568.1 1924.76L699.01 720.84Z" fill="url(#paint3_linear_211_1816)"/>
<path d="M699.01 720.84L-108.08 1623.71L89.74 1767.43L699.01 720.84Z" fill="url(#paint4_linear_211_1816)"/>
<path d="M699.01 720.84L-405.53 1217.38L-283.28 1429.13L699.01 720.84Z" fill="url(#paint5_linear_211_1816)"/>
<path d="M699.01 720.84L-512 725.19L-486.44 968.36L699.01 720.84Z" fill="url(#paint6_linear_211_1816)"/>
<path d="M699.01 720.84L-409.07 232.25L-484.63 464.79L699.01 720.84Z" fill="url(#paint7_linear_211_1816)"/>
<path d="M699.01 720.84L-114.55 -176.21L-278.16 5.50003L699.01 720.84Z" fill="url(#paint8_linear_211_1816)"/>
<path d="M699.01 720.84L320.65 -429.56L97.28 -330.11L699.01 720.84Z" fill="url(#paint9_linear_211_1816)"/>
<path d="M699.01 720.84L821.27 -484H576.76L699.01 720.84Z" fill="url(#paint10_linear_211_1816)"/>
<path d="M699.01 720.84L1300.75 -330.11L1077.38 -429.56L699.01 720.84Z" fill="url(#paint11_linear_211_1816)"/>
<path d="M699.01 720.84L1676.19 5.50003L1512.58 -176.21L699.01 720.84Z" fill="url(#paint12_linear_211_1816)"/>
<path d="M699.01 720.84L1882.66 464.79L1807.1 232.25L699.01 720.84Z" fill="url(#paint13_linear_211_1816)"/>
<path d="M699.01 720.84L1884.47 968.36L1910.03 725.19L699.01 720.84Z" fill="url(#paint14_linear_211_1816)"/>
<path d="M699.01 720.84L1681.3 1429.13L1803.56 1217.38L699.01 720.84Z" fill="url(#paint15_linear_211_1816)"/>
<path d="M699.01 720.84L1308.29 1767.43L1506.11 1623.71L699.01 720.84Z" fill="url(#paint16_linear_211_1816)"/>
<path d="M699.01 720.84L829.93 1924.76L1069.1 1873.92L699.01 720.84Z" fill="url(#paint17_linear_211_1816)"/>
<path d="M699.01 720.84L328.93 1873.92L568.1 1924.76L699.01 720.84Z" fill="url(#paint18_linear_211_1816)"/>
<path d="M699.01 720.84L-108.08 1623.71L89.74 1767.43L699.01 720.84Z" fill="url(#paint19_linear_211_1816)"/>
<path d="M699.01 720.84L-405.53 1217.38L-283.28 1429.13L699.01 720.84Z" fill="url(#paint20_linear_211_1816)"/>
<path d="M699.01 720.84L-512 725.19L-486.44 968.36L699.01 720.84Z" fill="url(#paint21_linear_211_1816)"/>
<path d="M699.01 720.84L-409.07 232.25L-484.63 464.79L699.01 720.84Z" fill="url(#paint22_linear_211_1816)"/>
<path d="M699.01 720.84L-114.55 -176.21L-278.16 5.50003L699.01 720.84Z" fill="url(#paint23_linear_211_1816)"/>
<path d="M699.01 720.84L320.65 -429.56L97.28 -330.11L699.01 720.84Z" fill="url(#paint24_linear_211_1816)"/>
<path d="M699.01 720.84L821.27 -484H576.76L699.01 720.84Z" fill="url(#paint25_linear_211_1816)"/>
</g>
<path d="M1309.12 862.35C1279.82 870.43 1135.35 866.72 1065.66 867.8C1057.37 867.79 1047.94 867.78 1037.53 867.76C1003.34 867.37 854.8 867.34 699.27 867.43C543.74 867.34 395.2 867.37 361.01 867.76C350.59 867.77 341.17 867.79 332.88 867.8C263.18 866.72 108.21 869.27 88.43 863.72C55.93 854.61 33 883.46 33 883.46C33 883.46 57.67 907.29 125.06 904.24C135.37 903.77 200.56 904.24 292.82 904.24H1105.74C1198 904.24 1263.17 904.14 1273.5 904.24C1331.59 904.79 1364.72 883.63 1364.72 883.63C1364.72 883.63 1343.99 852.73 1309.13 862.35H1309.12Z" fill="#F43430" stroke="#130000" stroke-width="2" stroke-miterlimit="10"/>
<path d="M675.4 93.3101C678.509 93.3101 681.03 90.7894 681.03 87.6801C681.03 84.5707 678.509 82.05 675.4 82.05C672.291 82.05 669.77 84.5707 669.77 87.6801C669.77 90.7894 672.291 93.3101 675.4 93.3101Z" fill="#025A8B"/>
<path d="M40.63 428.38C40.63 428.38 42.73 740.02 42.73 821.97C42.73 841.55 66.23 852.96 64.42 853.16C30.95 856.88 24.46 877 24.46 877C24.46 877 4.04999 860.89 4.04999 840.31C4.04999 744.03 2.83002 489.4 2.83002 475.59C2.83002 467.91 11.91 469.08 28.17 450.56C39.53 437.62 40.62 428.38 40.62 428.38H40.63Z" fill="#F43430" stroke="#130000" stroke-width="2" stroke-miterlimit="10"/>
<path d="M1357.6 428.38C1357.6 428.38 1355.5 740.02 1355.5 821.97C1355.5 841.55 1332 852.96 1333.81 853.16C1367.28 856.88 1373.77 877 1373.77 877C1373.77 877 1394.18 860.89 1394.18 840.31C1394.18 744.03 1395.4 489.4 1395.4 475.59C1395.4 467.91 1386.32 469.08 1370.06 450.56C1358.7 437.62 1357.61 428.38 1357.61 428.38H1357.6Z" fill="#F43430" stroke="#130000" stroke-width="2" stroke-miterlimit="10"/>
<path d="M683.73 79.4199C683.73 79.4199 657.61 94.76 649.32 95.44C641.03 96.12 556.78 167.22 556.78 167.22L563.31 251.46L553.82 302.48C553.82 302.48 563.9 335.11 580.51 338.07C597.12 341.03 655.16 352.55 666.53 353.49C677.9 354.43 736.05 353.05 747.56 351.49C759.07 349.93 830.85 338.06 836.78 328.57C842.71 319.08 821.95 257.98 823.73 250.27C825.51 242.56 852.8 186.8 845.09 173.15C837.38 159.51 755.96 131.84 753.74 116.79C751.52 101.74 724.18 83.4 715.77 80.01C707.36 76.62 683.74 79.4199 683.74 79.4199H683.73Z" fill="url(#paint26_radial_211_1816)"/>
<path d="M826.78 139.73C781.84 136.1 773.99 97.8101 760.76 84.8501C747.53 71.8901 735.45 78.1501 735.45 78.1501C735.45 78.1501 722.02 106.93 723.77 106.56C744.13 102.25 763.85 168.55 810.19 168.55C833.48 168.55 840.75 194.31 813.91 249.65C802.43 273.33 828.81 285.09 825.5 303.99C819.46 338.45 764.98 320.48 764.98 320.48C759.63 343.92 700.12 328.16 699.02 328.48C697.92 328.15 638.41 343.91 633.06 320.48C633.06 320.48 578.58 338.45 572.54 303.99C569.23 285.09 595.61 273.33 584.12 249.65C557.28 194.31 564.55 168.55 587.84 168.55C634.38 168.55 653.9 102.25 674.25 106.56C676.01 106.93 662.57 78.1501 662.57 78.1501C662.57 78.1501 650.49 71.9001 637.26 84.8501C624.03 97.8001 616.18 136.1 571.24 139.73C547.62 141.64 527.89 179.4 539.8 209.97C551.71 240.54 559.27 251.02 554.11 264.77C546.75 284.4 533.96 299.09 543.89 324.48C552.82 347.32 568 349.87 582.93 353.36C604.6 358.43 621.04 345.74 624.3 357.23C629.19 374.47 666.16 370.65 699 359.41C731.84 370.64 768.81 374.47 773.7 357.23C776.96 345.74 793.4 358.44 815.07 353.36C830 349.86 845.18 347.31 854.11 324.48C864.04 299.09 851.25 284.4 843.89 264.77C838.73 251.02 846.29 240.54 858.2 209.97C870.11 179.4 850.38 141.64 826.76 139.73H826.78Z" fill="#F43430" stroke="#130000" stroke-width="2" stroke-miterlimit="10"/>
<path d="M60.9 305.42L336.84 71.55L62.79 62.29L60.9 305.42Z" fill="url(#paint27_radial_211_1816)"/>
<path d="M1333.04 305.42L1057.09 71.55L1331.15 62.29L1333.04 305.42Z" fill="url(#paint28_radial_211_1816)"/>
<path d="M677.89 354.42C680.999 354.42 683.52 351.899 683.52 348.79C683.52 345.681 680.999 343.16 677.89 343.16C674.781 343.16 672.26 345.681 672.26 348.79C672.26 351.899 674.781 354.42 677.89 354.42Z" fill="#FAEED5"/>
<path d="M643.4 356.4C646.509 356.4 649.03 353.879 649.03 350.77C649.03 347.661 646.509 345.14 643.4 345.14C640.291 345.14 637.77 347.661 637.77 350.77C637.77 353.879 640.291 356.4 643.4 356.4Z" fill="#FAEED5"/>
<path d="M618.63 347.17C621.739 347.17 624.26 344.649 624.26 341.54C624.26 338.431 621.739 335.91 618.63 335.91C615.521 335.91 613 338.431 613 341.54C613 344.649 615.521 347.17 618.63 347.17Z" fill="#FAEED5"/>
<path d="M586.25 345.84C589.359 345.84 591.88 343.319 591.88 340.21C591.88 337.1 589.359 334.58 586.25 334.58C583.141 334.58 580.62 337.1 580.62 340.21C580.62 343.319 583.141 345.84 586.25 345.84Z" fill="#FAEED5"/>
<path d="M557.69 328.1C560.799 328.1 563.32 325.579 563.32 322.47C563.32 319.36 560.799 316.84 557.69 316.84C554.581 316.84 552.06 319.36 552.06 322.47C552.06 325.579 554.581 328.1 557.69 328.1Z" fill="#FAEED5"/>
<path d="M559.43 295.27C562.539 295.27 565.06 292.749 565.06 289.64C565.06 286.53 562.539 284.01 559.43 284.01C556.321 284.01 553.8 286.53 553.8 289.64C553.8 292.749 556.321 295.27 559.43 295.27Z" fill="#FAEED5"/>
<path d="M566.96 263.12C570.069 263.12 572.59 260.599 572.59 257.49C572.59 254.381 570.069 251.86 566.96 251.86C563.851 251.86 561.33 254.381 561.33 257.49C561.33 260.599 563.851 263.12 566.96 263.12Z" fill="#FAEED5"/>
<path d="M555.71 231.23C558.819 231.23 561.34 228.709 561.34 225.6C561.34 222.49 558.819 219.97 555.71 219.97C552.601 219.97 550.08 222.49 550.08 225.6C550.08 228.709 552.601 231.23 555.71 231.23Z" fill="#FAEED5"/>
<path d="M549.19 195.61C552.299 195.61 554.82 193.089 554.82 189.98C554.82 186.87 552.299 184.35 549.19 184.35C546.081 184.35 543.56 186.87 543.56 189.98C543.56 193.089 546.081 195.61 549.19 195.61Z" fill="#FAEED5"/>
<path d="M561.98 167.18C565.089 167.18 567.61 164.659 567.61 161.55C567.61 158.441 565.089 155.92 561.98 155.92C558.871 155.92 556.35 158.441 556.35 161.55C556.35 164.659 558.871 167.18 561.98 167.18Z" fill="#FAEED5"/>
<path d="M593.82 155.02C596.929 155.02 599.45 152.499 599.45 149.39C599.45 146.28 596.929 143.76 593.82 143.76C590.711 143.76 588.19 146.28 588.19 149.39C588.19 152.499 590.711 155.02 593.82 155.02Z" fill="#FAEED5"/>
<path d="M621.18 135.69C624.289 135.69 626.81 133.169 626.81 130.06C626.81 126.951 624.289 124.43 621.18 124.43C618.071 124.43 615.55 126.951 615.55 130.06C615.55 133.169 618.071 135.69 621.18 135.69Z" fill="#FAEED5"/>
<path d="M641.04 107.37C644.149 107.37 646.67 104.849 646.67 101.74C646.67 98.6305 644.149 96.1099 641.04 96.1099C637.931 96.1099 635.41 98.6305 635.41 101.74C635.41 104.849 637.931 107.37 641.04 107.37Z" fill="#FAEED5"/>
<path d="M1366.93 311.18C1352.21 293.8 1358.08 251.29 1356.93 200.82C1355.78 150.35 1356.65 150.84 1337.43 131.99C1336.55 131.12 1335.73 130.28 1334.97 129.45C1359.25 118.86 1376.01 94.23 1374.96 65.81C1373.71 31.77 1346.49 3.84999 1312.49 1.78999C1280.76 -0.130007 1253.46 20.15 1244.65 48.57C1221.23 50.68 1146.96 51.43 1091.85 50.7C1080.2 50.54 1061.06 61.32 1051.69 60.83C1037.4 60.08 1036.8 58.26 1022.94 49.17C993.75 30.02 960.53 41.52 942.81 59.72C924.92 78.1 872.93 38.62 872.93 38.62C877.52 55.83 873.44 94.73 838.42 62.02C790.23 17.01 737.7 13.31 699.62 20.72C699.42 20.76 698.56 20.76 698.36 20.72C660.28 13.31 607.75 17 559.56 62.02C524.54 94.73 520.46 55.83 525.05 38.62C525.05 38.62 473.07 78.1 455.17 59.72C437.45 41.52 404.22 30.01 375.04 49.17C361.18 58.27 360.58 60.08 346.29 60.83C336.93 61.32 317.78 50.55 306.14 50.7C251.04 51.43 176.77 50.69 153.34 48.57C144.53 20.15 117.23 -0.140007 85.5 1.78999C51.5 3.84999 24.29 31.78 23.03 65.81C21.98 94.23 38.74 118.85 63.02 129.45C62.27 130.28 61.45 131.12 60.56 131.99C41.34 150.84 42.21 150.34 41.06 200.82C39.91 251.29 45.79 293.8 31.06 311.18C16.7 328.13 1.20996 343.58 1.90996 383.87C2.60996 424.19 3.73998 446.57 3.73998 452.82C3.73998 452.82 38.55 432.09 38.55 399.27C38.55 364.78 38.2 353.66 52.54 339.62C69.3 323.2 75.45 320.51 75.45 278.07C75.45 235.63 76.63 176.65 76.63 165.18C76.63 154.5 91.33 151.71 95.42 134.74C124.7 132.23 148.56 110.8 154.74 82.73C193.64 81.56 301.37 81.19 305.12 83.06C309.71 85.35 339.53 104.28 368.46 90.53C413.18 69.27 419.45 71.05 443.7 89.55C462.48 103.88 482.28 104.82 496.04 94.49C496.04 94.49 491.57 122.23 521.54 120.69C557.77 118.83 588.56 61.96 634.45 53.93C680.34 45.9 691.44 53.08 684.61 61.16C683.12 62.93 661.14 71.42 655.68 85.06C651.36 95.87 658.26 109.67 670.76 108.72C678.21 108.15 682.05 100.25 682.05 100.25C682.05 100.25 681.04 120.91 698.38 120.91H700.2C717.55 120.91 715.92 100.25 715.92 100.25C715.92 100.25 719.76 108.15 727.21 108.72C739.71 109.67 746.61 95.86 742.29 85.06C736.83 71.41 714.85 62.92 713.36 61.16C706.53 53.08 717.63 45.9 763.52 53.93C809.41 61.96 840.2 118.83 876.43 120.69C906.4 122.23 901.93 94.49 901.93 94.49C915.7 104.81 935.49 103.87 954.27 89.55C978.51 71.06 984.79 69.27 1029.51 90.53C1058.44 104.28 1088.26 85.35 1092.85 83.06C1096.61 81.18 1204.33 81.56 1243.23 82.73C1249.41 110.8 1273.27 132.23 1302.55 134.74C1306.64 151.71 1321.34 154.5 1321.34 165.18C1321.34 176.65 1322.52 235.63 1322.52 278.07C1322.52 320.51 1328.67 323.2 1345.43 339.62C1359.76 353.66 1357.19 364.78 1357.19 399.27C1357.19 431.96 1394.22 452.82 1394.22 452.82C1394.22 446.57 1395.35 424.19 1396.05 383.87C1396.75 343.58 1381.25 328.13 1366.9 311.18H1366.93Z" fill="#F43430" stroke="#130000" stroke-width="2" stroke-miterlimit="10"/>
<path d="M714.66 354.42C717.769 354.42 720.29 351.899 720.29 348.79C720.29 345.681 717.769 343.16 714.66 343.16C711.551 343.16 709.03 345.681 709.03 348.79C709.03 351.899 711.551 354.42 714.66 354.42Z" fill="#FAEED5"/>
<path d="M749.15 356.4C752.259 356.4 754.78 353.879 754.78 350.77C754.78 347.661 752.259 345.14 749.15 345.14C746.041 345.14 743.52 347.661 743.52 350.77C743.52 353.879 746.041 356.4 749.15 356.4Z" fill="#FAEED5"/>
<path d="M773.92 347.17C777.029 347.17 779.55 344.649 779.55 341.54C779.55 338.431 777.029 335.91 773.92 335.91C770.811 335.91 768.29 338.431 768.29 341.54C768.29 344.649 770.811 347.17 773.92 347.17Z" fill="#FAEED5"/>
<path d="M806.31 345.84C809.419 345.84 811.94 343.319 811.94 340.21C811.94 337.1 809.419 334.58 806.31 334.58C803.201 334.58 800.68 337.1 800.68 340.21C800.68 343.319 803.201 345.84 806.31 345.84Z" fill="#FAEED5"/>
<path d="M834.86 328.1C837.969 328.1 840.49 325.579 840.49 322.47C840.49 319.36 837.969 316.84 834.86 316.84C831.751 316.84 829.23 319.36 829.23 322.47C829.23 325.579 831.751 328.1 834.86 328.1Z" fill="#FAEED5"/>
<path d="M833.12 295.27C836.229 295.27 838.75 292.749 838.75 289.64C838.75 286.53 836.229 284.01 833.12 284.01C830.011 284.01 827.49 286.53 827.49 289.64C827.49 292.749 830.011 295.27 833.12 295.27Z" fill="#FAEED5"/>
<path d="M825.59 263.12C828.699 263.12 831.22 260.599 831.22 257.49C831.22 254.381 828.699 251.86 825.59 251.86C822.481 251.86 819.96 254.381 819.96 257.49C819.96 260.599 822.481 263.12 825.59 263.12Z" fill="#FAEED5"/>
<path d="M836.84 231.23C839.949 231.23 842.47 228.709 842.47 225.6C842.47 222.49 839.949 219.97 836.84 219.97C833.731 219.97 831.21 222.49 831.21 225.6C831.21 228.709 833.731 231.23 836.84 231.23Z" fill="#FAEED5"/>
<path d="M843.36 195.61C846.469 195.61 848.99 193.089 848.99 189.98C848.99 186.87 846.469 184.35 843.36 184.35C840.251 184.35 837.73 186.87 837.73 189.98C837.73 193.089 840.251 195.61 843.36 195.61Z" fill="#FAEED5"/>
<path d="M830.57 167.18C833.679 167.18 836.2 164.659 836.2 161.55C836.2 158.441 833.679 155.92 830.57 155.92C827.461 155.92 824.94 158.441 824.94 161.55C824.94 164.659 827.461 167.18 830.57 167.18Z" fill="#FAEED5"/>
<path d="M798.73 155.02C801.839 155.02 804.36 152.499 804.36 149.39C804.36 146.28 801.839 143.76 798.73 143.76C795.621 143.76 793.1 146.28 793.1 149.39C793.1 152.499 795.621 155.02 798.73 155.02Z" fill="#FAEED5"/>
<path d="M771.37 135.69C774.479 135.69 777 133.169 777 130.06C777 126.951 774.479 124.43 771.37 124.43C768.261 124.43 765.74 126.951 765.74 130.06C765.74 133.169 768.261 135.69 771.37 135.69Z" fill="#FAEED5"/>
<path d="M751.51 107.37C754.619 107.37 757.14 104.849 757.14 101.74C757.14 98.6305 754.619 96.1099 751.51 96.1099C748.401 96.1099 745.88 98.6305 745.88 101.74C745.88 104.849 748.401 107.37 751.51 107.37Z" fill="#FAEED5"/>
<path d="M711.01 85.43L705.17 85.95C703.3 86.11 702.39 88.31 703.6 89.75L707.36 94.24L702.87 90.48C701.43 89.28 699.24 90.19 699.07 92.05L698.55 97.89L698.03 92.05C697.87 90.18 695.67 89.27 694.23 90.48L689.74 94.24L693.5 89.75C694.7 88.31 693.79 86.12 691.93 85.95L686.09 85.43L691.93 84.91C693.8 84.75 694.71 82.55 693.5 81.11L689.74 76.62L694.23 80.38C695.67 81.58 697.86 80.67 698.03 78.81L698.55 72.97L699.07 78.81C699.23 80.68 701.43 81.59 702.87 80.38L707.36 76.62L703.6 81.11C702.4 82.55 703.31 84.74 705.17 84.91L711.01 85.43Z" fill="#F8B733"/>
<path d="M142.79 68.7501L99.8 72.55L127.5 105.65L94.4 77.9401L90.6 120.93L86.8 77.9401L53.7 105.65L81.41 72.55L38.42 68.7501L81.41 64.9501L53.7 31.8401L86.8 59.55L90.6 16.5601L94.4 59.55L127.5 31.85L99.8 64.9501L142.79 68.7501Z" fill="#025A8B"/>
<path d="M142.79 68.7501L99.8 72.55L127.5 105.65L94.4 77.9401L90.6 120.93L86.8 77.9401L53.7 105.65L81.41 72.55L38.42 68.7501L81.41 64.9501L53.7 31.8401L86.8 59.55L90.6 16.5601L94.4 59.55L127.5 31.85L99.8 64.9501L142.79 68.7501Z" stroke="#130000" stroke-width="2" stroke-miterlimit="10"/>
<path d="M314.34 32.5601H180.72V40.1401H314.34V32.5601Z" fill="#025A8B" stroke="#130000" stroke-width="2" stroke-miterlimit="10"/>
<path d="M179.5 41.98C182.609 41.98 185.13 39.4593 185.13 36.35C185.13 33.2406 182.609 30.72 179.5 30.72C176.391 30.72 173.87 33.2406 173.87 36.35C173.87 39.4593 176.391 41.98 179.5 41.98Z" fill="#025A8B" stroke="#130000" stroke-width="2" stroke-miterlimit="10"/>
<path d="M315.26 41.98C318.369 41.98 320.89 39.4593 320.89 36.35C320.89 33.2406 318.369 30.72 315.26 30.72C312.151 30.72 309.63 33.2406 309.63 36.35C309.63 39.4593 312.151 41.98 315.26 41.98Z" fill="#025A8B" stroke="#130000" stroke-width="2" stroke-miterlimit="10"/>
<path d="M29.72 287.83L29.72 154.21H22.14L22.14 287.83H29.72Z" fill="#025A8B" stroke="#130000" stroke-width="2" stroke-miterlimit="10"/>
<path d="M25.93 158.62C29.0394 158.62 31.56 156.099 31.56 152.99C31.56 149.881 29.0394 147.36 25.93 147.36C22.8206 147.36 20.3 149.881 20.3 152.99C20.3 156.099 22.8206 158.62 25.93 158.62Z" fill="#025A8B" stroke="#130000" stroke-width="2" stroke-miterlimit="10"/>
<path d="M25.93 294.38C29.0394 294.38 31.56 291.859 31.56 288.75C31.56 285.641 29.0394 283.12 25.93 283.12C22.8206 283.12 20.3 285.641 20.3 288.75C20.3 291.859 22.8206 294.38 25.93 294.38Z" fill="#025A8B" stroke="#130000" stroke-width="2" stroke-miterlimit="10"/>
<path d="M92.06 1.70989C53.52 0.479889 22.02 31.9799 23.25 70.5199C24.36 105.43 52.79 133.85 87.7 134.97C126.24 136.2 157.74 104.7 156.51 66.1599C155.4 31.2499 126.97 2.82989 92.06 1.70989ZM92.3 114.82C64.68 116.22 42 93.5299 43.4 65.9199C44.6 42.2699 63.81 23.0599 87.46 21.8599C115.08 20.4599 137.76 43.1499 136.36 70.7599C135.16 94.4099 115.95 113.62 92.3 114.82Z" fill="#025A8B" stroke="#130000" stroke-width="2" stroke-miterlimit="10"/>
<path d="M1297.89 68.75L1259.61 88.73L1300.8 75.7701L1287.85 116.96L1307.83 78.69L1327.81 116.96L1314.86 75.7701L1356.05 88.73L1317.77 68.75L1356.05 48.76L1314.86 61.72L1327.81 20.53L1307.83 58.81L1287.85 20.53L1300.8 61.72L1259.61 48.76L1297.89 68.75Z" fill="#025A8B"/>
<path d="M1297.89 68.75L1259.61 88.73L1300.8 75.7701L1287.85 116.96L1307.83 78.69L1327.81 116.96L1314.86 75.7701L1356.05 88.73L1317.77 68.75L1356.05 48.76L1314.86 61.72L1327.81 20.53L1307.83 58.81L1287.85 20.53L1300.8 61.72L1259.61 48.76L1297.89 68.75Z" stroke="#130000" stroke-width="2" stroke-miterlimit="10"/>
<path d="M1084.09 40.1401L1217.71 40.1401V32.5601L1084.09 32.5601V40.1401Z" fill="#025A8B" stroke="#130000" stroke-width="2" stroke-miterlimit="10"/>
<path d="M1218.93 41.98C1222.04 41.98 1224.56 39.4593 1224.56 36.35C1224.56 33.2406 1222.04 30.72 1218.93 30.72C1215.82 30.72 1213.3 33.2406 1213.3 36.35C1213.3 39.4593 1215.82 41.98 1218.93 41.98Z" fill="#025A8B" stroke="#130000" stroke-width="2" stroke-miterlimit="10"/>
<path d="M1083.17 41.98C1086.28 41.98 1088.8 39.4593 1088.8 36.35C1088.8 33.2406 1086.28 30.72 1083.17 30.72C1080.06 30.72 1077.54 33.2406 1077.54 36.35C1077.54 39.4593 1080.06 41.98 1083.17 41.98Z" fill="#025A8B" stroke="#130000" stroke-width="2" stroke-miterlimit="10"/>
<path d="M1376.29 287.83V154.21H1368.71V287.83H1376.29Z" fill="#025A8B" stroke="#130000" stroke-width="2" stroke-miterlimit="10"/>
<path d="M1372.5 158.62C1375.61 158.62 1378.13 156.099 1378.13 152.99C1378.13 149.881 1375.61 147.36 1372.5 147.36C1369.39 147.36 1366.87 149.881 1366.87 152.99C1366.87 156.099 1369.39 158.62 1372.5 158.62Z" fill="#025A8B" stroke="#130000" stroke-width="2" stroke-miterlimit="10"/>
<path d="M1372.5 294.38C1375.61 294.38 1378.13 291.859 1378.13 288.75C1378.13 285.641 1375.61 283.12 1372.5 283.12C1369.39 283.12 1366.87 285.641 1366.87 288.75C1366.87 291.859 1369.39 294.38 1372.5 294.38Z" fill="#025A8B" stroke="#130000" stroke-width="2" stroke-miterlimit="10"/>
<path d="M84.66 888.11C87.7693 888.11 90.29 885.589 90.29 882.48C90.29 879.371 87.7693 876.85 84.66 876.85C81.5506 876.85 79.03 879.371 79.03 882.48C79.03 885.589 81.5506 888.11 84.66 888.11Z" fill="#FAEED5"/>
<path d="M130 892.23C133.109 892.23 135.63 889.709 135.63 886.6C135.63 883.491 133.109 880.97 130 880.97C126.891 880.97 124.37 883.491 124.37 886.6C124.37 889.709 126.891 892.23 130 892.23Z" fill="#FAEED5"/>
<path d="M175.49 893.02C178.599 893.02 181.12 890.499 181.12 887.39C181.12 884.281 178.599 881.76 175.49 881.76C172.381 881.76 169.86 884.281 169.86 887.39C169.86 890.499 172.381 893.02 175.49 893.02Z" fill="#FAEED5"/>
<path d="M221.01 893.02C224.119 893.02 226.64 890.499 226.64 887.39C226.64 884.281 224.119 881.76 221.01 881.76C217.901 881.76 215.38 884.281 215.38 887.39C215.38 890.499 217.901 893.02 221.01 893.02Z" fill="#FAEED5"/>
<path d="M266.54 893.02C269.649 893.02 272.17 890.499 272.17 887.39C272.17 884.281 269.649 881.76 266.54 881.76C263.431 881.76 260.91 884.281 260.91 887.39C260.91 890.499 263.431 893.02 266.54 893.02Z" fill="#FAEED5"/>
<path d="M312.07 893.02C315.179 893.02 317.7 890.499 317.7 887.39C317.7 884.281 315.179 881.76 312.07 881.76C308.961 881.76 306.44 884.281 306.44 887.39C306.44 890.499 308.961 893.02 312.07 893.02Z" fill="#FAEED5"/>
<path d="M357.59 893.02C360.699 893.02 363.22 890.499 363.22 887.39C363.22 884.281 360.699 881.76 357.59 881.76C354.481 881.76 351.96 884.281 351.96 887.39C351.96 890.499 354.481 893.02 357.59 893.02Z" fill="#FAEED5"/>
<path d="M403.12 893.02C406.229 893.02 408.75 890.499 408.75 887.39C408.75 884.281 406.229 881.76 403.12 881.76C400.011 881.76 397.49 884.281 397.49 887.39C397.49 890.499 400.011 893.02 403.12 893.02Z" fill="#FAEED5"/>
<path d="M448.64 893.02C451.749 893.02 454.27 890.499 454.27 887.39C454.27 884.281 451.749 881.76 448.64 881.76C445.531 881.76 443.01 884.281 443.01 887.39C443.01 890.499 445.531 893.02 448.64 893.02Z" fill="#FAEED5"/>
<path d="M494.17 893.02C497.279 893.02 499.8 890.499 499.8 887.39C499.8 884.281 497.279 881.76 494.17 881.76C491.061 881.76 488.54 884.281 488.54 887.39C488.54 890.499 491.061 893.02 494.17 893.02Z" fill="#FAEED5"/>
<path d="M539.7 893.02C542.809 893.02 545.33 890.499 545.33 887.39C545.33 884.281 542.809 881.76 539.7 881.76C536.591 881.76 534.07 884.281 534.07 887.39C534.07 890.499 536.591 893.02 539.7 893.02Z" fill="#FAEED5"/>
<path d="M585.22 893.02C588.329 893.02 590.85 890.499 590.85 887.39C590.85 884.281 588.329 881.76 585.22 881.76C582.111 881.76 579.59 884.281 579.59 887.39C579.59 890.499 582.111 893.02 585.22 893.02Z" fill="#FAEED5"/>
<path d="M630.75 893.02C633.859 893.02 636.38 890.499 636.38 887.39C636.38 884.281 633.859 881.76 630.75 881.76C627.641 881.76 625.12 884.281 625.12 887.39C625.12 890.499 627.641 893.02 630.75 893.02Z" fill="#FAEED5"/>
<path d="M676.27 893.02C679.379 893.02 681.9 890.499 681.9 887.39C681.9 884.281 679.379 881.76 676.27 881.76C673.161 881.76 670.64 884.281 670.64 887.39C670.64 890.499 673.161 893.02 676.27 893.02Z" fill="#FAEED5"/>
<path d="M721.8 893.02C724.909 893.02 727.43 890.499 727.43 887.39C727.43 884.281 724.909 881.76 721.8 881.76C718.691 881.76 716.17 884.281 716.17 887.39C716.17 890.499 718.691 893.02 721.8 893.02Z" fill="#FAEED5"/>
<path d="M767.32 893.02C770.429 893.02 772.95 890.499 772.95 887.39C772.95 884.281 770.429 881.76 767.32 881.76C764.211 881.76 761.69 884.281 761.69 887.39C761.69 890.499 764.211 893.02 767.32 893.02Z" fill="#FAEED5"/>
<path d="M812.85 893.02C815.959 893.02 818.48 890.499 818.48 887.39C818.48 884.281 815.959 881.76 812.85 881.76C809.741 881.76 807.22 884.281 807.22 887.39C807.22 890.499 809.741 893.02 812.85 893.02Z" fill="#FAEED5"/>
<path d="M858.38 893.02C861.489 893.02 864.01 890.499 864.01 887.39C864.01 884.281 861.489 881.76 858.38 881.76C855.271 881.76 852.75 884.281 852.75 887.39C852.75 890.499 855.271 893.02 858.38 893.02Z" fill="#FAEED5"/>
<path d="M903.9 893.02C907.009 893.02 909.53 890.499 909.53 887.39C909.53 884.281 907.009 881.76 903.9 881.76C900.791 881.76 898.27 884.281 898.27 887.39C898.27 890.499 900.791 893.02 903.9 893.02Z" fill="#FAEED5"/>
<path d="M949.43 893.02C952.539 893.02 955.06 890.499 955.06 887.39C955.06 884.281 952.539 881.76 949.43 881.76C946.321 881.76 943.8 884.281 943.8 887.39C943.8 890.499 946.321 893.02 949.43 893.02Z" fill="#FAEED5"/>
<path d="M994.95 893.02C998.059 893.02 1000.58 890.499 1000.58 887.39C1000.58 884.281 998.059 881.76 994.95 881.76C991.841 881.76 989.32 884.281 989.32 887.39C989.32 890.499 991.841 893.02 994.95 893.02Z" fill="#FAEED5"/>
<path d="M1040.48 893.02C1043.59 893.02 1046.11 890.499 1046.11 887.39C1046.11 884.281 1043.59 881.76 1040.48 881.76C1037.37 881.76 1034.85 884.281 1034.85 887.39C1034.85 890.499 1037.37 893.02 1040.48 893.02Z" fill="#FAEED5"/>
<path d="M1086.01 893.02C1089.12 893.02 1091.64 890.499 1091.64 887.39C1091.64 884.281 1089.12 881.76 1086.01 881.76C1082.9 881.76 1080.38 884.281 1080.38 887.39C1080.38 890.499 1082.9 893.02 1086.01 893.02Z" fill="#FAEED5"/>
<path d="M1131.53 893.02C1134.64 893.02 1137.16 890.499 1137.16 887.39C1137.16 884.281 1134.64 881.76 1131.53 881.76C1128.42 881.76 1125.9 884.281 1125.9 887.39C1125.9 890.499 1128.42 893.02 1131.53 893.02Z" fill="#FAEED5"/>
<path d="M1177.06 893.02C1180.17 893.02 1182.69 890.499 1182.69 887.39C1182.69 884.281 1180.17 881.76 1177.06 881.76C1173.95 881.76 1171.43 884.281 1171.43 887.39C1171.43 890.499 1173.95 893.02 1177.06 893.02Z" fill="#FAEED5"/>
<path d="M1222.58 893.02C1225.69 893.02 1228.21 890.499 1228.21 887.39C1228.21 884.281 1225.69 881.76 1222.58 881.76C1219.47 881.76 1216.95 884.281 1216.95 887.39C1216.95 890.499 1219.47 893.02 1222.58 893.02Z" fill="#FAEED5"/>
<path d="M1268.06 891.92C1271.17 891.92 1273.69 889.4 1273.69 886.29C1273.69 883.181 1271.17 880.66 1268.06 880.66C1264.95 880.66 1262.43 883.181 1262.43 886.29C1262.43 889.4 1264.95 891.92 1268.06 891.92Z" fill="#FAEED5"/>
<path d="M1313.37 887.51C1316.48 887.51 1319 884.989 1319 881.88C1319 878.771 1316.48 876.25 1313.37 876.25C1310.26 876.25 1307.74 878.771 1307.74 881.88C1307.74 884.989 1310.26 887.51 1313.37 887.51Z" fill="#FAEED5"/>
<path d="M23.05 487.64C26.1594 487.64 28.68 484.985 28.68 481.71C28.68 478.435 26.1594 475.78 23.05 475.78C19.9406 475.78 17.42 478.435 17.42 481.71C17.42 484.985 19.9406 487.64 23.05 487.64Z" fill="#FAEED5"/>
<path d="M23.05 530.78C26.1594 530.78 28.68 528.125 28.68 524.85C28.68 521.575 26.1594 518.92 23.05 518.92C19.9406 518.92 17.42 521.575 17.42 524.85C17.42 528.125 19.9406 530.78 23.05 530.78Z" fill="#FAEED5"/>
<path d="M23.05 573.91C26.1594 573.91 28.68 571.255 28.68 567.98C28.68 564.705 26.1594 562.05 23.05 562.05C19.9406 562.05 17.42 564.705 17.42 567.98C17.42 571.255 19.9406 573.91 23.05 573.91Z" fill="#FAEED5"/>
<path d="M23.05 617.05C26.1594 617.05 28.68 614.395 28.68 611.12C28.68 607.845 26.1594 605.19 23.05 605.19C19.9406 605.19 17.42 607.845 17.42 611.12C17.42 614.395 19.9406 617.05 23.05 617.05Z" fill="#FAEED5"/>
<path d="M23.05 660.18C26.1594 660.18 28.68 657.525 28.68 654.25C28.68 650.975 26.1594 648.32 23.05 648.32C19.9406 648.32 17.42 650.975 17.42 654.25C17.42 657.525 19.9406 660.18 23.05 660.18Z" fill="#FAEED5"/>
<path d="M23.05 703.32C26.1594 703.32 28.68 700.665 28.68 697.39C28.68 694.115 26.1594 691.46 23.05 691.46C19.9406 691.46 17.42 694.115 17.42 697.39C17.42 700.665 19.9406 703.32 23.05 703.32Z" fill="#FAEED5"/>
<path d="M23.05 746.45C26.1594 746.45 28.68 743.795 28.68 740.52C28.68 737.245 26.1594 734.59 23.05 734.59C19.9406 734.59 17.42 737.245 17.42 740.52C17.42 743.795 19.9406 746.45 23.05 746.45Z" fill="#FAEED5"/>
<path d="M23.05 789.59C26.1594 789.59 28.68 786.935 28.68 783.66C28.68 780.385 26.1594 777.73 23.05 777.73C19.9406 777.73 17.42 780.385 17.42 783.66C17.42 786.935 19.9406 789.59 23.05 789.59Z" fill="#FAEED5"/>
<path d="M23.05 832.72C26.1594 832.72 28.68 830.065 28.68 826.79C28.68 823.515 26.1594 820.86 23.05 820.86C19.9406 820.86 17.42 823.515 17.42 826.79C17.42 830.065 19.9406 832.72 23.05 832.72Z" fill="#FAEED5"/>
<path d="M1375.18 487.64C1378.29 487.64 1380.81 484.985 1380.81 481.71C1380.81 478.435 1378.29 475.78 1375.18 475.78C1372.07 475.78 1369.55 478.435 1369.55 481.71C1369.55 484.985 1372.07 487.64 1375.18 487.64Z" fill="#FAEED5"/>
<path d="M1375.18 530.78C1378.29 530.78 1380.81 528.125 1380.81 524.85C1380.81 521.575 1378.29 518.92 1375.18 518.92C1372.07 518.92 1369.55 521.575 1369.55 524.85C1369.55 528.125 1372.07 530.78 1375.18 530.78Z" fill="#FAEED5"/>
<path d="M1375.18 573.91C1378.29 573.91 1380.81 571.255 1380.81 567.98C1380.81 564.705 1378.29 562.05 1375.18 562.05C1372.07 562.05 1369.55 564.705 1369.55 567.98C1369.55 571.255 1372.07 573.91 1375.18 573.91Z" fill="#FAEED5"/>
<path d="M1375.18 617.05C1378.29 617.05 1380.81 614.395 1380.81 611.12C1380.81 607.845 1378.29 605.19 1375.18 605.19C1372.07 605.19 1369.55 607.845 1369.55 611.12C1369.55 614.395 1372.07 617.05 1375.18 617.05Z" fill="#FAEED5"/>
<path d="M1375.18 660.18C1378.29 660.18 1380.81 657.525 1380.81 654.25C1380.81 650.975 1378.29 648.32 1375.18 648.32C1372.07 648.32 1369.55 650.975 1369.55 654.25C1369.55 657.525 1372.07 660.18 1375.18 660.18Z" fill="#FAEED5"/>
<path d="M1375.18 703.32C1378.29 703.32 1380.81 700.665 1380.81 697.39C1380.81 694.115 1378.29 691.46 1375.18 691.46C1372.07 691.46 1369.55 694.115 1369.55 697.39C1369.55 700.665 1372.07 703.32 1375.18 703.32Z" fill="#FAEED5"/>
<path d="M1375.18 746.45C1378.29 746.45 1380.81 743.795 1380.81 740.52C1380.81 737.245 1378.29 734.59 1375.18 734.59C1372.07 734.59 1369.55 737.245 1369.55 740.52C1369.55 743.795 1372.07 746.45 1375.18 746.45Z" fill="#FAEED5"/>
<path d="M1375.18 789.59C1378.29 789.59 1380.81 786.935 1380.81 783.66C1380.81 780.385 1378.29 777.73 1375.18 777.73C1372.07 777.73 1369.55 780.385 1369.55 783.66C1369.55 786.935 1372.07 789.59 1375.18 789.59Z" fill="#FAEED5"/>
<path d="M1375.18 832.72C1378.29 832.72 1380.81 830.065 1380.81 826.79C1380.81 823.515 1378.29 820.86 1375.18 820.86C1372.07 820.86 1369.55 823.515 1369.55 826.79C1369.55 830.065 1372.07 832.72 1375.18 832.72Z" fill="#FAEED5"/>
<path d="M699.01 69.1601C702.119 69.1601 704.64 66.6395 704.64 63.5302C704.64 60.4208 702.119 57.9001 699.01 57.9001C695.901 57.9001 693.38 60.4208 693.38 63.5302C693.38 66.6395 695.901 69.1601 699.01 69.1601Z" fill="#FAEED5"/>
<path d="M726.37 95.4802C729.479 95.4802 732 92.9596 732 89.8502C732 86.7409 729.479 84.2202 726.37 84.2202C723.261 84.2202 720.74 86.7409 720.74 89.8502C720.74 92.9596 723.261 95.4802 726.37 95.4802Z" fill="#FAEED5"/>
<path d="M670.9 95.4802C674.009 95.4802 676.53 92.9596 676.53 89.8502C676.53 86.7409 674.009 84.2202 670.9 84.2202C667.791 84.2202 665.27 86.7409 665.27 89.8502C665.27 92.9596 667.791 95.4802 670.9 95.4802Z" fill="#FAEED5"/>
<path d="M699.01 112.96C702.119 112.96 704.64 110.44 704.64 107.33C704.64 104.221 702.119 101.7 699.01 101.7C695.901 101.7 693.38 104.221 693.38 107.33C693.38 110.44 695.901 112.96 699.01 112.96Z" fill="#FAEED5"/>
<path d="M16.53 417.28C19.6394 417.28 22.16 414.76 22.16 411.65C22.16 408.541 19.6394 406.02 16.53 406.02C13.4207 406.02 10.9 408.541 10.9 411.65C10.9 414.76 13.4207 417.28 16.53 417.28Z" fill="#FAEED5"/>
<path d="M20.83 370.17C23.9394 370.17 26.46 367.65 26.46 364.54C26.46 361.431 23.9394 358.91 20.83 358.91C17.7207 358.91 15.2 361.431 15.2 364.54C15.2 367.65 17.7207 370.17 20.83 370.17Z" fill="#FAEED5"/>
<path d="M47.53 329.21C50.6394 329.21 53.16 326.69 53.16 323.58C53.16 320.471 50.6394 317.95 47.53 317.95C44.4207 317.95 41.9 320.471 41.9 323.58C41.9 326.69 44.4207 329.21 47.53 329.21Z" fill="#FAEED5"/>
<path d="M59.37 286.42C62.4794 286.42 65 283.9 65 280.79C65 277.681 62.4794 275.16 59.37 275.16C56.2606 275.16 53.74 277.681 53.74 280.79C53.74 283.9 56.2606 286.42 59.37 286.42Z" fill="#FAEED5"/>
<path d="M59.77 237.64C62.8794 237.64 65.4 235.12 65.4 232.01C65.4 228.901 62.8794 226.38 59.77 226.38C56.6607 226.38 54.14 228.901 54.14 232.01C54.14 235.12 56.6607 237.64 59.77 237.64Z" fill="#FAEED5"/>
<path d="M59.43 187.33C62.5394 187.33 65.06 184.81 65.06 181.7C65.06 178.591 62.5394 176.07 59.43 176.07C56.3206 176.07 53.8 178.591 53.8 181.7C53.8 184.81 56.3206 187.33 59.43 187.33Z" fill="#FAEED5"/>
<path d="M70.96 148.27C74.0694 148.27 76.59 145.75 76.59 142.64C76.59 139.531 74.0694 137.01 70.96 137.01C67.8507 137.01 65.33 139.531 65.33 142.64C65.33 145.75 67.8507 148.27 70.96 148.27Z" fill="#FAEED5"/>
<path d="M669.59 39.6301C672.699 39.6301 675.22 37.1095 675.22 34.0001C675.22 30.8908 672.699 28.3701 669.59 28.3701C666.481 28.3701 663.96 30.8908 663.96 34.0001C663.96 37.1095 666.481 39.6301 669.59 39.6301Z" fill="#FAEED5"/>
<path d="M618.44 45.6702C621.549 45.6702 624.07 43.1495 624.07 40.0402C624.07 36.9308 621.549 34.4102 618.44 34.4102C615.331 34.4102 612.81 36.9308 612.81 40.0402C612.81 43.1495 615.331 45.6702 618.44 45.6702Z" fill="#FAEED5"/>
<path d="M576.22 76.9802C579.329 76.9802 581.85 74.4596 581.85 71.3502C581.85 68.2409 579.329 65.7202 576.22 65.7202C573.111 65.7202 570.59 68.2409 570.59 71.3502C570.59 74.4596 573.111 76.9802 576.22 76.9802Z" fill="#FAEED5"/>
<path d="M530.25 101.15C533.359 101.15 535.88 98.6295 535.88 95.5201C535.88 92.4108 533.359 89.8901 530.25 89.8901C527.141 89.8901 524.62 92.4108 524.62 95.5201C524.62 98.6295 527.141 101.15 530.25 101.15Z" fill="#FAEED5"/>
<path d="M510.51 76.3601C513.619 76.3601 516.14 73.8395 516.14 70.7301C516.14 67.6207 513.619 65.1001 510.51 65.1001C507.401 65.1001 504.88 67.6207 504.88 70.7301C504.88 73.8395 507.401 76.3601 510.51 76.3601Z" fill="#FAEED5"/>
<path d="M472.36 87.4502C475.469 87.4502 477.99 84.9296 477.99 81.8202C477.99 78.7108 475.469 76.1902 472.36 76.1902C469.251 76.1902 466.73 78.7108 466.73 81.8202C466.73 84.9296 469.251 87.4502 472.36 87.4502Z" fill="#FAEED5"/>
<path d="M424.58 64.8401C427.689 64.8401 430.21 62.3194 430.21 59.2101C430.21 56.1007 427.689 53.5801 424.58 53.5801C421.471 53.5801 418.95 56.1007 418.95 59.2101C418.95 62.3194 421.471 64.8401 424.58 64.8401Z" fill="#FAEED5"/>
<path d="M375.87 74.4202C378.979 74.4202 381.5 71.8995 381.5 68.7902C381.5 65.6808 378.979 63.1602 375.87 63.1602C372.761 63.1602 370.24 65.6808 370.24 68.7902C370.24 71.8995 372.761 74.4202 375.87 74.4202Z" fill="#FAEED5"/>
<path d="M324.2 77.74C327.309 77.74 329.83 75.2193 329.83 72.11C329.83 69.0006 327.309 66.48 324.2 66.48C321.091 66.48 318.57 69.0006 318.57 72.11C318.57 75.2193 321.091 77.74 324.2 77.74Z" fill="#FAEED5"/>
<path d="M273.62 71.99C276.729 71.99 279.25 69.4693 279.25 66.36C279.25 63.2506 276.729 60.73 273.62 60.73C270.511 60.73 267.99 63.2506 267.99 66.36C267.99 69.4693 270.511 71.99 273.62 71.99Z" fill="#FAEED5"/>
<path d="M220.01 72.8601C223.119 72.8601 225.64 70.3395 225.64 67.2301C225.64 64.1207 223.119 61.6001 220.01 61.6001C216.901 61.6001 214.38 64.1207 214.38 67.2301C214.38 70.3395 216.901 72.8601 220.01 72.8601Z" fill="#FAEED5"/>
<path d="M168.02 72.6401C171.129 72.6401 173.65 70.1195 173.65 67.0101C173.65 63.9008 171.129 61.3801 168.02 61.3801C164.911 61.3801 162.39 63.9008 162.39 67.0101C162.39 70.1195 164.911 72.6401 168.02 72.6401Z" fill="#FAEED5"/>
<path d="M1376.68 409.54C1376.1 410.98 1376.16 412.52 1376.72 413.85C1377.28 415.18 1378.35 416.29 1379.79 416.87C1381.23 417.45 1382.77 417.39 1384.1 416.83C1385.43 416.27 1386.54 415.2 1387.12 413.76C1387.7 412.32 1387.64 410.78 1387.08 409.45C1386.52 408.12 1385.45 407.01 1384.01 406.43C1382.57 405.85 1381.03 405.91 1379.7 406.47C1378.37 407.03 1377.26 408.1 1376.68 409.54Z" fill="#FAEED5"/>
<path d="M1375.92 359.17C1374.53 359.61 1373.33 360.57 1372.61 361.93C1371.9 363.29 1371.79 364.83 1372.22 366.22C1372.65 367.61 1373.62 368.81 1374.98 369.53C1376.34 370.25 1377.88 370.35 1379.27 369.92C1380.66 369.49 1381.86 368.52 1382.58 367.16C1383.3 365.8 1383.4 364.26 1382.97 362.87C1382.54 361.48 1381.57 360.28 1380.21 359.56C1378.85 358.84 1377.31 358.74 1375.92 359.17Z" fill="#FAEED5"/>
<path d="M1348.05 318.73C1346.78 319.48 1345.83 320.7 1345.45 322.17C1345.07 323.64 1345.3 325.16 1346.04 326.44C1346.78 327.72 1348.01 328.66 1349.48 329.04C1350.95 329.42 1352.47 329.19 1353.75 328.45C1355.03 327.71 1355.97 326.48 1356.35 325.01C1356.73 323.54 1356.5 322.02 1355.76 320.74C1355.02 319.46 1353.79 318.52 1352.32 318.14C1350.85 317.76 1349.33 317.99 1348.05 318.73Z" fill="#FAEED5"/>
<path d="M1338.93 275.16C1337.43 275.2 1336.02 275.82 1334.99 276.9C1333.96 277.98 1333.4 279.42 1333.44 280.92C1333.48 282.42 1334.1 283.83 1335.18 284.86C1336.26 285.89 1337.7 286.45 1339.2 286.41C1340.7 286.37 1342.11 285.75 1343.14 284.67C1344.17 283.59 1344.73 282.15 1344.69 280.65C1344.65 279.15 1344.03 277.74 1342.95 276.71C1341.87 275.68 1340.43 275.12 1338.93 275.16Z" fill="#FAEED5"/>
<path d="M1338.7 226.38C1337.18 226.37 1335.76 226.96 1334.71 228C1333.66 229.04 1333.04 230.45 1333.03 231.97C1333.02 233.49 1333.61 234.91 1334.65 235.96C1335.69 237.01 1337.1 237.63 1338.62 237.64C1340.14 237.65 1341.56 237.06 1342.61 236.02C1343.66 234.98 1344.28 233.57 1344.29 232.05C1344.3 230.53 1343.71 229.11 1342.67 228.06C1341.63 227.01 1340.22 226.39 1338.7 226.38Z" fill="#FAEED5"/>
<path d="M1339.04 176.07C1337.5 176.06 1336.09 176.66 1335.05 177.69C1334.01 178.72 1333.38 180.12 1333.37 181.66C1333.36 183.2 1333.96 184.61 1334.99 185.65C1336.02 186.69 1337.42 187.32 1338.96 187.33C1340.5 187.34 1341.91 186.74 1342.95 185.71C1343.99 184.68 1344.62 183.28 1344.63 181.74C1344.64 180.2 1344.04 178.79 1343.01 177.75C1341.98 176.71 1340.58 176.08 1339.04 176.07Z" fill="#FAEED5"/>
<path d="M1327.45 148.27C1329 148.27 1330.41 147.65 1331.44 146.64C1332.47 145.63 1333.1 144.22 1333.1 142.67C1333.1 141.12 1332.48 139.71 1331.47 138.68C1330.46 137.65 1329.05 137.02 1327.5 137.02C1325.95 137.02 1324.54 137.64 1323.51 138.65C1322.48 139.66 1321.85 141.07 1321.85 142.62C1321.85 144.17 1322.47 145.58 1323.48 146.61C1324.49 147.64 1325.9 148.27 1327.45 148.27Z" fill="#FAEED5"/>
<path d="M724.26 40.2502C727.369 40.2502 729.89 37.7296 729.89 34.6202C729.89 31.5109 727.369 28.9902 724.26 28.9902C721.151 28.9902 718.63 31.5109 718.63 34.6202C718.63 37.7296 721.151 40.2502 724.26 40.2502Z" fill="#FAEED5"/>
<path d="M775.28 43.5703C778.389 43.5703 780.91 41.0497 780.91 37.9403C780.91 34.8309 778.389 32.3103 775.28 32.3103C772.171 32.3103 769.65 34.8309 769.65 37.9403C769.65 41.0497 772.171 43.5703 775.28 43.5703Z" fill="#FAEED5"/>
<path d="M817.89 73.4402C820.999 73.4402 823.52 70.9195 823.52 67.8102C823.52 64.7008 820.999 62.1802 817.89 62.1802C814.781 62.1802 812.26 64.7008 812.26 67.8102C812.26 70.9195 814.781 73.4402 817.89 73.4402Z" fill="#FAEED5"/>
<path d="M862.3 99.8601C865.409 99.8601 867.93 97.3395 867.93 94.2301C867.93 91.1207 865.409 88.6001 862.3 88.6001C859.191 88.6001 856.67 91.1207 856.67 94.2301C856.67 97.3395 859.191 99.8601 862.3 99.8601Z" fill="#FAEED5"/>
<path d="M886.61 73.0703C889.719 73.0703 892.24 70.5497 892.24 67.4403C892.24 64.3309 889.719 61.8103 886.61 61.8103C883.501 61.8103 880.98 64.3309 880.98 67.4403C880.98 70.5497 883.501 73.0703 886.61 73.0703Z" fill="#FAEED5"/>
<path d="M929.89 86.8801C932.999 86.8801 935.52 84.3595 935.52 81.2501C935.52 78.1408 932.999 75.6201 929.89 75.6201C926.781 75.6201 924.26 78.1408 924.26 81.2501C924.26 84.3595 926.781 86.8801 929.89 86.8801Z" fill="#FAEED5"/>
<path d="M976.44 64.0002C979.549 64.0002 982.07 61.4796 982.07 58.3702C982.07 55.2609 979.549 52.7402 976.44 52.7402C973.331 52.7402 970.81 55.2609 970.81 58.3702C970.81 61.4796 973.331 64.0002 976.44 64.0002Z" fill="#FAEED5"/>
<path d="M1024.44 75.4802C1027.55 75.4802 1030.07 72.9596 1030.07 69.8502C1030.07 66.7409 1027.55 64.2202 1024.44 64.2202C1021.33 64.2202 1018.81 66.7409 1018.81 69.8502C1018.81 72.9596 1021.33 75.4802 1024.44 75.4802Z" fill="#FAEED5"/>
<path d="M1075.69 77.1204C1078.8 77.1204 1081.32 74.5997 1081.32 71.4904C1081.32 68.381 1078.8 65.8604 1075.69 65.8604C1072.58 65.8604 1070.06 68.381 1070.06 71.4904C1070.06 74.5997 1072.58 77.1204 1075.69 77.1204Z" fill="#FAEED5"/>
<path d="M1125.79 72.0103C1128.9 72.0103 1131.42 69.4896 1131.42 66.3802C1131.42 63.2709 1128.9 60.7502 1125.79 60.7502C1122.68 60.7502 1120.16 63.2709 1120.16 66.3802C1120.16 69.4896 1122.68 72.0103 1125.79 72.0103Z" fill="#FAEED5"/>
<path d="M1178.97 72.8704C1182.08 72.8704 1184.6 70.3497 1184.6 67.2404C1184.6 64.131 1182.08 61.6104 1178.97 61.6104C1175.86 61.6104 1173.34 64.131 1173.34 67.2404C1173.34 70.3497 1175.86 72.8704 1178.97 72.8704Z" fill="#FAEED5"/>
<path d="M1230.41 72.6404C1233.52 72.6404 1236.04 70.1197 1236.04 67.0104C1236.04 63.901 1233.52 61.3804 1230.41 61.3804C1227.3 61.3804 1224.78 63.901 1224.78 67.0104C1224.78 70.1197 1227.3 72.6404 1230.41 72.6404Z" fill="#FAEED5"/>
<path d="M1241.92 66.1499C1240.69 104.69 1272.19 136.19 1310.73 134.96C1345.64 133.85 1374.06 105.42 1375.18 70.5099C1376.41 31.9699 1344.91 0.469879 1306.37 1.69988C1271.46 2.80988 1243.04 31.2399 1241.92 66.1499ZM1262.07 70.7599C1260.67 43.1399 1283.36 20.4599 1310.97 21.8599C1334.62 23.0599 1353.83 42.2699 1355.03 65.9199C1356.43 93.5399 1333.74 116.22 1306.13 114.82C1282.48 113.62 1263.27 94.4099 1262.07 70.7599Z" fill="#025A8B" stroke="#130000" stroke-width="2" stroke-miterlimit="10"/>
<defs>
<linearGradient id="paint0_linear_211_1816" x1="699.014" y1="720.836" x2="1742.43" y2="1323.25" gradientUnits="userSpaceOnUse">
<stop stop-color="#F8B733"/>
<stop offset="1" stop-color="white" stop-opacity="0"/>
</linearGradient>
<linearGradient id="paint1_linear_211_1816" x1="699.016" y1="720.833" x2="1407.2" y2="1695.56" gradientUnits="userSpaceOnUse">
<stop stop-color="#F8B733"/>
<stop offset="1" stop-color="white" stop-opacity="0"/>
</linearGradient>
<linearGradient id="paint2_linear_211_1816" x1="699.008" y1="720.836" x2="949.506" y2="1899.34" gradientUnits="userSpaceOnUse">
<stop stop-color="#F8B733"/>
<stop offset="1" stop-color="white" stop-opacity="0"/>
</linearGradient>
<linearGradient id="paint3_linear_211_1816" x1="699.02" y1="720.832" x2="448.519" y2="1899.34" gradientUnits="userSpaceOnUse">
<stop stop-color="#F8B733"/>
<stop offset="1" stop-color="white" stop-opacity="0"/>
</linearGradient>
<linearGradient id="paint4_linear_211_1816" x1="699.014" y1="720.829" x2="-9.17293" y2="1695.57" gradientUnits="userSpaceOnUse">
<stop stop-color="#F8B733"/>
<stop offset="1" stop-color="white" stop-opacity="0"/>
</linearGradient>
<linearGradient id="paint5_linear_211_1816" x1="699.012" y1="720.835" x2="-344.41" y2="1323.25" gradientUnits="userSpaceOnUse">
<stop stop-color="#F8B733"/>
<stop offset="1" stop-color="white" stop-opacity="0"/>
</linearGradient>
<linearGradient id="paint6_linear_211_1816" x1="699.013" y1="720.83" x2="-499.217" y2="846.769" gradientUnits="userSpaceOnUse">
<stop stop-color="#F8B733"/>
<stop offset="1" stop-color="white" stop-opacity="0"/>
</linearGradient>
<linearGradient id="paint7_linear_211_1816" x1="699.02" y1="720.839" x2="-446.851" y2="348.523" gradientUnits="userSpaceOnUse">
<stop stop-color="#F8B733"/>
<stop offset="1" stop-color="white" stop-opacity="0"/>
</linearGradient>
<linearGradient id="paint8_linear_211_1816" x1="699.011" y1="720.828" x2="-196.352" y2="-85.3608" gradientUnits="userSpaceOnUse">
<stop stop-color="#F8B733"/>
<stop offset="1" stop-color="white" stop-opacity="0"/>
</linearGradient>
<linearGradient id="paint9_linear_211_1816" x1="699.019" y1="720.836" x2="208.966" y2="-379.84" gradientUnits="userSpaceOnUse">
<stop stop-color="#F8B733"/>
<stop offset="1" stop-color="white" stop-opacity="0"/>
</linearGradient>
<linearGradient id="paint10_linear_211_1816" x1="699.01" y1="720.84" x2="699.01" y2="-484" gradientUnits="userSpaceOnUse">
<stop stop-color="#F8B733"/>
<stop offset="1" stop-color="white" stop-opacity="0"/>
</linearGradient>
<linearGradient id="paint11_linear_211_1816" x1="699.016" y1="720.836" x2="1189.07" y2="-379.84" gradientUnits="userSpaceOnUse">
<stop stop-color="#F8B733"/>
<stop offset="1" stop-color="white" stop-opacity="0"/>
</linearGradient>
<linearGradient id="paint12_linear_211_1816" x1="699.016" y1="720.838" x2="1594.39" y2="-85.357" gradientUnits="userSpaceOnUse">
<stop stop-color="#F8B733"/>
<stop offset="1" stop-color="white" stop-opacity="0"/>
</linearGradient>
<linearGradient id="paint13_linear_211_1816" x1="699.022" y1="720.839" x2="1844.88" y2="348.526" gradientUnits="userSpaceOnUse">
<stop stop-color="#F8B733"/>
<stop offset="1" stop-color="white" stop-opacity="0"/>
</linearGradient>
<linearGradient id="paint14_linear_211_1816" x1="699.019" y1="720.835" x2="1897.25" y2="846.774" gradientUnits="userSpaceOnUse">
<stop stop-color="#F8B733"/>
<stop offset="1" stop-color="white" stop-opacity="0"/>
</linearGradient>
<linearGradient id="paint15_linear_211_1816" x1="2332.36" y1="1663.85" x2="1742.43" y2="1323.25" gradientUnits="userSpaceOnUse">
<stop stop-color="#F8B733"/>
<stop offset="1" stop-color="white" stop-opacity="0"/>
</linearGradient>
<linearGradient id="paint16_linear_211_1816" x1="699.016" y1="720.833" x2="1407.2" y2="1695.56" gradientUnits="userSpaceOnUse">
<stop stop-color="#F8B733"/>
<stop offset="1" stop-color="white" stop-opacity="0"/>
</linearGradient>
<linearGradient id="paint17_linear_211_1816" x1="699.008" y1="720.836" x2="949.506" y2="1899.34" gradientUnits="userSpaceOnUse">
<stop stop-color="#F8B733"/>
<stop offset="1" stop-color="white" stop-opacity="0"/>
</linearGradient>
<linearGradient id="paint18_linear_211_1816" x1="699.02" y1="720.832" x2="448.519" y2="1899.34" gradientUnits="userSpaceOnUse">
<stop stop-color="#F8B733"/>
<stop offset="1" stop-color="white" stop-opacity="0"/>
</linearGradient>
<linearGradient id="paint19_linear_211_1816" x1="699.014" y1="720.829" x2="-9.17293" y2="1695.57" gradientUnits="userSpaceOnUse">
<stop stop-color="#F8B733"/>
<stop offset="1" stop-color="white" stop-opacity="0"/>
</linearGradient>
<linearGradient id="paint20_linear_211_1816" x1="699.012" y1="720.835" x2="-344.41" y2="1323.25" gradientUnits="userSpaceOnUse">
<stop stop-color="#F8B733"/>
<stop offset="1" stop-color="white" stop-opacity="0"/>
</linearGradient>
<linearGradient id="paint21_linear_211_1816" x1="699.013" y1="720.83" x2="-499.217" y2="846.769" gradientUnits="userSpaceOnUse">
<stop stop-color="#F8B733"/>
<stop offset="1" stop-color="white" stop-opacity="0"/>
</linearGradient>
<linearGradient id="paint22_linear_211_1816" x1="699.02" y1="720.839" x2="-446.851" y2="348.523" gradientUnits="userSpaceOnUse">
<stop stop-color="#F8B733"/>
<stop offset="1" stop-color="white" stop-opacity="0"/>
</linearGradient>
<linearGradient id="paint23_linear_211_1816" x1="699.011" y1="720.828" x2="-196.352" y2="-85.3608" gradientUnits="userSpaceOnUse">
<stop stop-color="#F8B733"/>
<stop offset="1" stop-color="white" stop-opacity="0"/>
</linearGradient>
<linearGradient id="paint24_linear_211_1816" x1="699.019" y1="720.836" x2="208.966" y2="-379.84" gradientUnits="userSpaceOnUse">
<stop stop-color="#F8B733"/>
<stop offset="1" stop-color="white" stop-opacity="0"/>
</linearGradient>
<linearGradient id="paint25_linear_211_1816" x1="699.01" y1="720.84" x2="699.01" y2="-484" gradientUnits="userSpaceOnUse">
<stop stop-color="#F8B733"/>
<stop offset="1" stop-color="white" stop-opacity="0"/>
</linearGradient>
<radialGradient id="paint26_radial_211_1816" cx="0" cy="0" r="1" gradientUnits="userSpaceOnUse" gradientTransform="translate(700.14 216.06) scale(142.09 142.09)">
<stop stop-color="#FAEED5"/>
<stop offset="0.46" stop-color="#F9EDD3"/>
<stop offset="0.63" stop-color="#F9EBCC"/>
<stop offset="0.74" stop-color="#F9E7C0"/>
<stop offset="0.84" stop-color="#F9E1AF"/>
<stop offset="0.92" stop-color="#F9DA99"/>
<stop offset="0.99" stop-color="#F9D27F"/>
<stop offset="1" stop-color="#F9D17C"/>
</radialGradient>
<radialGradient id="paint27_radial_211_1816" cx="0" cy="0" r="1" gradientUnits="userSpaceOnUse" gradientTransform="translate(198.87 183.86) scale(130.03)">
<stop stop-color="#FAEED5"/>
<stop offset="0.46" stop-color="#F9EDD3"/>
<stop offset="0.63" stop-color="#F9EBCC"/>
<stop offset="0.74" stop-color="#F9E7C0"/>
<stop offset="0.84" stop-color="#F9E1AF"/>
<stop offset="0.92" stop-color="#F9DA99"/>
<stop offset="0.99" stop-color="#F9D27F"/>
<stop offset="1" stop-color="#F9D17C"/>
</radialGradient>
<radialGradient id="paint28_radial_211_1816" cx="0" cy="0" r="1" gradientUnits="userSpaceOnUse" gradientTransform="translate(1195.07 183.86) rotate(180) scale(130.03 130.03)">
<stop stop-color="#FAEED5"/>
<stop offset="0.46" stop-color="#F9EDD3"/>
<stop offset="0.63" stop-color="#F9EBCC"/>
<stop offset="0.74" stop-color="#F9E7C0"/>
<stop offset="0.84" stop-color="#F9E1AF"/>
<stop offset="0.92" stop-color="#F9DA99"/>
<stop offset="0.99" stop-color="#F9D27F"/>
<stop offset="1" stop-color="#F9D17C"/>
</radialGradient>
</defs>
</svg>
