<svg width="92" height="92" viewBox="0 0 92 92" fill="none" xmlns="http://www.w3.org/2000/svg">
<path d="M90.5809 43.6937C89.9909 31.3137 84.4309 20.3437 75.9209 12.6237C70.6209 7.81374 64.1609 4.26374 57.0509 2.42374C54.5809 1.78374 52.0309 1.35374 49.4209 1.14374C47.7009 1.00374 45.9509 0.963738 44.1809 1.03374C44.0209 1.03374 43.8509 1.03374 43.6909 1.05374C41.4109 1.16374 39.1709 1.44374 37.0009 1.87374C29.5309 3.36374 22.7709 6.68374 17.1709 11.3537C6.74086 20.0437 0.360862 33.3437 1.05086 47.9437C1.85086 64.7237 11.7709 78.9037 25.8009 85.9237C28.1509 87.1037 30.6009 88.0737 33.1509 88.8237C36.6509 89.8537 40.3209 90.4637 44.1009 90.6037C45.3709 90.6537 46.6409 90.6437 47.9309 90.5837C48.1709 90.5737 48.4109 90.5637 48.6509 90.5437C54.3509 90.1837 59.7509 88.7637 64.6509 86.4937C67.7809 85.0437 70.7009 83.2437 73.3809 81.1537C84.4509 72.5037 91.2909 58.7937 90.5709 43.6937H90.5809Z" fill="#F72D37" stroke="#130000" stroke-width="2" stroke-miterlimit="10"/>
<path d="M19.2 60.24C18.56 60.24 18.048 60.016 17.664 59.568C17.28 59.12 17.072 58.448 17.04 57.552V55.392C17.04 53.952 17.056 52.512 17.088 51.072C17.12 49.6 17.152 48.112 17.184 46.608L17.328 41.424C16.208 41.52 15.312 41.632 14.64 41.76C13.968 41.856 13.392 42.032 12.912 42.288C12.88 42.32 12.816 42.336 12.72 42.336C12.624 42.336 12.56 42.288 12.528 42.192C12.528 42.096 12.592 42 12.72 41.904C14.736 40.304 16.272 39.44 17.328 39.312V36.576C17.36 34.752 17.808 33.04 18.672 31.44C19.536 29.808 20.72 28.512 22.224 27.552C23.728 26.56 25.408 26.064 27.264 26.064C28.352 26.064 29.328 26.224 30.192 26.544C31.056 26.864 31.488 27.44 31.488 28.272C31.488 28.976 31.152 29.696 30.48 30.432C29.808 31.168 29.056 31.792 28.224 32.304C28.192 32.336 28.128 32.352 28.032 32.352C27.936 32.352 27.872 32.32 27.84 32.256C27.808 32.16 27.84 32.048 27.936 31.92C28.128 31.664 28.224 31.344 28.224 30.96C28.224 30.192 27.904 29.44 27.264 28.704C26.656 27.968 25.872 27.6 24.912 27.6C24.112 27.6 23.408 27.776 22.8 28.128C21.84 28.64 21.296 29.728 21.168 31.392L21.024 39.168C22.464 39.168 23.984 39.2 25.584 39.264L27.168 39.312C27.392 39.312 27.504 39.376 27.504 39.504C27.504 39.6 27.44 39.696 27.312 39.792C26.896 40.112 26.384 40.448 25.776 40.8C25.168 41.12 24.704 41.296 24.384 41.328C23.872 41.392 22.752 41.424 21.024 41.424C21.024 43.568 20.992 46.464 20.928 50.112L20.88 56.544C20.88 57.056 21.008 57.456 21.264 57.744C21.52 58 21.888 58.128 22.368 58.128C22.816 58.128 23.28 58.016 23.76 57.792C23.888 57.76 23.984 57.776 24.048 57.84C24.112 57.872 24.144 57.936 24.144 58.032C24.144 58.16 24.064 58.272 23.904 58.368C22.56 59.04 21.568 59.52 20.928 59.808C20.288 60.096 19.712 60.24 19.2 60.24ZM38.6681 60.672C36.9721 60.672 35.5801 60.112 34.4921 58.992C33.4041 57.872 32.8441 56.16 32.8121 53.856C32.7801 53.152 32.7801 52.368 32.8121 51.504C32.8761 50.608 32.9401 49.76 33.0041 48.96C33.1641 47.36 33.2441 45.84 33.2441 44.4C33.2441 43.632 33.2281 43.04 33.1961 42.624C33.1001 41.568 32.6041 41.04 31.7081 41.04C31.2921 41.04 30.8441 41.152 30.3641 41.376C30.2681 41.408 30.1721 41.408 30.0761 41.376C30.0121 41.344 29.9801 41.28 29.9801 41.184C29.9801 41.088 30.0441 40.992 30.1721 40.896C31.2281 40.224 32.4601 39.616 33.8681 39.072C34.2521 38.944 34.5561 38.88 34.7801 38.88C35.3881 38.88 35.8681 39.088 36.2201 39.504C36.5721 39.92 36.8121 40.592 36.9401 41.52C36.9721 41.744 36.9881 42.112 36.9881 42.624C36.9881 43.84 36.9241 45.408 36.7961 47.328C36.7321 48.224 36.6841 49.152 36.6521 50.112C36.6201 51.072 36.6201 52 36.6521 52.896C36.7161 54.112 37.1161 55.28 37.8521 56.4C38.6201 57.52 39.9001 58.08 41.6921 58.08C42.9721 58.08 44.3641 57.776 45.8681 57.168C45.8041 55.632 45.8681 53.392 46.0601 50.448C46.2201 48.432 46.3001 46.608 46.3001 44.976V43.872C46.3001 43.392 46.2841 43.04 46.2521 42.816C46.1881 42.336 46.0601 41.984 45.8681 41.76C45.6761 41.536 45.4041 41.424 45.0521 41.424C44.7641 41.424 44.4121 41.504 43.9961 41.664C43.9001 41.696 43.8041 41.696 43.7081 41.664C43.6441 41.632 43.6121 41.568 43.6121 41.472C43.6121 41.312 43.6921 41.2 43.8521 41.136C46.7641 39.6 48.5881 38.832 49.3241 38.832C49.7401 38.832 49.9961 39.104 50.0921 39.648C50.1241 40.096 50.1401 40.8 50.1401 41.76C50.1401 43.136 50.0761 45.296 49.9481 48.24C49.8201 51.184 49.7561 53.328 49.7561 54.672L49.8041 56.544C49.9001 57.632 50.3801 58.176 51.2441 58.176C51.5961 58.176 52.0601 58.048 52.6361 57.792C52.7641 57.728 52.8601 57.728 52.9241 57.792C52.9881 57.824 53.0201 57.888 53.0201 57.984C53.0201 58.144 52.9241 58.272 52.7321 58.368C51.4201 59.168 50.1561 59.744 48.9401 60.096C48.6521 60.192 48.3801 60.24 48.1241 60.24C47.5801 60.24 47.1001 60.032 46.6841 59.616C46.2681 59.2 46.0281 58.64 45.9641 57.936L44.6201 58.656C43.7241 59.168 43.0521 59.52 42.6041 59.712C41.1641 60.352 39.8521 60.672 38.6681 60.672ZM60.8014 60.24C60.1934 60.24 59.6814 60.016 59.2654 59.568C58.8494 59.12 58.6254 58.448 58.5934 57.552C58.5614 57.168 58.5454 56.608 58.5454 55.872C58.5454 54.592 58.6094 52.736 58.7374 50.304C58.8654 47.872 58.9294 46.032 58.9294 44.784V43.68C58.9294 43.168 58.9134 42.8 58.8814 42.576C58.7214 41.488 58.2254 40.944 57.3934 40.944C57.0414 40.944 56.6094 41.072 56.0974 41.328C55.9694 41.392 55.8574 41.408 55.7614 41.376C55.6974 41.312 55.6654 41.232 55.6654 41.136C55.6654 41.008 55.7454 40.896 55.9054 40.8C57.6334 39.904 58.8974 39.312 59.6974 39.024C60.0494 38.928 60.3534 38.88 60.6094 38.88C61.8894 38.88 62.5934 39.824 62.7214 41.712L64.3054 40.848C65.9054 40.016 66.8814 39.52 67.2334 39.36C68.4174 38.784 69.6814 38.496 71.0254 38.496C72.6574 38.496 73.9854 39.104 75.0094 40.32C76.0334 41.504 76.5454 43.312 76.5454 45.744C76.5454 46.8 76.4814 48.256 76.3534 50.112C76.2254 51.776 76.1614 52.928 76.1614 53.568V55.2C76.1614 55.808 76.1774 56.256 76.2094 56.544C76.2734 56.992 76.4334 57.36 76.6894 57.648C76.9774 57.904 77.3614 58.032 77.8414 58.032C78.1934 58.032 78.5774 57.936 78.9934 57.744C79.1214 57.712 79.2174 57.728 79.2814 57.792C79.3454 57.824 79.3774 57.888 79.3774 57.984C79.3774 58.112 79.3134 58.208 79.1854 58.272C77.9374 59.008 76.6734 59.616 75.3934 60.096C75.1054 60.192 74.8174 60.24 74.5294 60.24C73.8894 60.24 73.3614 60.032 72.9454 59.616C72.5614 59.2 72.3534 58.576 72.3214 57.744C72.2894 57.296 72.2734 56.896 72.2734 56.544C72.3054 56.16 72.3214 55.808 72.3214 55.488L72.4654 51.936C72.5934 50.08 72.6574 48.736 72.6574 47.904C72.6574 45.76 72.3694 44.08 71.7934 42.864C71.2174 41.648 69.9854 41.04 68.0974 41.04C66.6894 41.04 64.9294 41.52 62.8174 42.48C62.8494 43.952 62.8014 46.16 62.6734 49.104C62.5454 51.472 62.4814 53.264 62.4814 54.48C62.4814 55.408 62.4974 56.096 62.5294 56.544C62.5614 57.568 63.0094 58.08 63.8734 58.08C64.2574 58.08 64.7054 57.984 65.2174 57.792C65.3134 57.76 65.3934 57.76 65.4574 57.792C65.5534 57.824 65.6014 57.888 65.6014 57.984C65.6014 58.112 65.5374 58.224 65.4094 58.32C64.2254 58.992 62.9934 59.584 61.7134 60.096C61.4254 60.192 61.1214 60.24 60.8014 60.24Z" fill="white"/>
</svg>
