<svg width="92" height="92" viewBox="0 0 92 92" fill="none" xmlns="http://www.w3.org/2000/svg">
<path d="M90.5799 43.6898C89.9899 31.3098 84.4299 20.3398 75.9199 12.6198C70.6199 7.80983 64.1599 4.25983 57.0499 2.41983C54.5799 1.77983 52.0299 1.34983 49.4199 1.13983C47.6999 0.999832 45.9499 0.959832 44.1799 1.02983C44.0199 1.02983 43.8499 1.02983 43.6899 1.04983C41.4099 1.15983 39.1699 1.43983 36.9999 1.86983C29.5299 3.35983 22.7699 6.67983 17.1699 11.3498C6.73989 20.0398 0.359886 33.3398 1.04989 47.9398C1.84989 64.7198 11.7699 78.8998 25.7999 85.9198C28.1499 87.0998 30.5999 88.0698 33.1499 88.8198C36.6499 89.8498 40.3199 90.4598 44.0999 90.5998C45.3699 90.6498 46.6399 90.6398 47.9299 90.5798C48.1699 90.5698 48.4099 90.5598 48.6499 90.5398C54.3499 90.1798 59.7499 88.7598 64.6499 86.4898C67.7799 85.0398 70.6999 83.2398 73.3799 81.1498C84.4499 72.4998 91.2899 58.7898 90.5699 43.6898H90.5799Z" fill="#F43430" stroke="#130000" stroke-width="2" stroke-miterlimit="10"/>
<path d="M33.048 61.192C31.8 61.192 31.128 60.296 31.032 58.504L30.984 56.2C30.984 53 31.032 49.656 31.128 46.168C31.16 44.312 31.192 42.472 31.224 40.648C31.256 38.792 31.272 36.968 31.272 35.176L31.224 31C31.224 29.976 30.872 29.464 30.168 29.464C29.848 29.464 29.464 29.56 29.016 29.752C28.92 29.784 28.84 29.784 28.776 29.752C28.712 29.688 28.68 29.608 28.68 29.512C28.68 29.352 28.76 29.24 28.92 29.176C30.904 28.024 32.488 27.272 33.672 26.92L34.152 26.824C34.408 26.824 34.6 26.904 34.728 27.064C34.888 27.192 34.968 27.384 34.968 27.64L35.064 34.552L34.968 42.856L35.88 42.328C37.864 41.272 39.112 40.632 39.624 40.408C41 39.8 42.264 39.496 43.416 39.496C45.048 39.496 46.376 40.12 47.4 41.368C48.424 42.584 48.936 44.44 48.936 46.936C48.936 48.184 48.856 49.576 48.696 51.112C48.632 51.848 48.568 52.648 48.504 53.512C48.472 54.344 48.456 55.128 48.456 55.864C48.456 56.824 48.568 57.592 48.792 58.168C49.016 58.744 49.496 59.032 50.232 59.032C50.584 59.032 50.968 58.936 51.384 58.744C51.48 58.712 51.56 58.712 51.624 58.744C51.72 58.776 51.768 58.84 51.768 58.936C51.768 59.064 51.688 59.176 51.528 59.272C49.96 60.136 48.712 60.728 47.784 61.048C47.464 61.144 47.144 61.192 46.824 61.192C45.544 61.192 44.856 60.296 44.76 58.504C44.728 58.088 44.712 57.512 44.712 56.776C44.712 55.72 44.776 54.328 44.904 52.6C45.032 50.872 45.096 49.544 45.096 48.616C45.096 46.6 44.76 45 44.088 43.816C43.416 42.6 42.2 41.992 40.44 41.992C38.968 41.992 37.144 42.504 34.968 43.528L34.92 47.512C34.856 50.52 34.824 52.648 34.824 53.896L34.872 57.544C34.872 58.056 34.984 58.456 35.208 58.744C35.432 59 35.736 59.128 36.12 59.128C36.472 59.128 36.936 59 37.512 58.744C37.64 58.712 37.736 58.728 37.8 58.792C37.864 58.824 37.896 58.888 37.896 58.984C37.896 59.112 37.832 59.208 37.704 59.272C36.328 60.072 35.096 60.664 34.008 61.048C33.688 61.144 33.368 61.192 33.048 61.192ZM59.3093 61.24C58.6693 61.24 58.1573 61.016 57.7733 60.568C57.3893 60.12 57.1813 59.448 57.1493 58.552C57.1173 58.136 57.1013 57.496 57.1013 56.632C57.1013 55.512 57.1653 53.8 57.2933 51.496C57.4213 49.256 57.4853 47.576 57.4853 46.456C57.4853 45.304 57.4533 44.44 57.3893 43.864C57.3253 43.352 57.2133 42.984 57.0533 42.76C56.8933 42.536 56.6213 42.424 56.2373 42.424C55.9493 42.424 55.5973 42.504 55.1813 42.664C55.0853 42.696 55.0053 42.696 54.9413 42.664C54.8773 42.6 54.8453 42.536 54.8453 42.472C54.8453 42.344 54.8933 42.264 54.9893 42.232C55.6613 41.848 56.6373 41.352 57.9173 40.744C59.2293 40.104 60.0773 39.784 60.4613 39.784C60.9733 39.784 61.2453 40.072 61.2773 40.648C61.3093 41.032 61.3253 41.624 61.3253 42.424C61.3253 43.832 61.2613 46.008 61.1333 48.952C61.0053 51.96 60.9413 54.152 60.9413 55.528C60.9413 56.456 60.9573 57.128 60.9893 57.544C61.0853 58.6 61.5813 59.128 62.4773 59.128C62.8293 59.128 63.2933 59 63.8693 58.744C63.9973 58.712 64.0933 58.728 64.1573 58.792C64.2213 58.824 64.2533 58.888 64.2533 58.984C64.2533 59.08 64.1733 59.176 64.0133 59.272C61.7413 60.584 60.1733 61.24 59.3093 61.24ZM58.5413 33.928C58.3493 33.928 58.1733 33.832 58.0133 33.64C57.3413 32.872 56.7493 32.248 56.2373 31.768C56.0773 31.608 55.9973 31.448 55.9973 31.288C55.9973 31.064 56.0933 30.904 56.2853 30.808C57.5333 30.168 58.5893 29.688 59.4533 29.368C59.6453 29.304 59.7733 29.272 59.8372 29.272C60.0293 29.272 60.2373 29.384 60.4613 29.608C61.7093 30.856 62.3333 31.672 62.3333 32.056C62.3333 32.216 62.2533 32.344 62.0933 32.44C61.8053 32.6 61.3093 32.824 60.6053 33.112C59.9333 33.4 59.3253 33.656 58.7812 33.88L58.5413 33.928Z" fill="white"/>
</svg>
