<svg width="92" height="92" viewBox="0 0 92 92" fill="none" xmlns="http://www.w3.org/2000/svg">
<path d="M90.5809 43.6937C89.9909 31.3137 84.4309 20.3437 75.9209 12.6237C70.6209 7.81374 64.1609 4.26374 57.0509 2.42374C54.5809 1.78374 52.0309 1.35374 49.4209 1.14374C47.7009 1.00374 45.9509 0.963738 44.1809 1.03374C44.0209 1.03374 43.8509 1.03374 43.6909 1.05374C41.4109 1.16374 39.1709 1.44374 37.0009 1.87374C29.5309 3.36374 22.7709 6.68374 17.1709 11.3537C6.74086 20.0437 0.360862 33.3437 1.05086 47.9437C1.85086 64.7237 11.7709 78.9037 25.8009 85.9237C28.1509 87.1037 30.6009 88.0737 33.1509 88.8237C36.6509 89.8537 40.3209 90.4637 44.1009 90.6037C45.3709 90.6537 46.6409 90.6437 47.9309 90.5837C48.1709 90.5737 48.4109 90.5637 48.6509 90.5437C54.3509 90.1837 59.7509 88.7637 64.6509 86.4937C67.7809 85.0437 70.7009 83.2437 73.3809 81.1537C84.4509 72.5037 91.2909 58.7937 90.5709 43.6937H90.5809Z" fill="#FAEED5" stroke="#130000" stroke-width="2" stroke-miterlimit="10"/>
<path d="M19.528 62.24C18.888 62.24 18.376 62.016 17.992 61.568C17.608 61.12 17.4 60.448 17.368 59.552C17.336 59.136 17.32 58.496 17.32 57.632C17.32 56.512 17.384 54.8 17.512 52.496C17.64 50.256 17.704 48.576 17.704 47.456C17.704 46.304 17.672 45.44 17.608 44.864C17.544 44.352 17.432 43.984 17.272 43.76C17.112 43.536 16.84 43.424 16.456 43.424C16.168 43.424 15.816 43.504 15.4 43.664C15.304 43.696 15.224 43.696 15.16 43.664C15.096 43.6 15.064 43.536 15.064 43.472C15.064 43.344 15.112 43.264 15.208 43.232C15.88 42.848 16.856 42.352 18.136 41.744C19.448 41.104 20.296 40.784 20.68 40.784C21.192 40.784 21.464 41.072 21.496 41.648C21.528 42.032 21.544 42.624 21.544 43.424C21.544 44.832 21.48 47.008 21.352 49.952C21.224 52.96 21.16 55.152 21.16 56.528C21.16 57.456 21.176 58.128 21.208 58.544C21.304 59.6 21.8 60.128 22.696 60.128C23.048 60.128 23.512 60 24.088 59.744C24.216 59.712 24.312 59.728 24.376 59.792C24.44 59.824 24.472 59.888 24.472 59.984C24.472 60.08 24.392 60.176 24.232 60.272C21.96 61.584 20.392 62.24 19.528 62.24ZM18.76 34.928C18.568 34.928 18.392 34.832 18.232 34.64C17.56 33.872 16.968 33.248 16.456 32.768C16.296 32.608 16.216 32.448 16.216 32.288C16.216 32.064 16.312 31.904 16.504 31.808C17.752 31.168 18.808 30.688 19.672 30.368C19.864 30.304 19.992 30.272 20.056 30.272C20.248 30.272 20.456 30.384 20.68 30.608C21.928 31.856 22.552 32.672 22.552 33.056C22.552 33.216 22.472 33.344 22.312 33.44C22.024 33.6 21.528 33.824 20.824 34.112C20.152 34.4 19.544 34.656 19 34.88L18.76 34.928ZM34.2891 43.76C34.0011 43.76 33.8091 43.488 33.7131 42.944C33.5211 41.92 33.2331 40.176 32.8491 37.712C32.4651 35.216 32.1451 33.072 31.8891 31.28C31.8891 30.832 31.9371 30.512 32.0331 30.32C32.1611 30.096 32.4011 29.904 32.7531 29.744C33.2011 29.552 33.7291 29.456 34.3371 29.456C34.6891 29.456 35.0571 29.504 35.4411 29.6C35.7611 29.728 35.9851 29.92 36.1131 30.176C36.2411 30.4 36.2891 30.736 36.2571 31.184C36.1931 32.464 36.0011 34.384 35.6811 36.944C35.3931 39.504 35.1211 41.488 34.8651 42.896C34.7691 43.472 34.5771 43.76 34.2891 43.76ZM47.2701 62.24C46.6301 62.24 46.1181 62.016 45.7341 61.568C45.3501 61.12 45.1261 60.432 45.0621 59.504L45.0141 57.824C45.0141 56.576 45.0781 54.736 45.2061 52.304C45.3341 49.872 45.3981 48.032 45.3981 46.784L45.3501 44.576C45.3181 44.064 45.1741 43.664 44.9181 43.376C44.6621 43.088 44.3101 42.944 43.8621 42.944C43.4781 42.944 43.0461 43.088 42.5661 43.376C42.4701 43.44 42.3741 43.456 42.2781 43.424C42.2141 43.36 42.1821 43.28 42.1821 43.184C42.1821 43.056 42.2461 42.944 42.3741 42.848C43.6541 42.08 44.9341 41.472 46.2141 41.024C46.5661 40.928 46.8701 40.88 47.1261 40.88C47.7661 40.88 48.2621 41.136 48.6141 41.648C48.9661 42.16 49.1741 42.848 49.2381 43.712C49.7821 43.456 50.3421 43.136 50.9181 42.752C52.2301 41.984 53.0781 41.52 53.4621 41.36C54.7421 40.752 55.9101 40.448 56.9661 40.448C58.0221 40.448 58.9501 40.752 59.7501 41.36C60.5821 41.936 61.2061 42.8 61.6221 43.952L62.7741 43.328C64.5341 42.304 65.7501 41.648 66.4221 41.36C67.7341 40.752 68.9021 40.448 69.9261 40.448C71.4301 40.448 72.6301 41.024 73.5261 42.176C74.4541 43.296 74.9501 44.992 75.0141 47.264C75.0461 48.32 74.9981 49.936 74.8701 52.112C74.7421 53.968 74.6781 55.424 74.6781 56.48L74.7261 58.544C74.7581 59.6 75.2221 60.128 76.1181 60.128C76.4701 60.128 76.9181 60.016 77.4621 59.792C77.5581 59.728 77.6381 59.728 77.7021 59.792C77.7981 59.824 77.8461 59.888 77.8461 59.984C77.8461 60.08 77.7821 60.176 77.6541 60.272C76.0861 61.136 74.8221 61.744 73.8621 62.096C73.5741 62.192 73.2861 62.24 72.9981 62.24C72.3581 62.24 71.8461 62.016 71.4621 61.568C71.0781 61.12 70.8701 60.432 70.8381 59.504C70.8061 59.12 70.7901 58.592 70.7901 57.92C70.7901 56.544 70.8701 55.136 71.0301 53.696C71.1581 52.032 71.2221 50.736 71.2221 49.808C71.2221 47.728 70.9661 46.08 70.4541 44.864C69.9421 43.616 68.8381 42.992 67.1421 42.992C65.7021 42.992 63.9421 43.552 61.8621 44.672C62.0541 45.696 62.1501 46.56 62.1501 47.264C62.1501 48.032 62.1341 48.8 62.1021 49.568C62.0701 50.336 62.0381 51.088 62.0061 51.824C61.8781 53.872 61.8141 55.424 61.8141 56.48L61.8621 58.592C61.8941 59.616 62.3581 60.128 63.2541 60.128C63.5741 60.128 64.0061 60.016 64.5501 59.792C64.8381 59.664 64.9821 59.728 64.9821 59.984C64.9821 60.08 64.9181 60.176 64.7901 60.272C63.2221 61.136 61.9741 61.744 61.0461 62.096C60.7261 62.192 60.4061 62.24 60.0861 62.24C59.4461 62.24 58.9341 62.016 58.5501 61.568C58.1661 61.12 57.9581 60.432 57.9261 59.504C57.8941 58.544 57.8941 57.584 57.9261 56.624C57.9581 55.632 58.0061 54.704 58.0701 53.84C58.1981 52.176 58.2621 50.896 58.2621 50C58.2621 47.824 58.0061 46.112 57.4941 44.864C57.0141 43.616 55.9261 42.992 54.2301 42.992C52.7901 42.992 51.1261 43.488 49.2381 44.48C49.2701 45.92 49.2221 48.048 49.0941 50.864C49.0621 51.696 49.0301 52.528 48.9981 53.36C48.9661 54.192 48.9501 55.024 48.9501 55.856L49.0461 58.544C49.0781 59.088 49.2221 59.504 49.4781 59.792C49.7341 60.08 50.0861 60.224 50.5341 60.224C50.8861 60.224 51.3181 60.096 51.8301 59.84C51.9261 59.808 52.0061 59.824 52.0701 59.888C52.1341 59.92 52.1661 59.968 52.1661 60.032C52.1661 60.16 52.1021 60.272 51.9741 60.368C50.9181 61.008 49.6541 61.584 48.1821 62.096C47.8621 62.192 47.5581 62.24 47.2701 62.24Z" fill="black"/>
</svg>
