<svg width="213" height="162" viewBox="0 0 213 162" fill="none" xmlns="http://www.w3.org/2000/svg">
<path d="M40.3901 139.84L4.96021 128.64L21.7302 113.74L0.420166 91.23L6.28015 92.19C6.28015 92.19 8.00014 92.46 10.6401 92.46C13.0901 92.46 15.4902 92.24 17.8202 91.8C15.9002 82.34 20.5201 73.09 29.3701 69.17C30.2501 68.52 31.1301 67.8 31.9901 67.02C31.8101 48.96 35.4301 28.05 61.7501 8.92999C69.6901 3.16999 78.5601 0.25 88.1301 0.25C95.5701 0.25 102.01 2.04998 106.3 3.66998C110.6 2.03998 117.03 0.25 124.47 0.25C134.04 0.25 142.91 3.16999 150.85 8.92999C177.12 28 180.76 48.77 180.62 66.69L182.94 68.73C183.14 68.88 183.33 69.03 183.53 69.17C192.41 73.1 197.02 82.38 195.07 91.86C197.31 92.26 199.61 92.47 201.96 92.47C204.6 92.47 206.31 92.2 206.33 92.2L212.17 91.25L190.88 113.75L207.65 128.65L172.22 139.85L171.53 161.68L168.74 160.29C168.47 160.16 142.32 147.11 124.13 137.64C123.7 137.72 123.27 137.81 122.84 137.88C121.65 138.08 120.47 138.27 119.31 138.43C114.79 139.07 110.47 139.39 106.46 139.39C101.39 139.39 95.8802 138.88 90.0702 137.88C89.5702 137.79 89.0802 137.69 88.5902 137.59C70.3902 147.06 44.1501 160.15 43.8901 160.29L41.1002 161.68L40.4102 139.85L40.3901 139.84Z" fill="#130000"/>
<path d="M206.64 94.16C206.64 94.16 193.14 96.39 181.83 88.72C170.52 81.05 194.75 43.28 149.67 10.54C132.63 -1.84003 115.01 2.35999 106.3 5.80999C97.5799 2.35999 79.9699 -1.83003 62.9299 10.54C17.8499 43.28 42.0799 81.05 30.7699 88.72C19.4599 96.39 5.95996 94.16 5.95996 94.16L24.61 113.86L8.92993 127.79L42.35 138.35L42.98 158.47C42.98 158.47 82.02 139 98.22 130.2L106.3 129.92L114.38 130.2C130.58 139 169.62 158.47 169.62 158.47L170.25 138.35L203.67 127.79L187.99 113.86L206.64 94.16Z" fill="#130000"/>
<path d="M137.69 130.87C133.24 133.22 128.06 134.93 122.48 135.9C121.31 136.1 120.15 136.28 119.01 136.44C114.54 137.07 110.29 137.38 106.44 137.38C101.59 137.38 96.1299 136.89 90.3899 135.9C82.0899 134.46 74.69 131.38 69.23 127.01C62.85 121.92 59.12 115.09 59.69 107.13C60.75 92.3499 70.18 88.9898 70.18 88.9898C58.74 70.5398 60.95 46.3198 75.83 41.0398C76.97 40.6398 78.0699 40.2899 79.1299 40.0099C97.7599 34.9999 104.92 47.5199 106.44 50.7699C108.04 47.3299 115.95 33.5398 137.04 41.0398C137.08 41.0498 137.11 41.0699 137.15 41.0799C151.93 46.4399 154.1 70.5898 142.69 88.9898C142.69 88.9898 152.13 92.3499 153.18 107.13C153.91 117.32 147.59 125.66 137.69 130.87Z" fill="#F8B733" stroke="#130000" stroke-miterlimit="10"/>
<g style="mix-blend-mode:overlay" opacity="0.7">
<path d="M80.1599 100.69C80.1599 100.69 95.0399 122.65 119.52 113.84C119.52 113.84 93.5899 133.94 80.1599 100.69Z" fill="#130000"/>
</g>
<path d="M79.8799 100.29C79.8799 100.29 95.0399 122.64 119.52 113.84C119.52 113.84 94.4799 131.16 79.8799 100.29Z" fill="#130000"/>
<path d="M86.6497 100.2C86.6497 100.2 79.2298 99.3799 77.4398 105.97C77.4398 105.97 76.3397 96.4899 86.6497 100.2Z" fill="#130000"/>
<g style="mix-blend-mode:overlay" opacity="0.5">
<path d="M86.3798 100.26C86.3798 100.26 79.2298 99.37 77.4398 105.97C77.4398 105.97 75.2898 94.9901 86.3798 100.26Z" fill="#130000"/>
</g>
<path d="M93.72 87.29C93.72 87.29 104.02 94.9801 106.38 94.5601C108.74 94.1401 118.61 86.5901 118.61 86.5901C118.61 86.5901 109.08 91.7601 106.17 91.7601C102.91 91.7601 93.73 87.29 93.73 87.29H93.72Z" fill="#130000"/>
<g style="mix-blend-mode:overlay" opacity="0.3">
<path d="M93.72 87.29C93.72 87.29 104.02 95.9801 106.38 95.5601C108.74 95.1401 118.61 86.5901 118.61 86.5901C118.61 86.5901 109.08 92.7601 106.17 92.7601C102.91 92.7601 93.73 87.29 93.73 87.29H93.72Z" fill="#130000"/>
</g>
<path d="M93.3401 72.4698C93.9701 77.7298 91.8301 82.3298 88.5501 82.7398C85.2701 83.1498 82.1001 79.2198 81.4701 73.9598C80.8401 68.6998 83.0801 64.8098 85.9701 66.4098C89.1601 68.1798 92.7101 67.1998 93.3401 72.4698Z" fill="#130000"/>
<path d="M118.57 72.4698C117.94 77.7298 120.08 82.3298 123.36 82.7398C126.64 83.1498 129.81 79.2199 130.44 73.9599C131.02 69.0999 130.6 64.7898 126.7 63.8498C125.99 63.6798 125.24 63.6899 124.55 63.8999C121.8 64.7399 119.13 67.8298 118.58 72.4698H118.57Z" fill="#130000"/>
<path d="M115.65 64.81C115.65 64.81 120.67 62.32 125.41 60.58C130.15 58.84 135.82 56.88 135.82 56.88C135.82 56.88 123.49 52.45 115.64 64.81H115.65Z" fill="#130000"/>
<path d="M75.8101 65.1899L96.64 70.28C96.64 70.28 92.6001 61.4999 75.8101 65.1899Z" fill="#130000"/>
<path d="M84.7401 72.4099C85.7618 72.4099 86.5902 71.4697 86.5902 70.3099C86.5902 69.1501 85.7618 68.21 84.7401 68.21C83.7184 68.21 82.8901 69.1501 82.8901 70.3099C82.8901 71.4697 83.7184 72.4099 84.7401 72.4099Z" fill="#FAEED5"/>
<path d="M127.27 72.4099C128.292 72.4099 129.12 71.4697 129.12 70.3099C129.12 69.1501 128.292 68.21 127.27 68.21C126.248 68.21 125.42 69.1501 125.42 70.3099C125.42 71.4697 126.248 72.4099 127.27 72.4099Z" fill="#FAEED5"/>
<path d="M63.7798 73.8201C63.6398 74.2001 61.0599 87.4001 50.1099 86.1401C41.3399 85.1301 40.4897 84.1201 40.4897 84.1201L44.0298 75.85L63.7698 73.8301" fill="#414042"/>
<path d="M148.59 73.8201C148.59 73.8201 153.48 87.1501 162.26 86.1401C171.04 85.1301 171.88 84.1201 171.88 84.1201L168.34 75.85L148.6 73.8301" fill="#414042"/>
<path d="M49.5098 88.3799C49.5098 99.1899 47.2297 106.87 34.9997 105.58C29.0397 104.96 23.6997 101.34 21.2397 95.8699C15.1897 82.4599 24.8398 69.4199 37.5398 69.4199C47.5598 69.4199 49.5198 78.3499 49.5198 88.3699L49.5098 88.3799Z" fill="#F8B733" stroke="#130000" stroke-miterlimit="10"/>
<path d="M48.44 84.81C48.13 83.23 47.51 81.73 46.57 80.43C44.15 77.07 38.8899 71.48 32.0299 74.07C24.6799 76.85 22.39 84.53 25.66 89.92C27.99 93.76 30.76 94.91 32.16 95.26C32.5 95.34 32.77 94.97 32.59 94.67C31.33 92.6 28.32 86.71 32.85 84.04C37.38 81.37 45.7199 85.73 48.2499 87.23C48.5399 87.4 48.9 87.15 48.84 86.81L48.45 84.81H48.44Z" fill="#F98D36"/>
<path d="M37.4099 91.6799L40.4899 95.5999L45.1699 93.8799L42.3899 98.02L45.47 101.94L40.6799 100.58L37.8999 104.72L37.71 99.7399L32.9199 98.3799L37.6 96.6599L37.4099 91.6799Z" fill="#F43430"/>
<path d="M163.37 88.3799C163.37 99.1899 165.65 106.87 177.88 105.58C183.84 104.96 189.18 101.34 191.64 95.8699C197.69 82.4599 188.04 69.4199 175.34 69.4199C165.32 69.4199 163.36 78.3499 163.36 88.3699L163.37 88.3799Z" fill="#F8B733" stroke="#130000" stroke-miterlimit="10"/>
<path d="M164.44 84.81C164.75 83.23 165.37 81.73 166.31 80.43C168.73 77.07 173.99 71.48 180.85 74.07C188.2 76.85 190.49 84.53 187.22 89.92C184.89 93.76 182.12 94.91 180.72 95.26C180.38 95.34 180.11 94.97 180.29 94.67C181.55 92.6 184.56 86.71 180.03 84.04C175.5 81.37 167.16 85.73 164.63 87.23C164.34 87.4 163.98 87.15 164.04 86.81L164.43 84.81H164.44Z" fill="#F98D36"/>
<path d="M175.47 91.6799L172.39 95.5999L167.71 93.8799L170.49 98.02L167.41 101.94L172.2 100.58L174.98 104.72L175.17 99.7399L179.96 98.3799L175.28 96.6599L175.47 91.6799Z" fill="#F43430"/>
<path d="M132.44 136.58L166.88 155.23L167.12 137.3L186.73 130.84L164.01 135.14V149.25L132.44 136.58Z" fill="#414042"/>
<path d="M80.0398 136.58L45.5898 155.23L45.3499 137.3L25.7397 130.84L48.4598 135.14V149.25L80.0398 136.58Z" fill="#414042"/>
<path d="M109.08 46.5701C109.08 46.5701 124.53 27.4201 135.05 33.3401C141.65 37.0601 140.38 41.8701 140.38 41.8701C140.38 41.8701 121.22 32.7601 109.08 46.5701Z" fill="#414042"/>
<path d="M186.24 112.19L200.95 97.2001L195.16 96.3201L197.75 97.7001L186.24 112.19Z" fill="#414042"/>
<path d="M25.6699 111.93L10.96 96.9401L16.7499 96.05L14.1599 97.4301L25.6699 111.93Z" fill="#414042"/>
<path d="M104.05 46.8099C104.05 46.8099 86.7801 28.5299 78.0801 33.5799C71.5301 37.3899 72.75 42.1099 72.75 42.1099C72.75 42.1099 91.9101 32.9999 104.05 46.8099Z" fill="#414042"/>
<g style="mix-blend-mode:overlay" opacity="0.5">
<path d="M68.17 72.08C63.29 77.86 78.18 86.87 79.13 87.96C80.73 89.79 72.31 85.5 65.93 98.33C63.44 103.34 62.1001 112.89 71.2101 123.67C76.4701 129.9 88.57 137.58 69.54 127.19C69.34 127.08 69.1401 126.93 68.9601 126.79C62.7501 121.72 59.1301 114.98 59.6901 107.13C60.7501 92.35 70.18 88.99 70.18 88.99C58.74 70.54 60.9501 46.32 75.8301 41.04C76.9701 40.64 78.07 40.29 79.13 40.01C75.53 41.97 74.0201 43.79 73.0901 46.72C69.9701 56.53 70.89 68.84 68.17 72.08Z" fill="#130000"/>
</g>
<path d="M98.3298 34.2199C98.3298 34.2199 70.3498 30.9099 67.9198 55.9999C63.0098 106.73 27.5498 72.6799 27.5498 72.6799C27.5498 72.6799 44.2198 64.59 46.1798 40.84C47.0998 29.73 81.1498 14.21 81.9598 14.21C82.7698 14.21 98.3298 34.2199 98.3298 34.2199Z" fill="#130000"/>
<path d="M114.55 34.2199C114.55 34.2199 142.53 30.9099 144.96 55.9999C149.87 106.73 185.33 72.6799 185.33 72.6799C185.33 72.6799 168.66 64.59 166.7 40.84C165.78 29.73 131.73 14.21 130.92 14.21C130.11 14.21 114.55 34.2199 114.55 34.2199Z" fill="#130000"/>
<g style="mix-blend-mode:overlay" opacity="0.5">
<path d="M107.37 90.57C107.37 90.57 106.69 88.04 108.06 87.26C109.43 86.48 117.18 85.09 117.18 85.87C117.18 86.65 108.35 91.74 107.38 90.57H107.37Z" fill="#130000"/>
</g>
<g style="mix-blend-mode:overlay" opacity="0.5">
<path d="M129.12 134.35C131.52 132.12 141.9 124.87 144.05 120.85C148.81 111.99 147.99 105.1 146.01 99.67C143.68 93.28 137.24 92.3601 135.21 92.0801C133.49 91.8401 149.59 74.1 145.05 70.29C141.64 67.42 142.7 56.9301 142.01 51.7501C141.32 46.5701 139.7 45.2301 137.15 41.0801C151.93 46.4401 154.1 70.5901 142.69 88.9901C142.69 88.9901 152.13 92.3501 153.18 107.13C153.91 117.32 147.28 127.77 129.12 134.36V134.35Z" fill="#130000"/>
</g>
<path d="M170.14 72.0201L179.6 68.4701L178.73 67.7001C178.73 67.7001 175.96 63.3801 170.14 72.0201Z" fill="#414042"/>
<path d="M41.75 73.12L32.29 69.57L33.16 68.8C33.16 68.8 35.93 64.48 41.75 73.12Z" fill="#414042"/>
<path d="M88.3599 36.23C88.3599 36.23 88.2598 36.22 88.0698 36.19C88.2598 36.16 88.3599 36.17 88.3599 36.23Z" fill="#F98D36"/>
<g style="mix-blend-mode:overlay" opacity="0.5">
<path d="M79.29 123.82C79.29 123.82 86.2 134.52 100.41 132.4C100.41 132.4 83.35 139.11 79.29 123.82Z" fill="#130000"/>
</g>
</svg>
