<svg width="541" height="301" viewBox="0 0 541 301" fill="none" xmlns="http://www.w3.org/2000/svg">
<path d="M35.3101 90.22C29.4201 90.22 24.6201 85.4301 24.6201 79.5301C24.6201 73.6301 29.5101 69.04 35.3101 69.04C41.1101 69.04 46.0001 73.8501 46.0001 79.5301C46.0001 85.2101 41.2101 90.22 35.3101 90.22Z" fill="#130000"/>
<path d="M60.48 148.82C54.84 148.82 49.4 147.17 45.06 144.15C41.73 147.25 37.42 148.82 32.24 148.82C29.85 148.82 21.48 148.29 14.05 141.5C7.15999 135.2 3.37999 125.42 3.10999 113.22L3.04999 110.32L5.95001 110.16C9.55001 109.96 15.6 107.02 15.6 89.5201V55.3201C15.6 46.9101 13.91 30.1801 2.62 12.5501L0.969971 9.97009L3.58002 8.37012C7.21002 6.15012 12.39 4.6601 16.48 4.6601C18.23 4.6601 20.17 4.93009 22.41 5.47009L22.7 5.51013C24 5.67013 25.1 5.81012 26.28 5.81012C27.25 5.81012 28.58 4.63011 29.86 3.49011L30.34 3.08014C31.55 2.04014 33.22 0.620117 35.5 0.620117C37.78 0.620117 39.55 2.13014 41.1 3.46014L41.24 3.59015C43.39 5.74015 43.57 5.81012 44.53 5.81012C46.09 5.81012 48.24 5.63012 50.34 5.44012C53.79 4.90012 57.94 4.65015 63.74 4.65015C77.09 4.76015 90.36 9.22014 100.15 16.8901C108.22 23.2201 117.85 34.7501 117.85 53.7601C117.85 76.9101 98.33 100.85 65.66 100.85C65.51 100.85 65.36 100.85 65.21 100.85V104.68C65.21 107.62 66.01 110.1 66.76 110.95L78.55 124.19L78.46 125.45C77.37 140.78 68.59 148.79 60.48 148.79V148.82ZM37.06 125.72C39.37 127.39 43.08 129.38 47.6 129.38C56.37 129.38 58.39 121.06 58.84 117.96C47.05 113.77 45.75 94.9001 45.75 86.8401V78.8701L49.09 79.2501C52.59 79.6501 55.97 79.8501 59.12 79.8501C73.14 79.8501 83.58 76.0401 90.19 68.5201H72.95C69.5 70.9401 65.89 72.1701 62.2 72.1701H48.56C46.09 72.1701 43.81 70.9401 41.79 68.5201H26.44L24.85 71.0001V86.8401C24.85 96.8401 23.22 113.96 12.47 117.95C13.58 129.25 22.98 129.38 23.39 129.38C26.85 129.38 30.43 128.1 33.48 125.77L35.25 124.42L37.06 125.72ZM67.97 45.4501C67.25 45.4501 65.38 45.4501 65.22 54.2401C66.49 53.4701 69.01 50.5201 69.01 46.8701C69.01 45.4501 68.83 45.4501 67.98 45.4501H67.97Z" fill="#130000"/>
<path d="M35.3101 109.44C30.4001 109.44 26.55 105.59 26.55 100.68C26.55 95.7702 30.4001 91.9202 35.3101 91.9202C40.2201 91.9202 44.0701 95.7702 44.0701 100.68C44.0701 105.59 40.2201 109.44 35.3101 109.44Z" fill="#130000"/>
<path d="M35.31 124.23C31.54 124.23 28.47 121.16 28.47 117.39C28.47 113.62 31.6 110.35 35.31 110.35C39.02 110.35 42.15 113.57 42.15 117.39C42.15 121.21 39.08 124.23 35.31 124.23Z" fill="#130000"/>
<path d="M203.43 109.44C198.52 109.44 194.67 105.59 194.67 100.68C194.67 95.7702 198.52 91.9202 203.43 91.9202C208.34 91.9202 212.19 95.7702 212.19 100.68C212.19 105.59 208.34 109.44 203.43 109.44Z" fill="#130000"/>
<path d="M180.95 150.55C163.03 150.55 146.56 143.06 134.58 129.45C121.72 114.86 114.93 94.4701 114.93 70.5001C114.93 53.5401 119.36 37.6701 127.41 25.8001C136.01 13.1101 148.19 6.02013 161.7 5.82013C164.01 5.82013 165.38 4.96011 166.11 4.24011C168.16 1.87011 170.2 0.630127 172.11 0.630127C174.67 0.630127 176.43 2.36012 178.13 4.06012C179.64 5.20012 180.98 5.70013 182.88 5.82013C204.74 6.59013 239.48 27.6901 239.48 81.0601C239.48 99.0501 234.22 115.95 224.66 128.64C213.87 142.97 198.76 150.54 180.95 150.54V150.55ZM124.21 68.5101C124.2 69.1101 124.19 69.7101 124.19 70.3101C124.19 94.4901 130.84 111.85 143.95 121.91C154.37 129.91 166.06 131.1 172.1 131.1C188.75 131.1 201.41 124.52 209.76 111.53C216.5 101.04 220.21 86.4001 220.21 70.3101C220.21 69.7101 220.21 69.1001 220.19 68.5101H194.12V69.5501C194.12 91.6001 194.12 119.05 172.1 119.05C150.08 119.05 150.27 92.7501 150.27 69.5501V68.5101H124.2H124.21ZM177.1 43.3401C175.32 43.3401 174.16 43.7501 173.22 44.7001C170.23 47.7101 168.84 56.8401 168.96 72.6001C169.17 98.0501 174.06 107.28 177.3 107.28C178.56 107.28 184.87 105.44 184.87 69.1601C184.87 43.3401 181.45 43.3401 177.11 43.3401H177.1Z" fill="#130000"/>
<path d="M206.69 90.22C200.79 90.22 195.81 85.3301 195.81 79.5301C195.81 73.7301 200.79 69.04 206.69 69.04C212.59 69.04 217.38 73.8501 217.38 79.5301C217.38 85.2101 212.59 90.22 206.69 90.22Z" fill="#130000"/>
<path d="M141.17 109.44C136.26 109.44 132.41 105.59 132.41 100.68C132.41 95.7702 136.26 91.9202 141.17 91.9202C146.08 91.9202 149.93 95.6102 149.93 100.68C149.93 105.75 146.24 109.44 141.17 109.44Z" fill="#130000"/>
<path d="M150.78 124.23C147.01 124.23 143.94 121.16 143.94 117.39C143.94 113.62 147.07 110.35 150.78 110.35C154.49 110.35 157.62 113.57 157.62 117.39C157.62 121.21 154.55 124.23 150.78 124.23Z" fill="#130000"/>
<path d="M194.59 124.23C190.82 124.23 187.75 121.16 187.75 117.39C187.75 113.62 190.88 110.35 194.59 110.35C198.3 110.35 201.43 113.57 201.43 117.39C201.43 121.21 198.36 124.23 194.59 124.23Z" fill="#130000"/>
<path d="M137.33 90.22C131.43 90.22 126.45 85.3301 126.45 79.5301C126.45 73.7301 131.43 69.04 137.33 69.04C143.23 69.04 148.02 73.8501 148.02 79.5301C148.02 85.2101 143.23 90.22 137.33 90.22Z" fill="#130000"/>
<path d="M320.05 109.44C314.97 109.44 311.29 105.75 311.29 100.68C311.29 95.6102 314.98 91.9202 320.05 91.9202C325.12 91.9202 328.81 95.7702 328.81 100.68C328.81 105.59 324.96 109.44 320.05 109.44Z" fill="#130000"/>
<path d="M326.59 124.23C322.86 124.23 319.94 121.23 319.94 117.39C319.94 113.55 322.92 110.35 326.59 110.35C330.26 110.35 333.43 113.44 333.43 117.39C333.43 121.34 330.49 124.23 326.59 124.23Z" fill="#130000"/>
<path d="M308.14 88.1101C303.14 88.1101 299.38 84.2601 299.38 79.1501C299.38 74.3201 303.31 70.3901 308.14 70.3901C312.97 70.3901 316.9 74.3201 316.9 79.1501C316.9 84.2601 313.13 88.1101 308.14 88.1101Z" fill="#130000"/>
<path d="M267.79 124.23C264.02 124.23 260.95 121.16 260.95 117.39C260.95 113.62 264.08 110.35 267.79 110.35C271.5 110.35 274.63 113.57 274.63 117.39C274.63 121.21 271.56 124.23 267.79 124.23Z" fill="#130000"/>
<path d="M267.79 90.22C261.9 90.22 257.1 85.4301 257.1 79.5301C257.1 73.6301 261.99 69.04 267.79 69.04C273.59 69.04 278.48 73.8501 278.48 79.5301C278.48 85.2101 273.69 90.22 267.79 90.22Z" fill="#130000"/>
<path d="M267.79 109.44C262.88 109.44 259.03 105.59 259.03 100.68C259.03 95.7702 262.88 91.9202 267.79 91.9202C272.7 91.9202 276.55 95.7702 276.55 100.68C276.55 105.59 272.7 109.44 267.79 109.44Z" fill="#130000"/>
<path d="M431.69 148.82C427.16 148.82 423.02 147.56 419.64 145.16C415.86 147.59 411.9 148.82 407.86 148.82C395.74 148.82 376.11 139.12 375.08 113.08L374.96 109.96H378.08C381.66 109.96 384.2 107.91 386.08 103.52C387.64 99.8901 388.53 94.7901 388.53 89.5201V72.8001C388.53 70.4501 388.51 68.0801 388.48 65.7201C383.21 74.7501 374.83 79.8401 365.02 79.8401H363.9L350.13 67.8501C347.66 73.6401 343.5 78.5301 337.69 82.5001C341.65 86.7301 344.98 92.8102 347.13 99.7802C348.43 104.18 351.49 109.23 355.51 113.63L365.71 125.08V126.22C365.71 140.37 359.27 148.82 348.49 148.82C344.09 148.82 340.65 146.98 338.07 145.21C334.97 147.48 331.02 148.82 327.36 148.82C320.12 148.82 313.45 145.6 308.46 139.72C306.58 142.11 304.37 144.1 301.86 145.67C298.14 147.76 294.58 148.82 291.24 148.82C286.96 148.82 282.29 147.42 278.87 145.14C276.08 147.02 272.51 148.82 267.23 148.82C252.08 148.82 235.81 139.31 235.6 112.6L235.58 109.86L238.3 109.59C246.92 108.73 248.09 98.9601 248.09 89.5201V55.9001C248.09 41.0201 243.89 26.8201 235.26 12.4901L233.8 10.0701L236.13 8.47009C239.94 5.85009 245.23 4.68011 248.78 4.68011C250.53 4.68011 252.46 4.95011 254.7 5.49011L255.54 5.59015C256.69 5.73015 257.59 5.84015 258.78 5.84015C259.38 5.84015 260.71 5.15013 261.99 3.88013C263.8 1.79013 265.9 0.650146 268 0.650146C270.24 0.650146 271.98 2.10013 273.38 3.26013L273.52 3.38013C275.66 5.52013 276.52 5.83014 276.84 5.83014C278.28 5.83014 279.97 5.67013 281.75 5.51013L282.24 5.47009C285.46 4.91009 289.41 4.68011 296.24 4.68011C315.98 4.68011 339.44 15.1601 348.78 35.2601C349.13 32.1401 349.92 29.1001 350.97 26.9601C351.14 26.5501 351.33 26.1101 351.5 25.7001C351.8 24.9901 352.37 23.6801 352.42 23.3501C352.42 23.2801 352.36 22.7301 351.63 21.7101L351.54 21.5801C350.38 19.7201 349.15 16.2801 349.15 13.0501C349.15 10.2001 350.45 5.64014 352.06 2.89014L352.93 1.40015H354.65C357.17 1.40015 359.95 2.88014 360.75 3.33014C363.06 4.56014 367 5.82013 370.02 5.82013C373.83 5.82013 375.37 4.76011 375.75 4.43011C378.5 2.13011 380.47 0.630127 382.7 0.630127C385.26 0.630127 387.07 2.41011 388.52 3.86011C389.66 4.71011 391.71 5.81012 396.34 5.81012C399.71 5.81012 401.74 4.39013 402.97 3.32013C404.21 2.09013 405.98 0.620117 408.26 0.620117C410.54 0.620117 412.31 2.09012 413.6 3.37012C414.86 4.46012 417.08 5.81012 420.18 5.81012C423.49 5.81012 426.09 5.08012 428.13 3.56012L428.46 3.27014C429.89 2.03014 431.51 0.620117 433.82 0.620117C436.58 0.620117 438.79 2.45012 440.42 4.06012C441.87 5.17012 443.81 5.83014 445.64 5.83014C445.8 5.83014 445.96 5.83013 446.13 5.82013C447.32 5.72013 450.65 5.2701 455.36 3.3501C457.41 2.4201 459.19 1.97009 460.92 1.97009C462.77 1.97009 463.96 2.89012 464.74 3.50012L465.11 3.78015L475.62 13.3101C477.59 15.2801 477.76 17.7701 477.76 19.9501C477.76 23.1601 476.6 27.2301 474.87 30.0801C474.03 31.7801 473.73 32.9501 473.73 33.2001C473.73 33.9701 474.2 35.9201 475.23 38.3901C476.3 41.0701 477.57 45.0601 477.57 48.9601C477.57 52.2001 476.59 56.1401 474.66 60.6501C473.79 63.0801 472.96 65.4301 472.96 67.6001C472.96 69.0501 473.46 70.4901 473.92 71.7401C474.54 73.1701 475.26 75.1101 475.26 77.0201C475.26 78.9301 474.02 80.8501 471.26 80.8501C471.02 80.8501 470.75 80.8401 470.44 80.8201C470.18 80.8101 469.89 80.7901 469.56 80.7901C460.98 80.7901 445.68 74.0101 437.61 59.5401C437.61 60.4001 437.6 61.3001 437.6 62.2201V92.1901C437.6 104.27 439.35 110.95 443.64 115.24L451.44 123.03V124.27C451.44 138.25 442.96 148.79 431.72 148.79L431.69 148.82ZM385.42 117.94C386.54 129.12 395.93 129.37 396.34 129.37C399.79 129.37 403.38 128.09 406.42 125.76L408.19 124.41L410 125.72C413.27 128.08 416.88 129.38 420.16 129.38C420.58 129.38 430.15 129.25 431.27 117.95C419.94 113.73 418.7 94.8801 418.7 86.8401V68.5101H397.99V86.8401C397.99 94.8801 396.75 113.72 385.42 117.94ZM328.71 126.03C330.81 128.13 334.04 129.38 337.35 129.38C340.66 129.38 342.92 128.68 344.27 127.19C345.68 125.64 346.34 123 346.25 119.35C341.19 118.38 333.26 114.18 330.93 97.8301C329.03 84.7501 321.9 76.9201 315.86 73.9701L309.09 70.6501L315.97 68.5101H305.13C300.38 71.2601 294.74 72.5501 287.4 72.5501H280.48C278.03 72.5501 275.73 71.1901 273.61 68.5101H257.34V86.8401C257.34 96.8401 255.71 113.96 244.96 117.95C246.07 129.25 255.47 129.38 255.88 129.38C259.16 129.38 262.4 128.2 266.1 125.68L267.84 124.49L269.55 125.72C271.86 127.39 275.57 129.38 280.09 129.38C288.86 129.38 290.88 121.06 291.33 117.96C279.54 113.77 278.24 94.9001 278.24 86.8401V78.4601H281.24C304.1 78.4601 308.08 93.4801 310.92 113.12L311.04 113.92L310.74 114.67C308.88 119.26 308.89 124.02 310.76 126.8C311.93 128.53 313.72 129.38 316.22 129.38C319.6 129.38 322.42 128.25 324.39 126.12L326.51 123.83L328.72 126.04L328.71 126.03ZM301.12 113.36C301.22 113.02 301.32 112.68 301.42 112.35C300.96 109.22 300.04 103.16 298.05 98.0701C298.48 103.71 299.3 108.67 300.44 112.62L301.11 113.37L301.12 113.36ZM352.84 53.7901C352.84 56.3901 352.61 58.8801 352.15 61.2501C352.98 59.1301 353.19 57.9201 353.19 56.8701C353.19 55.8201 353.07 54.3801 352.84 53.0401C352.84 53.2901 352.84 53.5401 352.84 53.8001V53.7901ZM297.96 54.4401C299.51 54.4401 303.26 49.8802 303.41 45.7802C303.07 45.6402 302.18 45.4501 300.46 45.4501C299.67 45.4501 297.84 45.4501 297.7 54.4301C297.78 54.4301 297.87 54.4301 297.96 54.4301V54.4401Z" fill="#130000"/>
<path d="M408.25 90.22C402.36 90.22 397.56 85.4301 397.56 79.5301C397.56 73.6301 402.45 69.04 408.25 69.04C414.05 69.04 418.94 73.8501 418.94 79.5301C418.94 85.2101 414.15 90.22 408.25 90.22Z" fill="#130000"/>
<path d="M408.25 109.44C403.33 109.44 399.49 105.59 399.49 100.68C399.49 95.7702 403.34 91.9202 408.25 91.9202C413.16 91.9202 417.01 95.7702 417.01 100.68C417.01 105.59 413.16 109.44 408.25 109.44Z" fill="#130000"/>
<path d="M408.25 124.23C404.48 124.23 401.41 121.16 401.41 117.39C401.41 113.62 404.54 110.35 408.25 110.35C411.96 110.35 415.09 113.57 415.09 117.39C415.09 121.21 412.02 124.23 408.25 124.23Z" fill="#130000"/>
<path d="M483.34 89.4503L475.95 82.5703V60.0103H518.37L526.91 69.9702V89.4503H483.34Z" fill="#130000"/>
<path d="M35.31 274.23C31.54 274.23 28.47 271.16 28.47 267.39C28.47 263.62 31.6 260.35 35.31 260.35C39.02 260.35 42.15 263.57 42.15 267.39C42.15 271.21 39.08 274.23 35.31 274.23Z" fill="#130000"/>
<path d="M35.3101 259.44C30.4001 259.44 26.55 255.59 26.55 250.68C26.55 245.77 30.4001 241.92 35.3101 241.92C40.2201 241.92 44.0701 245.77 44.0701 250.68C44.0701 255.59 40.2201 259.44 35.3101 259.44Z" fill="#130000"/>
<path d="M62.21 298.82C55.88 298.82 50.05 296.47 46.85 294.89C43.59 297.07 40.3101 298.82 34.7401 298.82C14.3401 298.82 3.11005 285.95 3.11005 262.58V259.58H6.11005C12.32 259.58 15.6 252.11 15.6 237.99V209.17C15.6 192.88 11.53 178.91 1.98004 162.45L0.52002 159.93L3.00006 158.4C8.42006 155.05 14.2401 154.68 16.4901 154.68C18.5201 154.68 20.44 154.68 22.52 155.32C22.88 155.37 23.2601 155.42 23.6401 155.48H23.7401C24.8501 155.66 25.99 155.83 26.86 155.83C27.14 155.79 28.43 155.13 29.54 154.02C31.12 152.44 32.9201 150.64 35.5001 150.64C37.9301 150.64 39.9901 152.11 41.4901 153.18L41.9301 153.49L42.1401 153.73C43.4201 155.14 45.7101 155.82 49.1401 155.82C53.6501 155.82 55.9201 154.4 56.6801 153.79L57.2001 153.38C59.0001 151.97 60.7 150.63 62.78 150.63C64.43 150.63 66.3101 151.41 69.0601 153.25C70.9801 154.53 75.7701 155.82 81.2301 155.82C86.3501 155.82 90.44 155.41 95 153.39C96.23 152.77 97.8101 151.98 99.6801 151.98C101.55 151.98 102.72 152.9 103.5 153.51L103.87 153.8L114.39 163.54C115.67 164.81 116.5 167.15 116.5 169.39C116.5 171.8 115.75 174.35 114.21 177.17L114.13 177.3C112.49 179.92 112.27 181.33 112.27 182.46C112.27 183.2 112.47 184.63 113.42 187.17L113.85 188.35C114.82 190.99 115.92 193.99 115.92 196.68C115.92 199.61 114.87 203.13 112.72 207.44L112.42 208.03C111.8 209.25 111.11 210.62 111.11 211.29C111.11 212.23 111.57 213.43 112.02 214.58L112.27 215.23C113.03 217 113.42 218.72 113.42 220.32C113.42 222.67 111.43 224.51 108.89 224.51C108.15 224.51 107.41 224.35 106.74 224.04C99.39 221.39 93.1 219 87.5 215.56C88.38 217.89 88.8301 220.25 88.8301 222.63C88.8301 226.14 87.66 229.84 85.66 232.68C87.76 236.41 88.8301 240.26 88.8301 244.14C88.8301 253.92 81.64 260.41 69.91 261.41C70.02 261.53 70.12 261.65 70.23 261.77L82.54 276.34L82.49 277.51C81.79 293.04 69.6801 298.82 62.2001 298.82H62.21ZM37.1401 275.66C42.6501 277.9 46.2801 279.38 50.8701 279.38C54.9601 279.38 60.0601 277.44 61.5701 268.35C49.9201 266.08 45.7601 251.86 45.7601 240.11C45.7601 234.14 49.4 230.58 55.48 230.58C60.41 230.58 63.86 233.63 63.86 238C63.86 239.05 63.7901 240.55 63.5001 242.19C70.5201 241.5 71.3101 235.74 71.3101 233.19C71.3101 230.14 70.42 227.78 68.65 226.2L66.59 224.34L68.28 222.14C69.78 220.19 71.3101 217.7 71.3101 213.98C71.3101 208.48 66.9 206.81 63.53 206.33C63.8 207.9 63.86 209.33 63.86 210.33C63.86 214.3 61.0001 217.29 56.8901 217.85L57.9 218.52H26.91L24.86 221.98V236.85C24.86 246.85 23.23 263.97 12.48 267.96C13.59 279.26 22.99 279.39 23.4 279.39C26.86 279.39 30.4401 278.11 33.4901 275.78L34.85 274.74L37.15 275.67L37.1401 275.66ZM65.2601 197.49C67.3701 197.88 69.52 198.57 71.63 199.53C71 198.54 70.38 197.5 69.78 196.43C68.34 194.08 66.9501 193.49 65.8101 193.37C65.6501 193.84 65.3701 194.96 65.2601 197.5V197.49Z" fill="#130000"/>
<path d="M35.3101 240.22C29.4201 240.22 24.6201 235.43 24.6201 229.53C24.6201 223.63 29.5101 219.04 35.3101 219.04C41.1101 219.04 46.0001 223.85 46.0001 229.53C46.0001 235.21 41.2101 240.22 35.3101 240.22Z" fill="#130000"/>
<path d="M149.05 274.23C145.28 274.23 142.21 271.16 142.21 267.39C142.21 263.62 145.34 260.35 149.05 260.35C152.76 260.35 155.89 263.57 155.89 267.39C155.89 271.21 152.82 274.23 149.05 274.23Z" fill="#130000"/>
<path d="M201.7 259.44C196.79 259.44 192.94 255.59 192.94 250.68C192.94 245.77 196.79 241.92 201.7 241.92C206.61 241.92 210.46 245.77 210.46 250.68C210.46 255.59 206.61 259.44 201.7 259.44Z" fill="#130000"/>
<path d="M135.6 240.22C129.7 240.22 124.72 235.33 124.72 229.53C124.72 223.73 129.7 219.04 135.6 219.04C141.5 219.04 146.29 223.85 146.29 229.53C146.29 235.21 141.5 240.22 135.6 240.22Z" fill="#130000"/>
<path d="M139.45 259.44C134.54 259.44 130.69 255.59 130.69 250.68C130.69 245.77 134.54 241.92 139.45 241.92C144.36 241.92 148.21 245.61 148.21 250.68C148.21 255.75 144.52 259.44 139.45 259.44Z" fill="#130000"/>
<path d="M204.97 240.22C199.07 240.22 194.09 235.33 194.09 229.53C194.09 223.73 199.07 219.04 204.97 219.04C210.87 219.04 215.66 223.85 215.66 229.53C215.66 235.21 210.87 240.22 204.97 240.22Z" fill="#130000"/>
<path d="M192.86 274.23C189.09 274.23 186.02 271.16 186.02 267.39C186.02 263.62 189.15 260.35 192.86 260.35C196.57 260.35 199.7 263.57 199.7 267.39C199.7 271.21 196.63 274.23 192.86 274.23Z" fill="#130000"/>
<path d="M179.22 300.55C161.3 300.55 144.83 293.06 132.85 279.45C119.99 264.86 113.2 244.47 113.2 220.5C113.2 184.01 133.3 156.21 159.96 155.82C162.27 155.82 163.64 154.96 164.37 154.24C166.42 151.87 168.46 150.63 170.37 150.63C172.93 150.63 174.69 152.37 176.39 154.06C177.9 155.2 179.24 155.7 181.14 155.82C203 156.58 237.74 177.69 237.74 231.06C237.74 249.05 232.48 265.95 222.92 278.64C212.13 292.97 197.02 300.54 179.21 300.54L179.22 300.55ZM122.48 218.51C122.47 219.11 122.46 219.71 122.46 220.31C122.46 244.49 129.11 261.85 142.22 271.91C152.64 279.91 164.33 281.1 170.37 281.1C187.02 281.1 199.68 274.52 208.03 261.53C214.77 251.04 218.48 236.4 218.48 220.31C218.48 219.71 218.48 219.1 218.46 218.51H192.39V219.55C192.39 241.6 192.39 269.05 170.37 269.05C148.35 269.05 148.54 242.75 148.54 219.55V218.51H122.47H122.48ZM175.38 193.34C173.6 193.34 172.44 193.75 171.5 194.7C168.51 197.71 167.12 206.83 167.24 222.6C167.45 248.05 172.34 257.28 175.58 257.28C176.84 257.28 183.15 255.44 183.15 219.16C183.15 193.34 179.73 193.34 175.39 193.34H175.38Z" fill="#130000"/>
<path d="M265.49 259.44C260.58 259.44 256.73 255.59 256.73 250.68C256.73 245.77 260.58 241.92 265.49 241.92C270.4 241.92 274.25 245.61 274.25 250.68C274.25 255.75 270.56 259.44 265.49 259.44Z" fill="#130000"/>
<path d="M321.59 259.44C316.51 259.44 312.83 255.75 312.83 250.68C312.83 245.61 316.52 241.92 321.59 241.92C326.66 241.92 330.35 245.77 330.35 250.68C330.35 255.59 326.5 259.44 321.59 259.44Z" fill="#130000"/>
<path d="M265.49 274.23C261.72 274.23 258.65 271.16 258.65 267.39C258.65 263.62 261.78 260.35 265.49 260.35C269.2 260.35 272.33 263.57 272.33 267.39C272.33 271.21 269.26 274.23 265.49 274.23Z" fill="#130000"/>
<path d="M265.49 240.22C259.6 240.22 254.8 235.43 254.8 229.53C254.8 223.63 259.69 219.04 265.49 219.04C271.29 219.04 276.18 223.85 276.18 229.53C276.18 235.21 271.39 240.22 265.49 240.22Z" fill="#130000"/>
<path d="M377.12 240.22C371.23 240.22 366.43 235.43 366.43 229.53C366.43 223.63 371.32 219.04 377.12 219.04C382.92 219.04 387.81 223.85 387.81 229.53C387.81 235.21 383.02 240.22 377.12 240.22Z" fill="#130000"/>
<path d="M377.12 259.44C372.2 259.44 368.36 255.59 368.36 250.68C368.36 245.77 372.21 241.92 377.12 241.92C382.03 241.92 385.88 245.77 385.88 250.68C385.88 255.59 382.03 259.44 377.12 259.44Z" fill="#130000"/>
<path d="M377.12 274.23C373.35 274.23 370.28 271.16 370.28 267.39C370.28 263.62 373.41 260.35 377.12 260.35C380.83 260.35 383.96 263.57 383.96 267.39C383.96 271.21 380.89 274.23 377.12 274.23Z" fill="#130000"/>
<path d="M298.54 300.55C291.77 300.55 284.04 298.51 277.22 294.93C273.39 297.44 269.11 298.82 265.11 298.82C248.89 298.82 232.52 287.61 232.52 262.58V259.58H235.52C244.47 259.58 246.35 246.06 246.35 234.72V214.93C246.35 194.9 242.42 180.18 232.33 162.42L230.85 159.82L233.45 158.34C237.46 156.05 242.47 154.68 246.85 154.68C248.6 154.68 250.54 154.95 252.78 155.49L253.07 155.53C254.37 155.69 255.47 155.83 256.65 155.83C257.38 155.83 258.73 155.19 259.96 153.78C261.61 151.79 263.77 150.64 265.87 150.64C267.97 150.64 269.76 151.84 271.82 153.64C272.12 153.87 272.48 154.16 272.84 154.46C273.46 154.97 274.49 155.83 274.9 155.83C276.09 155.83 276.99 155.72 278.13 155.59L279 155.49C281.44 154.94 283.74 154.68 286.23 154.68C289.13 154.68 293.15 155.8 294.88 157.87L304.88 169.2L303.83 171.06C298.12 181.18 295.57 199.04 295.57 212.24V240.48C295.57 253.08 298.39 255.93 298.91 255.93C300.56 255.93 303.98 253.7 303.98 246.83C303.98 244.15 303.39 239.85 298.3 233.53L295.57 230.15L299.7 228.8C304.88 227.1 309.89 226.24 314.57 226.24C338.07 226.24 348.74 247.47 349.51 259.49C352.32 258.16 357.39 253.77 357.39 239.52V214.93C357.39 192.75 353.93 179.13 344.18 162.87L342.65 160.32L345.19 158.77C349.19 156.32 354.38 154.68 358.09 154.68C360.21 154.68 362.33 154.9 364.22 155.31C364.7 155.37 365.21 155.46 365.72 155.56C366.56 155.72 367.23 155.84 368.08 155.84C368.93 155.84 369.94 155.23 371.15 154.03C373.18 152 374.97 150.65 377.11 150.65C379.25 150.65 381.16 152.22 382.67 153.48L382.98 153.74C384 154.63 385.37 155.84 386.14 155.84C386.96 155.84 387.62 155.72 388.46 155.58C389.03 155.48 389.59 155.38 390.22 155.31C391.96 154.89 393.9 154.69 396.13 154.69C398.36 154.69 405.81 155.03 409.38 159.41L418.47 169.4L417.37 171.3C410.82 182.61 406.25 199.46 406.25 212.26V242.23C406.25 253.03 408.49 262.07 412.24 266.4L419.12 274.14V275.28C419.12 289.15 411.41 298.84 400.37 298.84C395.95 298.84 391.81 297.57 388.36 295.16C384.57 297.6 380.6 298.84 376.55 298.84C366.75 298.84 350.86 292.46 345.55 275.07C344.84 276.14 344.05 277.11 343.19 277.99C346.46 283.05 348.81 291.04 348.81 293.53C348.81 296.24 346.76 298.29 344.05 298.29C343.33 298.29 342.6 298.15 341.88 297.88L341.72 297.81C337.03 295.68 332.04 294.42 328.33 294.42C324.62 294.42 320.9 295.17 316.93 296.71C314.29 297.86 307.15 300.56 298.55 300.56L298.54 300.55ZM268.05 276.08C270.9 279.08 280.36 281.1 287.4 281.1C293 281.1 298.46 279.94 301.44 278.95C302.05 278.74 302.73 278.48 303.44 278.21C307.07 276.84 311.57 275.14 317.19 275.14C321.73 275.14 326.32 276.65 330.37 277.99C330.37 277.99 330.77 278.12 330.89 278.16C330.15 275.43 328.67 272.35 326.31 270.52L323.93 268.69L325.76 266.32C329.31 261.72 330.9 257.01 330.9 251.05C330.9 239.48 322.06 235.38 314.49 235.38C313.39 235.38 312.26 235.46 311.13 235.62C312.91 239.2 313.85 242.98 313.85 246.64C313.85 251.94 312.31 256.7 309.47 260.37C313.03 260.56 315.97 263.7 315.97 267.4C315.97 271.1 312.9 274.24 309.13 274.24C305.36 274.24 302.29 271.17 302.29 267.4C302.29 266.9 302.34 266.4 302.45 265.91C299.82 267.1 296.87 267.71 293.76 267.71C276.16 267.71 276.16 250.6 276.16 236.85V220.81L274.5 218.52H257.07L255.26 220.94V236.85C255.26 246.85 253.63 263.97 242.88 267.96C243.99 279.26 253.39 279.39 253.8 279.39C258.16 279.39 261.84 277.4 264.15 275.73L266.28 274.19L268.09 276.09L268.05 276.08ZM379.13 275.76C381.28 277.41 384.75 279.37 389.03 279.37C389.45 279.37 399.02 279.24 400.14 267.94C388.81 263.72 387.57 244.87 387.57 236.83V221.87L385.66 218.51H368.64L366.67 221.58V236.84C366.67 246.84 365.04 263.96 354.29 267.95C355.4 279.25 364.8 279.38 365.21 279.38C369.58 279.38 373.25 277.39 375.56 275.72L377.37 274.42L379.14 275.77L379.13 275.76Z" fill="#130000"/>
<path d="M481.64 300.55C463.72 300.55 447.25 293.06 435.27 279.45C422.41 264.86 415.62 244.47 415.62 220.5C415.62 203.54 420.05 187.67 428.1 175.8C436.7 163.11 448.88 156.02 462.39 155.82C464.7 155.82 466.07 154.96 466.8 154.24C468.85 151.87 470.89 150.63 472.8 150.63C475.36 150.63 477.12 152.36 478.82 154.06C480.33 155.2 481.67 155.7 483.57 155.82C505.43 156.58 540.17 177.69 540.17 231.06C540.17 249.05 534.91 265.95 525.35 278.64C514.56 292.97 499.45 300.54 481.64 300.54V300.55ZM424.91 218.51C424.9 219.11 424.89 219.71 424.89 220.31C424.89 244.49 431.54 261.85 444.65 271.91C455.07 279.91 466.76 281.1 472.8 281.1C489.44 281.1 502.11 274.52 510.46 261.53C517.2 251.04 520.91 236.4 520.91 220.31C520.91 219.71 520.91 219.1 520.89 218.51H494.82V219.55C494.82 241.6 494.82 269.05 472.8 269.05C450.78 269.05 450.97 242.75 450.97 219.55V218.51H424.9H424.91ZM477.8 193.34C476.02 193.34 474.86 193.75 473.92 194.7C470.93 197.71 469.54 206.83 469.66 222.6C469.87 248.05 474.76 257.28 478 257.28C479.26 257.28 485.57 255.44 485.57 219.16C485.57 193.34 482.15 193.34 477.81 193.34H477.8Z" fill="#130000"/>
<path d="M507.39 240.22C501.49 240.22 496.51 235.33 496.51 229.53C496.51 223.73 501.49 219.04 507.39 219.04C513.29 219.04 518.08 223.85 518.08 229.53C518.08 235.21 513.29 240.22 507.39 240.22Z" fill="#130000"/>
<path d="M504.12 259.44C499.21 259.44 495.36 255.59 495.36 250.68C495.36 245.77 499.21 241.92 504.12 241.92C509.03 241.92 512.88 245.77 512.88 250.68C512.88 255.59 509.03 259.44 504.12 259.44Z" fill="#130000"/>
<path d="M438.02 240.22C432.12 240.22 427.14 235.33 427.14 229.53C427.14 223.73 432.12 219.04 438.02 219.04C443.92 219.04 448.71 223.85 448.71 229.53C448.71 235.21 443.92 240.22 438.02 240.22Z" fill="#130000"/>
<path d="M441.87 259.44C436.95 259.44 433.11 255.59 433.11 250.68C433.11 245.77 436.96 241.92 441.87 241.92C446.78 241.92 450.63 245.61 450.63 250.68C450.63 255.75 446.94 259.44 441.87 259.44Z" fill="#130000"/>
<path d="M451.47 274.23C447.7 274.23 444.63 271.16 444.63 267.39C444.63 263.62 447.76 260.35 451.47 260.35C455.18 260.35 458.31 263.57 458.31 267.39C458.31 271.21 455.24 274.23 451.47 274.23Z" fill="#130000"/>
<path d="M495.28 274.23C491.51 274.23 488.44 271.16 488.44 267.39C488.44 263.62 491.57 260.35 495.28 260.35C498.99 260.35 502.12 263.57 502.12 267.39C502.12 271.21 499.05 274.23 495.28 274.23Z" fill="#130000"/>
<path d="M48.7601 86.8401C48.7601 94.3301 49.9101 113.93 62.0201 115.66C62.0201 129.3 52.0301 132.38 47.6101 132.38C43.1901 132.38 38.7701 130.65 35.3101 128.15C32.0401 130.65 27.8201 132.38 23.4001 132.38C18.9801 132.38 9.37012 129.31 9.37012 115.66C20.9001 113.93 21.8601 94.3301 21.8601 86.8401V58.0201C21.8601 42.0701 18.2101 26.5101 9.56012 12.4801C11.8701 11.3301 13.9801 10.9401 16.2801 10.9401C18.2001 10.9401 20.1201 11.3201 21.6601 11.7101C23.3901 12.0901 24.5401 12.0901 26.6601 12.0901C28.5801 12.0901 30.5001 11.1301 31.8501 9.59015C32.8101 8.44015 34.1601 6.90015 35.5001 6.90015C36.6501 6.90015 37.8101 8.44015 38.9601 9.59015C40.1101 10.9301 42.2301 12.0901 43.9601 12.0901C46.0701 12.0901 48.1901 12.0901 51.6501 11.7101C54.7201 11.3301 58.7601 10.9401 63.9501 10.9401C86.6201 10.9401 101.42 23.2401 101.42 43.4101C101.42 64.7401 89.5101 86.8301 48.7701 82.2201V86.8301L48.7601 86.8401ZM56.2501 62.8201C69.7001 62.8201 75.4601 54.7501 75.4601 44.7601C75.4601 34.7701 70.4601 29.0001 61.0501 29.0001C48.7501 29.0001 48.7501 36.6901 48.7501 52.2501V60.9001C48.7501 61.8601 49.5201 62.8201 50.8601 62.8201H56.2401H56.2501Z" fill="#FAEED5"/>
<path d="M121.19 70.3102C121.19 38.9902 138.48 12.0902 161.73 12.0902C164.8 12.0902 166.73 11.1302 168.26 9.79016C169.8 8.44016 170.95 6.91016 172.1 6.91016C173.45 6.91016 174.6 8.45016 175.75 9.60016C177.29 11.1402 179.59 12.1002 182.67 12.1002C205.92 12.1002 223.21 39.0002 223.21 70.3202C223.21 99.5302 211.11 134.11 172.1 134.11C133.09 134.11 121.18 99.5302 121.18 70.3202L121.19 70.3102ZM191.13 69.5502C191.13 50.9102 191.13 29.0102 172.11 29.0102C153.09 29.0102 153.28 50.9102 153.28 69.5502C153.28 91.4502 153.28 116.05 172.11 116.05C190.94 116.05 191.13 91.4602 191.13 69.5502Z" fill="#FAEED5"/>
<path d="M281.24 86.8402C281.24 94.3302 282.39 113.93 294.5 115.66C294.5 129.3 284.51 132.38 280.09 132.38C275.67 132.38 271.25 130.65 267.79 128.15C264.14 130.65 260.3 132.38 255.88 132.38C251.46 132.38 241.85 129.31 241.85 115.66C253.38 113.93 254.34 94.3302 254.34 86.8402V58.0202C254.34 42.0702 250.69 26.5102 242.04 12.4802C244.35 11.3302 246.46 10.9402 248.76 10.9402C250.68 10.9402 252.6 11.3202 254.14 11.7102C255.87 12.0902 257.02 12.0902 258.75 12.0902C260.67 12.0902 262.59 10.9402 264.32 9.79016C265.66 8.44016 266.63 6.91016 267.97 6.91016C269.12 6.91016 270.28 8.45016 271.62 9.60016C272.97 10.9402 275.08 12.1002 277 12.1002C278.73 12.1002 281.04 11.9102 283.92 11.5202C287.76 11.1402 291.22 10.9402 296.41 10.9402C319.08 10.9402 336.37 23.0402 336.37 43.0302C336.37 59.1702 328.88 67.6202 317.16 71.2802C326.58 75.8902 332.34 86.8402 333.88 97.4102C335.99 112.2 342.91 116.62 349.06 116.62C350.4 129.88 344.06 132.38 337.34 132.38C333.88 132.38 329.65 131.23 326.58 128.15C324.27 130.65 320.82 132.38 316.2 132.38C306.79 132.38 304.29 122.58 307.94 113.55C305.06 93.5702 301.41 81.4602 281.23 81.4602V86.8402H281.24ZM288.73 62.8202C302.18 62.8202 309.67 54.7502 309.67 43.2202C309.67 34.0002 302.95 29.0002 293.15 29.0002C281.24 29.0002 281.24 36.6902 281.24 52.2502V60.9002C281.24 61.8602 282.01 62.8202 283.35 62.8202H288.73Z" fill="#FAEED5"/>
<path d="M421.7 86.8401C421.7 94.3301 422.85 113.93 434.38 115.66C434.38 129.3 424.58 132.38 420.16 132.38C415.74 132.38 411.7 130.65 408.25 128.15C404.98 130.65 400.76 132.38 396.34 132.38C391.92 132.38 382.31 129.31 382.31 115.66C393.84 113.93 394.99 94.3301 394.99 86.8401V58.0201C394.99 53.9801 394.99 27.0801 386.15 27.0801C380.19 27.0801 378.66 34.9601 377.5 43.9901C376.16 56.8601 369.43 64.9301 356.94 64.9301C358.67 61.2801 359.44 58.9701 359.44 56.8601C359.44 54.7501 358.86 51.2901 357.9 48.9801C356.75 46.4801 354.83 42.4501 354.83 38.8001C354.83 35.1501 355.6 30.7301 356.56 28.4201C357.14 27.0801 358.87 24.5801 358.87 23.6201C358.87 22.4701 358.29 21.5101 357.53 20.3501C356.19 18.4301 355.22 15.5501 355.22 13.0501C355.22 10.7401 355.8 9.21012 356.37 8.25012C357.91 8.63012 360.02 9.40011 362.33 10.5501C364.64 11.7001 367.52 12.0901 370.98 12.0901C374.05 12.0901 377.51 10.9401 379.05 9.21014C380.78 7.67014 381.93 6.90015 382.7 6.90015C383.66 6.90015 384.43 7.67013 385.97 9.01013C388.47 11.1201 393.27 12.0801 396.35 12.0801C399.81 12.0801 402.31 11.1202 404.04 9.78015C405.77 8.63015 407.31 6.90015 408.27 6.90015C409.23 6.90015 410.77 8.63015 412.5 9.78015C414.23 11.1202 416.73 12.0801 420.19 12.0801C423.26 12.0801 428.26 11.1201 430.57 9.01013C432.11 7.67013 432.88 6.90015 433.84 6.90015C434.8 6.90015 435.76 7.67014 437.49 9.21014C439.03 10.9401 442.68 12.0901 445.56 12.0901C449.02 12.0901 452.09 11.3201 454.21 10.3601C456.32 9.21011 458.63 8.63012 460.17 8.25012C460.75 9.21012 461.51 10.7501 461.51 13.0501C461.51 15.5501 460.36 18.4301 459.01 20.3501C458.24 21.5001 457.86 22.4601 457.86 23.6201C457.86 24.5801 459.4 27.0801 459.97 28.4201C460.93 30.7301 461.7 35.1401 461.7 38.8001C461.7 42.4601 459.78 46.4901 458.63 48.9801C457.86 51.2901 457.09 54.7401 457.09 56.8601C457.09 58.9801 457.86 61.2801 459.59 64.9301C447.49 64.9301 440.57 56.8601 439.03 43.9901C438.07 34.9601 436.53 27.0801 430.58 27.0801C421.74 27.0801 421.74 53.9801 421.74 58.0201V86.8401H421.7Z" fill="#FAEED5"/>
<path d="M482.02 65.5103H514.68V78.7703H482.02V65.5103Z" fill="#FAEED5"/>
<path d="M21.8601 208.02C21.8601 192.07 18.2101 176.51 9.56012 162.48C11.8701 161.33 13.9801 160.94 16.2801 160.94C18.2001 160.94 20.1201 161.32 21.6601 161.71C23.3901 162.09 24.5401 162.09 26.2701 162.09C28.1901 162.09 30.3101 161.32 31.8401 159.79C32.8001 158.83 34.1501 156.91 35.4901 156.91C36.6401 156.91 37.8001 157.87 39.3301 159.22C40.8601 160.57 44.9001 162.1 49.1301 162.1C52.7801 162.1 55.8601 161.33 57.9701 159.8C60.0801 158.45 61.6201 156.92 62.9701 156.92C64.1201 156.92 65.2801 157.88 67.2001 159.42C69.5101 161.15 75.2702 162.11 81.6102 162.11C86.8002 162.11 91.0301 161.34 93.5201 160.19C95.2501 159.42 97.1701 158.46 98.3201 158.46C98.9001 158.46 99.4702 160.77 99.4702 163.07C99.4702 165.57 98.5101 168.45 97.1601 170.37C96.3901 171.52 95.8101 172.48 95.8101 173.44C95.8101 174.4 96.3902 176.32 97.3502 177.86C98.3102 179.59 99.4601 182.86 99.4601 185.16C99.4601 189.2 98.5001 193.04 97.1501 195.54C96.1901 197.65 95.0401 200.15 95.0401 202.07C95.0401 203.99 95.8102 206.11 97.7302 210.14C83.1302 209.18 76.0201 195.35 73.7101 189.2C71.0201 182.09 66.0201 177.1 60.4501 177.1C48.7301 177.1 48.7301 189.2 48.7301 202.27C48.7301 208.61 51.2301 214.95 55.4501 214.95C58.7201 214.95 60.8301 213.03 60.8301 210.34C60.8301 208.03 60.4501 205.34 59.4901 203.23C71.2101 202.46 74.2801 209.38 74.2801 213.99C74.2801 218.6 72.5501 221.48 70.6301 223.98C72.5501 225.71 74.2801 228.59 74.2801 233.2C74.2801 238.58 71.2101 246.46 59.4901 245.11C60.4501 243 60.8301 240.31 60.8301 238C60.8301 235.31 58.7201 233.58 55.4501 233.58C51.6101 233.58 48.7301 235.31 48.7301 240.11C48.7301 249.53 51.8001 265.66 64.8701 265.66C63.9101 279.3 56.4201 282.38 50.8401 282.38C45.2601 282.38 41.4201 280.65 35.2801 278.15C32.0101 280.65 27.7901 282.38 23.3701 282.38C18.9501 282.38 9.34009 279.31 9.34009 265.66C20.8701 263.93 21.8301 244.33 21.8301 236.84V208.02H21.8601Z" fill="#FAEED5"/>
<path d="M119.46 220.31C119.46 188.99 136.75 162.09 160 162.09C163.07 162.09 165 161.13 166.53 159.79C168.07 158.44 169.22 156.91 170.37 156.91C171.71 156.91 172.87 158.45 174.02 159.6C175.56 161.14 177.86 162.1 180.94 162.1C204.19 162.1 221.48 189 221.48 220.32C221.48 249.53 209.38 284.11 170.37 284.11C131.36 284.11 119.45 249.53 119.45 220.32L119.46 220.31ZM189.4 219.55C189.4 200.91 189.4 179.01 170.38 179.01C151.36 179.01 151.55 200.91 151.55 219.55C151.55 241.45 151.55 266.05 170.38 266.05C189.21 266.05 189.4 241.46 189.4 219.55Z" fill="#FAEED5"/>
<path d="M279.13 236.84C279.13 250.87 279.13 264.7 293.73 264.7C304.3 264.7 310.83 256.82 310.83 246.64C310.83 242.61 309.49 237.99 306.41 233.58C320.24 229.54 333.89 235.88 333.89 251.06C333.89 258.75 331.39 263.93 328.13 268.16C332.36 271.43 334.47 277.77 334.47 282.38C329.67 281.23 323.13 278.15 317.18 278.15C311.23 278.15 306.23 280.45 302.39 281.8C298.93 282.95 293.17 284.11 287.4 284.11C279.71 284.11 269.53 282 265.88 278.15C262.42 280.65 258.19 282.38 253.78 282.38C249.37 282.38 239.75 279.31 239.75 265.66C251.28 263.93 252.24 244.33 252.24 236.84V208.02C252.24 192.07 248.59 176.51 239.94 162.48C242.25 161.33 244.36 160.94 246.67 160.94C248.59 160.94 250.51 161.32 252.05 161.71C253.78 162.09 254.93 162.09 256.66 162.09C258.58 162.09 260.89 160.94 262.23 159.79C263.19 158.83 264.54 156.91 265.88 156.91C267.03 156.91 268.19 158.06 269.53 159.22C271.07 160.76 272.99 162.1 274.91 162.1C276.64 162.1 277.6 162.1 279.33 161.72C280.67 161.34 282.21 160.95 283.56 160.95C285.29 160.95 287.21 161.33 289.32 162.49C282.98 176.52 279.14 192.08 279.14 208.03V236.85L279.13 236.84Z" fill="#FAEED5"/>
<path d="M390.57 236.84C390.57 244.33 391.72 263.93 403.25 265.66C403.25 279.3 393.45 282.38 389.03 282.38C384.61 282.38 380.58 280.65 377.31 278.15C373.85 280.65 369.62 282.38 365.2 282.38C360.78 282.38 351.17 279.31 351.17 265.66C362.7 263.93 363.66 244.33 363.66 236.84V208.02C363.66 192.07 360.01 176.51 351.36 162.48C353.67 161.33 355.78 160.94 358.09 160.94C360.01 160.94 361.93 161.32 363.47 161.71C365.2 162.09 366.93 162.09 368.85 162.09C370.77 162.09 372.31 160.94 373.65 159.79C375 158.44 375.96 156.91 377.3 156.91C378.45 156.91 379.8 158.83 380.76 159.79C381.91 160.94 384.41 162.09 386.33 162.09C388.06 162.09 389.21 162.09 390.94 161.71C392.48 161.33 394.21 160.94 396.32 160.94C398.63 160.94 400.74 161.32 403.04 162.48C394.39 176.51 390.55 192.07 390.55 208.02V236.84H390.57Z" fill="#FAEED5"/>
<path d="M421.89 220.31C421.89 188.99 439.18 162.09 462.43 162.09C465.5 162.09 467.43 161.13 468.96 159.79C470.5 158.44 471.65 156.91 472.8 156.91C474.15 156.91 475.3 158.45 476.45 159.6C477.99 161.14 480.29 162.1 483.37 162.1C506.62 162.1 523.91 189 523.91 220.32C523.91 249.53 511.8 284.11 472.8 284.11C433.8 284.11 421.88 249.53 421.88 220.32L421.89 220.31ZM491.82 219.55C491.82 200.91 491.82 179.01 472.8 179.01C453.78 179.01 453.97 200.91 453.97 219.55C453.97 241.45 453.97 266.05 472.8 266.05C491.63 266.05 491.82 241.46 491.82 219.55Z" fill="#FAEED5"/>
<path d="M5.14014 10.9401C8.60014 8.83012 13.2101 7.6701 16.4801 7.6701C18.4001 7.6701 20.3201 8.05012 21.8601 8.44012C23.4001 8.63012 24.7401 8.82013 26.2801 8.82013C28.3901 8.82013 30.1201 7.28012 31.8501 5.75012C33.0001 4.79012 34.1601 3.64014 35.5001 3.64014C36.6501 3.64014 37.8101 4.60012 39.1501 5.75012C41.2601 7.86012 42.2201 8.82013 44.5301 8.82013C46.2601 8.82013 48.5701 8.63012 50.6801 8.44012C54.3301 7.86012 58.5601 7.6701 63.7501 7.6701C87.7701 7.8601 114.86 23.0402 114.86 53.7802C114.86 77.0302 94.3001 99.5102 62.2101 97.7802V104.7C62.2101 107.77 62.9801 111.23 64.5201 112.96L75.4702 125.26C74.7002 136.02 68.9401 145.82 60.4801 145.82C54.7201 145.82 48.9501 143.9 44.7201 140.06C42.2201 143.33 38.3801 145.82 32.2301 145.82C23.3901 145.82 6.6801 139.29 6.1001 113.16C16.6701 112.58 18.5901 98.7502 18.5901 89.5302V55.3301C18.5901 44.7601 16.0901 28.0501 5.14014 10.9501V10.9401ZM9.37012 115.66C9.37012 129.3 18.9801 132.38 23.4001 132.38C27.8201 132.38 32.0501 130.65 35.3101 128.15C38.7701 130.65 43.0001 132.38 47.6101 132.38C52.2201 132.38 62.0201 129.31 62.0201 115.66C49.9201 113.93 48.7601 94.3301 48.7601 86.8401V82.2301C89.4901 86.8401 101.41 64.7501 101.41 43.4201C101.41 23.2401 86.6201 10.9501 63.9401 10.9501C58.7501 10.9501 54.7201 11.3301 51.6401 11.7201C48.1801 12.1001 46.0701 12.1001 43.9501 12.1001C42.2201 12.1001 40.1101 10.9501 38.9501 9.6001C37.8001 8.4501 36.6401 6.9101 35.4901 6.9101C34.1501 6.9101 32.8001 8.4501 31.8401 9.6001C30.4901 11.1401 28.5701 12.1001 26.6501 12.1001C24.5401 12.1001 23.3801 12.1001 21.6501 11.7201C20.1101 11.3401 18.1901 10.9501 16.2701 10.9501C13.9601 10.9501 11.8501 11.3301 9.55011 12.4901C18.2001 26.5201 21.8501 42.0802 21.8501 58.0302V86.8501C21.8501 94.3401 20.8901 113.94 9.36011 115.67L9.37012 115.66ZM48.5601 69.1601C41.4501 69.1601 37.2201 50.7101 35.1101 41.3001C32.0401 50.3301 29.7301 57.8201 24.9301 65.3201V58.6001C24.9301 40.1501 21.0901 24.4001 13.9801 14.2201C16.8601 14.0301 19.1701 14.4101 21.2801 14.9901C23.3901 15.3701 25.5101 15.5701 27.2401 15.5701C29.1601 15.5701 31.0801 14.6101 32.6201 13.0701C33.3901 12.1101 34.7301 10.3801 35.5001 10.3801C36.2701 10.3801 37.2301 11.7201 38.5701 12.8801C39.9101 14.4201 42.0301 15.5701 44.5301 15.5701C46.2601 15.5701 48.1801 15.3801 50.1001 14.9901C54.3301 14.6101 57.9801 14.4101 62.4001 14.2201C87.1901 14.0301 98.1401 27.8601 98.1401 43.4301C98.1401 52.2701 96.2201 58.9901 92.9501 65.3301C93.5301 57.8401 92.1801 46.5001 88.3401 41.3101C86.8001 45.9201 82.5802 53.4201 78.3502 58.9901C74.3202 64.1801 68.9401 69.1701 62.2101 69.1701H48.5701L48.5601 69.1601ZM26.2801 65.5101L26.6601 64.7401H41.4501L42.0301 65.5101H26.2701H26.2801ZM42.9901 79.5401C42.9901 83.7701 39.5301 87.2301 35.3001 87.2301C31.0701 87.2301 27.6101 83.7701 27.6101 79.5401C27.6101 75.3101 31.0701 72.0501 35.3001 72.0501C39.5301 72.0501 42.9901 75.5101 42.9901 79.5401ZM27.8101 62.4401L28.3901 61.4801H40.1101L40.4901 62.4401H27.8101ZM29.3501 59.1701L29.7301 58.2101H38.7601L39.1401 59.1701H29.3401H29.3501ZM41.0701 100.67C41.0701 103.94 38.5701 106.43 35.3101 106.43C32.0501 106.43 29.5501 103.93 29.5501 100.67C29.5501 97.4102 32.0501 94.9102 35.3101 94.9102C38.5701 94.9102 41.0701 97.4102 41.0701 100.67ZM30.7001 56.1001L31.0801 55.1401H37.8001L37.9901 56.1001H30.6901H30.7001ZM39.1501 117.39C39.1501 119.5 37.4201 121.23 35.3101 121.23C33.2001 121.23 31.4701 119.5 31.4701 117.39C31.4701 115.28 33.2001 113.35 35.3101 113.35C37.4201 113.35 39.1501 115.27 39.1501 117.39ZM32.0401 52.8301L32.4201 51.8701H36.8401L37.0301 52.8301H32.0301H32.0401ZM33.3901 49.5601L33.5801 48.7901H36.0801V49.5601H33.3901ZM45.4901 60.7101C45.4901 63.9801 47.0301 66.2802 50.2901 66.2802H59.9001C70.2801 66.2802 78.7302 56.8601 78.7302 44.7601C78.7302 32.6601 73.5401 25.9301 61.0501 25.9301C50.4801 25.9301 45.4901 29.7702 45.4901 45.5302V60.7101ZM61.0501 29.0001C70.4601 29.0001 75.4601 34.5701 75.4601 44.7601C75.4601 54.9501 69.7001 62.8201 56.2501 62.8201H50.8701C49.5301 62.8201 48.7601 61.8601 48.7601 60.9001V52.2501C48.7601 36.6901 48.7601 29.0001 61.0601 29.0001H61.0501ZM62.2101 55.5201C62.2101 56.8601 63.1701 57.4401 64.7101 57.4401C67.7801 57.4401 72.0101 52.2501 72.0101 46.8701C72.0101 43.4101 70.0901 42.4501 67.9801 42.4501C63.7501 42.4501 62.2201 46.4901 62.2201 55.5201H62.2101ZM73.7302 65.5101L74.6901 64.7401H91.7901L91.6002 65.5101H73.7302ZM76.8101 62.4401L77.5801 61.4801H91.9901V62.4401H76.8101ZM79.5001 59.1701L80.0801 58.2101H91.9901V59.1701H79.5001ZM81.6102 56.1001L82.1901 55.1401H91.8001V56.1001H81.6201H81.6102ZM83.7302 52.8301L84.1102 51.8701H91.2202L91.4101 52.8301H83.7202H83.7302ZM85.4501 49.5601L86.0301 48.7901H90.6401L90.8301 49.5601H85.4501Z" fill="#025A8B"/>
<path d="M117.93 70.5101C117.93 37.6501 135.22 9.22014 161.74 8.83014C164.81 8.83014 166.93 7.68014 168.27 6.33014C169.42 4.99014 170.96 3.64014 172.11 3.64014C173.46 3.64014 174.61 4.79014 176.15 6.33014C177.88 7.67014 179.8 8.64014 182.68 8.83014C204.58 9.60014 236.48 30.7301 236.48 81.0701C236.48 114.5 217.07 147.55 180.95 147.55C147.33 147.55 117.93 119.69 117.93 70.5001V70.5101ZM223.22 70.3101C223.22 38.9901 205.93 12.0901 182.68 12.0901C179.61 12.0901 177.3 11.1301 175.76 9.59015C174.61 8.44015 173.45 6.90015 172.11 6.90015C170.96 6.90015 169.8 8.44015 168.27 9.78015C166.73 11.1202 164.81 12.0801 161.74 12.0801C138.49 12.0801 121.2 38.9801 121.2 70.3001C121.2 99.5101 133.11 134.09 172.12 134.09C211.13 134.09 223.23 99.5101 223.23 70.3001L223.22 70.3101ZM150.2 65.3201C145.97 57.2501 143.09 49.3701 140.78 41.3001C136.36 46.6801 130.21 54.9401 125.02 65.3201C125.98 47.0701 137.32 15.5601 161.72 15.5601C164.79 15.5601 167.29 14.2201 169.21 12.6801C170.36 11.7201 171.32 10.3701 172.09 10.3701C173.05 10.3701 174.2 11.7101 175.36 12.6801C177.09 14.2201 179.4 15.5601 182.66 15.5601C207.06 15.5601 218.21 47.0701 219.36 65.3201C213.98 54.9401 208.02 46.6801 203.6 41.3001C201.1 49.3701 198.22 57.2501 194.19 65.3201C195.73 39.5701 189.19 25.7401 172.09 25.7401C154.99 25.7401 148.65 39.5701 150.19 65.3201H150.2ZM126.38 65.5101L126.76 64.7401H148.28L148.86 65.5101H126.38ZM127.92 62.4401L128.3 61.4801H146.94L147.52 62.4401H127.92ZM129.45 59.1701L130.03 58.2101H145.59L145.78 59.1701H129.45ZM145.02 79.5401C145.02 83.7701 141.56 87.2301 137.33 87.2301C133.1 87.2301 129.45 83.7701 129.45 79.5401C129.45 75.3101 133.1 72.0501 137.33 72.0501C141.56 72.0501 145.02 75.5101 145.02 79.5401ZM131.57 56.1001L131.95 55.1401H144.25L144.63 56.1001H131.56H131.57ZM133.49 52.8301L133.87 51.8701H143.09L143.28 52.8301H133.48H133.49ZM146.94 100.67C146.94 103.94 144.63 106.43 141.18 106.43C137.91 106.43 135.42 103.93 135.42 100.67C135.42 97.4102 137.92 94.9102 141.18 94.9102C144.64 94.9102 146.94 97.4102 146.94 100.67ZM135.6 49.5601L136.18 48.7901H142.14V49.5601H135.61H135.6ZM154.62 117.39C154.62 119.5 152.89 121.23 150.78 121.23C148.67 121.23 146.94 119.5 146.94 117.39C146.94 115.28 148.67 113.35 150.78 113.35C152.89 113.35 154.62 115.27 154.62 117.39ZM153.28 69.5501C153.28 50.9101 153.28 29.0101 172.11 29.0101C190.94 29.0101 191.13 50.9101 191.13 69.5501C191.13 91.4501 191.13 116.05 172.11 116.05C153.09 116.05 153.28 91.4601 153.28 69.5501ZM165.96 72.6201C166.15 95.8701 170.38 110.28 177.3 110.28C180.76 110.28 187.87 107.4 187.87 69.1601C187.87 43.0301 184.22 40.3401 177.11 40.3401C169.42 40.3401 165.77 46.6801 165.97 72.6201H165.96ZM198.43 117.39C198.43 119.5 196.7 121.23 194.59 121.23C192.48 121.23 190.75 119.5 190.75 117.39C190.75 115.28 192.48 113.35 194.59 113.35C196.7 113.35 198.43 115.27 198.43 117.39ZM195.16 65.5101L195.74 64.7401H217.64L218.22 65.5101H195.16ZM196.89 62.4401L197.27 61.4801H215.52L216.1 62.4401H196.89ZM209.19 100.67C209.19 103.94 206.69 106.43 203.43 106.43C200.17 106.43 197.67 103.93 197.67 100.67C197.67 97.4102 200.17 94.9102 203.43 94.9102C206.69 94.9102 209.19 97.4102 209.19 100.67ZM198.43 59.1701L198.81 58.2101H213.99L214.37 59.1701H198.42H198.43ZM214.38 79.5401C214.38 83.7701 210.92 87.2301 206.69 87.2301C202.46 87.2301 198.81 83.7701 198.81 79.5401C198.81 75.3101 202.46 72.0501 206.69 72.0501C210.92 72.0501 214.38 75.5101 214.38 79.5401ZM199.78 56.1001L200.16 55.1401H212.26L212.84 56.1001H199.77H199.78ZM200.93 52.8301L201.12 51.8701H209.96L210.73 52.8301H200.93ZM202.08 49.5601L202.46 48.7901H208.22L208.6 49.5601H202.07H202.08Z" fill="#025A8B"/>
<path d="M237.82 10.9401C240.89 8.83012 245.51 7.6701 248.77 7.6701C250.69 7.6701 252.61 8.05012 254.15 8.44012C255.88 8.63012 257.03 8.82013 258.76 8.82013C260.68 8.82013 262.8 7.28012 264.14 5.94012C265.29 4.60012 266.64 3.64014 267.98 3.64014C269.13 3.64014 270.29 4.60012 271.44 5.56012C272.98 7.10012 274.9 8.83014 276.82 8.83014C278.55 8.83014 280.47 8.64013 282.58 8.45013C285.85 7.87013 289.88 7.68011 296.22 7.68011C320.81 7.68011 349.83 24.4001 349.83 53.7901C349.83 66.2801 344.07 75.6901 332.73 82.0401C337.53 85.6901 341.76 92.6102 344.26 100.68C345.8 105.87 349.26 111.25 353.29 115.67L362.71 126.24C362.71 140.07 356.37 145.84 348.49 145.84C344.46 145.84 341.19 143.92 337.92 141.42C335.42 143.92 331.39 145.84 327.35 145.84C320.24 145.84 313.13 142.19 308.33 134.5C306.22 138.34 303.33 141.22 300.26 143.15C297.19 144.88 294.11 145.84 291.23 145.84C286.62 145.84 281.62 143.92 278.93 141.42C276.05 143.53 272.78 145.84 267.21 145.84C253.38 145.84 238.77 137 238.58 112.6C250.11 111.45 251.07 98.7701 251.07 89.5401V55.9201C251.07 45.3501 249.15 29.7901 237.81 10.9601L237.82 10.9401ZM241.85 115.66C241.85 129.3 251.46 132.38 255.88 132.38C260.3 132.38 264.14 130.65 267.79 128.15C271.25 130.65 275.48 132.38 280.09 132.38C284.7 132.38 294.5 129.31 294.5 115.66C282.39 113.93 281.24 94.3301 281.24 86.8401V81.4601C301.41 81.4601 305.07 93.5602 307.95 113.55C304.3 122.58 306.8 132.38 316.21 132.38C320.82 132.38 324.28 130.65 326.59 128.15C329.66 131.22 333.89 132.38 337.35 132.38C344.07 132.38 350.42 129.88 349.07 116.62C342.92 116.62 336 112.2 333.89 97.4102C332.35 86.8402 326.59 75.8902 317.17 71.2802C328.89 67.6302 336.38 59.1702 336.38 43.0302C336.38 23.0502 319.09 10.9401 296.42 10.9401C291.23 10.9401 287.77 11.1301 283.93 11.5201C281.05 11.9001 278.74 12.1001 277.01 12.1001C275.09 12.1001 272.98 10.9501 271.63 9.6001C270.29 8.4501 269.13 6.9101 267.98 6.9101C266.64 6.9101 265.67 8.4501 264.33 9.7901C262.6 10.9401 260.68 12.0901 258.76 12.0901C257.03 12.0901 255.88 12.0901 254.15 11.7101C252.61 11.3301 250.69 10.9401 248.77 10.9401C246.46 10.9401 244.35 11.3201 242.05 12.4801C250.7 26.5101 254.35 42.0701 254.35 58.0201V86.8401C254.35 94.3301 253.39 113.93 241.86 115.66H241.85ZM257.42 58.5901C257.61 39.7601 252.81 22.8501 246.47 14.5901C249.35 14.2101 251.85 14.4001 253.96 14.9701C255.88 15.1601 257.42 15.5501 259.53 15.5501C261.45 15.5501 263.37 14.5901 264.72 13.0501C265.87 11.9001 267.03 10.3601 267.99 10.3601C268.95 10.3601 269.91 11.7001 271.26 13.0501C273.18 14.9701 275.1 15.5501 277.02 15.5501C278.75 15.5501 280.48 15.3601 282.59 14.9701C286.43 14.3901 291.24 14.2001 297.96 14.2001C313.33 14.2001 333.12 22.2701 333.12 43.0201C333.12 52.8201 329.28 61.6601 323.13 65.3101C327.36 58.2001 326.59 49.9401 324.09 41.2901C320.82 46.6701 315.64 54.3601 310.06 60.5001C304.3 67.0301 297.38 69.5302 287.39 69.5302H280.47C275.09 69.5302 270.09 57.0402 267.02 41.2802C265.29 47.2402 261.64 57.0401 257.41 65.3001V58.5801L257.42 58.5901ZM258.57 65.5101L258.95 64.7401H273.36L273.94 65.5101H258.57ZM260.11 62.4401L260.49 61.4801H271.83L272.41 62.4401H260.11ZM275.48 79.5401C275.48 83.7701 272.02 87.2301 267.79 87.2301C263.56 87.2301 260.1 83.7701 260.1 79.5401C260.1 75.3101 263.56 72.0501 267.79 72.0501C272.02 72.0501 275.48 75.5101 275.48 79.5401ZM261.45 59.1701L261.64 58.2101H270.48L271.06 59.1701H261.45ZM273.56 100.67C273.56 103.94 271.06 106.43 267.8 106.43C264.54 106.43 262.04 103.93 262.04 100.67C262.04 97.4102 264.54 94.9102 267.8 94.9102C271.06 94.9102 273.56 97.4102 273.56 100.67ZM262.6 56.1001L262.98 55.1401H269.51L269.7 56.1001H262.59H262.6ZM263.76 52.8301L264.34 51.8701H268.57L268.95 52.8301H263.76ZM271.63 117.39C271.63 119.5 269.9 121.23 267.79 121.23C265.68 121.23 263.95 119.5 263.95 117.39C263.95 115.28 265.68 113.35 267.79 113.35C269.9 113.35 271.63 115.27 271.63 117.39ZM265.1 49.5601L265.48 48.7901H267.79L268.17 49.5601H265.1ZM277.78 60.1301C277.78 63.7801 279.7 66.2802 282.58 66.2802H287.77C306.41 66.2802 312.94 54.5601 312.94 43.2201C312.94 30.7301 302.76 25.7401 293.15 25.7401C285.66 25.7401 277.78 29.3901 277.78 40.9201V60.1301ZM293.15 29.0001C302.95 29.0001 309.67 34.0001 309.67 43.2201C309.67 54.7501 302.18 62.8201 288.73 62.8201H283.35C282.01 62.8201 281.24 61.8601 281.24 60.9001V52.2501C281.24 36.6901 281.24 29.0001 293.15 29.0001ZM294.69 55.5201C294.69 57.0601 296.04 57.4401 297.96 57.4401C301.8 57.4401 306.41 50.7102 306.41 45.5302C306.41 43.0302 303.72 42.4601 300.45 42.4601C296.22 42.4601 294.69 46.5002 294.69 55.5302V55.5201ZM304.49 112.59C303.34 104.71 301.22 92.6101 294.69 88.1901C294.69 96.8401 295.46 106.64 297.76 114.13L302.95 119.89C302.95 117.58 303.72 115.09 304.49 112.59ZM313.9 79.1501C313.9 82.6101 311.4 85.1101 308.14 85.1101C304.88 85.1101 302.38 82.6101 302.38 79.1501C302.38 76.0801 304.88 73.3901 308.14 73.3901C311.4 73.3901 313.9 76.0801 313.9 79.1501ZM306.22 65.5101L307.18 64.7401H322.36L321.78 65.5101H306.22ZM310.06 62.4401L310.83 61.4801H323.7L323.51 62.4401H310.06ZM312.94 59.1701L313.52 58.2101H324.66L324.47 59.1701H312.94ZM325.82 100.67C325.82 103.94 323.32 106.43 320.06 106.43C316.6 106.43 314.3 103.93 314.3 100.67C314.3 97.4102 316.61 94.9102 320.06 94.9102C323.33 94.9102 325.82 97.4102 325.82 100.67ZM315.44 56.1001L316.02 55.1401H325.24V56.1001H315.44ZM317.75 52.8301L318.33 51.8701H325.25V52.8301H317.76H317.75ZM319.86 49.5601L320.63 48.7901H324.86L325.05 49.5601H319.86ZM330.43 117.39C330.43 119.5 328.89 121.23 326.59 121.23C324.48 121.23 322.94 119.5 322.94 117.39C322.94 115.28 324.48 113.35 326.59 113.35C328.9 113.35 330.43 115.27 330.43 117.39Z" fill="#025A8B"/>
<path d="M441.49 117.39L448.41 124.31C448.41 136.99 440.92 145.83 431.69 145.83C427.46 145.83 423.04 144.49 419.78 141.41C416.51 143.91 412.48 145.83 407.87 145.83C397.11 145.83 379.05 137.18 378.09 112.97C388.85 112.97 391.54 98.7502 391.54 89.5302V72.8101C391.54 64.7401 391.35 56.8601 390.96 48.7901C388.27 67.6201 377.32 76.8401 365.02 76.8401L353.11 66.4601C355.61 61.2701 356.18 58.9701 356.18 56.8501C356.18 54.7301 355.8 51.2801 354.84 48.9701C353.69 46.4701 351.57 42.4401 351.57 38.7901C351.57 35.1401 352.34 30.9101 353.68 28.2201C354.64 25.9101 355.41 24.3801 355.41 23.4201C355.41 22.4601 355.03 21.3101 354.07 19.9601C353.11 18.4201 352.15 15.5401 352.15 13.0401C352.15 10.7301 353.3 6.70014 354.65 4.39014C355.99 4.39014 357.92 5.16011 359.26 5.93011C362.14 7.47011 366.56 8.81012 370.02 8.81012C373.86 8.81012 376.36 7.85013 377.71 6.70013C380.02 4.78013 381.55 3.63013 382.71 3.63013C384.05 3.63013 385.21 4.78013 386.55 6.13013C388.28 7.47013 390.97 8.82013 396.35 8.82013C400.77 8.82013 403.46 6.90011 405 5.55011C405.96 4.59011 407.11 3.63013 408.27 3.63013C409.43 3.63013 410.58 4.59011 411.54 5.55011C413.08 6.89011 415.96 8.82013 420.19 8.82013C424.42 8.82013 427.68 7.67012 429.99 5.94012C431.33 4.79012 432.49 3.64014 433.83 3.64014C435.37 3.64014 436.9 4.79014 438.44 6.33014C440.36 7.87014 443.24 9.02014 446.32 8.83014C448.62 8.64014 452.28 7.87014 456.5 6.14014C458.61 5.18014 459.96 4.99011 460.92 4.99011C461.88 4.99011 462.46 5.57014 463.23 6.14014L473.61 15.5601C474.57 16.5201 474.76 17.8701 474.76 19.9801C474.76 22.4801 473.8 26.1301 472.26 28.6301C471.49 30.1701 470.72 32.0901 470.72 33.2401C470.72 34.7801 471.49 37.2801 472.45 39.5801C473.6 42.4601 474.56 45.9201 474.56 48.9901C474.56 52.6401 473.02 56.8701 471.87 59.5601C470.91 62.2501 469.95 64.9401 469.95 67.6301C469.95 69.5501 470.53 71.2801 471.1 72.8201C471.68 74.1601 472.25 75.7001 472.25 77.0501C472.25 78.2001 471.29 77.8201 469.56 77.8201C460.15 77.8201 439.39 68.2101 435.74 44.9601C434.78 48.9901 434.59 56.3001 434.59 62.2501V92.2201C434.59 105.48 436.7 112.59 441.51 117.39H441.49ZM382.31 115.66C382.31 129.3 392.11 132.38 396.34 132.38C400.57 132.38 404.99 130.65 408.25 128.15C411.71 130.65 415.94 132.38 420.16 132.38C424.38 132.38 434.38 129.31 434.38 115.66C422.85 113.93 421.7 94.3301 421.7 86.8401V58.0201C421.7 53.9801 421.7 27.0801 430.54 27.0801C436.5 27.0801 438.03 34.9601 438.99 43.9901C440.53 56.8601 447.44 64.9301 459.55 64.9301C457.82 61.2801 457.05 58.9701 457.05 56.8601C457.05 54.7501 457.82 51.2901 458.59 48.9801C459.74 46.4801 461.66 42.4501 461.66 38.8001C461.66 35.1501 460.89 30.7301 459.93 28.4201C459.35 27.0801 457.82 24.5801 457.82 23.6201C457.82 22.4701 458.2 21.5101 458.97 20.3501C460.31 18.4301 461.47 15.5501 461.47 13.0501C461.47 10.7401 460.7 9.21012 460.13 8.25012C458.59 8.63012 456.29 9.21011 454.17 10.3601C452.06 11.3201 448.98 12.0901 445.52 12.0901C442.64 12.0901 438.99 10.9401 437.45 9.21014C435.72 7.67014 434.76 6.90015 433.8 6.90015C432.84 6.90015 432.07 7.67013 430.53 9.01013C428.22 11.1201 423.23 12.0801 420.15 12.0801C416.69 12.0801 414.19 11.1202 412.46 9.78015C410.73 8.63015 409.19 6.90015 408.23 6.90015C407.27 6.90015 405.73 8.63015 404 9.78015C402.27 11.1202 399.77 12.0801 396.31 12.0801C393.24 12.0801 388.43 11.1201 385.93 9.01013C384.39 7.67013 383.62 6.90015 382.66 6.90015C381.89 6.90015 380.74 7.67014 379.01 9.21014C377.47 10.9401 374.01 12.0901 370.94 12.0901C367.48 12.0901 364.6 11.7101 362.29 10.5501C359.98 9.40011 357.87 8.63012 356.33 8.25012C355.75 9.21012 355.18 10.7501 355.18 13.0501C355.18 15.5501 356.14 18.4301 357.49 20.3501C358.26 21.5001 358.83 22.4601 358.83 23.6201C358.83 24.5801 357.1 27.0801 356.52 28.4201C355.56 30.7301 354.79 35.1401 354.79 38.8001C354.79 42.4601 356.71 46.4901 357.86 48.9801C358.82 51.2901 359.4 54.7401 359.4 56.8601C359.4 58.9801 358.63 61.2801 356.9 64.9301C369.39 64.9301 376.11 56.8601 377.46 43.9901C378.61 34.9601 380.15 27.0801 386.11 27.0801C394.95 27.0801 394.95 53.9801 394.95 58.0201V86.8401C394.95 94.3301 393.8 113.93 382.27 115.66H382.31ZM418.43 65.3201C414.97 57.4401 411.51 49.3701 408.25 41.3001C404.98 49.3701 401.91 57.4401 398.26 65.3201V55.3301C398.26 45.3401 397.3 24.0101 385.96 24.0101C378.66 24.0101 376.16 31.8901 374.43 43.9901C373.28 53.2101 368.28 59.7401 361.94 61.0901C362.71 59.5501 362.9 58.2101 362.9 56.8601C362.9 54.7501 362.32 51.8601 360.98 48.7901C359.63 45.7201 358.1 42.4501 358.1 38.8001C358.1 35.1501 358.48 31.8801 360.21 28.2301C361.36 25.7301 362.13 24.5801 362.13 23.6201C362.13 22.4701 361.17 20.5501 360.21 19.2001C358.86 17.2801 358.29 15.5501 358.29 14.5901C358.29 13.6301 358.48 12.8602 358.67 12.2802C362.32 14.9702 367.12 15.5501 370.77 15.5501C374.04 15.5501 378.26 14.4001 379.8 12.6701C380.95 11.3301 381.91 10.3601 382.68 10.3601C383.64 10.3601 384.6 11.3201 386.33 12.4701C388.44 14.2001 392.67 15.5401 396.32 15.5401C400.16 15.5401 403.05 14.5801 404.97 12.6601C406.51 11.3201 407.28 10.3501 408.24 10.3501C409.2 10.3501 410.16 11.3101 411.7 12.6601C413.81 14.2001 417.08 15.5401 420.16 15.5401C423.81 15.5401 427.46 14.7701 430.15 12.6601C431.88 11.5101 432.84 10.3501 433.8 10.3501C434.76 10.3501 435.53 11.3101 436.87 12.6601C438.21 14.3901 442.63 15.5401 445.71 15.5401C449.36 15.5401 454.16 14.2001 457.81 12.2701C458 12.8501 458.19 13.6101 458.19 14.5801C458.19 15.5501 457.61 17.2701 456.27 19.1901C455.31 20.5401 454.35 22.4601 454.35 23.6101C454.35 24.5701 455.12 25.7201 456.27 28.2201C458 31.8701 458.38 35.1401 458.38 38.7901C458.38 42.4401 456.84 45.7102 455.5 48.7802C454.15 51.8502 453.58 54.7401 453.58 56.8501C453.58 58.1901 453.77 59.5401 454.54 61.0801C448.2 59.7301 443.4 53.2001 442.05 43.9801C440.51 31.8801 437.82 24.0001 430.52 24.0001C419.18 24.0001 418.42 45.3301 418.42 55.3201V65.3101L418.43 65.3201ZM399.22 65.5101L399.8 64.7401H417.28L417.66 65.5101H399.21H399.22ZM400.56 62.4401L400.75 61.4801H415.93L416.51 62.4401H400.56ZM415.93 79.5401C415.93 83.7701 412.47 87.2301 408.24 87.2301C404.01 87.2301 400.55 83.7701 400.55 79.5401C400.55 75.3101 404.01 72.0501 408.24 72.0501C412.47 72.0501 415.93 75.5101 415.93 79.5401ZM401.91 59.1701L402.1 58.2101H414.59L415.17 59.1701H401.91ZM414.01 100.67C414.01 103.94 411.51 106.43 408.25 106.43C404.99 106.43 402.49 103.93 402.49 100.67C402.49 97.4102 404.99 94.9102 408.25 94.9102C411.51 94.9102 414.01 97.4102 414.01 100.67ZM403.25 56.1001L403.63 55.1401H413.24L413.82 56.1001H403.25ZM404.4 52.8301L404.98 51.8701H411.9L412.28 52.8301H404.4ZM412.09 117.39C412.09 119.5 410.36 121.23 408.25 121.23C406.14 121.23 404.41 119.5 404.41 117.39C404.41 115.28 406.14 113.35 408.25 113.35C410.36 113.35 412.09 115.27 412.09 117.39ZM405.75 49.5601L406.13 48.7901H410.55L410.74 49.5601H405.74H405.75Z" fill="#025A8B"/>
<path d="M516.99 63.0103L523.91 71.0803V86.4503H484.52L478.95 81.2603V63.0103H516.99ZM482.02 78.7703H514.68V65.5103H482.02V78.7703ZM511.42 68.3903V75.8802H484.9V68.3903H511.42Z" fill="#025A8B"/>
<path d="M4.56006 160.94C8.60006 158.44 13.21 157.67 16.47 157.67C18.39 157.67 20.12 157.67 21.85 158.25C23.39 158.44 25.31 158.83 26.85 158.83C28.39 158.83 30.5 157.29 31.65 156.14C32.99 154.8 34.1501 153.64 35.4901 153.64C37.0301 153.64 38.56 154.79 39.91 155.75C41.83 157.86 44.9101 158.82 49.1301 158.82C53.3501 158.82 56.62 157.67 58.55 156.13C60.28 154.79 61.62 153.63 62.78 153.63C63.94 153.63 65.6601 154.59 67.3901 155.74C69.7001 157.28 74.8801 158.81 81.2201 158.81C86.4101 158.81 91.0201 158.43 96.2101 156.12C97.3601 155.54 98.52 154.97 99.67 154.97C100.63 154.97 101.21 155.55 101.98 156.12L112.36 165.73C112.94 166.31 113.51 167.84 113.51 169.38C113.51 171.49 112.74 173.61 111.59 175.72C109.67 178.79 109.28 180.72 109.28 182.44C109.28 184.36 110.05 186.67 110.62 188.2C111.58 190.89 112.93 194.16 112.93 196.66C112.93 199.73 111.39 203.38 110.05 206.07C109.09 207.99 108.13 209.72 108.13 211.26C108.13 212.99 108.9 214.72 109.48 216.26C110.06 217.6 110.44 218.95 110.44 220.3C110.44 221.26 109.09 221.84 107.94 221.26C91.4201 215.3 81.42 210.88 72.39 194.94C70.28 191.48 67.78 190.33 65.28 190.33C62.97 190.33 62.21 193.4 62.21 200.13C73.16 200.71 85.8401 211.08 85.8401 222.61C85.8401 226.26 84.3 230.1 82 232.41C83.92 235.29 85.8401 239.33 85.8401 244.13C85.8401 252.78 79.1101 258.54 66.6301 258.54L62.02 253.54C61.64 258.15 65.48 260.84 67.98 263.72L79.51 277.36C78.93 290.23 69.13 295.81 62.22 295.81C56.07 295.81 50.12 293.31 46.66 291.39C43.01 293.89 40.3201 295.81 34.7501 295.81C18.4201 295.81 6.12006 286.97 6.12006 262.57C17.8401 262.57 18.61 245.08 18.61 237.98V209.16C18.61 194.94 15.7301 180.15 4.58008 160.93L4.56006 160.94ZM9.37006 265.66C9.37006 279.3 18.98 282.38 23.4 282.38C27.82 282.38 32.0501 280.65 35.3101 278.15C41.4601 280.65 45.4901 282.38 50.8701 282.38C56.2501 282.38 63.94 279.31 64.9 265.66C51.83 265.66 48.7601 249.52 48.7601 240.11C48.7601 235.31 51.64 233.58 55.48 233.58C58.75 233.58 60.86 235.31 60.86 238C60.86 240.31 60.48 243 59.52 245.11C71.24 246.46 74.3101 238.58 74.3101 233.2C74.3101 228.59 72.58 225.71 70.66 223.98C72.58 221.48 74.3101 218.41 74.3101 213.99C74.3101 209.57 71.24 202.46 59.52 203.23C60.48 205.34 60.86 208.03 60.86 210.34C60.86 213.03 58.75 214.95 55.48 214.95C51.25 214.95 48.7601 208.61 48.7601 202.27C48.7601 189.2 48.76 177.1 60.48 177.1C66.05 177.1 71.05 182.1 73.74 189.2C76.05 195.35 83.16 209.18 97.76 210.14C95.84 206.1 95.0701 203.99 95.0701 202.07C95.0701 200.15 96.2201 197.65 97.1801 195.54C98.5201 193.04 99.49 189.2 99.49 185.16C99.49 182.86 98.34 179.59 97.38 177.86C96.42 176.32 95.8401 174.4 95.8401 173.44C95.8401 172.48 96.4201 171.52 97.1901 170.37C98.5301 168.45 99.5 165.57 99.5 163.07C99.5 160.76 98.9201 158.46 98.3501 158.46C97.2001 158.46 95.28 159.42 93.55 160.19C91.05 161.34 86.82 162.11 81.64 162.11C75.3 162.11 69.54 161.15 67.23 159.42C65.31 157.88 64.1601 156.92 63.0001 156.92C61.6601 156.92 60.1201 158.46 58.0001 159.8C55.8901 161.34 52.81 162.1 49.16 162.1C44.93 162.1 40.9 160.56 39.36 159.22C37.82 157.88 36.67 156.91 35.52 156.91C34.18 156.91 32.8301 158.83 31.8701 159.79C30.3301 161.33 28.22 162.09 26.3 162.09C24.57 162.09 23.4201 162.09 21.6901 161.71C20.1501 161.33 18.2301 160.94 16.3101 160.94C14.0001 160.94 11.89 161.32 9.59003 162.48C18.24 176.51 21.8901 192.07 21.8901 208.02V236.84C21.8901 244.33 20.93 263.93 9.40002 265.66H9.37006ZM25.3201 204.75C25.3201 189 19.7501 172.85 14.9401 164.79C17.4401 164.02 19.36 164.21 21.28 164.79C23.39 164.98 25.12 165.17 27.04 165.17C29.15 165.17 30.5 164.4 32.04 163.06C33.39 162.1 34.5401 160.37 35.5001 160.37C36.4601 160.37 37.81 161.52 39.54 162.68C41.85 164.22 44.92 165.56 49.15 165.56C53.76 165.56 57.0301 164.22 58.5701 163.06C60.4901 161.33 62.03 160.37 62.8 160.37C63.76 160.37 64.5301 160.95 66.2601 162.29C69.7201 164.79 75.48 165.56 81.63 165.56C88.93 165.56 92.39 164.22 96.04 162.68C96.23 163.06 96.2301 164.02 96.2301 164.99C96.2301 166.14 95.65 167.49 94.5 168.83C93.54 170.17 92.5801 171.71 92.5801 173.44C92.5801 174.98 93.7301 176.9 94.6901 179.2C95.6501 181.31 96.2301 183.04 96.2301 185.16C96.2301 188.62 96.0401 191.31 94.3101 194C92.9601 196.5 91.8101 199.57 91.8101 201.49C91.8101 203.22 92 204.76 92.39 206.1C84.13 201.87 79.71 194.96 76.25 187.27C72.98 179.39 68.3701 173.63 60.4901 173.63C51.2701 173.63 45.7001 178.82 45.7001 196.49C45.7001 206.1 46.0801 209.75 49.9301 215.32C44.1701 210.52 39.3601 200.72 35.3301 191.3C33.0201 199.37 28.99 209.17 25.34 215.32V204.75H25.3201ZM26.47 215.51L27.05 214.74H46.84L47.9901 215.51H26.47ZM42.9901 229.54C42.9901 233.77 39.53 237.23 35.3 237.23C31.07 237.23 27.61 233.77 27.61 229.54C27.61 225.31 31.07 222.05 35.3 222.05C39.53 222.05 42.9901 225.51 42.9901 229.54ZM28.2001 212.44L28.5801 211.48H44.34L45.11 212.44H28.2001ZM41.0701 250.67C41.0701 253.94 38.5701 256.43 35.3101 256.43C32.0501 256.43 29.55 253.93 29.55 250.67C29.55 247.41 32.0501 244.91 35.3101 244.91C38.5701 244.91 41.0701 247.41 41.0701 250.67ZM29.73 209.17L29.92 208.21H42.22L42.9901 209.17H29.73ZM31.0801 206.1L31.27 205.14H40.4901L40.8701 206.1H31.0701H31.0801ZM39.15 267.39C39.15 269.5 37.4201 271.23 35.3101 271.23C33.2001 271.23 31.47 269.5 31.47 267.39C31.47 265.28 33.2001 263.35 35.3101 263.35C37.4201 263.35 39.15 265.27 39.15 267.39ZM32.42 202.83L32.8 201.87H39.1401L39.3301 202.83H32.41H32.42ZM33.3901 199.56L33.5801 198.79H37.61L37.8 199.56H33.3801H33.3901Z" fill="#025A8B"/>
<path d="M116.2 220.51C116.2 187.65 133.49 159.22 160.01 158.83C163.08 158.83 165.2 157.68 166.54 156.33C167.69 154.99 169.23 153.64 170.38 153.64C171.72 153.64 172.88 154.79 174.41 156.33C176.14 157.67 178.06 158.64 180.94 158.83C202.84 159.6 234.74 180.73 234.74 231.07C234.74 264.5 215.33 297.55 179.21 297.55C145.59 297.55 116.19 269.69 116.19 220.5L116.2 220.51ZM221.49 220.31C221.49 188.99 204.2 162.09 180.95 162.09C177.88 162.09 175.57 161.13 174.03 159.59C172.88 158.44 171.72 156.9 170.38 156.9C169.23 156.9 168.07 158.44 166.54 159.78C165 161.12 163.08 162.08 160.01 162.08C136.76 162.08 119.47 188.98 119.47 220.3C119.47 249.51 131.38 284.09 170.39 284.09C209.4 284.09 221.5 249.51 221.5 220.3L221.49 220.31ZM148.48 215.32C144.25 207.25 141.37 199.37 139.07 191.3C134.65 196.68 128.5 204.94 123.31 215.32C124.27 197.07 135.61 165.56 160.01 165.56C163.08 165.56 165.58 164.22 167.5 162.68C168.65 161.72 169.61 160.37 170.38 160.37C171.34 160.37 172.49 161.71 173.65 162.68C175.38 164.22 177.68 165.56 180.95 165.56C205.35 165.56 216.5 197.07 217.65 215.32C212.27 204.94 206.31 196.68 201.9 191.3C199.4 199.37 196.52 207.25 192.48 215.32C194.02 189.57 187.48 175.74 170.38 175.74C153.28 175.74 146.94 189.57 148.48 215.32ZM124.65 215.51L125.03 214.74H146.55L147.13 215.51H124.65ZM126.19 212.44L126.57 211.48H145.21L145.79 212.44H126.19ZM127.73 209.17L128.31 208.21H143.87L144.06 209.17H127.73ZM143.29 229.54C143.29 233.77 139.83 237.23 135.6 237.23C131.37 237.23 127.72 233.77 127.72 229.54C127.72 225.31 131.37 222.05 135.6 222.05C139.83 222.05 143.29 225.51 143.29 229.54ZM129.84 206.1L130.22 205.14H142.52L142.9 206.1H129.83H129.84ZM131.76 202.83L132.14 201.87H141.36L141.55 202.83H131.75H131.76ZM145.21 250.67C145.21 253.94 142.9 256.43 139.45 256.43C136.18 256.43 133.69 253.93 133.69 250.67C133.69 247.41 136.19 244.91 139.45 244.91C142.91 244.91 145.21 247.41 145.21 250.67ZM133.87 199.56L134.45 198.79H140.41V199.56H133.88H133.87ZM152.9 267.39C152.9 269.5 151.17 271.23 149.06 271.23C146.95 271.23 145.22 269.5 145.22 267.39C145.22 265.28 146.95 263.35 149.06 263.35C151.17 263.35 152.9 265.27 152.9 267.39ZM151.55 219.55C151.55 200.91 151.55 179.01 170.38 179.01C189.21 179.01 189.4 200.91 189.4 219.55C189.4 241.45 189.4 266.05 170.38 266.05C151.36 266.05 151.55 241.46 151.55 219.55ZM164.23 222.62C164.42 245.87 168.65 260.28 175.57 260.28C179.03 260.28 186.14 257.4 186.14 219.16C186.14 193.03 182.49 190.34 175.38 190.34C167.69 190.34 164.04 196.68 164.24 222.62H164.23ZM196.7 267.39C196.7 269.5 194.97 271.23 192.86 271.23C190.75 271.23 189.02 269.5 189.02 267.39C189.02 265.28 190.75 263.35 192.86 263.35C194.97 263.35 196.7 265.27 196.7 267.39ZM193.44 215.51L194.02 214.74H215.92L216.5 215.51H193.44ZM195.17 212.44L195.55 211.48H213.8L214.38 212.44H195.17ZM207.46 250.67C207.46 253.94 204.96 256.43 201.7 256.43C198.44 256.43 195.94 253.93 195.94 250.67C195.94 247.41 198.44 244.91 201.7 244.91C204.96 244.91 207.46 247.41 207.46 250.67ZM196.7 209.17L197.08 208.21H212.26L212.64 209.17H196.69H196.7ZM212.65 229.54C212.65 233.77 209.19 237.23 204.96 237.23C200.73 237.23 197.08 233.77 197.08 229.54C197.08 225.31 200.73 222.05 204.96 222.05C209.19 222.05 212.65 225.51 212.65 229.54ZM198.05 206.1L198.43 205.14H210.53L211.11 206.1H198.04H198.05ZM199.2 202.83L199.39 201.87H208.23L209 202.83H199.2ZM200.36 199.56L200.74 198.79H206.5L206.88 199.56H200.35H200.36Z" fill="#025A8B"/>
<path d="M234.94 160.94C238.97 158.63 243.59 157.67 246.85 157.67C248.77 157.67 250.69 158.05 252.23 158.44C253.77 158.63 255.11 158.82 256.65 158.82C258.76 158.82 260.88 157.28 262.22 155.75C263.18 154.6 264.53 153.64 265.87 153.64C267.02 153.64 268.37 154.6 269.9 155.94C271.44 157.09 272.97 158.82 274.9 158.82C276.63 158.82 277.78 158.63 279.51 158.44C282.01 157.86 284.12 157.67 286.23 157.67C288.54 157.67 291.61 158.63 292.57 159.78L301.22 169.58C295.26 180.15 292.57 198.21 292.57 212.23V240.47C292.57 252.96 295.26 258.92 298.91 258.92C302.56 258.92 306.98 255.08 306.98 246.82C306.98 243.55 306.21 238.56 300.64 231.64C333.5 220.88 346.56 248.93 346.56 260.85C346.56 267.77 343.87 274.11 339.07 277.57C342.72 281.22 345.8 291.4 345.8 293.52C345.8 295.06 344.45 295.63 342.92 295.06C338.69 293.14 333.12 291.41 328.32 291.41C323.52 291.41 319.29 292.56 315.83 293.91C311.41 295.83 305.07 297.56 298.54 297.56C292.58 297.56 284.71 295.83 277.02 291.41C273.75 293.91 269.53 295.83 265.11 295.83C251.85 295.83 235.52 286.99 235.52 262.59C244.94 262.59 249.35 252.21 249.35 234.73V214.94C249.35 193.04 244.55 177.86 234.94 160.95V160.94ZM239.74 265.66C239.74 279.3 249.35 282.38 253.77 282.38C258.19 282.38 262.42 280.65 265.87 278.15C269.52 281.99 279.7 284.11 287.39 284.11C293.15 284.11 298.92 282.96 302.38 281.8C306.22 280.45 311.03 278.15 317.17 278.15C323.31 278.15 329.66 281.22 334.46 282.38C334.46 277.77 332.35 271.43 328.12 268.16C331.39 263.93 333.88 258.75 333.88 251.06C333.88 235.88 320.24 229.54 306.4 233.58C309.47 238 310.82 242.61 310.82 246.64C310.82 256.82 304.29 264.7 293.72 264.7C279.12 264.7 279.12 250.87 279.12 236.84V208.02C279.12 192.07 282.96 176.51 289.3 162.48C287.19 161.33 285.26 160.94 283.54 160.94C282.19 160.94 280.66 161.32 279.31 161.71C277.58 162.09 276.62 162.09 274.89 162.09C272.97 162.09 271.05 160.75 269.51 159.21C268.16 158.06 267.01 156.9 265.86 156.9C264.51 156.9 263.17 158.82 262.21 159.78C260.87 160.93 258.56 162.08 256.64 162.08C254.91 162.08 253.76 162.08 252.03 161.7C250.49 161.32 248.57 160.93 246.65 160.93C244.34 160.93 242.23 161.31 239.92 162.47C248.57 176.5 252.22 192.06 252.22 208.01V236.83C252.22 244.32 251.26 263.92 239.73 265.65L239.74 265.66ZM255.69 208.59C255.69 190.72 252.04 175.54 245.51 164.21C248.01 164.4 250.12 164.79 251.66 164.98C253.77 165.56 255.12 165.56 257.23 165.56C259.34 165.56 261.46 164.6 262.99 163.06C264.34 161.91 264.91 160.37 265.87 160.37C266.83 160.37 267.79 161.71 269.33 163.25C270.87 164.98 272.98 165.56 274.9 165.56C276.63 165.56 277.97 165.37 279.9 164.98C281.63 164.98 283.36 164.4 284.9 164.4C278.94 176.7 275.87 190.72 275.87 208.59V215.31C271.83 209.74 268.95 199.75 265.88 191.29C263.19 200.32 259.73 209.93 255.7 215.31V208.59H255.69ZM256.84 215.51L257.42 214.74H273.94L274.52 215.51H256.84ZM273.17 229.54C273.17 233.77 269.71 237.23 265.48 237.23C261.25 237.23 257.79 233.77 257.79 229.54C257.79 225.31 261.25 222.05 265.48 222.05C269.71 222.05 273.17 225.51 273.17 229.54ZM258.76 212.44L259.14 211.48H272.4L272.78 212.44H258.75H258.76ZM271.25 250.67C271.25 253.94 268.94 256.43 265.49 256.43C262.22 256.43 259.73 253.93 259.73 250.67C259.73 247.41 262.23 244.91 265.49 244.91C268.95 244.91 271.25 247.41 271.25 250.67ZM260.3 209.17L260.49 208.21H271.06L271.25 209.17H260.3ZM261.65 206.1L261.84 205.14H269.72L270.1 206.1H261.65ZM269.33 267.39C269.33 269.5 267.6 271.23 265.49 271.23C263.38 271.23 261.65 269.5 261.65 267.39C261.65 265.28 263.38 263.35 265.49 263.35C267.6 263.35 269.33 265.27 269.33 267.39ZM262.8 202.83L263.18 201.87H268.75L268.94 202.83H262.79H262.8ZM263.95 199.56L264.14 198.79H267.41L267.79 199.56H263.95ZM312.95 267.39C312.95 269.5 311.22 271.23 309.11 271.23C307 271.23 305.27 269.5 305.27 267.39C305.27 265.28 307 263.35 309.11 263.35C311.22 263.35 312.95 265.27 312.95 267.39ZM327.36 250.67C327.36 253.94 324.86 256.43 321.6 256.43C318.14 256.43 315.84 253.93 315.84 250.67C315.84 247.41 318.15 244.91 321.6 244.91C324.87 244.91 327.36 247.41 327.36 250.67Z" fill="#025A8B"/>
<path d="M346.76 161.33C350.22 159.22 354.83 157.68 358.1 157.68C360.02 157.68 361.94 157.87 363.67 158.26C365.21 158.45 366.36 158.84 368.09 158.84C370.01 158.84 371.74 157.69 373.28 156.15C374.62 154.81 375.97 153.65 377.12 153.65C378.27 153.65 379.81 154.99 380.96 155.95C382.5 157.3 384.23 158.83 386.15 158.83C387.88 158.83 389.03 158.45 390.76 158.25C392.3 157.87 394.03 157.67 396.14 157.67C399.41 157.67 404.79 158.44 407.09 161.32L414.78 169.77C408.44 180.72 403.25 198.21 403.25 212.23V242.2C403.25 251.42 404.98 262.57 409.97 268.33L416.12 275.25C416.12 287.55 409.59 295.81 400.37 295.81C396.14 295.81 391.91 294.47 388.46 291.39C385.19 293.89 381.16 295.81 376.55 295.81C365.79 295.81 347.15 287.16 346.77 263.15C357.53 263.15 360.41 248.74 360.41 239.52V214.93C360.41 193.03 357.14 178.62 346.77 161.32L346.76 161.33ZM351.18 265.66C351.18 279.3 360.79 282.38 365.21 282.38C369.63 282.38 373.86 280.65 377.32 278.15C380.59 280.65 384.62 282.38 389.04 282.38C393.46 282.38 403.26 279.31 403.26 265.66C391.73 263.93 390.58 244.33 390.58 236.84V208.02C390.58 192.07 394.42 176.51 403.07 162.48C400.76 161.33 398.65 160.94 396.35 160.94C394.24 160.94 392.51 161.32 390.97 161.71C389.24 162.09 388.09 162.09 386.36 162.09C384.44 162.09 381.94 160.94 380.79 159.79C379.83 158.83 378.48 156.91 377.33 156.91C375.98 156.91 375.02 158.45 373.68 159.79C372.34 160.94 370.8 162.09 368.88 162.09C366.96 162.09 365.23 162.09 363.5 161.71C361.96 161.33 360.04 160.94 358.12 160.94C355.81 160.94 353.7 161.32 351.39 162.48C360.04 176.51 363.69 192.07 363.69 208.02V236.84C363.69 244.33 362.73 263.93 351.2 265.66H351.18ZM367.13 208.59C367.13 190.91 363.67 174.58 356.37 164.21C358.68 164.02 360.98 164.4 362.9 164.79C365.01 165.17 366.55 165.56 368.66 165.56C370.97 165.56 372.7 164.79 374.23 163.06C375.19 161.72 376.34 160.37 377.11 160.37C378.07 160.37 379.03 161.91 379.99 162.68C381.53 164.22 383.83 165.56 386.14 165.56C387.87 165.56 389.79 164.98 391.52 164.6C393.44 164.22 396.13 163.64 398.24 164.22C390.36 177.09 387.29 192.85 387.29 208.6V215.32C384.02 209.56 379.99 199.57 377.11 191.3C374.42 199.95 370.58 209.94 367.12 215.32V208.6L367.13 208.59ZM368.86 215.51L369.24 214.74H385.38L385.96 215.51H368.86ZM384.8 229.54C384.8 233.77 381.34 237.23 377.11 237.23C372.88 237.23 369.42 233.77 369.42 229.54C369.42 225.31 372.88 222.05 377.11 222.05C381.34 222.05 384.8 225.51 384.8 229.54ZM370.01 212.44L370.39 211.48H383.84L384.22 212.44H370H370.01ZM382.88 250.67C382.88 253.94 380.38 256.43 377.12 256.43C373.86 256.43 371.36 253.93 371.36 250.67C371.36 247.41 373.86 244.91 377.12 244.91C380.38 244.91 382.88 247.41 382.88 250.67ZM371.55 209.17L371.74 208.21H382.5L382.88 209.17H371.54H371.55ZM372.7 206.1L373.08 205.14H381.34L381.72 206.1H372.69H372.7ZM380.96 267.39C380.96 269.5 379.23 271.23 377.12 271.23C375.01 271.23 373.28 269.5 373.28 267.39C373.28 265.28 375.01 263.35 377.12 263.35C379.23 263.35 380.96 265.27 380.96 267.39ZM373.85 202.83L374.23 201.87H380.19L380.38 202.83H373.85ZM375.2 199.56L375.58 198.79H378.85L379.23 199.56H375.19H375.2Z" fill="#025A8B"/>
<path d="M418.62 220.51C418.62 187.65 435.91 159.22 462.43 158.83C465.5 158.83 467.62 157.68 468.96 156.33C470.11 154.99 471.65 153.64 472.8 153.64C474.15 153.64 475.3 154.79 476.84 156.33C478.57 157.67 480.49 158.64 483.37 158.83C505.27 159.6 537.17 180.73 537.17 231.07C537.17 264.5 517.76 297.55 481.64 297.55C448.02 297.55 418.62 269.69 418.62 220.5V220.51ZM523.91 220.31C523.91 188.99 506.62 162.09 483.37 162.09C480.3 162.09 477.99 161.13 476.45 159.59C475.3 158.44 474.15 156.9 472.8 156.9C471.65 156.9 470.49 158.44 468.96 159.78C467.42 161.12 465.5 162.08 462.43 162.08C439.18 162.08 421.89 188.98 421.89 220.3C421.89 249.51 433.8 284.09 472.81 284.09C511.82 284.09 523.92 249.51 523.92 220.3L523.91 220.31ZM450.9 215.32C446.67 207.25 443.79 199.37 441.48 191.3C437.06 196.68 430.91 204.94 425.72 215.32C426.68 197.07 438.02 165.56 462.42 165.56C465.49 165.56 467.99 164.22 469.91 162.68C471.06 161.72 472.02 160.37 472.79 160.37C473.75 160.37 474.9 161.71 476.06 162.68C477.79 164.22 480.1 165.56 483.36 165.56C507.76 165.56 518.9 197.07 520.06 215.32C514.68 204.94 508.72 196.68 504.3 191.3C501.8 199.37 498.92 207.25 494.88 215.32C496.42 189.57 489.88 175.74 472.78 175.74C455.68 175.74 449.34 189.57 450.88 215.32H450.9ZM427.07 215.51L427.45 214.74H448.97L449.55 215.51H427.07ZM428.61 212.44L428.99 211.48H447.63L448.21 212.44H428.61ZM430.15 209.17L430.73 208.21H446.29L446.48 209.17H430.15ZM445.71 229.54C445.71 233.77 442.25 237.23 438.02 237.23C433.79 237.23 430.14 233.77 430.14 229.54C430.14 225.31 433.79 222.05 438.02 222.05C442.25 222.05 445.71 225.51 445.71 229.54ZM432.26 206.1L432.64 205.14H444.94L445.32 206.1H432.25H432.26ZM434.18 202.83L434.56 201.87H443.78L443.97 202.83H434.17H434.18ZM447.63 250.67C447.63 253.94 445.32 256.43 441.87 256.43C438.6 256.43 436.11 253.93 436.11 250.67C436.11 247.41 438.61 244.91 441.87 244.91C445.33 244.91 447.63 247.41 447.63 250.67ZM436.3 199.56L436.88 198.79H442.84V199.56H436.31H436.3ZM455.32 267.39C455.32 269.5 453.59 271.23 451.48 271.23C449.37 271.23 447.64 269.5 447.64 267.39C447.64 265.28 449.37 263.35 451.48 263.35C453.59 263.35 455.32 265.27 455.32 267.39ZM453.97 219.55C453.97 200.91 453.97 179.01 472.8 179.01C491.63 179.01 491.82 200.91 491.82 219.55C491.82 241.45 491.82 266.05 472.8 266.05C453.78 266.05 453.97 241.46 453.97 219.55ZM466.65 222.62C466.84 245.87 471.07 260.28 477.99 260.28C481.45 260.28 488.56 257.4 488.56 219.16C488.56 193.03 484.91 190.34 477.8 190.34C470.11 190.34 466.46 196.68 466.66 222.62H466.65ZM499.12 267.39C499.12 269.5 497.39 271.23 495.28 271.23C493.17 271.23 491.44 269.5 491.44 267.39C491.44 265.28 493.17 263.35 495.28 263.35C497.39 263.35 499.12 265.27 499.12 267.39ZM495.86 215.51L496.44 214.74H518.34L518.92 215.51H495.86ZM497.59 212.44L497.97 211.48H516.22L516.8 212.44H497.59ZM509.88 250.67C509.88 253.94 507.38 256.43 504.12 256.43C500.86 256.43 498.36 253.93 498.36 250.67C498.36 247.41 500.86 244.91 504.12 244.91C507.38 244.91 509.88 247.41 509.88 250.67ZM499.12 209.17L499.5 208.21H514.68L515.06 209.17H499.11H499.12ZM515.07 229.54C515.07 233.77 511.61 237.23 507.38 237.23C503.15 237.23 499.5 233.77 499.5 229.54C499.5 225.31 503.15 222.05 507.38 222.05C511.61 222.05 515.07 225.51 515.07 229.54ZM500.47 206.1L500.85 205.14H512.95L513.53 206.1H500.46H500.47ZM501.62 202.83L501.81 201.87H510.65L511.42 202.83H501.62ZM502.78 199.56L503.16 198.79H508.92L509.3 199.56H502.77H502.78Z" fill="#025A8B"/>
</svg>
