<svg width="275" height="130" viewBox="0 0 275 130" fill="none" xmlns="http://www.w3.org/2000/svg">
<path d="M273.873 61.9667C272.075 44.2881 255.139 28.6229 229.217 17.5987C213.072 10.73 193.395 5.66062 171.737 3.0331C164.213 2.11918 156.445 1.50514 148.495 1.20526C143.256 1.00534 137.925 0.948218 132.533 1.04818C132.046 1.04818 131.528 1.04818 131.041 1.07674C124.096 1.23382 117.272 1.63366 110.662 2.2477C87.908 4.37542 67.3163 9.11639 50.2581 15.7852C18.4873 28.1945 -0.946881 47.1869 1.15493 68.0357C3.59182 91.9976 33.8092 112.247 76.546 122.271C83.7044 123.956 91.1673 125.341 98.9349 126.412C109.596 127.883 120.775 128.754 132.29 128.954C136.158 129.026 140.027 129.011 143.956 128.926C144.687 128.911 145.418 128.897 146.15 128.869C163.512 128.355 179.961 126.327 194.887 123.085C204.422 121.015 213.316 118.444 221.48 115.46C255.2 103.107 276.035 83.5296 273.842 61.9667H273.873Z" fill="#EE5229" stroke="#130000" stroke-width="2" stroke-miterlimit="10"/>
<path d="M25 88.68C24.392 88.68 23.896 88.456 23.512 88.008C23.128 87.592 22.92 86.968 22.888 86.136C22.856 85.56 22.84 84.344 22.84 82.488L22.984 71.304C23.08 67.304 23.128 63.736 23.128 60.6C23.128 59.064 23.112 58.056 23.08 57.576C22.984 56.488 22.488 55.944 21.592 55.944C21.272 55.944 20.824 56.088 20.248 56.376C20.152 56.408 20.056 56.408 19.96 56.376C19.896 56.344 19.864 56.28 19.864 56.184C19.864 56.024 19.944 55.912 20.104 55.848C21.32 55.144 22.584 54.536 23.896 54.024C24.184 53.928 24.456 53.88 24.712 53.88C25.32 53.88 25.816 54.104 26.2 54.552C26.616 55 26.872 55.688 26.968 56.616C28.728 55.496 30.248 54.68 31.528 54.168C32.808 53.656 34.088 53.416 35.368 53.448C36.456 53.48 37.512 53.928 38.536 54.792C39.592 55.624 40.44 56.808 41.08 58.344C41.72 59.848 42.04 61.608 42.04 63.624C42.04 65.448 41.656 67.208 40.888 68.904C40.152 70.568 39.208 71.88 38.056 72.84C37.224 73.512 36.136 74.136 34.792 74.712C33.48 75.256 32.152 75.528 30.808 75.528C29.24 75.528 27.848 75.096 26.632 74.232L26.584 78.984C26.584 81.064 26.616 83.096 26.68 85.08C26.712 85.56 26.856 85.944 27.112 86.232C27.4 86.52 27.768 86.664 28.216 86.664C28.568 86.664 29 86.52 29.512 86.232C29.608 86.2 29.688 86.2 29.752 86.232C29.816 86.264 29.848 86.328 29.848 86.424C29.848 86.52 29.784 86.616 29.656 86.712C29.016 87.16 28.216 87.592 27.256 88.008C26.296 88.456 25.544 88.68 25 88.68ZM32.92 74.28C33.976 74.28 34.872 74.008 35.608 73.464C36.344 72.92 36.936 71.816 37.384 70.152C37.832 68.456 38.056 66.776 38.056 65.112C38.056 63.352 37.8 61.736 37.288 60.264C36.776 58.792 36.056 57.624 35.128 56.76C34.232 55.864 33.192 55.416 32.008 55.416C31.24 55.416 30.456 55.592 29.656 55.944C28.856 56.264 27.96 56.728 26.968 57.336L26.872 60.456C26.776 63.528 26.728 65.384 26.728 66.024V67.704C26.728 69.016 27.016 70.168 27.592 71.16C28.168 72.152 28.92 72.92 29.848 73.464C30.808 74.008 31.832 74.28 32.92 74.28ZM50.3159 75.192C49.0039 75.192 48.2999 74.296 48.2039 72.504L48.1559 70.296C48.1559 69.432 48.1719 68.584 48.2039 67.752C48.2359 66.888 48.2679 66.04 48.2999 65.208C48.3959 63.512 48.4439 61.832 48.4439 60.168L48.3959 57.576C48.3639 57.032 48.2199 56.616 47.9639 56.328C47.7399 56.04 47.4519 55.896 47.0999 55.896C46.6519 55.896 46.1559 56.04 45.6119 56.328C45.5159 56.36 45.4199 56.36 45.3239 56.328C45.2599 56.296 45.2279 56.232 45.2279 56.136C45.2279 56.008 45.2919 55.896 45.4199 55.8C46.9239 54.936 48.1879 54.328 49.2119 53.976C49.4999 53.88 49.7719 53.832 50.0279 53.832C50.8599 53.832 51.4519 54.264 51.8039 55.128C52.1559 55.992 52.3319 57.016 52.3319 58.2C53.4199 56.92 54.2359 56.04 54.7799 55.56C55.5159 54.888 56.2999 54.36 57.1319 53.976C57.9639 53.592 58.7159 53.4 59.3879 53.4C59.9959 53.4 60.4919 53.56 60.8759 53.88C61.2919 54.2 61.4999 54.648 61.4999 55.224C61.4999 55.704 61.2439 56.264 60.7319 56.904C60.2519 57.544 59.7079 58.104 59.0999 58.584C58.5239 59.064 58.1559 59.304 57.9959 59.304C57.8999 59.304 57.8199 59.256 57.7559 59.16C57.7239 59.032 57.7559 58.904 57.8519 58.776C58.1079 58.424 58.2359 58.088 58.2359 57.768C58.2359 57.416 58.1079 57.096 57.8519 56.808C57.5959 56.488 57.2439 56.328 56.7959 56.328C55.8679 56.328 54.3799 57.24 52.3319 59.064C52.3319 60.28 52.2679 62.072 52.1399 64.44C52.1079 65.304 52.0759 66.184 52.0439 67.08C52.0119 67.944 51.9959 68.824 51.9959 69.72C51.9959 70.52 52.0119 71.128 52.0439 71.544C52.1399 72.632 52.6199 73.176 53.4839 73.176C53.8359 73.176 54.2679 73.048 54.7799 72.792C54.9079 72.728 55.0039 72.696 55.0679 72.696C55.1639 72.696 55.2119 72.776 55.2119 72.936C55.2439 73.064 55.1959 73.16 55.0679 73.224C52.8599 74.536 51.2759 75.192 50.3159 75.192ZM67.3608 75.768C65.6648 75.768 64.2888 75.448 63.2328 74.808C62.2088 74.168 61.6968 73.256 61.6968 72.072C61.6968 70.472 63.1048 68.792 65.9208 67.032C66.4968 66.648 67.9368 65.816 70.2408 64.536C72.5448 63.224 74.1768 62.344 75.1368 61.896L75.1848 60.936C75.1848 59.304 74.8168 57.96 74.0807 56.904C73.3448 55.816 72.2408 55.272 70.7688 55.272C69.9048 55.272 69.1208 55.512 68.4168 55.992C67.7448 56.472 67.2968 57.128 67.0728 57.96C66.9768 58.312 66.4808 58.712 65.5848 59.16C64.7208 59.576 64.0328 59.784 63.5208 59.784C63.1368 59.784 63.0248 59.608 63.1848 59.256C63.6008 58.424 64.5448 57.512 66.0168 56.52C67.5208 55.496 68.8808 54.76 70.0968 54.312C71.5368 53.768 72.8328 53.496 73.9848 53.496C75.9368 53.496 77.2648 54.264 77.9688 55.8C78.7048 57.336 79.0728 59.432 79.0728 62.088C79.0728 62.824 79.0568 63.56 79.0248 64.296C78.9928 65.032 78.9608 65.768 78.9288 66.504C78.8328 67.784 78.7848 69 78.7848 70.152C78.7848 70.792 78.8008 71.256 78.8328 71.544C78.8648 72.6 79.3448 73.128 80.2728 73.128C80.5608 73.128 80.8488 73.08 81.1368 72.984C81.4568 72.856 81.6808 72.776 81.8088 72.744C81.9368 72.744 82.0008 72.824 82.0008 72.984C82.0328 73.112 81.9848 73.208 81.8568 73.272C81.0248 73.72 80.1448 74.152 79.2168 74.568C78.2888 74.984 77.5528 75.192 77.0088 75.192C75.8888 75.192 75.2008 74.52 74.9448 73.176C73.8888 73.944 72.7848 74.568 71.6328 75.048C70.5128 75.528 69.0888 75.768 67.3608 75.768ZM70.4328 74.04C71.1368 74.04 71.8888 73.88 72.6888 73.56C73.5208 73.24 74.2088 72.776 74.7528 72.168C74.7208 70.664 74.8008 68.408 74.9928 65.4L75.1368 62.856C73.7928 63.496 72.0808 64.456 70.0008 65.736C67.9208 66.984 66.6408 67.896 66.1608 68.472C65.7448 68.984 65.5368 69.576 65.5368 70.248C65.5368 71.24 65.9688 72.12 66.8328 72.888C67.7288 73.656 68.9288 74.04 70.4328 74.04ZM94.3559 75.72C92.7879 75.72 91.3159 75.304 89.9399 74.472C88.5639 73.608 87.4599 72.376 86.6279 70.776C85.7959 69.176 85.3799 67.304 85.3799 65.16C85.3799 63.56 85.6039 62.088 86.0519 60.744C86.5319 59.368 87.2039 58.232 88.0679 57.336C89.2839 56.056 90.7079 55.08 92.3399 54.408C94.0039 53.736 95.7639 53.4 97.6199 53.4C98.7399 53.4 99.7639 53.608 100.692 54.024C101.652 54.408 102.132 55.016 102.132 55.848C102.132 56.296 101.908 56.84 101.46 57.48C101.012 58.12 100.5 58.696 99.9239 59.208C99.3799 59.72 98.9959 59.976 98.7719 59.976C98.6759 59.976 98.6119 59.928 98.5799 59.832C98.5799 59.736 98.6279 59.64 98.7239 59.544C98.9159 59.256 99.0119 58.936 99.0119 58.584C99.0119 57.624 98.5159 56.76 97.5239 55.992C96.5639 55.224 95.4599 54.84 94.2119 54.84C93.6679 54.84 93.1399 54.952 92.6279 55.176C92.1159 55.368 91.6999 55.592 91.3799 55.848C90.6759 56.488 90.1159 57.48 89.6999 58.824C89.3159 60.168 89.1239 61.576 89.1239 63.048C89.1239 65.096 89.4759 66.952 90.1799 68.616C90.9159 70.28 91.9239 71.592 93.2039 72.552C94.4839 73.48 95.8919 73.944 97.4279 73.944C98.2599 73.944 99.0439 73.752 99.7799 73.368C100.548 72.984 101.332 72.424 102.132 71.688C102.388 71.432 102.596 71.304 102.756 71.304C102.884 71.304 102.948 71.384 102.948 71.544C102.948 71.64 102.9 71.768 102.804 71.928C102.068 72.888 100.916 73.768 99.3479 74.568C97.7799 75.336 96.1159 75.72 94.3559 75.72ZM114.112 75.624C112.224 75.624 110.912 75 110.176 73.752C109.472 72.472 109.12 70.52 109.12 67.896C109.12 67 109.152 65.496 109.216 63.384C109.28 60.76 109.312 58.488 109.312 56.568C107.424 56.568 105.936 56.792 104.848 57.24C104.688 57.304 104.576 57.288 104.512 57.192C104.48 57.096 104.512 57 104.608 56.904C105.216 56.392 106 55.848 106.96 55.272C107.92 54.696 108.736 54.36 109.408 54.264C109.504 51.992 110.304 50.104 111.808 48.6C112.672 47.736 113.472 47.096 114.208 46.68C114.464 46.52 114.672 46.44 114.832 46.44C115.024 46.44 115.12 46.536 115.12 46.728C115.12 46.888 114.976 47.064 114.688 47.256C114.176 47.608 113.792 48.024 113.536 48.504C113.28 48.952 113.12 49.624 113.056 50.52L113.008 54.168L119.248 54.216L121.216 54.264C121.312 54.264 121.376 54.312 121.408 54.408C121.44 54.504 121.408 54.6 121.312 54.696C120.992 55.016 120.512 55.352 119.872 55.704C119.264 56.024 118.768 56.216 118.384 56.28C117.744 56.408 115.952 56.472 113.008 56.472L112.96 62.52C112.928 63.512 112.912 64.984 112.912 66.936C112.912 68.952 113.152 70.632 113.632 71.976C114.144 73.288 115.104 73.944 116.512 73.944C117.664 73.944 118.816 73.368 119.968 72.216C120.128 72.056 120.272 71.976 120.4 71.976C120.56 71.976 120.64 72.056 120.64 72.216C120.64 72.44 120.496 72.696 120.208 72.984C119.472 73.72 118.56 74.344 117.472 74.856C116.416 75.368 115.296 75.624 114.112 75.624ZM128.044 75.24C127.404 75.24 126.892 75.016 126.508 74.568C126.124 74.12 125.916 73.448 125.884 72.552C125.852 72.136 125.836 71.496 125.836 70.632C125.836 69.512 125.9 67.8 126.028 65.496C126.156 63.256 126.22 61.576 126.22 60.456C126.22 59.304 126.188 58.44 126.124 57.864C126.06 57.352 125.948 56.984 125.788 56.76C125.628 56.536 125.356 56.424 124.972 56.424C124.684 56.424 124.332 56.504 123.916 56.664C123.82 56.696 123.74 56.696 123.676 56.664C123.612 56.6 123.58 56.536 123.58 56.472C123.58 56.344 123.628 56.264 123.724 56.232C124.396 55.848 125.372 55.352 126.652 54.744C127.964 54.104 128.812 53.784 129.196 53.784C129.708 53.784 129.98 54.072 130.012 54.648C130.044 55.032 130.06 55.624 130.06 56.424C130.06 57.832 129.996 60.008 129.868 62.952C129.74 65.96 129.676 68.152 129.676 69.528C129.676 70.456 129.692 71.128 129.724 71.544C129.82 72.6 130.316 73.128 131.212 73.128C131.564 73.128 132.028 73 132.604 72.744C132.732 72.712 132.828 72.728 132.892 72.792C132.956 72.824 132.988 72.888 132.988 72.984C132.988 73.08 132.908 73.176 132.748 73.272C130.476 74.584 128.908 75.24 128.044 75.24ZM127.276 47.928C127.084 47.928 126.908 47.832 126.748 47.64C126.076 46.872 125.484 46.248 124.972 45.768C124.812 45.608 124.732 45.448 124.732 45.288C124.732 45.064 124.828 44.904 125.02 44.808C126.268 44.168 127.324 43.688 128.188 43.368C128.38 43.304 128.508 43.272 128.572 43.272C128.764 43.272 128.972 43.384 129.196 43.608C130.444 44.856 131.068 45.672 131.068 46.056C131.068 46.216 130.988 46.344 130.828 46.44C130.54 46.6 130.044 46.824 129.34 47.112C128.668 47.4 128.06 47.656 127.516 47.88L127.276 47.928ZM144.253 75.624C142.365 75.624 141.053 75 140.317 73.752C139.613 72.472 139.261 70.52 139.261 67.896C139.261 67 139.293 65.496 139.357 63.384C139.421 60.76 139.453 58.488 139.453 56.568C137.565 56.568 136.077 56.792 134.989 57.24C134.829 57.304 134.717 57.288 134.653 57.192C134.621 57.096 134.653 57 134.749 56.904C135.357 56.392 136.141 55.848 137.101 55.272C138.061 54.696 138.877 54.36 139.549 54.264C139.645 51.992 140.445 50.104 141.949 48.6C142.813 47.736 143.613 47.096 144.349 46.68C144.605 46.52 144.813 46.44 144.973 46.44C145.165 46.44 145.261 46.536 145.261 46.728C145.261 46.888 145.117 47.064 144.829 47.256C144.317 47.608 143.933 48.024 143.677 48.504C143.421 48.952 143.261 49.624 143.197 50.52L143.149 54.168L149.389 54.216L151.357 54.264C151.453 54.264 151.517 54.312 151.549 54.408C151.581 54.504 151.549 54.6 151.453 54.696C151.133 55.016 150.653 55.352 150.013 55.704C149.405 56.024 148.909 56.216 148.525 56.28C147.885 56.408 146.093 56.472 143.149 56.472L143.101 62.52C143.069 63.512 143.053 64.984 143.053 66.936C143.053 68.952 143.293 70.632 143.773 71.976C144.285 73.288 145.245 73.944 146.653 73.944C147.805 73.944 148.957 73.368 150.109 72.216C150.269 72.056 150.413 71.976 150.541 71.976C150.701 71.976 150.781 72.056 150.781 72.216C150.781 72.44 150.637 72.696 150.349 72.984C149.613 73.72 148.701 74.344 147.613 74.856C146.557 75.368 145.437 75.624 144.253 75.624ZM158.184 75.24C157.544 75.24 157.032 75.016 156.648 74.568C156.264 74.12 156.056 73.448 156.024 72.552C155.992 72.136 155.976 71.496 155.976 70.632C155.976 69.512 156.04 67.8 156.168 65.496C156.296 63.256 156.36 61.576 156.36 60.456C156.36 59.304 156.328 58.44 156.264 57.864C156.2 57.352 156.088 56.984 155.928 56.76C155.768 56.536 155.496 56.424 155.112 56.424C154.824 56.424 154.472 56.504 154.056 56.664C153.96 56.696 153.88 56.696 153.816 56.664C153.752 56.6 153.72 56.536 153.72 56.472C153.72 56.344 153.768 56.264 153.864 56.232C154.536 55.848 155.512 55.352 156.792 54.744C158.104 54.104 158.952 53.784 159.336 53.784C159.848 53.784 160.12 54.072 160.152 54.648C160.184 55.032 160.2 55.624 160.2 56.424C160.2 57.832 160.136 60.008 160.008 62.952C159.88 65.96 159.816 68.152 159.816 69.528C159.816 70.456 159.832 71.128 159.864 71.544C159.96 72.6 160.456 73.128 161.352 73.128C161.704 73.128 162.168 73 162.744 72.744C162.872 72.712 162.968 72.728 163.032 72.792C163.096 72.824 163.128 72.888 163.128 72.984C163.128 73.08 163.048 73.176 162.888 73.272C160.616 74.584 159.048 75.24 158.184 75.24ZM157.416 47.928C157.224 47.928 157.048 47.832 156.888 47.64C156.216 46.872 155.624 46.248 155.112 45.768C154.952 45.608 154.872 45.448 154.872 45.288C154.872 45.064 154.968 44.904 155.16 44.808C156.408 44.168 157.464 43.688 158.328 43.368C158.52 43.304 158.648 43.272 158.712 43.272C158.904 43.272 159.112 43.384 159.336 43.608C160.584 44.856 161.208 45.672 161.208 46.056C161.208 46.216 161.128 46.344 160.968 46.44C160.68 46.6 160.184 46.824 159.48 47.112C158.808 47.4 158.2 47.656 157.656 47.88L157.416 47.928ZM175.066 75.768C173.338 75.768 171.818 75.304 170.506 74.376C169.194 73.416 168.186 72.136 167.482 70.536C166.778 68.936 166.426 67.192 166.426 65.304C166.426 62.232 167.37 59.704 169.258 57.72C170.442 56.44 171.962 55.4 173.818 54.6C175.674 53.8 177.498 53.4 179.29 53.4C180.794 53.4 182.154 53.88 183.37 54.84C184.586 55.8 185.53 57.08 186.202 58.68C186.906 60.28 187.258 61.96 187.258 63.72C187.258 65.512 186.89 67.176 186.154 68.712C185.418 70.248 184.458 71.512 183.274 72.504C180.682 74.68 177.946 75.768 175.066 75.768ZM177.226 74.424C177.834 74.424 178.474 74.312 179.146 74.088C179.85 73.832 180.394 73.528 180.778 73.176C181.61 72.44 182.234 71.368 182.65 69.96C183.066 68.552 183.274 67 183.274 65.304C183.274 63.544 183.002 61.864 182.458 60.264C181.914 58.632 181.13 57.32 180.106 56.328C179.114 55.304 177.978 54.792 176.698 54.792C175.93 54.792 175.178 54.936 174.442 55.224C173.706 55.512 173.146 55.848 172.762 56.232C172.058 56.904 171.466 57.976 170.986 59.448C170.538 60.92 170.314 62.44 170.314 64.008C170.314 65.64 170.618 67.272 171.226 68.904C171.834 70.504 172.666 71.832 173.722 72.888C174.778 73.912 175.946 74.424 177.226 74.424ZM195.536 75.24C194.928 75.24 194.416 75.016 194 74.568C193.584 74.12 193.36 73.448 193.328 72.552C193.296 72.168 193.28 71.608 193.28 70.872C193.28 69.592 193.344 67.736 193.472 65.304C193.6 62.872 193.664 61.032 193.664 59.784V58.68C193.664 58.168 193.648 57.8 193.616 57.576C193.456 56.488 192.96 55.944 192.128 55.944C191.776 55.944 191.344 56.072 190.832 56.328C190.704 56.392 190.592 56.408 190.496 56.376C190.432 56.312 190.4 56.232 190.4 56.136C190.4 56.008 190.48 55.896 190.64 55.8C192.368 54.904 193.632 54.312 194.432 54.024C194.784 53.928 195.088 53.88 195.344 53.88C196.624 53.88 197.328 54.824 197.456 56.712L199.04 55.848C200.64 55.016 201.616 54.52 201.968 54.36C203.152 53.784 204.416 53.496 205.76 53.496C207.392 53.496 208.72 54.104 209.744 55.32C210.768 56.504 211.28 58.312 211.28 60.744C211.28 61.8 211.216 63.256 211.088 65.112C210.96 66.776 210.896 67.928 210.896 68.568V70.2C210.896 70.808 210.912 71.256 210.944 71.544C211.008 71.992 211.168 72.36 211.424 72.648C211.712 72.904 212.096 73.032 212.576 73.032C212.928 73.032 213.312 72.936 213.728 72.744C213.856 72.712 213.952 72.728 214.016 72.792C214.08 72.824 214.112 72.888 214.112 72.984C214.112 73.112 214.048 73.208 213.92 73.272C212.672 74.008 211.408 74.616 210.128 75.096C209.84 75.192 209.552 75.24 209.264 75.24C208.624 75.24 208.096 75.032 207.68 74.616C207.296 74.2 207.088 73.576 207.056 72.744C207.024 72.296 207.008 71.896 207.008 71.544C207.04 71.16 207.056 70.808 207.056 70.488L207.2 66.936C207.328 65.08 207.392 63.736 207.392 62.904C207.392 60.76 207.104 59.08 206.528 57.864C205.952 56.648 204.72 56.04 202.832 56.04C201.424 56.04 199.664 56.52 197.552 57.48C197.584 58.952 197.536 61.16 197.408 64.104C197.28 66.472 197.216 68.264 197.216 69.48C197.216 70.408 197.232 71.096 197.264 71.544C197.296 72.568 197.744 73.08 198.608 73.08C198.992 73.08 199.44 72.984 199.952 72.792C200.048 72.76 200.128 72.76 200.192 72.792C200.288 72.824 200.336 72.888 200.336 72.984C200.336 73.112 200.272 73.224 200.144 73.32C198.96 73.992 197.728 74.584 196.448 75.096C196.16 75.192 195.856 75.24 195.536 75.24ZM226.789 75.72C225.125 75.72 223.573 75.32 222.133 74.52C220.725 73.688 219.573 72.472 218.677 70.872C217.813 69.272 217.381 67.368 217.381 65.16C217.381 63.528 217.605 62.04 218.053 60.696C218.533 59.32 219.221 58.184 220.117 57.288C221.365 56.04 222.789 55.096 224.389 54.456C225.989 53.784 227.637 53.448 229.333 53.448C230.261 53.448 231.109 53.608 231.877 53.928C232.645 54.248 233.237 54.648 233.653 55.128C234.101 55.608 234.325 56.104 234.325 56.616C234.325 57.416 233.749 58.344 232.597 59.4C231.125 60.712 229.669 61.88 228.229 62.904C226.821 63.928 224.597 65.368 221.557 67.224C221.877 68.504 222.437 69.672 223.237 70.728C224.069 71.784 225.061 72.6 226.213 73.176C227.397 73.752 228.629 73.992 229.909 73.896C230.741 73.832 231.605 73.528 232.501 72.984C233.397 72.44 234.117 71.864 234.661 71.256C234.885 71 235.093 70.872 235.285 70.872C235.413 70.872 235.477 70.936 235.477 71.064C235.477 71.288 235.317 71.576 234.997 71.928C234.293 72.792 233.141 73.64 231.541 74.472C229.941 75.304 228.357 75.72 226.789 75.72ZM221.317 66.264C223.941 64.792 225.877 63.576 227.125 62.616C228.405 61.656 229.333 60.808 229.909 60.072C230.325 59.56 230.533 58.984 230.533 58.344C230.533 57.672 230.293 57.08 229.813 56.568C229.333 56.056 228.741 55.672 228.037 55.416C227.333 55.128 226.709 54.984 226.165 54.984C225.109 54.984 224.101 55.304 223.141 55.944C222.405 56.424 221.861 57.32 221.509 58.632C221.157 59.912 220.981 61.32 220.981 62.856C220.981 64.328 221.093 65.464 221.317 66.264ZM242.738 75.192C241.426 75.192 240.722 74.296 240.626 72.504L240.578 70.296C240.578 69.432 240.594 68.584 240.626 67.752C240.658 66.888 240.69 66.04 240.722 65.208C240.818 63.512 240.866 61.832 240.866 60.168L240.818 57.576C240.786 57.032 240.642 56.616 240.386 56.328C240.162 56.04 239.874 55.896 239.522 55.896C239.074 55.896 238.578 56.04 238.034 56.328C237.938 56.36 237.842 56.36 237.746 56.328C237.682 56.296 237.65 56.232 237.65 56.136C237.65 56.008 237.714 55.896 237.842 55.8C239.346 54.936 240.61 54.328 241.634 53.976C241.922 53.88 242.194 53.832 242.45 53.832C243.282 53.832 243.874 54.264 244.226 55.128C244.578 55.992 244.754 57.016 244.754 58.2C245.842 56.92 246.658 56.04 247.202 55.56C247.938 54.888 248.722 54.36 249.554 53.976C250.386 53.592 251.138 53.4 251.81 53.4C252.418 53.4 252.914 53.56 253.298 53.88C253.714 54.2 253.922 54.648 253.922 55.224C253.922 55.704 253.666 56.264 253.154 56.904C252.674 57.544 252.13 58.104 251.522 58.584C250.946 59.064 250.578 59.304 250.418 59.304C250.322 59.304 250.242 59.256 250.178 59.16C250.146 59.032 250.178 58.904 250.274 58.776C250.53 58.424 250.658 58.088 250.658 57.768C250.658 57.416 250.53 57.096 250.274 56.808C250.018 56.488 249.666 56.328 249.218 56.328C248.29 56.328 246.802 57.24 244.754 59.064C244.754 60.28 244.69 62.072 244.562 64.44C244.53 65.304 244.498 66.184 244.466 67.08C244.434 67.944 244.418 68.824 244.418 69.72C244.418 70.52 244.434 71.128 244.466 71.544C244.562 72.632 245.042 73.176 245.906 73.176C246.258 73.176 246.69 73.048 247.202 72.792C247.33 72.728 247.426 72.696 247.49 72.696C247.586 72.696 247.634 72.776 247.634 72.936C247.666 73.064 247.618 73.16 247.49 73.224C245.282 74.536 243.698 75.192 242.738 75.192Z" fill="white"/>
</svg>
