<svg width="67" height="66" viewBox="0 0 67 66" fill="none" xmlns="http://www.w3.org/2000/svg">
<path d="M65.7817 31.4834C65.3604 22.644 61.3899 14.8114 55.3129 9.29936C51.5281 5.86501 46.915 3.33031 41.8377 2.01655C40.0739 1.55959 38.2529 1.25257 36.3891 1.10263C35.1608 1.00267 33.9112 0.974109 32.6472 1.02409C32.5329 1.02409 32.4115 1.02409 32.2973 1.03837C30.6691 1.11691 29.0695 1.31683 27.5199 1.62385C22.1856 2.68771 17.3582 5.05819 13.3592 8.39258C5.9111 14.5972 1.35511 24.0935 1.84784 34.5179C2.41913 46.4988 9.50305 56.6233 19.5219 61.6356C21.2001 62.4781 22.9497 63.1707 24.7706 63.7062C27.27 64.4416 29.8908 64.8772 32.5901 64.9771C33.497 65.0128 34.4039 65.0057 35.3251 64.9629C35.4965 64.9557 35.6679 64.9486 35.8392 64.9343C39.9096 64.6773 43.7658 63.6634 47.2649 62.0426C49.5001 61.0073 51.5853 59.7221 53.4991 58.2298C61.4042 52.0537 66.2887 42.2648 65.7745 31.4834H65.7817Z" fill="#FAEED5" stroke="#130000" stroke-width="2" stroke-miterlimit="10"/>
<path d="M32.224 43.5021C31.968 43.5021 31.744 43.2781 31.552 42.8301C31.008 41.5501 30.736 40.3181 30.736 39.1341C30.736 37.8541 31.056 36.5581 31.696 35.2461C32.336 33.9021 33.36 32.4621 34.768 30.9261C35.632 29.9661 36.272 28.9901 36.688 27.9981C37.136 26.9741 37.36 26.0141 37.36 25.1181C37.36 23.7421 36.944 22.5741 36.112 21.6141C35.312 20.6221 34.32 20.1261 33.136 20.1261C32.08 20.1261 31.104 20.4781 30.208 21.1821C29.344 21.8541 28.896 22.7181 28.864 23.7741C28.864 24.0301 28.608 24.3821 28.096 24.8301C27.584 25.2781 27.008 25.6781 26.368 26.0301C25.728 26.3821 25.216 26.5581 24.832 26.5581C24.48 26.5581 24.32 26.3821 24.352 26.0301C24.448 24.9421 25.12 23.8221 26.368 22.6701C27.616 21.4861 29.104 20.5101 30.832 19.7421C32.592 18.9421 34.192 18.5421 35.632 18.5421C37.392 18.5421 38.8 19.0861 39.856 20.1741C40.944 21.2621 41.488 22.6861 41.488 24.4461C41.488 26.1101 41.088 27.5501 40.288 28.7661C39.52 29.9501 38.368 31.3101 36.832 32.8461C35.36 34.3181 34.256 35.6141 33.52 36.7341C32.784 37.8221 32.416 39.1181 32.416 40.6221C32.416 41.2941 32.48 41.9341 32.608 42.5421C32.64 42.6381 32.656 42.7821 32.656 42.9741C32.656 43.3261 32.512 43.5021 32.224 43.5021ZM32.128 51.4701C32 51.4701 31.856 51.4221 31.696 51.3261C31.568 51.2621 31.472 51.1661 31.408 51.0381C31.216 50.7181 30.832 50.2061 30.256 49.5021L29.632 48.6861C29.504 48.5261 29.44 48.3821 29.44 48.2541C29.44 48.1261 29.504 48.0301 29.632 47.9661C30.08 47.6781 30.624 47.3741 31.264 47.0541C31.936 46.7341 32.528 46.4621 33.04 46.2381C33.072 46.2061 33.136 46.1901 33.232 46.1901C33.392 46.1901 33.536 46.2381 33.664 46.3341C33.792 46.4301 33.92 46.5261 34.048 46.6221C34.464 46.9741 34.864 47.4381 35.248 48.0141C35.664 48.5581 35.872 48.9741 35.872 49.2621C35.872 49.3581 35.808 49.4541 35.68 49.5501C34.144 50.5741 33.024 51.1981 32.32 51.4221L32.128 51.4701Z" fill="black"/>
</svg>
