<svg width="131" height="131" viewBox="0 0 131 131" fill="none" xmlns="http://www.w3.org/2000/svg">
<path d="M129.924 62.776C129.079 45.047 121.117 29.3372 108.93 18.2817C101.34 11.3935 92.0892 6.30963 81.9072 3.67463C78.37 2.75811 74.7182 2.14232 70.9805 1.84158C68.5174 1.6411 66.0112 1.58381 63.4765 1.68406C63.2474 1.68406 63.0039 1.68406 62.7748 1.7127C59.5097 1.87023 56.3018 2.2712 53.1943 2.88699C42.4967 5.02077 32.816 9.77523 24.7964 16.463C9.85996 28.9076 0.723385 47.9541 1.71151 68.8622C2.85716 92.8923 17.0632 113.199 37.1551 123.252C40.5205 124.942 44.029 126.331 47.6808 127.405C52.693 128.88 57.9487 129.754 63.3619 129.954C65.1806 130.026 66.9994 130.011 68.8467 129.926C69.1904 129.911 69.5341 129.897 69.8778 129.868C78.0406 129.353 85.7737 127.319 92.7909 124.068C97.2732 121.992 101.455 119.414 105.293 116.421C121.146 104.034 130.941 84.4002 129.91 62.776H129.924Z" fill="#EE5229" stroke="#130000" stroke-width="2" stroke-miterlimit="10"/>
<path d="M41.972 81.676C39.9267 81.676 38.5053 81 37.708 79.648C36.9453 78.2613 36.564 76.1467 36.564 73.304C36.564 72.3333 36.5987 70.704 36.668 68.416C36.7373 65.5733 36.772 63.112 36.772 61.032C34.7267 61.032 33.1147 61.2747 31.936 61.76C31.7627 61.8293 31.6413 61.812 31.572 61.708C31.5373 61.604 31.572 61.5 31.676 61.396C32.3347 60.8413 33.184 60.252 34.224 59.628C35.264 59.004 36.148 58.64 36.876 58.536C36.98 56.0747 37.8467 54.0293 39.476 52.4C40.412 51.464 41.2787 50.7707 42.076 50.32C42.3533 50.1467 42.5787 50.06 42.752 50.06C42.96 50.06 43.064 50.164 43.064 50.372C43.064 50.5453 42.908 50.736 42.596 50.944C42.0413 51.3253 41.6253 51.776 41.348 52.296C41.0707 52.7813 40.8973 53.5093 40.828 54.48L40.776 58.432L47.536 58.484L49.668 58.536C49.772 58.536 49.8413 58.588 49.876 58.692C49.9107 58.796 49.876 58.9 49.772 59.004C49.4253 59.3507 48.9053 59.7147 48.212 60.096C47.5533 60.4427 47.016 60.6507 46.6 60.72C45.9067 60.8587 43.9653 60.928 40.776 60.928L40.724 67.48C40.6893 68.5547 40.672 70.1493 40.672 72.264C40.672 74.448 40.932 76.268 41.452 77.724C42.0067 79.1453 43.0467 79.856 44.572 79.856C45.82 79.856 47.068 79.232 48.316 77.984C48.4893 77.8107 48.6453 77.724 48.784 77.724C48.9573 77.724 49.044 77.8107 49.044 77.984C49.044 78.2267 48.888 78.504 48.576 78.816C47.7787 79.6133 46.7907 80.2893 45.612 80.844C44.468 81.3987 43.2547 81.676 41.972 81.676ZM56.5442 81.208C55.1922 81.208 54.4642 80.2373 54.3602 78.296L54.3082 75.8C54.3082 72.3333 54.3602 68.7107 54.4642 64.932C54.4989 62.9213 54.5335 60.928 54.5682 58.952C54.6029 56.9413 54.6202 54.9653 54.6202 53.024L54.5682 48.5C54.5682 47.3907 54.1869 46.836 53.4242 46.836C53.0775 46.836 52.6615 46.94 52.1762 47.148C52.0722 47.1827 51.9855 47.1827 51.9162 47.148C51.8469 47.0787 51.8122 46.992 51.8122 46.888C51.8122 46.7147 51.8989 46.5933 52.0722 46.524C54.2215 45.276 55.9375 44.4613 57.2202 44.08L57.7402 43.976C58.0175 43.976 58.2255 44.0627 58.3642 44.236C58.5375 44.3747 58.6242 44.5827 58.6242 44.86L58.7282 52.348L58.6242 61.344L59.6122 60.772C61.7615 59.628 63.1135 58.9347 63.6682 58.692C65.1589 58.0333 66.5282 57.704 67.7762 57.704C69.5442 57.704 70.9829 58.38 72.0922 59.732C73.2015 61.0493 73.7562 63.06 73.7562 65.764C73.7562 67.116 73.6695 68.624 73.4962 70.288C73.4269 71.0853 73.3575 71.952 73.2882 72.888C73.2535 73.7893 73.2362 74.6387 73.2362 75.436C73.2362 76.476 73.3575 77.308 73.6002 77.932C73.8429 78.556 74.3629 78.868 75.1602 78.868C75.5415 78.868 75.9575 78.764 76.4082 78.556C76.5122 78.5213 76.5989 78.5213 76.6682 78.556C76.7722 78.5907 76.8242 78.66 76.8242 78.764C76.8242 78.9027 76.7375 79.024 76.5642 79.128C74.8655 80.064 73.5135 80.7053 72.5082 81.052C72.1615 81.156 71.8149 81.208 71.4682 81.208C70.0815 81.208 69.3362 80.2373 69.2322 78.296C69.1975 77.8453 69.1802 77.2213 69.1802 76.424C69.1802 75.28 69.2495 73.772 69.3882 71.9C69.5269 70.028 69.5962 68.5893 69.5962 67.584C69.5962 65.4 69.2322 63.6667 68.5042 62.384C67.7762 61.0667 66.4589 60.408 64.5522 60.408C62.9575 60.408 60.9815 60.9627 58.6242 62.072L58.5722 66.388C58.5029 69.6467 58.4682 71.952 58.4682 73.304L58.5202 77.256C58.5202 77.8107 58.6415 78.244 58.8842 78.556C59.1269 78.8333 59.4562 78.972 59.8722 78.972C60.2535 78.972 60.7562 78.8333 61.3802 78.556C61.5189 78.5213 61.6229 78.5387 61.6922 78.608C61.7615 78.6427 61.7962 78.712 61.7962 78.816C61.7962 78.9547 61.7269 79.0587 61.5882 79.128C60.0975 79.9947 58.7629 80.636 57.5842 81.052C57.2375 81.156 56.8909 81.208 56.5442 81.208ZM78.5459 95.456C77.9219 95.456 77.4365 95.3 77.0899 94.988C76.6045 94.6067 76.3619 94.1213 76.3619 93.532C76.3619 92.7347 76.7779 91.868 77.6099 90.932C78.4072 90.0307 79.4299 89.268 80.6779 88.644C80.8165 88.5747 80.9205 88.5573 80.9899 88.592C81.0939 88.6267 81.1459 88.696 81.1459 88.8C81.1459 88.8693 81.0939 88.956 80.9899 89.06C80.4352 89.5107 80.1579 89.9787 80.1579 90.464C80.1579 90.8107 80.2792 91.088 80.5219 91.296C80.7992 91.504 81.1632 91.608 81.6139 91.608C82.4805 91.608 83.3819 91.2267 84.3179 90.464C85.0805 89.8747 85.7739 89.1293 86.3979 88.228C87.0565 87.3613 88.0445 85.888 89.3619 83.808C88.7379 80.3067 87.5939 76.4933 85.9299 72.368C84.3005 68.208 82.6192 64.8453 80.8859 62.28C80.3659 61.448 79.8805 60.8413 79.4299 60.46C78.9792 60.044 78.4939 59.836 77.9739 59.836C77.6272 59.836 77.2459 59.94 76.8299 60.148L76.6739 60.2C76.5699 60.2 76.5005 60.1307 76.4659 59.992C76.4312 59.8533 76.5005 59.732 76.6739 59.628C78.3725 58.6573 79.5165 58.1027 80.1059 57.964C80.4179 57.86 80.7125 57.808 80.9899 57.808C81.7525 57.808 82.4632 58.12 83.1219 58.744C83.8152 59.3333 84.5779 60.304 85.4099 61.656C86.7965 63.8053 88.1485 66.4747 89.4659 69.664C90.7832 72.8533 91.7365 75.7827 92.3259 78.452C93.5045 76.164 94.6659 73.616 95.8099 70.808C96.9885 68 97.5779 65.712 97.5779 63.944C97.5779 62.7307 97.3179 61.7773 96.7979 61.084C96.3125 60.3907 95.7752 60.044 95.1859 60.044C94.9779 60.044 94.7872 60.096 94.6139 60.2C94.4752 60.2693 94.3712 60.2867 94.3019 60.252C94.2325 60.2173 94.1979 60.148 94.1979 60.044C94.1979 59.94 94.2499 59.836 94.3539 59.732C94.8045 59.2467 95.4805 58.7787 96.3819 58.328C97.2832 57.8773 98.0112 57.652 98.5659 57.652C99.6405 57.652 100.178 58.4493 100.178 60.044C100.178 61.0493 99.9525 62.332 99.5019 63.892C98.7045 66.7693 97.4045 70.132 95.6019 73.98C93.7992 77.828 91.8925 81.416 89.8819 84.744C87.8712 88.1067 86.1379 90.516 84.6819 91.972C83.5032 93.1507 82.3765 94.0173 81.3019 94.572C80.2619 95.1613 79.3432 95.456 78.5459 95.456Z" fill="white"/>
</svg>
