<svg width="128" height="120" viewBox="0 0 128 120" fill="none" xmlns="http://www.w3.org/2000/svg">
<path d="M91.6799 115.42C90.9299 113.93 91.0899 112.08 92.2399 110.74C93.1299 109.7 94.42 109.2 95.7 109.26C95.44 108.01 95.7299 106.66 96.6299 105.62C97.5299 104.58 98.81 104.08 100.09 104.14C99.83 102.89 100.12 101.54 101.02 100.5C101.92 99.46 103.2 98.96 104.48 99.02C104.22 97.77 104.51 96.42 105.41 95.38C106.31 94.34 107.59 93.84 108.87 93.9C108.61 92.65 108.9 91.3 109.8 90.26C110.7 89.22 111.98 88.72 113.26 88.78C113 87.53 113.29 86.18 114.19 85.14C115.09 84.1 116.37 83.6 117.65 83.66C117.39 82.41 117.68 81.06 118.58 80.02C119.73 78.68 121.54 78.23 123.12 78.74L105.27 63.46C105.12 63.68 104.97 63.9 104.79 64.11C102.58 66.69 98.7099 66.99 96.1299 64.78C93.5499 62.57 93.25 58.7 95.46 56.12C95.64 55.91 95.8299 55.73 96.0299 55.55L36.6599 4.72998C37.4099 6.21998 37.25 8.06997 36.1 9.40997C35.21 10.45 33.9199 10.95 32.6399 10.89C32.8999 12.14 32.61 13.49 31.71 14.53C30.81 15.57 29.5299 16.07 28.2499 16.01C28.5099 17.26 28.2199 18.61 27.3199 19.65C26.4199 20.69 25.14 21.19 23.86 21.13C24.12 22.38 23.8299 23.73 22.9299 24.77C22.0299 25.81 20.75 26.31 19.47 26.25C19.73 27.5 19.4399 28.85 18.5399 29.89C17.6399 30.93 16.36 31.43 15.08 31.37C15.34 32.62 15.0499 33.97 14.1499 35.01C13.2499 36.05 11.9699 36.55 10.6899 36.49C10.9499 37.74 10.6599 39.09 9.75989 40.13C8.60989 41.47 6.79997 41.92 5.21997 41.41L64.59 92.23C64.74 92.01 64.8899 91.79 65.0699 91.58C67.2799 89 71.15 88.7 73.73 90.91C76.31 93.12 76.6099 96.99 74.3999 99.57C74.2199 99.78 74.03 99.96 73.83 100.14L91.6799 115.42Z" fill="#130000" stroke="url(#paint0_radial_113_3000)" stroke-width="2" stroke-miterlimit="10"/>
<defs>
<radialGradient id="paint0_radial_113_3000" cx="0" cy="0" r="1" gradientUnits="userSpaceOnUse" gradientTransform="translate(64.2915 59.8144) rotate(40.57) scale(47.25 50.5575)">
<stop stop-color="#FAEED5"/>
<stop offset="0.46" stop-color="#F9EDD3"/>
<stop offset="0.63" stop-color="#F9EBCC"/>
<stop offset="0.74" stop-color="#F9E7C0"/>
<stop offset="0.84" stop-color="#F9E1AF"/>
<stop offset="0.92" stop-color="#F9DA99"/>
<stop offset="0.99" stop-color="#F9D27F"/>
<stop offset="1" stop-color="#F9D17C"/>
</radialGradient>
</defs>
</svg>
