<svg width="42" height="42" viewBox="0 0 42 42" fill="none" xmlns="http://www.w3.org/2000/svg">
<g clip-path="url(#clip0_5_1758)">
<path d="M41.6525 21.0001C41.6525 32.4072 32.4018 41.6525 21.0035 41.6525C9.60519 41.6525 0.347534 32.4072 0.347534 21.0001C0.347534 9.59294 9.59824 0.347656 21.0035 0.347656C32.4088 0.347656 41.6525 9.59294 41.6525 21.0001Z" fill="#F72D37" stroke="#130000" stroke-miterlimit="10"/>
<path d="M40.4571 20.9998L24.4299 22.4178L34.7579 34.7565L22.4144 24.4268L21.0035 40.4566L19.5857 24.4268L7.24212 34.7565L17.5701 22.4178L1.54297 20.9998L17.5701 19.5817L7.24212 7.23612L19.5857 17.5728L21.0035 1.54297L22.4144 17.5728L34.7579 7.23612L24.4299 19.5817L40.4571 20.9998Z" fill="#025A8B" stroke="#130000" stroke-width="0.96" stroke-miterlimit="10"/>
<path d="M21.0035 0.347656C9.59824 0.347656 0.347534 9.59294 0.347534 21.0001C0.347534 32.4072 9.59824 41.6525 21.0035 41.6525C32.4088 41.6525 41.6525 32.4072 41.6525 21.0001C41.6525 9.59294 32.4018 0.347656 21.0035 0.347656ZM21.0035 37.3635C11.9683 37.3635 4.64275 30.0368 4.64275 21.0001C4.64275 11.9633 11.9683 4.63663 21.0035 4.63663C30.0387 4.63663 37.3573 11.9633 37.3573 21.0001C37.3573 30.0368 30.0318 37.3635 21.0035 37.3635Z" fill="#025A8B" stroke="#130000" stroke-miterlimit="10"/>
</g>
<defs>
<clipPath id="clip0_5_1758">
<rect width="42" height="42" fill="white"/>
</clipPath>
</defs>
</svg>
