<svg width="788" height="752" viewBox="0 0 788 752" fill="none" xmlns="http://www.w3.org/2000/svg">
<path d="M725.079 612.99C725.079 578.731 576.852 550.947 394.011 550.947C211.169 550.947 62.9424 578.721 62.9424 612.99C62.9424 613.641 62.9932 614.303 63.1049 614.954H62.9424V687.412C62.9424 689.581 63.5317 691.729 64.7001 693.836C81.8504 725.082 222.741 749.455 394.011 749.455C565.28 749.455 706.171 725.082 723.321 693.836C724.489 691.729 725.079 689.581 725.079 687.412V614.954H724.916C725.018 614.303 725.079 613.641 725.079 612.99Z" fill="#EE5229" stroke="#130000" stroke-miterlimit="10"/>
<path d="M725.079 612.99C725.079 613.641 725.028 614.303 724.916 614.954C722.711 628.159 698.51 640.325 658.936 650.201C598.544 665.279 502.348 675.032 394.011 675.032C285.673 675.032 189.477 665.279 129.085 650.201C89.5112 640.325 65.3097 628.159 63.1049 614.954C63.0033 614.303 62.9424 613.641 62.9424 612.99C62.9424 578.731 211.169 550.947 394.011 550.947C576.852 550.947 725.079 578.721 725.079 612.99Z" fill="url(#paint0_radial_427_17275)" stroke="#130000" stroke-miterlimit="10"/>
<path d="M315.523 606.321C306.867 602.788 303.453 600.742 299.338 596.364C293.719 587.466 295.498 580.441 304.682 575.29C313.003 571.055 318.48 564.518 321.101 555.671C327.878 541.326 333.202 526.299 337.286 510.977C345.536 480.007 348.716 447.662 347.335 415.653C344.744 355.463 325.531 286.09 275.919 247.586C287.166 247.586 298.403 247.586 309.651 247.586C347.121 293.635 354.873 363.445 355.229 420.631C355.432 453.363 352.374 486.227 345.536 518.246C342.214 533.823 337.987 549.227 332.592 564.213C326.293 581.694 312.871 586.723 315.513 606.311L315.523 606.321Z" fill="#025A8B" stroke="#130000" stroke-miterlimit="10"/>
<path d="M341.716 613.774C329.585 611.402 324.179 609.864 315.523 606.321C312.881 586.733 326.303 581.704 332.602 564.223C337.997 549.237 342.214 533.833 345.546 518.256C352.384 486.227 355.442 453.373 355.239 420.642C354.883 363.455 347.121 293.645 309.65 247.596C320.898 247.596 332.145 247.596 343.392 247.596C367.086 301.097 368.569 366.856 368.142 424.368C367.898 457.568 365.694 490.809 361.132 523.713C358.947 539.453 356.214 555.132 352.709 570.627C349.011 586.927 340.629 596.568 341.726 613.784L341.716 613.774Z" fill="#00A8D0" stroke="#130000" stroke-width="0.7" stroke-miterlimit="10"/>
<path d="M375.275 617.897C363.998 616.981 352.832 616.003 341.716 613.774C340.619 596.558 349.001 586.916 352.7 570.617C356.215 555.121 358.938 539.443 361.122 523.703C365.694 490.808 367.889 457.568 368.133 424.358C368.559 366.846 367.076 301.087 343.383 247.586C354.63 247.586 365.877 247.586 377.135 247.586C385.273 306.493 385.049 367.07 384.734 426.414C384.562 459.858 383.739 493.303 382.093 526.706C380.609 556.954 374.757 587.792 375.275 617.877V617.897Z" fill="#025A8B" stroke="#130000" stroke-miterlimit="10"/>
<path d="M412.725 617.897C400.259 618.64 387.752 618.64 375.285 617.897C374.767 587.802 380.619 556.974 382.103 526.727C383.739 493.323 384.562 459.879 384.744 426.434C385.059 367.09 385.283 306.513 377.145 247.606C388.392 247.606 399.649 247.606 410.897 247.606C402.748 306.513 402.982 367.09 403.287 426.434C403.459 459.879 404.282 493.323 405.918 526.727C407.401 556.974 413.254 587.812 412.736 617.907L412.725 617.897Z" fill="#00A8D0" stroke="#130000" stroke-width="0.7" stroke-miterlimit="10"/>
<path d="M446.284 613.784C435.169 616.014 424.003 616.981 412.725 617.897C413.243 587.802 407.391 556.974 405.908 526.717C404.272 493.313 403.449 459.869 403.276 426.424C402.971 367.08 402.738 306.503 410.886 247.596C422.133 247.596 433.381 247.596 444.638 247.596C420.935 301.097 419.451 366.856 419.878 424.368C420.122 457.568 422.316 490.809 426.888 523.713C429.073 539.453 431.796 555.132 435.311 570.627C439.009 586.927 447.392 596.568 446.294 613.784H446.284Z" fill="#025A8B" stroke="#130000" stroke-miterlimit="10"/>
<path d="M472.477 606.332C463.821 609.864 458.405 611.412 446.284 613.784C447.382 596.568 438.999 586.927 435.301 570.627C431.786 555.132 429.063 539.453 426.878 523.713C422.306 490.819 420.112 457.578 419.868 424.368C419.441 366.856 420.925 301.097 444.628 247.596C455.875 247.596 467.123 247.596 478.37 247.596C440.899 293.645 433.147 363.455 432.781 420.642C432.578 453.373 435.626 486.237 442.464 518.256C445.786 533.833 450.013 549.237 455.408 564.223C461.707 581.704 475.129 586.733 472.487 606.332H472.477Z" fill="#00A8D0" stroke="#130000" stroke-width="0.7" stroke-miterlimit="10"/>
<path d="M488.682 596.375C484.557 600.752 481.133 602.799 472.487 606.331C475.128 586.733 461.707 581.714 455.408 564.223C450.013 549.237 445.786 533.833 442.464 518.256C435.626 486.227 432.568 453.373 432.781 420.642C433.147 363.445 440.899 293.645 478.369 247.596C489.617 247.596 500.854 247.596 512.101 247.596C462.489 286.111 443.276 355.484 440.686 415.673C439.314 447.682 442.484 480.017 450.734 510.987C454.818 526.32 460.142 541.336 466.919 555.681C469.54 564.529 475.017 571.065 483.338 575.3C492.512 580.462 494.29 587.487 488.672 596.385L488.682 596.375Z" fill="#025A8B" stroke="#130000" stroke-miterlimit="10"/>
<path d="M751.607 305.342C765.994 327.384 659.82 315.727 664.494 323.017C682.762 351.533 528.927 300.303 535.633 311.675C542.338 323.057 543.456 328.117 535.633 328.117C527.809 328.117 444.019 276.276 444.019 300.303C444.019 324.33 442.901 328.117 428.382 325.582C415.113 323.281 411.161 315.696 396.957 316.328C396.002 316.358 391.613 316.307 391.054 316.328C376.85 315.696 372.898 323.281 359.629 325.582C345.11 328.117 343.992 324.32 343.992 300.303C343.992 276.286 260.202 328.117 252.378 328.117C244.555 328.117 245.673 323.057 252.378 311.675C259.084 300.303 105.249 351.533 123.517 323.017C128.181 315.727 22.0175 327.384 36.4042 305.342C42.9067 295.396 5.92383 269.17 5.92383 269.17C5.92383 269.17 133.83 235.756 213.048 206.384C262.203 188.16 351.236 129.192 382.692 107.853C389.327 103.353 393.391 100.523 394 100.105C395.718 101.327 423.526 120.62 458.588 142.824C496.902 167.096 543.883 194.869 574.963 206.384C654.181 235.756 782.077 269.17 782.077 269.17C782.077 269.17 745.104 295.396 751.607 305.342Z" fill="#EE5229" stroke="#130000" stroke-miterlimit="10"/>
<g style="mix-blend-mode:overlay">
<path d="M751.607 305.342C765.994 327.384 659.82 315.727 664.494 323.016C682.762 351.533 528.927 300.303 535.633 311.675C542.338 323.057 543.456 328.117 535.633 328.117C527.809 328.117 444.019 276.276 444.019 300.303C444.019 324.33 442.901 328.117 428.382 325.582C415.113 323.281 411.161 315.696 396.957 316.328C396.002 316.358 391.613 316.307 391.054 316.328C376.85 315.696 372.898 323.281 359.629 325.582C345.11 328.117 343.992 324.32 343.992 300.303C343.992 276.286 260.202 328.117 252.378 328.117C244.555 328.117 245.673 323.057 252.378 311.675C259.084 300.303 105.249 351.533 123.517 323.016C128.181 315.727 22.0175 327.384 36.4042 305.342C42.9067 295.396 5.92383 269.17 5.92383 269.17C5.92383 269.17 133.83 235.756 213.048 206.384C262.203 188.16 351.236 129.192 382.692 107.853C354.681 133.997 280.705 190.949 119.016 251.333C97.3549 259.426 35.5101 265.118 38.4667 274.962C41.4132 284.807 61.8249 294.428 59.5592 298.399C57.2935 302.37 43.7094 306.91 48.2306 308.61C52.7621 310.311 138.818 312.581 136.553 317.682C134.287 322.792 136.553 325.623 140.515 324.493C144.488 323.363 256.016 296.699 257.712 303.5C259.409 310.311 252.622 318.822 256.016 319.382C259.409 319.952 329.057 279.676 339.806 285.917C350.566 292.158 352.263 295.559 352.263 298.399C352.263 301.239 347.731 318.822 353.401 318.822C359.07 318.822 384.541 305.77 397.557 305.77C410.572 305.77 430.963 323.923 432.66 315.981C434.357 308.04 425.863 288.747 436.053 287.047C446.244 285.347 472.853 285.347 487.017 291.018C501.17 296.699 515.881 315.981 520.982 313.151C526.082 310.311 521.551 297.259 544.198 298.959C566.845 300.669 650.635 331.304 649.497 322.222C648.37 313.151 644.407 304.64 672.713 308.61C701.019 312.581 744.048 317.682 742.351 309.17C740.654 300.669 741.782 284.217 751.414 276.836C761.035 269.465 554.947 209.326 544.198 203.655C538.264 200.53 495.622 169.773 458.588 142.824C496.902 167.096 543.883 194.869 574.963 206.384C654.181 235.756 782.077 269.17 782.077 269.17C782.077 269.17 745.104 295.396 751.607 305.342Z" fill="#130000"/>
</g>
<path d="M47.8242 294.306C134.551 250.498 230.432 203.981 314.558 156.467C336.189 144.016 357.83 131.401 377.947 116.568C384.592 111.559 391.145 106.356 396.693 100.105C391.623 106.784 385.374 112.485 378.994 117.891C346.542 144.392 309.905 165.161 273.532 185.676C200.267 225.809 124.879 262.063 47.8344 294.296L47.8242 294.306Z" fill="#F8B733"/>
<path d="M740.187 290.315C664.636 258.133 590.66 222.266 518.462 183.12C489.668 167.238 461.088 150.888 433.899 132.328C423.77 125.272 413.711 117.993 404.729 109.472C401.763 106.611 398.938 103.556 396.683 100.115C401.773 106.57 408.489 111.457 415.062 116.272C441.438 134.863 471.217 150.837 499.513 166.424C578.427 209.021 660.44 249.266 740.177 290.325L740.187 290.315Z" fill="#F8B733"/>
<path d="M655.624 296.292C567.19 234.524 480.067 168.562 396.683 100.105C485.137 161.842 572.219 227.866 655.624 296.292Z" fill="#F8B733"/>
<path d="M529.659 298.287C481.997 234.748 437.384 168.328 396.683 100.105C444.374 163.614 488.927 230.085 529.659 298.287Z" fill="#F8B733"/>
<path d="M437.171 278.353C428.159 249.673 420.783 219.242 413.966 189.911C407.29 160.152 401.072 130.322 396.693 100.115C405.797 129.253 413.072 158.839 419.909 188.557C426.432 217.98 432.914 248.573 437.182 278.353H437.171Z" fill="#F8B733"/>
<path d="M349.967 286.325C361.417 223.529 377.105 160.855 396.693 100.105C385.273 162.911 369.515 225.565 349.967 286.325Z" fill="#F8B733"/>
<path d="M132.458 315.187C201.933 265.728 271.53 215.587 335.965 159.684C351.876 145.604 367.472 131.116 381.422 115.112C386.085 109.838 390.302 104.239 394.203 98.4966L399.192 101.653C372.847 144.077 345.303 187.213 317.555 228.782C303.585 249.52 289.249 270.727 274.09 290.59C271.448 294.164 267.415 298.898 264.509 302.268C269.081 296.516 273.663 289.949 277.788 283.942C317.159 224.73 356.59 159.165 394.163 98.5475L399.151 101.704C395.067 107.771 390.698 113.605 385.943 119.021C372.074 135.219 355.879 150.104 339.867 164.174C274.974 219.986 204.432 269.088 132.438 315.187H132.458Z" fill="#F8B733"/>
<path d="M394.01 752C311.439 752 232.383 746.309 171.412 735.975C92.5995 722.618 68.6724 706.359 62.4747 695.058C61.8651 693.948 61.3774 692.798 61.0319 691.627C60.4935 690.792 60.3004 689.866 60.4833 689.021C60.4833 689 60.4833 688.98 60.5036 688.96C60.4427 688.41 60.402 687.901 60.402 687.412V612.409H60.4122C61.3063 589.757 114.637 575.015 159.443 566.616C204.27 558.216 260.282 552.434 321.497 549.888C326.984 537.549 331.637 524.283 335.315 510.447C343.342 480.291 346.705 448.425 345.302 415.744C344.002 385.527 338.028 341.312 317.037 301.27C303.707 306.299 288.05 314.169 275.37 320.532C261.41 327.547 255.121 330.652 252.378 330.652C248.7 330.652 246.333 329.624 245.134 327.517C243.447 324.554 244.433 320.512 248.954 312.5C242.106 312.856 224.559 316.939 207.582 320.889C180.525 327.191 149.903 334.317 133.464 334.317C126.484 334.317 122.369 333.085 120.509 330.438C119.544 329.074 118.843 326.834 120.327 323.566C115.927 322.803 103.887 322.681 95.5459 322.589C63.1961 322.253 38.0802 321.286 33.3456 312.408C32.4007 310.647 31.8012 307.745 34.2803 303.948C37.8059 298.562 18.5727 281.244 4.4603 271.247L0 268.08L5.28327 266.706C6.56345 266.37 134.022 232.966 212.164 203.991C260.445 186.093 346.511 129.314 381.269 105.745C386.614 102.121 390.281 99.586 391.826 98.517L394.03 97L395.473 98.0283C398.511 100.187 426.37 119.408 459.949 140.666C495.307 163.064 544.116 192.232 575.846 203.991C654.13 233.017 781.447 266.37 782.717 266.706L788 268.08L783.54 271.247C769.427 281.244 750.204 298.552 753.73 303.948C756.209 307.745 755.609 310.647 754.665 312.408C749.93 321.286 724.804 322.253 692.464 322.589C684.123 322.67 672.083 322.803 667.684 323.566C669.157 326.845 668.456 329.074 667.501 330.438C665.641 333.085 661.516 334.317 654.547 334.317C638.118 334.317 607.515 327.191 580.499 320.909C563.471 316.949 545.904 312.866 539.046 312.51C543.567 320.522 544.563 324.564 542.866 327.527C541.667 329.634 539.3 330.662 535.622 330.662C532.889 330.662 526.6 327.567 512.65 320.553C499.94 314.159 484.283 306.289 470.973 301.27C449.982 341.312 444.008 385.527 442.708 415.744C441.306 448.435 444.658 480.302 452.695 510.447C456.383 524.283 461.026 537.549 466.523 549.888C527.738 552.434 583.751 558.216 628.577 566.616C673.759 575.086 727.618 590.001 727.618 612.979C727.618 613.265 727.618 613.55 727.598 613.835L727.618 614.435V687.402C727.618 687.891 727.588 688.4 727.527 688.95C727.547 689.031 727.557 689.112 727.578 689.194C727.7 689.998 727.496 690.864 726.998 691.627C726.653 692.808 726.165 693.959 725.556 695.068C719.582 705.952 696.772 721.722 622.044 734.978C564.172 745.25 488.55 751.267 409.118 751.939C408.478 751.98 407.818 752 407.168 752C406.649 752 406.131 751.99 405.613 751.959C401.783 751.99 397.912 752 394.01 752Z" fill="#130000"/>
<path d="M725.079 612.99C725.079 578.731 576.852 550.947 394.011 550.947C211.169 550.947 62.9424 578.721 62.9424 612.99C62.9424 613.641 62.9932 614.303 63.1049 614.954H62.9424V687.412C62.9424 689.581 63.5317 691.729 64.7001 693.836C81.8504 725.082 222.741 749.455 394.011 749.455C565.28 749.455 706.171 725.082 723.321 693.836C724.489 691.729 725.079 689.581 725.079 687.412V614.954H724.916C725.018 614.303 725.079 613.641 725.079 612.99Z" fill="#EE5229" stroke="#130000" stroke-miterlimit="10"/>
<path d="M725.079 612.99C725.079 613.641 725.028 614.303 724.916 614.954C722.711 628.159 698.51 640.325 658.936 650.201C598.544 665.279 502.348 675.032 394.011 675.032C285.673 675.032 189.477 665.279 129.085 650.201C89.5112 640.325 65.3097 628.159 63.1049 614.954C63.0033 614.303 62.9424 613.641 62.9424 612.99C62.9424 578.731 211.169 550.947 394.011 550.947C576.852 550.947 725.079 578.721 725.079 612.99Z" fill="url(#paint1_radial_427_17275)" stroke="#130000" stroke-miterlimit="10"/>
<path d="M315.523 606.321C306.867 602.788 303.453 600.742 299.338 596.364C293.719 587.466 295.498 580.441 304.682 575.29C313.003 571.055 318.48 564.518 321.101 555.671C327.878 541.326 333.202 526.299 337.286 510.977C345.536 480.007 348.716 447.662 347.335 415.653C344.744 355.463 325.531 286.09 275.919 247.586C287.166 247.586 298.403 247.586 309.651 247.586C347.121 293.635 354.873 363.445 355.229 420.631C355.432 453.363 352.374 486.227 345.536 518.246C342.214 533.823 337.987 549.227 332.592 564.213C326.293 581.694 312.871 586.723 315.513 606.311L315.523 606.321Z" fill="#025A8B" stroke="#130000" stroke-miterlimit="10"/>
<path d="M341.716 613.774C329.585 611.402 324.179 609.864 315.523 606.321C312.881 586.733 326.303 581.704 332.602 564.223C337.997 549.237 342.214 533.833 345.546 518.256C352.384 486.227 355.442 453.373 355.239 420.642C354.883 363.455 347.121 293.645 309.65 247.596C320.898 247.596 332.145 247.596 343.392 247.596C367.086 301.097 368.569 366.856 368.142 424.368C367.898 457.568 365.694 490.809 361.132 523.713C358.947 539.453 356.214 555.132 352.709 570.627C349.011 586.927 340.629 596.568 341.726 613.784L341.716 613.774Z" fill="#00A8D0" stroke="#130000" stroke-width="0.7" stroke-miterlimit="10"/>
<path d="M375.275 617.897C363.998 616.981 352.832 616.003 341.716 613.774C340.619 596.558 349.001 586.916 352.7 570.617C356.215 555.121 358.938 539.443 361.122 523.703C365.694 490.808 367.889 457.568 368.133 424.358C368.559 366.846 367.076 301.087 343.383 247.586C354.63 247.586 365.877 247.586 377.135 247.586C385.273 306.493 385.049 367.07 384.734 426.414C384.562 459.858 383.739 493.303 382.093 526.706C380.609 556.954 374.757 587.792 375.275 617.877V617.897Z" fill="#025A8B" stroke="#130000" stroke-miterlimit="10"/>
<path d="M412.725 617.897C400.259 618.64 387.752 618.64 375.285 617.897C374.767 587.802 380.619 556.974 382.103 526.727C383.739 493.323 384.562 459.879 384.744 426.434C385.059 367.09 385.283 306.513 377.145 247.606C388.392 247.606 399.649 247.606 410.897 247.606C402.748 306.513 402.982 367.09 403.287 426.434C403.459 459.879 404.282 493.323 405.918 526.727C407.401 556.974 413.254 587.812 412.736 617.907L412.725 617.897Z" fill="#00A8D0" stroke="#130000" stroke-width="0.7" stroke-miterlimit="10"/>
<path d="M446.284 613.784C435.169 616.014 424.003 616.981 412.725 617.897C413.243 587.802 407.391 556.974 405.908 526.717C404.272 493.313 403.449 459.869 403.276 426.424C402.971 367.08 402.738 306.503 410.886 247.596C422.133 247.596 433.381 247.596 444.638 247.596C420.935 301.097 419.451 366.856 419.878 424.368C420.122 457.568 422.316 490.809 426.888 523.713C429.073 539.453 431.796 555.132 435.311 570.627C439.009 586.927 447.392 596.568 446.294 613.784H446.284Z" fill="#025A8B" stroke="#130000" stroke-miterlimit="10"/>
<path d="M472.477 606.332C463.821 609.864 458.405 611.412 446.284 613.784C447.382 596.568 438.999 586.927 435.301 570.627C431.786 555.132 429.063 539.453 426.878 523.713C422.306 490.819 420.112 457.578 419.868 424.368C419.441 366.856 420.925 301.097 444.628 247.596C455.875 247.596 467.123 247.596 478.37 247.596C440.899 293.645 433.147 363.455 432.781 420.642C432.578 453.373 435.626 486.237 442.464 518.256C445.786 533.833 450.013 549.237 455.408 564.223C461.707 581.704 475.129 586.733 472.487 606.332H472.477Z" fill="#00A8D0" stroke="#130000" stroke-width="0.7" stroke-miterlimit="10"/>
<path d="M488.682 596.375C484.557 600.752 481.133 602.799 472.487 606.331C475.128 586.733 461.707 581.714 455.408 564.223C450.013 549.237 445.786 533.833 442.464 518.256C435.626 486.227 432.568 453.373 432.781 420.642C433.147 363.445 440.899 293.645 478.369 247.596C489.617 247.596 500.854 247.596 512.101 247.596C462.489 286.111 443.276 355.484 440.686 415.673C439.314 447.682 442.484 480.017 450.734 510.987C454.818 526.32 460.142 541.336 466.919 555.681C469.54 564.529 475.017 571.065 483.338 575.3C492.512 580.462 494.29 587.487 488.672 596.385L488.682 596.375Z" fill="#025A8B" stroke="#130000" stroke-miterlimit="10"/>
<path d="M269.711 670.023L262.396 669.351L261.837 307.206H270.087L269.711 670.023Z" fill="#130000"/>
<path d="M527.605 669.423L519.355 670.227V307.206H527.605V669.423Z" fill="#130000"/>
<path d="M200.196 561.739L191.936 563.225V230.217H200.196V561.739Z" fill="#130000"/>
<path d="M75.0127 629.462L66.9862 622.437L66.7627 283.046H75.0127V629.462Z" fill="#130000"/>
<path d="M720.476 623.354L712.226 630.267V282.232H720.476V623.354Z" fill="#130000"/>
<path d="M724.53 673.169C672.754 702.083 613.185 713.618 554.561 717.731C500.997 721.488 447.778 727.087 394.011 727.087C340.243 727.087 287.024 721.488 233.46 717.731C175.486 713.669 113.56 704.465 63.542 673.25C63.542 661.909 63.5522 656.238 63.5623 644.886C110.959 679.257 173.048 687.168 230.331 690.538C284.992 693.755 339.187 698.621 394.011 698.621C448.835 698.621 503.039 693.745 557.69 690.538C615.268 687.147 675.365 676.396 724.53 644.774C724.53 656.136 724.53 661.807 724.53 673.169Z" fill="#F8B733"/>
<path d="M121.028 676.977C121.354 676.946 121.526 677.506 121.222 677.587C104.295 681.925 78.5591 687.178 64.7515 673.627C63.3595 672.263 63.4306 664.607 63.7558 657.969C63.7558 654.691 63.7558 653.051 63.7558 649.773C63.7558 648.999 63.9387 648.419 64.2536 648.032C64.8023 647.36 65.7573 647.258 66.9054 647.747C66.946 647.768 66.9765 647.778 67.0172 647.808C67.5049 648.073 67.9925 648.389 68.4802 648.735C70.3599 650.079 72.0972 651.932 72.9507 653.438C74.4646 656.106 71.7416 669.789 72.7373 670.736C83.5172 680.855 106.052 678.392 121.008 676.977H121.028Z" fill="#F98D36"/>
<path d="M173.627 687.992C173.963 687.941 174.166 688.512 173.841 688.613C159.241 693.246 133.881 706.583 119.586 698.499C118.417 697.837 118.59 691.006 119.017 684.958C119.088 682.047 119.128 680.581 119.199 677.659C119.22 676.966 119.382 676.366 119.667 675.867C120.154 675.002 120.967 674.452 121.953 674.36C121.983 674.36 122.014 674.36 122.054 674.36C122.471 674.36 122.888 674.421 123.304 674.513C124.92 674.869 126.413 675.796 127.155 676.824C128.465 678.646 126.017 692.513 126.82 692.971C137.762 699.11 159.962 690.12 173.617 687.992H173.627Z" fill="#F98D36"/>
<path d="M228.503 694.386C228.838 694.284 229.041 694.834 228.716 694.987C214.39 701.635 188.045 718.067 172.662 710.574C171.464 709.993 171.443 702.785 171.738 696.443C171.738 693.388 171.738 691.861 171.738 688.807C171.738 688.084 171.9 687.443 172.175 686.903C172.662 685.966 173.506 685.345 174.532 685.182C174.562 685.182 174.593 685.182 174.634 685.182C175.07 685.162 175.517 685.193 175.954 685.264C177.661 685.529 179.256 686.404 180.059 687.432C181.481 689.245 179.267 703.854 180.059 704.231C191.662 709.698 214.624 698.52 228.503 694.386Z" fill="#F98D36"/>
<path d="M283.753 698.255C284.098 698.163 284.291 698.743 283.966 698.876C268.757 705.371 243.671 723.595 227.537 717.609C226.369 717.171 226.308 709.8 226.602 703.294V695.526C226.602 694.793 226.765 694.121 227.049 693.531C227.537 692.513 228.39 691.749 229.427 691.444C229.457 691.444 229.488 691.423 229.528 691.423C229.965 691.342 230.412 691.311 230.859 691.321C232.576 691.362 234.182 692.044 234.994 693.001C236.427 694.671 234.263 709.902 234.994 710.177C246.862 714.534 269.265 702.062 283.763 698.275L283.753 698.255Z" fill="#F98D36"/>
<path d="M339.248 702.062C339.593 701.95 339.786 702.52 339.461 702.683C324.83 710.075 298.881 728.859 282.768 721.915C281.589 721.406 281.528 713.903 281.823 707.265V699.334C281.823 698.58 281.985 697.898 282.27 697.308C282.757 696.29 283.621 695.547 284.657 695.282C284.688 695.282 284.718 695.261 284.759 695.261C285.206 695.2 285.653 695.19 286.09 695.221C287.817 695.333 289.433 696.096 290.245 697.084C291.688 698.835 289.534 714.279 290.245 714.565C301.97 719.35 325.217 706.746 339.227 702.073L339.248 702.062Z" fill="#F98D36"/>
<path d="M394.874 703.019C395.22 702.887 395.413 703.457 395.088 703.64C380.508 711.714 354.864 732.442 338.272 726.212C337.124 725.784 337.033 718.148 337.327 711.368C337.327 708.13 337.327 706.511 337.327 703.284C337.327 702.521 337.49 701.818 337.774 701.197C338.262 700.128 339.126 699.314 340.172 698.957C340.203 698.957 340.233 698.937 340.274 698.927C340.721 698.835 341.168 698.784 341.615 698.784C343.342 698.784 344.968 699.446 345.791 700.413C347.234 702.113 345.161 718.046 345.791 718.26C357.78 722.322 380.742 708.354 394.874 703.009V703.019Z" fill="#F98D36"/>
<path d="M450.491 702.001C450.836 701.859 451.029 702.419 450.704 702.602C436.145 711.103 410.754 733.165 393.889 727.586C392.771 727.219 392.649 719.472 392.944 712.569V704.343C392.944 703.559 393.106 702.836 393.391 702.195C393.889 701.085 394.742 700.22 395.789 699.823C395.819 699.823 395.85 699.802 395.89 699.792C396.337 699.68 396.784 699.619 397.231 699.599C398.969 699.527 400.584 700.148 401.407 701.095C402.85 702.765 400.818 719.003 401.407 719.176C413.427 722.811 436.368 707.774 450.481 702.001H450.491Z" fill="#F98D36"/>
<path d="M505.986 698.071C506.332 697.909 506.525 698.438 506.199 698.652C491.792 707.876 466.89 731.098 449.516 726.222C448.429 725.916 448.277 718.27 448.571 711.459V703.366C448.571 702.602 448.734 701.879 449.018 701.238C449.506 700.128 450.369 699.252 451.416 698.825C451.446 698.825 451.477 698.804 451.518 698.794C451.965 698.662 452.412 698.591 452.859 698.56C454.586 698.428 456.212 698.967 457.035 699.863C458.477 701.441 456.496 717.456 457.035 717.598C469.227 720.765 492.026 704.628 505.986 698.082V698.071Z" fill="#F98D36"/>
<path d="M561.227 694.284C561.572 694.142 561.765 694.671 561.44 694.854C546.464 703.732 522.527 725.814 505.011 721.936C503.954 721.701 503.771 714.188 504.066 707.479V699.537C504.066 698.784 504.229 698.071 504.513 697.42C505.001 696.3 505.864 695.373 506.901 694.895C506.931 694.885 506.962 694.864 507.002 694.854C507.449 694.701 507.896 694.6 508.333 694.539C510.06 694.315 511.676 694.773 512.489 695.608C513.931 697.094 511.991 712.936 512.489 713.048C524.64 715.817 546.871 700.332 561.217 694.264L561.227 694.284Z" fill="#F98D36"/>
<path d="M616.081 687.636C616.417 687.443 616.61 687.931 616.295 688.165C602.375 698.387 578.123 722.149 560.251 717.619C559.225 717.354 559.022 709.983 559.317 703.427V695.648C559.317 694.915 559.479 694.213 559.764 693.592C560.251 692.513 561.105 691.647 562.141 691.21C562.172 691.21 562.202 691.179 562.243 691.179C562.68 691.047 563.127 690.955 563.574 690.914C565.291 690.741 566.896 691.22 567.709 692.055C569.142 693.531 567.252 708.996 567.709 709.108C579.881 712.05 602.701 695.211 616.092 687.646L616.081 687.636Z" fill="#F98D36"/>
<path d="M670.012 674.238C670.347 674.014 670.54 674.472 670.225 674.747C655.787 686.974 633.78 712.467 615.126 710.625C614.161 710.533 613.907 703.335 614.192 696.88V689.255C614.192 688.532 614.354 687.83 614.639 687.168C615.126 686.038 615.97 685.06 616.996 684.47C617.026 684.46 617.057 684.439 617.098 684.419C617.534 684.225 617.971 684.073 618.408 683.971C620.105 683.554 621.69 683.798 622.493 684.511C623.905 685.763 622.086 701.248 622.493 701.299C635.335 703.07 656.692 683.218 670.012 674.238Z" fill="#F98D36"/>
<path d="M724.144 648.46C724.49 648.093 724.683 648.521 724.358 648.928C712.064 664.352 689.976 697.176 669.198 696.962C668.264 696.962 667.959 689.947 668.213 683.553C668.192 680.55 668.192 679.043 668.172 676.03C668.172 675.317 668.324 674.604 668.599 673.922C669.066 672.762 669.889 671.703 670.895 671.021C670.925 671 670.956 670.98 670.997 670.96C671.423 670.715 671.86 670.522 672.287 670.369C673.953 669.768 675.528 669.809 676.32 670.41C677.712 671.469 676.056 686.954 676.422 686.964C690.555 687.422 712.298 661.217 724.154 648.45L724.144 648.46Z" fill="#F98D36"/>
<path d="M64.0902 690.975C63.3079 690.843 62.5459 689.489 63.1656 689.347C76.008 686.425 90.6183 688.39 101.845 693.103C108.053 695.71 123.222 712.681 112.727 714.768C106.204 716.071 89.8563 707.713 91.8172 699.741C92.4472 697.176 101.988 701.747 101.124 706.033C100.687 708.202 106.031 709.545 107.423 708.344C108.429 707.479 108.642 706.389 108.002 705.239C100.992 692.615 76.6786 693.063 64.0902 690.965V690.975Z" fill="#F98D36"/>
<path d="M118.854 714.239C118.132 714.341 117.462 713.363 118.041 713.048C129.268 706.939 143.4 704.251 154.79 707.245C160.744 708.812 179.51 724.461 166.291 728.563C159.88 730.549 141.988 724.114 145.087 715.919C146.327 712.651 155.146 716.204 154.384 720.806C153.997 723.137 159.382 723.809 160.744 722.363C161.739 721.315 161.922 720.123 161.242 719.014C153.632 706.593 131.015 712.457 118.854 714.229V714.239Z" fill="#F98D36"/>
<path d="M172.54 727.352C171.798 727.535 171.087 726.548 171.676 726.171C182.609 719.105 197.503 714.076 209.533 716.428C215.507 717.599 234.984 731.312 221.329 736.881C214.796 739.549 196.447 735.375 199.606 726.466C200.876 722.883 209.939 725.58 209.187 730.427C208.812 732.87 214.308 732.89 215.69 731.241C216.696 730.04 216.889 728.767 216.198 727.739C208.141 715.807 184.326 724.461 172.55 727.362L172.54 727.352Z" fill="#F98D36"/>
<path d="M227.627 734.835C226.886 735.1 226.164 734.204 226.754 733.735C237.381 725.316 252.306 718.515 264.885 720.663C271.072 721.712 290.58 735.945 276.752 741.493C270.361 744.059 251.666 740.75 254.887 731.353C256.188 727.556 265.291 730.04 264.529 735.028C264.143 737.543 269.68 737.441 271.072 735.741C272.088 734.499 272.271 733.237 271.58 732.147C263.269 719.207 238.316 730.936 227.627 734.835Z" fill="#F98D36"/>
<path d="M283.102 739.488C282.36 739.742 281.629 738.805 282.218 738.347C292.937 730.019 307.862 723.666 320.542 725.58C327.034 726.558 346.45 740.282 332.45 746.299C326.201 748.986 307.202 745.993 310.493 736.433C311.835 732.554 320.938 735.059 320.176 740.098C319.79 742.644 325.348 742.44 326.75 740.689C327.766 739.416 327.959 738.113 327.258 737.054C318.926 724.399 293.902 735.741 283.092 739.488H283.102Z" fill="#F98D36"/>
<path d="M338.831 743.998C338.089 744.303 337.347 743.397 337.947 742.898C348.574 733.99 363.306 726.599 376.372 727.82C383.281 728.462 402.352 741.534 388.3 748.142C382.184 751.023 362.951 749.333 366.314 739.376C367.685 735.324 376.789 737.431 376.017 742.552C375.631 745.138 381.198 744.639 382.601 742.797C383.617 741.453 383.81 740.129 383.109 739.101C374.544 726.609 349.235 739.783 338.831 743.998Z" fill="#F98D36"/>
<path d="M723.991 690.853C724.723 690.802 725.444 689.53 724.855 689.316C712.703 684.938 698.438 686.251 687.435 691.037C681.573 693.592 665.266 711.409 676.025 713.547C682.822 714.89 698.997 706.573 697.229 698.051C696.67 695.374 687.09 699.996 687.862 704.435C688.248 706.674 682.873 708.069 681.501 706.848C680.506 705.952 680.303 704.781 680.993 703.641C688.563 690.986 710.316 691.77 723.991 690.853Z" fill="#F98D36"/>
<path d="M669.848 713.109C670.569 713.2 671.27 712.182 670.701 711.867C659.271 705.718 645.108 703.681 633.383 706.99C626.728 708.863 610.421 725.265 621.739 728.543C628.293 730.437 644.965 724.186 643.197 715.491C642.608 712.6 632.997 716 633.749 720.622C634.124 722.954 628.689 723.707 627.317 722.282C626.321 721.243 626.118 720.001 626.819 718.932C634.724 706.756 656.964 711.419 669.858 713.109H669.848Z" fill="#F98D36"/>
<path d="M615.471 727.342C616.202 727.525 616.924 726.537 616.334 726.161C605.209 718.922 590.69 713.994 578.478 716.417C572.057 717.69 553.199 731.139 566.682 736.871C573.438 739.742 591.34 735.14 588.404 726.456C587.205 722.913 578.071 725.57 578.823 730.416C579.199 732.86 573.702 732.88 572.321 731.231C571.315 730.029 571.112 728.706 571.813 727.729C580.083 716.194 603.269 724.348 615.461 727.352L615.471 727.342Z" fill="#F98D36"/>
<path d="M560.382 734.835C561.124 735.1 561.845 734.204 561.256 733.735C550.557 725.204 535.927 718.444 523.125 720.663C516.521 721.803 497.532 735.761 511.258 741.493C517.872 744.262 536.13 740.516 533.123 731.353C531.893 727.596 522.719 730.04 523.481 735.028C523.867 737.543 518.33 737.441 516.938 735.741C515.922 734.499 515.739 733.236 516.43 732.147C524.741 719.207 549.694 730.936 560.382 734.835Z" fill="#F98D36"/>
<path d="M504.908 739.488C505.65 739.742 506.382 738.806 505.792 738.347C494.962 729.867 480.423 723.626 467.468 725.58C460.488 726.639 441.753 740.088 455.561 746.299C462.012 749.2 480.585 745.759 477.517 736.433C476.247 732.595 467.072 735.059 467.834 740.098C468.22 742.644 462.663 742.44 461.26 740.689C460.244 739.416 460.051 738.113 460.752 737.054C469.084 724.399 494.108 735.741 504.919 739.488H504.908Z" fill="#F98D36"/>
<path d="M449.18 743.998C449.921 744.303 450.653 743.397 450.064 742.898C439.365 733.878 425.019 726.588 411.638 727.82C404.15 728.512 385.953 741.34 399.71 748.141C405.999 751.246 424.846 749.088 421.696 739.375C420.396 735.364 411.221 737.431 411.994 742.552C412.38 745.138 406.812 744.639 405.41 742.796C404.394 741.452 404.201 740.129 404.902 739.101C413.467 726.609 438.776 739.783 449.18 743.998Z" fill="#F98D36"/>
<path d="M394.924 695.313C394.183 695.659 393.441 694.793 394.04 694.254C404.546 684.847 419.095 676.895 432.476 677.639C439.517 678.036 458.476 690.426 444.394 697.267C438.481 700.138 418.994 699.548 422.418 689.438C423.81 685.315 432.883 687.127 432.121 692.228C431.735 694.804 437.302 694.091 438.694 692.228C439.71 690.874 439.903 689.54 439.202 688.573C430.353 676.366 405.044 690.64 394.914 695.313H394.924Z" fill="#F98D36"/>
<path d="M450.764 694.427C450.023 694.793 449.281 693.969 449.88 693.419C460.386 683.818 474.458 675.816 488.245 675.399C495.936 675.165 514.174 686.14 500.132 693.826C494.514 696.901 474.732 697.654 478.207 687.494C479.629 683.35 488.651 684.653 487.889 689.672C487.503 692.207 493.051 691.179 494.453 689.265C495.469 687.87 495.662 686.526 494.961 685.651C485.949 674.33 460.599 689.611 450.764 694.417V694.427Z" fill="#F98D36"/>
<path d="M506.493 690.609C505.752 691.016 505.02 690.253 505.609 689.682C515.891 679.726 529.892 671.428 543.812 671.296C551.269 671.224 569.618 682.78 555.638 689.866C550.365 692.543 530.299 693.185 533.824 683.075C535.267 678.962 544.218 680.448 543.456 685.386C543.07 687.87 548.597 687.015 549.979 685.182C550.995 683.849 551.178 682.525 550.487 681.64C541.241 669.881 516.257 685.264 506.483 690.609H506.493Z" fill="#F98D36"/>
<path d="M561.947 686.964C561.216 687.341 560.484 686.557 561.073 686.017C571.579 676.417 585.173 668.628 599.022 667.01C606.997 666.083 624.706 676.02 610.757 684.012C605.565 686.984 585.529 689.57 589.105 679.349C590.558 675.195 599.428 676.02 598.676 680.927C598.3 683.401 603.777 682.037 605.158 680.072C606.164 678.646 606.337 677.221 605.656 676.529C596.136 666.918 572.93 681.354 561.947 686.954V686.964Z" fill="#F98D36"/>
<path d="M617.035 680.265C616.313 680.744 615.582 680.082 616.171 679.461C626.321 668.659 639.184 659.109 653.449 655.587C662.054 653.459 677.874 662.662 665.011 671.163C660.246 674.309 640.23 679.715 643.787 668.995C645.229 664.637 653.876 664.485 653.164 669.433C652.799 671.927 658.163 669.962 659.504 667.865C660.48 666.348 660.642 664.882 659.982 664.301C650.126 655.699 627.236 673.546 617.055 680.265H617.035Z" fill="#F98D36"/>
<path d="M671.128 666.796C670.417 667.346 669.695 666.765 670.275 666.093C680.668 653.947 694.374 642.911 707.4 634.655C717.661 628.149 731.408 635.958 719.216 646.821C715.761 649.906 695.472 662.275 697.636 651.046C698.479 646.658 707.837 643.624 707.115 648.928C706.749 651.606 712.205 647.92 713.577 645.273C714.573 643.349 714.674 641.69 714.065 641.384C703.732 636.233 681.512 658.814 671.118 666.796H671.128Z" fill="#F98D36"/>
<path d="M393.095 695.313C393.837 695.659 394.568 694.793 393.979 694.254C383.443 684.735 369.28 676.916 355.543 677.638C347.862 678.046 329.848 690.202 343.626 697.267C349.722 700.393 368.813 699.314 365.602 689.438C364.271 685.356 355.137 687.127 355.899 692.228C356.285 694.804 350.717 694.091 349.325 692.228C348.309 690.874 348.116 689.54 348.817 688.573C357.667 676.366 382.976 690.639 393.105 695.313H393.095Z" fill="#F98D36"/>
<path d="M337.245 694.427C337.987 694.793 338.719 693.969 338.129 693.419C327.573 683.716 313.969 675.938 299.765 675.399C291.718 675.093 273.633 686.007 287.877 693.826C293.831 697.094 313.074 697.42 309.803 687.494C308.452 683.391 299.358 684.653 300.12 689.672C300.506 692.207 294.959 691.179 293.557 689.265C292.541 687.87 292.348 686.526 293.049 685.651C302.061 674.33 327.41 689.611 337.245 694.417V694.427Z" fill="#F98D36"/>
<path d="M281.527 690.609C282.269 691.016 283 690.252 282.411 689.682C272.119 679.644 258.565 671.55 244.209 671.296C236.386 671.163 218.179 682.637 232.382 689.866C237.991 692.716 257.519 692.95 254.196 683.075C252.814 678.992 243.802 680.448 244.564 685.386C244.951 687.87 239.423 687.015 238.042 685.182C237.026 683.849 236.843 682.525 237.534 681.639C246.779 669.88 271.763 685.264 281.537 690.609H281.527Z" fill="#F98D36"/>
<path d="M226.063 686.964C226.795 687.341 227.526 686.557 226.937 686.017C216.381 676.315 203.325 668.893 188.989 667.01C180.322 665.869 163.67 675.836 177.254 684.012C182.598 687.229 202.289 689.336 198.905 679.349C197.503 675.215 188.583 676.02 189.335 680.927C189.71 683.401 184.234 682.037 182.852 680.082C181.846 678.656 181.674 677.231 182.354 676.539C191.864 666.928 215.08 681.365 226.063 686.964Z" fill="#F98D36"/>
<path d="M170.985 680.275C171.707 680.744 172.418 680.092 171.849 679.461C162.217 668.944 149.934 660.076 135.699 657.409C127.033 655.78 112.077 665.106 124.35 673.311C129.105 676.488 148.034 680.153 144.864 669.992C143.553 665.798 135.191 666.154 135.821 670.97C136.146 673.403 130.995 671.774 129.725 669.809C128.8 668.384 128.668 666.979 129.319 666.358C138.93 657.195 161.11 673.79 170.975 680.265L170.985 680.275Z" fill="#F98D36"/>
<path d="M118.467 669.361C119.148 669.86 119.849 669.28 119.31 668.638C108.998 656.33 94.7026 646.424 82.3885 637.536C70.3183 628.811 57.1812 635.092 69.4344 647.859C73.3867 651.982 93.7882 664.78 92.3353 654.222C91.7663 650.119 81.7891 646.24 82.4698 651.484C82.8153 654.131 77.0545 649.946 75.6016 647.167C74.5348 645.141 74.4433 643.522 75.1139 643.278C86.29 639.114 107.576 661.359 118.467 669.351V669.361Z" fill="#F98D36"/>
<path d="M600.992 563.877L592.742 562.187V233.16H600.992V563.877Z" fill="#130000"/>
<path d="M751.607 305.342C765.994 327.384 659.82 315.727 664.494 323.017C682.762 351.533 528.927 300.303 535.633 311.675C542.338 323.057 543.456 328.117 535.633 328.117C527.809 328.117 444.019 276.276 444.019 300.303C444.019 324.33 442.901 328.117 428.382 325.582C415.113 323.281 411.161 315.696 396.957 316.328C396.002 316.358 391.613 316.307 391.054 316.328C376.85 315.696 372.898 323.281 359.629 325.582C345.11 328.117 343.992 324.32 343.992 300.303C343.992 276.286 260.202 328.117 252.378 328.117C244.555 328.117 245.673 323.057 252.378 311.675C259.084 300.303 105.249 351.533 123.517 323.017C128.181 315.727 22.0175 327.384 36.4042 305.342C42.9067 295.396 5.92383 269.17 5.92383 269.17C5.92383 269.17 133.83 235.756 213.048 206.384C262.203 188.16 351.236 129.192 382.692 107.853C389.327 103.353 393.391 100.523 394 100.105C395.718 101.327 423.526 120.62 458.588 142.824C496.902 167.096 543.883 194.869 574.963 206.384C654.181 235.756 782.077 269.17 782.077 269.17C782.077 269.17 745.104 295.396 751.607 305.342Z" fill="#EE5229" stroke="#130000" stroke-miterlimit="10"/>
<g style="mix-blend-mode:overlay">
<path d="M751.607 305.342C765.994 327.384 659.82 315.727 664.494 323.016C682.762 351.533 528.927 300.303 535.633 311.675C542.338 323.057 543.456 328.117 535.633 328.117C527.809 328.117 444.019 276.276 444.019 300.303C444.019 324.33 442.901 328.117 428.382 325.582C415.113 323.281 411.161 315.696 396.957 316.328C396.002 316.358 391.613 316.307 391.054 316.328C376.85 315.696 372.898 323.281 359.629 325.582C345.11 328.117 343.992 324.32 343.992 300.303C343.992 276.286 260.202 328.117 252.378 328.117C244.555 328.117 245.673 323.057 252.378 311.675C259.084 300.303 105.249 351.533 123.517 323.016C128.181 315.727 22.0175 327.384 36.4042 305.342C42.9067 295.396 5.92383 269.17 5.92383 269.17C5.92383 269.17 133.83 235.756 213.048 206.384C262.203 188.16 351.236 129.192 382.692 107.853C354.681 133.997 280.705 190.949 119.016 251.333C97.3549 259.426 35.5101 265.118 38.4667 274.962C41.4132 284.807 61.8249 294.428 59.5592 298.399C57.2935 302.37 43.7094 306.91 48.2306 308.61C52.7621 310.311 138.818 312.581 136.553 317.682C134.287 322.792 136.553 325.623 140.515 324.493C144.488 323.363 256.016 296.699 257.712 303.5C259.409 310.311 252.622 318.822 256.016 319.382C259.409 319.952 329.057 279.676 339.806 285.917C350.566 292.158 352.263 295.559 352.263 298.399C352.263 301.239 347.731 318.822 353.401 318.822C359.07 318.822 384.541 305.77 397.557 305.77C410.572 305.77 430.963 323.923 432.66 315.981C434.357 308.04 425.863 288.747 436.053 287.047C446.244 285.347 472.853 285.347 487.017 291.018C501.17 296.699 515.881 315.981 520.982 313.151C526.082 310.311 521.551 297.259 544.198 298.959C566.845 300.669 650.635 331.304 649.497 322.222C648.37 313.151 644.407 304.64 672.713 308.61C701.019 312.581 744.048 317.682 742.351 309.17C740.654 300.669 741.782 284.217 751.414 276.836C761.035 269.465 554.947 209.326 544.198 203.655C538.264 200.53 495.622 169.773 458.588 142.824C496.902 167.096 543.883 194.869 574.963 206.384C654.181 235.756 782.077 269.17 782.077 269.17C782.077 269.17 745.104 295.396 751.607 305.342Z" fill="#130000"/>
</g>
<path d="M64.2328 293.97C138.686 254.204 223.259 210.324 295.782 168.358C323.225 152.201 350.85 136.064 376.22 116.731C382.489 111.834 388.646 106.733 393.97 100.747C389.134 107.14 383.302 112.75 377.287 118.034C346.796 144.087 312.242 164.825 277.89 185.258C208.68 225.269 137.315 261.595 64.2227 293.96L64.2328 293.97Z" fill="#F8B733"/>
<path d="M726.308 295.406C651.682 270.422 581.445 233.343 514.957 191.459C505.559 185.157 488.886 174.375 479.763 167.829C472.681 162.759 462.206 155.265 455.145 150.206C442.068 140.096 424.847 127.176 412.421 116.405C407.839 112.556 398.522 104.656 393.98 100.747C398.898 104.32 408.601 111.457 413.468 115.071C426.452 124.987 444.202 137.184 457.603 146.764C468.729 154.156 481.51 163.003 492.696 170.242C566.794 218.224 644.916 261.167 726.319 295.396L726.308 295.406Z" fill="#F8B733"/>
<path d="M655.624 296.292C639.337 291.038 623.701 283.535 608.572 275.543C587.368 264.395 566.834 251.363 547.154 237.762C542.298 234.565 535.226 229.148 530.441 225.697C520.86 218.906 507.174 207.819 497.867 200.448C492.747 196.132 479.223 184.719 474.296 180.463C465.578 172.573 456.251 164.153 447.686 156.151C429.53 138.711 410.764 119.449 393.97 100.757C408.6 114.012 424.46 129.325 439.386 142.427C443.917 146.49 450.104 152.272 454.656 156.121C462.144 162.504 470.435 169.753 477.923 176.238C482.891 180.27 496.506 191.561 501.627 195.816C507.337 200.265 520.291 210.466 525.787 214.804C533.357 220.393 542.826 227.652 550.476 233.068C569.344 246.66 590.213 260.618 610.269 272.519C624.94 281.214 639.936 289.542 655.624 296.322V296.292Z" fill="#F8B733"/>
<path d="M529.659 298.287C481.124 235.002 435.596 168.796 393.98 100.747C442.546 164.001 488.002 230.258 529.659 298.287Z" fill="#F8B733"/>
<path d="M437.171 278.353C427.722 249.816 419.879 219.497 412.614 190.278C405.492 160.631 398.807 130.903 393.98 100.757C403.531 129.752 411.253 159.226 418.538 188.832C425.507 218.143 432.457 248.635 437.171 278.353Z" fill="#F8B733"/>
<path d="M349.967 286.324C354.813 255.334 361.905 223.437 369.007 192.833C376.434 161.893 384.288 131.086 393.98 100.747C389.012 132.206 382.195 163.268 374.94 194.238C367.534 224.791 359.568 256.433 349.967 286.324Z" fill="#F8B733"/>
<path d="M141.754 311.695C208.425 263.295 275.593 215.068 337.235 160.285C347.405 151.152 357.464 141.654 367.024 131.89C376.656 122.106 385.77 111.823 393.99 100.747C386.898 112.587 378.302 123.511 369.229 133.926C351.032 154.594 330.621 173.632 309.762 191.571C257.183 236.133 200.845 276.276 141.764 311.706L141.754 311.695Z" fill="#F8B733"/>
<path d="M269.233 299.845C309.793 241.62 349.529 182.56 383.555 120.233C387.05 113.748 390.383 107.201 393.969 100.747C391.287 107.609 388.615 114.511 385.679 121.271C370.723 155.011 352.354 187.234 331.871 217.888C312.81 246.527 292.236 274.25 269.233 299.845Z" fill="#F8B733"/>
<path d="M461.652 133.499C455.017 132.56 450.386 126.416 451.323 119.803L451.987 115.113L295.382 92.9415C288.754 92.0031 284.124 85.8593 285.06 79.246L292.219 28.6778C293.156 22.0645 299.31 17.4475 305.937 18.3858L462.542 40.5571L463.206 35.8668C464.142 29.2534 470.296 24.6364 476.931 25.5757C479.254 25.9046 481.416 26.8941 483.197 28.4381L542.024 79.5724C545.135 82.2751 546.65 86.3307 546.073 90.4045C545.496 94.4784 542.915 97.9541 539.176 99.6871L468.467 132.482C466.327 133.471 463.976 133.822 461.653 133.493L461.652 133.499Z" fill="#F72D37" stroke="#130000" stroke-width="2" stroke-miterlimit="10"/>
<path d="M535.291 86.6199L476.529 35.046C474.951 33.6623 472.47 34.5955 472.173 36.6877L470.534 48.2655C470.328 49.7212 468.985 50.7397 467.542 50.5353L304.16 27.4047C302.717 27.2003 301.374 28.2188 301.168 29.6745L293.934 80.7727C293.727 82.2284 294.735 83.5797 296.179 83.7841L459.56 106.915C461.003 107.119 462.011 108.47 461.805 109.926L460.166 121.504C459.869 123.596 461.994 125.181 463.895 124.29L534.664 91.0546C536.403 90.2373 536.734 87.8946 535.291 86.6266L535.291 86.6199Z" fill="#F8B733" stroke="#130000" stroke-miterlimit="10"/>
<path d="M337.082 68.5426C335.918 68.3777 335.157 68.1004 334.641 67.8091C334.233 67.606 333.642 67.3284 333.262 67.2746C332.811 67.2107 332.264 67.303 331.694 67.5617C331.287 67.1888 331.363 66.1332 332.062 65.6503C331.746 65.3147 331.582 64.5886 331.666 63.9945C331.787 63.139 332.614 62.2623 333.422 62.3767C333.897 62.444 334.305 62.6471 334.631 62.9114C333.87 64.6943 335.378 66.0229 337.351 66.3021C338.23 66.4266 338.942 66.1881 339.067 65.3089C339.205 64.3346 338.454 63.6466 337.533 63.1284C334.242 61.2081 332.688 59.1702 333.072 56.4612C333.402 54.1324 335.331 52.83 337.921 53.1967C338.183 53.2338 338.478 53.2028 338.641 53.0804C338.776 52.9784 338.976 52.7644 339.143 52.7879C339.285 52.8081 339.401 53.0184 339.568 53.2116C339.819 53.4896 340.24 53.5977 341.119 53.7222C341.904 53.8332 342.599 53.7136 343.251 53.5634C343.356 53.6753 343.397 53.8992 343.36 54.1606C343.316 54.4695 343.147 54.8092 342.947 55.0232C342.832 55.1524 342.744 55.2611 342.723 55.4037C342.707 55.5225 342.877 55.8617 342.901 56.0348C343.003 56.3401 343.021 56.9001 342.957 57.3516C342.893 57.8031 342.585 58.2685 342.378 58.5301C342.263 58.6592 342.137 58.8596 342.104 59.0972C342.06 59.4062 342.138 59.7081 342.302 60.0949C340.995 59.9098 339.927 58.377 339.586 57.3592C339.143 56.0361 338.528 55.4157 337.72 55.3013C337.008 55.2004 336.295 55.4389 336.16 56.3894C336.023 57.3637 336.893 58.408 338.516 59.4378C341.414 61.2296 342.712 62.5042 342.345 65.0943C341.975 67.7083 339.839 68.9328 337.082 68.5426ZM354.615 55.6328C355.256 55.7237 356.027 55.76 356.431 55.6475C356.658 55.5827 356.913 55.4976 357.055 55.5178C357.174 55.5346 357.164 55.7756 357.13 56.0132C357.087 56.3221 356.958 56.5463 356.839 56.6992C356.687 56.92 356.524 57.2121 356.504 57.3547C356.487 57.4735 356.549 57.7246 356.631 58.0028C356.76 58.2877 356.801 58.6814 356.724 59.2279C356.663 59.6557 356.389 60.0531 356.233 60.2977C356.077 60.5423 355.901 60.7597 355.867 60.9974C355.84 61.1875 355.885 61.5574 356.052 62.09C354.752 61.8575 353.602 60.0465 353.428 58.8825C353.274 57.9154 352.988 57.5356 352.513 57.4683C350.184 57.1386 349.831 59.6337 349.481 62.1051C348.99 65.5745 349.159 67.9739 350.775 68.2027C351.868 68.3574 353.085 67.2935 352.709 64.986C353.564 65.1071 354.128 65.4051 354.506 65.8221C354.984 65.5262 355.656 65.4032 356.44 65.5142C356.084 66.1426 355.885 66.6961 355.695 67.1783C354.44 70.5638 352.407 70.7123 350.15 70.3927C345.587 69.7467 344.981 65.2978 345.472 61.8284C346.182 56.8144 348.922 54.7541 351.512 55.1208C351.75 55.1545 352.069 55.1269 352.231 55.0045C352.367 54.9025 352.567 54.6884 352.733 54.712C352.9 54.7355 353.032 54.9967 353.111 55.129C353.274 55.346 353.759 55.5117 354.615 55.6328ZM363.483 65.6388L363.389 66.3041C363.258 67.2309 363.057 69.6749 364.524 70.1007C364.285 71.7879 362.996 71.9932 362.449 71.9158C361.879 71.8351 361.386 71.5472 361.002 71.1777C360.507 71.4227 360.002 71.5693 359.455 71.4919C358.909 71.4145 357.774 70.8661 358.013 69.1789C359.469 69.1669 359.931 66.7599 360.062 65.8332L360.567 62.2687C360.846 60.2964 360.667 58.3076 359.843 56.4215C360.149 56.3193 360.417 56.3088 360.702 56.3492C360.94 56.3828 361.171 56.464 361.354 56.5384C361.561 56.6162 361.704 56.6364 361.918 56.6667C362.155 56.7004 362.413 56.5914 362.647 56.4791C362.837 56.3363 362.983 56.163 363.149 56.1866C363.292 56.2068 363.407 56.4171 363.553 56.5832C363.696 56.7731 363.937 56.9527 364.175 56.9863C364.389 57.0166 364.677 57.0332 365.041 57.0361C365.523 57.0559 365.954 57.0927 366.595 57.1835C369.399 57.5805 371.326 59.3804 370.976 61.8517C370.694 63.8478 369.619 64.7622 368.105 65.0085C369.189 65.7436 369.71 67.199 369.715 68.5329C369.718 70.3997 370.496 71.0673 371.256 71.175C371.19 72.8382 370.362 73.0361 369.531 72.9183C369.103 72.8578 368.6 72.6412 368.274 72.2072C367.945 72.4757 367.487 72.629 366.917 72.5483C365.752 72.3834 365.615 71.1278 366.225 70.0748C366.218 67.553 365.978 65.992 363.483 65.6388ZM364.071 63.3708L364.736 63.465C366.4 63.7005 367.468 62.8336 367.67 61.4078C367.831 60.2672 367.087 59.5316 365.875 59.3601C364.402 59.1515 364.267 60.102 363.995 62.0268L363.843 63.0961C363.827 63.215 363.905 63.3472 364.071 63.3708ZM378.404 74.3927C373.58 73.7098 372.712 69.2239 373.224 65.6119C373.772 61.7385 376.382 58.7145 379.257 59.1215C379.637 59.1754 379.892 59.0902 380.105 58.9508C380.319 58.8113 380.488 58.6414 380.631 58.6616C380.797 58.6851 380.913 58.8954 381.035 59.0582C381.199 59.2752 381.467 59.4344 381.847 59.4882C384.722 59.8953 386.39 63.5249 385.842 67.3983C385.33 71.0103 383.228 75.0757 378.404 74.3927ZM378.72 72.159C381.073 72.4921 381.503 69.4504 381.887 66.7414C382.213 64.4364 382.597 61.7274 380.244 61.3943C377.915 61.0646 377.532 63.7736 377.205 66.0787C376.822 68.7876 376.391 71.8293 378.72 72.159ZM393.179 66.8857L392.674 70.4502C392.429 72.1849 392.186 73.8958 393.992 74.1515C395.299 74.3365 396.245 73.4766 396.423 72.2172C396.494 71.7181 396.408 71.1243 396.106 70.5239C397.887 70.2671 399.463 71.2902 399.198 73.1674C399.063 74.118 398.663 74.7158 398.185 75.1814C398.651 75.6594 398.801 76.4806 398.721 77.0509C398.147 76.8242 397.393 76.3296 396.656 76.2253C395.895 76.1177 395.261 76.3187 394.762 76.4178C394.314 76.4998 393.581 76.5415 392.868 76.4405C391.918 76.306 390.695 75.8663 390.311 75.3271C389.84 75.5754 389.287 75.7153 388.74 75.6379C388.194 75.5605 387.059 75.0121 387.298 73.3249C388.754 73.3129 389.216 70.9059 389.347 69.9792L389.852 66.4147C390.131 64.4424 389.952 62.4536 389.128 60.5676C389.434 60.4653 389.702 60.4548 389.987 60.4952C390.225 60.5288 390.456 60.61 390.639 60.6845C390.846 60.7623 390.989 60.7824 391.203 60.8127C391.44 60.8464 391.746 60.7442 391.932 60.6251C392.068 60.5231 392.268 60.3091 392.434 60.3326C392.577 60.3528 392.699 60.5156 392.845 60.6817C393.008 60.8987 393.222 61.0987 393.46 61.1323C393.674 61.1626 393.793 61.1794 394.013 61.1622C394.186 61.1382 394.383 61.1176 394.55 61.1411C394.763 61.1714 394.994 61.2526 395.236 61.4322C394.206 63.0558 393.458 64.9134 393.179 66.8857ZM406.917 68.8307L406.412 72.3951C406.167 74.1298 405.924 75.8408 407.73 76.0964C409.037 76.2815 409.983 75.4216 410.161 74.1621C410.232 73.6631 410.147 73.0692 409.844 72.4689C411.625 72.2121 413.201 73.2351 412.936 75.1124C412.801 76.0629 412.401 76.6608 411.923 77.1264C412.389 77.6044 412.539 78.4255 412.459 78.9959C411.885 78.7692 411.131 78.2746 410.394 78.1703C409.633 78.0626 408.999 78.2637 408.5 78.3627C408.052 78.4448 407.319 78.4864 406.606 78.3855C405.656 78.2509 404.433 77.8112 404.049 77.272C403.578 77.5204 403.025 77.6602 402.478 77.5829C401.932 77.5055 400.797 76.9571 401.036 75.2699C402.492 75.2579 402.954 72.8509 403.085 71.9241L403.59 68.3597C403.869 66.3873 403.69 64.3986 402.866 62.5125C403.172 62.4103 403.44 62.3998 403.725 62.4402C403.963 62.4738 404.194 62.555 404.377 62.6294C404.584 62.7072 404.727 62.7274 404.941 62.7577C405.178 62.7913 405.484 62.6891 405.67 62.5701C405.806 62.4681 406.006 62.254 406.172 62.2776C406.315 62.2977 406.437 62.4605 406.583 62.6266C406.746 62.8437 406.96 63.0436 407.198 63.0773C407.412 63.1076 407.531 63.1244 407.751 63.1071C407.924 63.0832 408.121 63.0625 408.288 63.0861C408.501 63.1164 408.732 63.1975 408.974 63.3771C407.944 65.0008 407.196 66.8583 406.917 68.8307ZM421.884 74.5855L422.389 71.0211C422.688 68.9062 422.567 67.0226 421.665 65.1739C421.875 65.0583 422.215 65.0578 422.476 65.0948C422.738 65.1318 422.992 65.2164 423.176 65.2908C423.383 65.3686 423.597 65.3989 423.81 65.4292C423.977 65.4527 424.224 65.4151 424.469 65.2315C424.604 65.1295 424.804 64.9154 424.971 64.939C425.113 64.9591 425.229 65.1694 425.375 65.3356C425.538 65.5526 425.759 65.705 425.997 65.7387C426.211 65.769 426.475 65.7822 426.767 65.7751C427.154 65.7814 427.561 65.8148 427.894 65.8619C432.029 66.4473 433.865 69.3978 433.256 73.6989C432.56 78.6179 430.466 81.7635 426.165 81.1545C424.645 80.9392 423.616 80.5027 422.878 79.8893C422.349 80.2022 421.823 80.3217 421.277 80.2443C420.73 80.1669 419.596 79.6185 419.835 77.9313C421.291 77.9193 421.753 75.5123 421.884 74.5855ZM425.715 71.4921L425.211 75.0565C424.888 77.3378 424.699 78.6685 426.196 78.8804C428.002 79.1361 428.798 77.2853 429.376 73.1981C429.807 70.1564 429.455 68.3614 427.72 68.1158C426.223 67.9038 426.015 69.3772 425.715 71.4921ZM440.944 83.2469C436.12 82.5639 435.253 78.078 435.764 74.466C436.312 70.5926 438.922 67.5686 441.797 67.9757C442.178 68.0295 442.432 67.9443 442.646 67.8049C442.859 67.6655 443.029 67.4956 443.171 67.5157C443.338 67.5393 443.453 67.7496 443.576 67.9123C443.739 68.1294 444.007 68.2885 444.388 68.3424C447.263 68.7494 448.931 72.3791 448.382 76.2524C447.871 79.8644 445.768 83.9298 440.944 83.2469ZM441.261 81.0131C443.613 81.3462 444.044 78.3045 444.427 75.5955C444.754 73.2905 445.137 70.5815 442.785 70.2485C440.456 69.9188 440.072 72.6278 439.746 74.9328C439.362 77.6418 438.932 80.6834 441.261 81.0131ZM455.899 79.9829C457.09 77.3883 458.962 73.2418 458.568 70.2045C458.758 70.2314 458.941 70.3059 459.125 70.3803C459.332 70.4581 459.593 70.4951 459.807 70.5254C460.045 70.559 460.255 70.4434 460.418 70.321C460.553 70.219 460.753 70.0049 460.92 70.0285C461.086 70.052 461.219 70.3132 461.321 70.4488C461.443 70.6116 461.613 70.7811 461.851 70.8147C462.065 70.845 462.326 70.882 462.547 70.8648C462.743 70.8441 462.94 70.8235 463.13 70.8505C463.368 70.8841 463.551 70.9585 463.721 71.128C462.848 73.186 463.173 77.9102 463.883 81.1133C465.197 78.3421 466.644 74.4506 466.386 71.3114C466.6 71.3416 466.783 71.4161 466.943 71.4871C467.15 71.565 467.411 71.602 467.649 71.6356C467.863 71.6659 468.073 71.5502 468.236 71.4278C468.372 71.3258 468.572 71.1117 468.738 71.1353C468.904 71.1588 469.061 71.4234 469.139 71.5557C469.285 71.7218 469.455 71.8913 469.669 71.9216C469.883 71.9518 470.168 71.9922 470.365 71.9716C470.562 71.951 470.758 71.9304 470.972 71.9607C471.186 71.9909 471.393 72.0687 471.539 72.2349C469.727 74.9355 465.848 83.3306 465.4 86.4911C464.664 86.3868 463.506 85.835 463.142 85.4927C462.555 85.7004 461.527 85.9427 460.672 85.8216C460.883 83.8154 460.691 79.8615 460.223 77.347C459.147 79.6428 457.926 83.4695 457.654 85.3943C456.798 85.2732 455.783 84.7416 455.372 84.3925C454.832 84.6071 453.852 84.8561 452.925 84.7248C453.262 79.9489 451.543 73.767 450.129 69.2037C450.339 69.088 450.512 69.064 450.726 69.0943C450.964 69.128 451.171 69.2058 451.354 69.2802C451.561 69.358 451.704 69.3782 451.918 69.4085C452.155 69.4421 452.485 69.3433 452.647 69.2209C452.783 69.1189 452.983 68.9048 453.149 68.9284C453.316 68.9519 453.448 69.2131 453.55 69.3487C453.673 69.5115 453.843 69.681 454.08 69.7146C454.294 69.7449 454.556 69.7819 454.776 69.7647C454.973 69.744 455.17 69.7234 455.36 69.7503C455.598 69.784 455.781 69.8584 455.951 70.0279C455.169 71.9534 455.281 76.817 455.899 79.9829ZM476.84 79.4572L476.436 82.3088C476.305 83.2355 476.105 85.6796 477.5 86.0953C477.261 87.7825 475.996 87.9911 475.52 87.9238C475.021 87.8531 474.671 87.5855 474.335 87.2227C473.911 87.4778 473.5 87.6378 473.001 87.5672C472.502 87.4965 471.368 86.9481 471.607 85.2609C473.063 85.2489 473.525 82.8419 473.656 81.9152L474.161 78.3507C474.44 76.3784 474.261 74.3896 473.437 72.5036C473.743 72.4013 474.011 72.3908 474.296 72.4312C474.534 72.4648 474.764 72.546 474.948 72.6205C475.155 72.6983 475.416 72.7353 475.63 72.7655C475.844 72.7958 476.054 72.6802 476.241 72.5611C476.383 72.4116 476.576 72.2451 476.743 72.2686C476.909 72.2922 477.042 72.5533 477.144 72.689C477.266 72.8517 477.555 73.038 477.745 73.065C477.911 73.0885 478.102 73.1154 478.275 73.0914C478.471 73.0708 478.668 73.0502 478.835 73.0738C478.977 73.094 479.161 73.1684 479.29 73.2836C479.407 74.8516 480.345 78.4991 481.732 80.3437C482.008 78.3951 482.117 75.9139 481.71 73.4808C481.897 73.5315 482.08 73.606 482.243 73.6533C482.43 73.704 482.593 73.7513 482.759 73.7748C483.116 73.8253 483.468 73.7298 483.631 73.6074C483.767 73.5054 483.967 73.2913 484.133 73.3149C484.299 73.3384 484.432 73.5996 484.534 73.7352C484.657 73.898 484.898 74.0776 485.183 74.118C485.397 74.1482 485.539 74.1684 485.76 74.1512C485.957 74.1306 486.249 74.1234 486.605 74.1739C485.121 76.2665 484.233 82.3703 483.917 84.604C483.752 85.7684 483.652 87.8389 483.742 89.0878C483.053 88.9903 482.32 88.6925 481.82 88.2824C481.322 88.5512 480.653 88.6505 480.011 88.5596C479.855 85.8955 479.009 81.9458 477.117 78.6966C476.965 78.9174 476.877 79.1958 476.84 79.4572Z" fill="black"/>
<defs>
<radialGradient id="paint0_radial_427_17275" cx="0" cy="0" r="1" gradientUnits="userSpaceOnUse" gradientTransform="translate(394.011 612.99) scale(238.164 238.651)">
<stop stop-color="#F9D17C"/>
<stop offset="0.14" stop-color="#F8CC70"/>
<stop offset="0.71" stop-color="#F8BD44"/>
<stop offset="1" stop-color="#F8B733"/>
</radialGradient>
<radialGradient id="paint1_radial_427_17275" cx="0" cy="0" r="1" gradientUnits="userSpaceOnUse" gradientTransform="translate(394.011 612.99) scale(238.164 238.651)">
<stop stop-color="#F9D17C"/>
<stop offset="0.14" stop-color="#F8CC70"/>
<stop offset="0.71" stop-color="#F8BD44"/>
<stop offset="1" stop-color="#F8B733"/>
</radialGradient>
</defs>
</svg>
