<svg width="262" height="173" viewBox="0 0 262 173" fill="none" xmlns="http://www.w3.org/2000/svg">
<path d="M260.52 1.16998H1.97021V171.45H260.52V1.16998Z" fill="url(#paint0_linear_442_17542)"/>
<path d="M259.52 2.16998V170.45H2.97021V2.16998H259.52ZM261.52 0.169983H0.970215V172.45H261.52V0.169983Z" fill="#231F20"/>
<mask id="mask0_442_17542" style="mask-type:luminance" maskUnits="userSpaceOnUse" x="2" y="2" width="258" height="169">
<path d="M259.52 2.16998H2.97021V170.45H259.52V2.16998Z" fill="white"/>
</mask>
<g mask="url(#mask0_442_17542)">
<path d="M285.37 90.56L196.63 319.83L253.98 329.94L285.37 90.56Z" fill="url(#paint1_linear_442_17542)"/>
<path d="M285.37 90.56L91.8501 270.08L139.28 298.66L285.37 90.56Z" fill="url(#paint2_linear_442_17542)"/>
<path d="M285.37 90.56L20.5298 189.29L49.8398 231.39L285.37 90.56Z" fill="url(#paint3_linear_442_17542)"/>
<path d="M285.37 90.56L-5 91.43L1.13 139.78L285.37 90.56Z" fill="url(#paint4_linear_442_17542)"/>
<path d="M285.37 90.56L19.6801 -6.59003L1.56006 39.65L285.37 90.56Z" fill="url(#paint5_linear_442_17542)"/>
<path d="M285.37 90.56L90.2998 -87.8L51.0698 -51.67L285.37 90.56Z" fill="url(#paint6_linear_442_17542)"/>
<path d="M285.37 90.56L194.65 -138.18L141.09 -118.4L285.37 90.56Z" fill="url(#paint7_linear_442_17542)"/>
<path d="M285.37 90.56L314.68 -149H256.05L285.37 90.56Z" fill="url(#paint8_linear_442_17542)"/>
<path d="M285.37 90.56L196.63 319.83L253.98 329.94L285.37 90.56Z" fill="url(#paint9_linear_442_17542)"/>
<path d="M285.37 90.56L91.8501 270.08L139.28 298.66L285.37 90.56Z" fill="url(#paint10_linear_442_17542)"/>
<path d="M285.37 90.56L20.5298 189.29L49.8398 231.39L285.37 90.56Z" fill="url(#paint11_linear_442_17542)"/>
<path d="M285.37 90.56L-5 91.43L1.13 139.78L285.37 90.56Z" fill="url(#paint12_linear_442_17542)"/>
<path d="M285.37 90.56L19.6801 -6.59003L1.56006 39.65L285.37 90.56Z" fill="url(#paint13_linear_442_17542)"/>
<path d="M285.37 90.56L90.2998 -87.8L51.0698 -51.67L285.37 90.56Z" fill="url(#paint14_linear_442_17542)"/>
<path d="M285.37 90.56L194.65 -138.18L141.09 -118.4L285.37 90.56Z" fill="url(#paint15_linear_442_17542)"/>
<path d="M285.37 90.56L314.68 -149H256.05L285.37 90.56Z" fill="url(#paint16_linear_442_17542)"/>
</g>
<g style="mix-blend-mode:multiply" opacity="0.75">
<path d="M22.0301 43.09C21.9101 34.73 20.9201 27.42 18.1401 20.27C18.5801 19.77 19.3601 19.7 19.9801 19.8C20.6001 19.9 21.2201 20.2 21.6701 20.44C22.1601 20.71 22.6801 20.79 23.1801 20.86C23.5701 20.92 24.1301 20.73 24.6201 19.97C24.8901 19.55 25.2701 18.68 25.6701 18.75C26.0101 18.8 26.3801 19.61 26.7501 20.22C27.2201 21 27.7701 21.58 28.3301 21.67C28.8301 21.75 29.4701 21.73 30.1201 21.67C30.9801 21.6 31.9901 21.67 32.7501 21.82C44.3401 24.06 47.9001 39.6 47.9901 49.73C48.0701 59.16 46.8801 79.49 34.5001 80.22C31.1501 80.42 28.4301 79.14 26.5101 77.19C25.4201 78.67 24.2601 79.42 22.9801 79.43C21.7001 79.43 18.9001 77.93 18.8001 71.19C22.1301 70.4 22.2701 60.84 22.2201 57.17C22.1401 51.54 22.1001 48.72 22.0201 43.08L22.0301 43.09ZM30.0301 57.64C30.1501 66.46 30.2101 71.61 33.7201 71.68C37.9501 71.77 39.0801 64.54 38.8901 49.12C38.7501 37.65 37.2701 31 33.1901 30.44C29.6701 29.96 29.7401 35.66 29.8501 43.84C29.9201 49.36 29.9601 52.11 30.0301 57.63V57.64Z" fill="black" stroke="black" stroke-width="0.77" stroke-miterlimit="10"/>
<path d="M57.03 46.56C56.95 39.51 55.71 32.58 53.23 25.84C53.9 25.43 54.51 25.36 55.18 25.47C55.74 25.56 56.3 25.84 56.75 26.07C57.24 26.33 57.59 26.38 58.09 26.46C58.65 26.55 59.26 26.31 59.7 25.71C59.98 25.33 60.36 24.56 60.75 24.63C61.09 24.69 61.43 25.17 61.88 25.83C62.33 26.49 63.52 27.35 64.75 27.55C65.81 27.72 66.71 27.49 67.31 26.99C67.88 26.51 68.36 25.94 68.75 26.01C69.09 26.07 69.42 26.55 69.99 27.28C70.65 28.13 72.35 28.81 74.2 29.12C75.71 29.37 76.94 29.25 77.66 28.9C78.15 28.66 78.72 28.37 79.05 28.42C79.22 28.45 79.39 29.43 79.4 30.38C79.4 31.41 79.14 32.55 78.76 33.29C78.54 33.73 78.38 34.1 78.38 34.5C78.38 34.9 78.58 35.73 78.84 36.39C79.13 37.13 79.47 38.54 79.48 39.49C79.49 41.15 79.19 42.72 78.85 43.69C78.56 44.5 78.25 45.52 78.26 46.32C78.26 47.12 78.5 48.02 79.07 49.74C74.83 48.9 72.71 42.86 72.01 40.18C71.2 37.08 69.73 34.74 68.11 34.51C64.7 34.02 64.75 39.24 64.81 44.89C64.84 47.63 65.59 50.44 66.82 50.55C67.77 50.64 68.37 49.88 68.36 48.73C68.36 47.74 68.23 46.58 67.94 45.65C71.34 45.7 72.26 48.72 72.28 50.67C72.3 52.54 71.81 53.79 71.26 54.8C71.82 55.58 72.34 56.84 72.35 58.78C72.37 61.05 71.51 64.33 68.11 63.57C68.38 62.68 68.48 61.54 68.47 60.55C68.46 59.4 67.84 58.62 66.89 58.55C65.78 58.47 64.95 59.16 64.97 61.23C65.01 64.8 65.08 71.85 70.19 72C72.86 72.08 75.5 68.79 75.47 65.01C75.46 63.8 75.11 62.42 74.6 61.26C77.55 61.45 81.02 63.02 81.06 68.46C81.07 70.2 80.53 72.07 79.88 73.32C80.67 74.37 81.57 76.04 81.6 79.59C79.98 78.08 78.58 77.66 77.64 77.65C76.64 77.64 75.47 78.2 74.04 78.97C72.57 79.77 71 80.25 68.66 80.24C65.77 80.24 62.59 78.81 61.24 77.62C60.31 78.7 59.09 79.46 57.81 79.45C56.53 79.44 53.74 78.06 53.67 71.96C57 71.27 57.19 62.62 57.15 59.31C57.1 54.21 57.07 51.66 57.01 46.56H57.03Z" fill="black" stroke="black" stroke-width="0.77" stroke-miterlimit="10"/>
<path d="M94.7903 79.18C93.8303 78.7 92.3403 78.09 91.4503 78.07C90.3903 78.05 89.1703 78.57 87.9603 79.64C86.9003 78.63 86.7003 75.2 88.1303 73.4C87.2903 72.45 86.6603 70.18 86.6403 68.25C86.6203 65.46 88.2103 62.39 90.1003 62.52C91.2103 62.59 92.2203 63.12 93.0603 63.86C91.9303 69.7 95.8503 73.34 100.47 73.5C102.53 73.57 104.08 72.6 104.06 69.9C104.04 66.91 102.08 65.04 99.7903 63.7C91.5703 58.71 87.2903 52.45 87.2203 43.65C87.1603 36.08 91.1503 31.74 97.2403 32.78C97.8503 32.88 98.5203 32.78 98.8603 32.39C99.1403 32.07 99.5203 31.4 99.9203 31.47C100.26 31.53 100.59 32.18 101.05 32.77C101.73 33.62 102.73 33.94 104.8 34.3C106.64 34.62 108.2 34.24 109.65 33.78C109.93 34.12 110.1 34.79 110.11 35.57C110.11 36.5 109.84 37.52 109.45 38.17C109.23 38.56 109.06 38.9 109.07 39.33C109.07 39.69 109.58 40.7 109.69 41.22C110.03 42.13 110.26 43.8 110.27 45.16C110.27 46.52 109.73 47.94 109.34 48.75C109.12 49.15 108.9 49.77 108.9 50.49C108.9 51.42 109.19 52.32 109.7 53.44C106.63 53.11 103.65 48.64 102.52 45.56C101.04 41.55 99.4103 39.67 97.5203 39.39C95.8403 39.14 94.2903 39.96 94.3103 42.98C94.3303 46.07 96.7003 49.24 100.78 52.12C108.06 57.11 111.47 60.53 111.51 68.27C111.55 76.09 107.08 80.51 100.63 80.45C97.9103 80.42 96.0503 79.83 94.7903 79.19V79.18Z" fill="black" stroke="black" stroke-width="0.77" stroke-miterlimit="10"/>
<path d="M128.47 64.36C128.47 66.96 128.84 73.79 132.18 74.51C132.2 79.18 129.37 80.18 128.09 80.16C126.81 80.14 125.64 79.51 124.69 78.61C123.69 79.47 122.47 80.06 121.19 80.05C119.91 80.03 117.13 78.87 117.1 73.93C120.43 73.43 120.68 66.44 120.67 63.76C120.65 59.64 120.64 57.57 120.62 53.45C120.59 47.75 119.51 42.06 116.97 36.54C117.64 36.24 118.25 36.21 118.92 36.33C119.48 36.43 120.04 36.68 120.49 36.88C120.98 37.11 121.5 37.19 122.05 37.29C122.61 37.39 123.09 37.06 123.44 36.72C123.83 36.35 124.11 35.82 124.5 35.89C124.84 35.95 125.23 36.7 125.51 37.09C125.85 37.55 126.57 38.09 127.13 38.18C127.63 38.27 127.98 38.33 128.47 38.28C128.91 38.23 129.42 38.18 130.03 38.29C130.7 38.41 131.31 38.65 131.99 39.17C129.49 43.53 128.4 48.81 128.42 54.35C128.44 58.35 128.44 60.36 128.46 64.36H128.47Z" fill="black" stroke="black" stroke-width="0.77" stroke-miterlimit="10"/>
<path d="M156.03 69.6C156.03 67.99 155.47 66.52 153.46 64.84C154.79 63.03 158.02 63.95 159.36 65.36C161.2 64.23 163.81 63.81 165.32 65.9C163.04 67.13 162.54 69.48 162.54 71.33C162.54 74.64 162.6 78.77 164.15 80.88C161.82 80.83 159.7 80.43 158.37 79.1C157.04 80.42 154.49 81.25 151.04 81.15C140.34 80.83 137.45 68.6 137.53 59.92C137.65 46.49 143.11 40.83 149.19 41.93C149.75 42.03 150.34 41.95 150.7 41.65C151.09 41.33 151.48 40.88 151.87 40.96C152.26 41.03 152.68 41.47 153.1 41.98C153.66 42.65 154.5 43.08 156.51 43.44C158.46 43.8 160.42 43.91 161.98 43.44C162.26 43.84 162.43 44.45 162.43 45.15C162.43 45.67 162.1 46.37 161.71 46.88C161.49 47.19 161.38 47.46 161.38 47.81C161.38 48.1 161.88 48.94 161.99 49.37C162.33 50.12 162.55 51.49 162.55 52.59C162.55 53.69 162.05 54.84 161.6 55.48C161.38 55.8 161.15 56.3 161.15 56.82C161.15 57.4 161.37 58.13 161.93 59.3C158.87 58.94 155.64 54.5 154.85 51.58C154.19 49.15 153.4 48.17 152.28 47.99C146.81 47.12 146.83 53.64 146.84 60.09C146.86 69.77 147.59 75.25 151.82 75.43C154.88 75.56 156.04 72.69 156.04 69.59L156.03 69.6Z" fill="black" stroke="black" stroke-width="0.77" stroke-miterlimit="10"/>
<path d="M179.79 68.57C179.79 70.66 180.11 76.15 183.45 76.79C183.45 80.53 180.61 81.29 179.5 81.26C178.33 81.23 177.44 80.72 176.56 79.99C175.67 80.67 174.78 81.14 173.61 81.11C172.44 81.08 169.66 80.11 169.67 76.13C173.01 75.78 173.29 70.17 173.29 68.01C173.29 64.69 173.29 63.04 173.29 59.72C173.29 55.13 172.24 50.53 169.73 45.97C170.4 45.76 171.01 45.76 171.68 45.88C172.24 45.98 172.8 46.21 173.24 46.39C173.73 46.6 174.36 46.71 174.86 46.8C175.36 46.89 175.9 46.66 176.2 46.39C176.48 46.15 176.87 45.7 177.26 45.78C177.65 45.85 178.04 46.47 178.32 46.79C178.65 47.18 179.38 47.63 179.83 47.72C180.22 47.79 180.67 47.87 181.06 47.84C181.5 47.81 181.95 47.79 182.34 47.87C182.67 47.93 183.12 48.12 183.45 48.4C184.22 51.92 187.55 60.03 191.33 63.91C191.34 59.76 190.8 54.49 189.09 49.14C189.54 49.28 189.98 49.47 190.37 49.59C190.81 49.73 191.21 49.85 191.6 49.92C192.44 50.08 193.22 49.92 193.55 49.69C193.83 49.49 194.22 49.07 194.61 49.15C195 49.23 195.39 49.8 195.67 50.1C196 50.46 196.62 50.87 197.28 51C197.78 51.1 198.12 51.16 198.62 51.16C199.06 51.16 199.74 51.18 200.57 51.34C197.82 55.41 197.72 68.06 197.7 72.66C197.7 75.06 198.12 79.3 198.72 81.8C197.11 81.75 195.33 81.31 194.06 80.57C193 81.23 191.5 81.59 190 81.55C188.79 75.96 185.59 67.69 180.2 60.43C179.92 60.93 179.81 61.56 179.81 62.15C179.81 64.72 179.81 66.01 179.8 68.58L179.79 68.57Z" fill="black" stroke="black" stroke-width="0.77" stroke-miterlimit="10"/>
<path d="M213.81 57.3C213.79 60.62 211.16 62.52 208.09 63.49C206.92 63.84 206.04 62.73 207.04 62.23C208.42 61.54 209.61 60.34 209.62 58.77C209.62 57.8 209.18 57.41 208.46 57.19C207.46 56.89 206.35 56.13 206.35 54.49C206.35 52.85 207.7 51.9 209.99 52.35C212.22 52.79 213.83 54.64 213.81 57.29V57.3Z" fill="black" stroke="black" stroke-width="0.77" stroke-miterlimit="10"/>
<path d="M226.83 82.41C225.86 82.11 224.39 81.73 223.5 81.7C222.44 81.66 221.22 81.91 219.99 82.47C218.94 81.87 218.78 79.94 220.24 78.98C219.41 78.42 218.81 77.12 218.81 76.03C218.81 74.46 220.44 72.82 222.34 72.99C223.45 73.09 224.45 73.44 225.28 73.89C224.09 77.06 227.97 79.24 232.58 79.51C234.64 79.63 236.2 79.17 236.21 77.73C236.22 76.13 234.29 75.03 232.01 74.18C223.86 71.02 219.65 67.2 219.68 62.26C219.71 58.01 223.74 55.97 229.81 57.16C230.42 57.28 231.09 57.29 231.43 57.11C231.71 56.96 232.1 56.64 232.49 56.72C232.82 56.79 233.16 57.18 233.6 57.54C234.27 58.07 235.27 58.35 237.33 58.75C239.17 59.11 240.73 59.07 242.18 58.99C242.46 59.2 242.62 59.57 242.62 59.98C242.62 60.47 242.33 60.98 241.94 61.28C241.72 61.47 241.55 61.62 241.54 61.85C241.54 62.04 242.03 62.62 242.14 62.9C242.47 63.41 242.68 64.31 242.68 65.02C242.68 65.73 242.11 66.43 241.71 66.83C241.49 67.02 241.26 67.33 241.26 67.71C241.26 68.2 241.53 68.7 242.02 69.33C238.96 68.93 236.03 66.32 234.93 64.56C233.5 62.28 231.89 61.1 230 60.77C228.33 60.48 226.77 60.79 226.75 62.45C226.74 64.15 229.06 66.09 233.11 67.95C240.32 71.18 243.7 73.16 243.66 77.21C243.62 81.3 239.1 83.48 232.65 83.26C229.93 83.17 228.08 82.79 226.82 82.4L226.83 82.41Z" fill="black" stroke="black" stroke-width="0.77" stroke-miterlimit="10"/>
<path d="M39.38 151.37C38.44 151.01 36.94 150.61 36.06 150.79C35.01 151 33.81 151.89 32.61 153.42C31.55 152.45 31.33 148.43 32.73 145.96C31.89 145.02 31.25 142.47 31.22 140.17C31.18 136.86 32.73 132.85 34.61 132.57C35.71 132.4 36.71 132.8 37.55 133.48C36.48 140.69 40.39 144.16 44.97 143.31C47.01 142.93 48.54 141.42 48.5 138.19C48.46 134.61 46.5 132.82 44.22 131.75C36.04 127.67 31.75 121.26 31.61 110.81C31.49 101.83 35.41 95.68 41.45 95.4C42.06 95.37 42.72 95.07 43.05 94.53C43.32 94.08 43.7 93.18 44.09 93.16C44.42 93.15 44.76 93.84 45.22 94.44C45.9 95.29 46.9 95.42 48.95 95.33C50.78 95.25 52.33 94.4 53.76 93.48C54.04 93.81 54.22 94.58 54.23 95.52C54.24 96.64 53.98 97.94 53.6 98.82C53.38 99.35 53.22 99.79 53.23 100.31C53.23 100.74 53.75 101.83 53.86 102.42C54.2 103.43 54.45 105.39 54.46 107.02C54.48 108.65 53.94 110.5 53.57 111.57C53.35 112.11 53.14 112.9 53.15 113.77C53.16 114.89 53.45 115.89 53.96 117.13C50.92 117.47 47.93 112.82 46.78 109.4C45.29 104.96 43.66 103.11 41.77 103.24C40.11 103.35 38.57 104.72 38.62 108.31C38.67 111.99 41.03 115.2 45.11 117.67C52.36 121.9 55.77 125.23 55.87 134.55C55.97 143.95 51.57 150.26 45.18 151.61C42.48 152.18 40.62 151.87 39.38 151.39V151.37Z" fill="black" stroke="black" stroke-width="0.77" stroke-miterlimit="10"/>
<path d="M61.2502 120.27C61.0902 112.01 63.3102 95.6 72.6902 94.31C73.4902 94.2 74.1302 93.85 74.5702 93.27C75.0102 92.69 75.3402 92.04 75.6702 92.02C76.0602 92.01 76.4002 92.64 76.7302 93.11C77.1802 93.73 77.8502 94.11 78.7402 94.07C85.4502 93.8 90.5902 104.39 90.6202 116.8C90.6502 127.49 87.3202 142.71 76.1402 145.17C64.2802 147.77 61.4202 129.24 61.2402 120.27H61.2502ZM81.3802 117.56C81.3202 109.91 81.2402 100.92 75.7502 101.26C70.3202 101.6 70.4102 110.91 70.4802 118.84C70.5702 128.15 70.6702 138.6 76.0802 137.63C81.5402 136.65 81.4602 126.56 81.3802 117.57V117.56Z" fill="black" stroke="black" stroke-width="0.77" stroke-miterlimit="10"/>
<path d="M111.19 109.91C111.16 104 110.07 98.34 107.54 93.16C108.2 92.7 108.81 92.54 109.48 92.52C110.03 92.5 110.6 92.64 111.04 92.76C111.53 92.89 111.87 92.87 112.37 92.86C112.93 92.84 113.53 92.54 113.97 91.96C114.25 91.6 114.63 90.89 115.02 90.88C115.35 90.88 115.69 91.21 116.13 91.69C116.58 92.17 117.74 92.69 118.97 92.65C120.02 92.62 120.91 92.28 121.52 91.75C122.09 91.25 122.57 90.7 122.96 90.69C123.29 90.69 123.63 91.03 124.19 91.54C124.84 92.13 126.52 92.42 128.36 92.36C129.86 92.32 131.08 92.01 131.8 91.6C132.29 91.32 132.85 90.98 133.19 90.97C133.36 90.97 133.53 91.75 133.53 92.53C133.53 93.38 133.26 94.37 132.87 95.04C132.65 95.44 132.48 95.78 132.49 96.11C132.49 96.44 132.68 97.09 132.94 97.6C133.23 98.16 133.56 99.27 133.56 100.06C133.56 101.43 133.26 102.78 132.91 103.64C132.62 104.35 132.31 105.26 132.31 105.92C132.31 106.58 132.54 107.28 133.1 108.61C128.89 108.68 126.82 104.03 126.15 101.92C125.37 99.48 123.91 97.79 122.31 97.87C118.93 98.04 118.95 102.41 118.97 107.11C118.98 109.39 119.71 111.6 120.93 111.48C121.87 111.38 122.48 110.64 122.47 109.68C122.47 108.86 122.35 107.91 122.07 107.19C125.45 106.63 126.34 108.98 126.35 110.59C126.35 112.14 125.86 113.27 125.31 114.21C125.87 114.75 126.37 115.71 126.37 117.32C126.37 119.2 125.5 122.09 122.13 122.1C122.4 121.31 122.51 120.34 122.51 119.52C122.51 118.56 121.89 118.03 120.95 118.15C119.84 118.29 119.02 119.02 119.02 120.75C119.04 124.14 119.95 129.8 123.71 129.16C123.45 134.03 121.31 135.54 119.7 135.85C118.15 136.15 116.99 135.75 115.22 135.17C114.29 136.26 113.07 137.13 111.81 137.38C110.54 137.63 107.77 137.01 107.74 131.89C111.05 130.67 111.29 123.37 111.27 120.59C111.25 116.32 111.23 114.18 111.21 109.91H111.19Z" fill="black" stroke="black" stroke-width="0.77" stroke-miterlimit="10"/>
<path d="M166.92 113.43C166.92 123.77 162.38 128.25 155.2 129.61C146.97 131.17 142.37 128.01 142.34 116.51C142.34 112.72 142.33 110.83 142.32 107.03C142.31 101.79 141.24 96.76 138.73 92.16C139.34 91.76 139.95 91.61 140.62 91.6C141.23 91.58 141.74 91.71 142.17 91.81C142.66 91.93 143 91.91 143.5 91.9C144.06 91.89 144.78 91.49 145.11 91.11C145.39 90.79 145.78 90.16 146.16 90.15C146.55 90.15 146.94 90.75 147.22 91.06C147.55 91.42 148.28 91.78 148.83 91.76C149.33 91.75 149.67 91.74 150.16 91.6C150.6 91.47 151.16 91.33 151.71 91.32C152.26 91.31 152.88 91.41 153.54 91.76C151.16 96.22 150.34 101.26 150.34 106.33C150.34 108.87 150.34 110.14 150.35 112.68C150.36 119.83 151.25 124.63 155.46 123.94C159.22 123.32 160.21 118.42 160.21 111.57C160.21 109.13 160.21 107.92 160.21 105.48C160.21 100.62 159.76 95.95 156.71 91.69C157.21 91.32 157.76 91.19 158.32 91.18C158.82 91.17 159.37 91.27 159.82 91.38C160.27 91.49 160.87 91.47 161.43 91.46C161.93 91.45 162.37 91.09 162.76 90.73C162.98 90.44 163.37 89.85 163.81 89.84C164.2 89.84 164.59 90.4 164.86 90.68C165.19 91.02 165.64 91.35 166.14 91.34C166.69 91.33 167.31 91.31 167.75 91.19C168.19 91.07 168.64 90.94 169.14 90.93C169.64 90.92 170.14 91.02 170.53 91.35C167.86 95.49 166.92 100.19 166.92 104.91C166.92 108.32 166.92 110.03 166.92 113.44V113.43Z" fill="black" stroke="black" stroke-width="0.77" stroke-miterlimit="10"/>
<path d="M184.87 111.25C184.87 113.29 185.19 118.57 188.5 118.5C188.5 122.14 185.67 123.47 184.56 123.67C183.4 123.88 182.51 123.57 181.63 123.03C180.74 123.88 179.86 124.52 178.7 124.73C177.54 124.94 174.77 124.57 174.78 120.68C178.1 119.65 178.39 114.12 178.39 112.02C178.39 108.79 178.39 107.17 178.4 103.94C178.4 99.47 177.36 95.19 174.87 91.24C175.54 90.9 176.15 90.78 176.81 90.76C177.36 90.75 177.92 90.85 178.36 90.95C178.85 91.05 179.47 91.03 179.97 91.02C180.47 91.01 181 90.68 181.3 90.35C181.58 90.05 181.97 89.54 182.36 89.54C182.75 89.54 183.14 90.06 183.41 90.32C183.74 90.63 184.46 90.93 184.91 90.92C185.3 90.92 185.75 90.9 186.13 90.79C186.57 90.67 187.02 90.57 187.41 90.56C187.74 90.56 188.19 90.65 188.52 90.85C189.29 94.12 192.6 101.34 196.35 104.35C196.36 100.31 195.83 95.3 194.12 90.44C194.56 90.48 195.01 90.58 195.4 90.62C195.84 90.66 196.23 90.7 196.62 90.7C197.45 90.69 198.23 90.38 198.57 90.08C198.85 89.83 199.24 89.34 199.63 89.34C200.02 89.34 200.41 89.81 200.68 90.05C201.01 90.34 201.62 90.61 202.29 90.6C202.79 90.6 203.13 90.6 203.62 90.48C204.06 90.38 204.73 90.27 205.56 90.26C202.82 94.76 202.71 107.07 202.69 111.54C202.68 113.87 203.11 117.9 203.7 120.21C202.09 120.5 200.33 120.43 199.06 119.97C198.01 120.83 196.51 121.49 195.02 121.76C193.82 116.58 190.64 109.18 185.27 103.2C184.99 103.74 184.88 104.38 184.88 104.95C184.88 107.46 184.88 108.71 184.87 111.22V111.25Z" fill="black" stroke="black" stroke-width="0.77" stroke-miterlimit="10"/>
</g>
<path d="M22.66 42.07C22.54 33.73 21.55 26.43 18.77 19.28C19.21 18.78 19.99 18.72 20.61 18.82C21.23 18.92 21.85 19.22 22.3 19.47C22.79 19.74 23.31 19.82 23.81 19.9C24.2 19.96 24.76 19.77 25.25 19.02C25.52 18.6 25.9 17.74 26.3 17.8C26.64 17.86 27.01 18.66 27.38 19.27C27.85 20.05 28.4 20.63 28.96 20.72C29.46 20.8 30.1 20.78 30.75 20.73C31.61 20.66 32.62 20.73 33.38 20.88C44.95 23.15 48.53 38.65 48.62 48.79C48.7 58.2 47.5 78.49 35.13 79.18C31.77 79.37 29.06 78.09 27.14 76.13C26.05 77.61 24.89 78.35 23.61 78.35C22.33 78.35 19.53 76.84 19.44 70.11C22.77 69.33 22.91 59.79 22.86 56.13C22.78 50.51 22.74 47.69 22.67 42.07H22.66ZM30.66 56.62C30.78 65.43 30.84 70.56 34.35 70.65C38.58 70.75 39.71 63.54 39.52 48.15C39.38 36.7 37.9 30.06 33.82 29.49C30.3 29 30.37 34.69 30.48 42.85C30.55 48.36 30.59 51.11 30.66 56.61V56.62Z" fill="#ED5C2D" stroke="#231F20" stroke-width="0.77" stroke-miterlimit="10"/>
<path d="M57.6701 45.65C57.6001 38.61 56.3501 31.7 53.8701 24.96C54.5401 24.56 55.1501 24.49 55.8201 24.6C56.3801 24.69 56.9401 24.97 57.3901 25.2C57.8801 25.46 58.2301 25.51 58.7301 25.59C59.2901 25.68 59.9001 25.45 60.3401 24.85C60.6201 24.48 61.0001 23.71 61.3901 23.77C61.7301 23.83 62.0701 24.31 62.5201 24.97C62.9701 25.63 64.1601 26.49 65.3901 26.7C66.4501 26.88 67.3501 26.65 67.9501 26.15C68.5201 25.68 69.0001 25.1 69.3901 25.17C69.7301 25.23 70.0601 25.71 70.6301 26.44C71.2901 27.29 72.9901 27.98 74.8401 28.29C76.3501 28.55 77.5801 28.43 78.3001 28.08C78.7901 27.85 79.3601 27.55 79.6901 27.61C79.8601 27.64 80.0301 28.62 80.0401 29.57C80.0401 30.6 79.7801 31.74 79.3901 32.47C79.1701 32.91 79.0101 33.28 79.0101 33.68C79.0101 34.08 79.2101 34.9 79.4701 35.57C79.7601 36.31 80.1001 37.72 80.1101 38.67C80.1201 40.33 79.8201 41.89 79.4801 42.86C79.1901 43.66 78.8801 44.69 78.8901 45.48C78.8901 46.27 79.1301 47.18 79.7001 48.9C75.4601 48.05 73.3401 42.01 72.6401 39.33C71.8301 36.23 70.3601 33.9 68.7401 33.66C65.3301 33.15 65.3801 38.37 65.4401 44C65.4701 46.73 66.2201 49.54 67.4501 49.66C68.4001 49.75 69.0001 48.99 68.9901 47.85C68.9901 46.87 68.8601 45.71 68.5701 44.77C71.9701 44.83 72.8901 47.85 72.9101 49.79C72.9301 51.65 72.4401 52.9 71.8901 53.91C72.4501 54.69 72.9701 55.94 72.9801 57.89C73.0001 60.16 72.1401 63.43 68.7401 62.66C69.0101 61.77 69.1101 60.63 69.1001 59.65C69.0901 58.5 68.4701 57.72 67.5201 57.65C66.4101 57.57 65.5801 58.25 65.6001 60.32C65.6401 63.88 65.7101 70.92 70.8201 71.08C73.4901 71.17 76.1301 67.89 76.1001 64.12C76.0901 62.92 75.7401 61.54 75.2301 60.38C78.1801 60.58 81.6501 62.16 81.6901 67.59C81.7001 69.32 81.1601 71.19 80.5101 72.43C81.3001 73.48 82.2001 75.15 82.2301 78.69C80.6101 77.18 79.2101 76.75 78.2701 76.74C77.2701 76.72 76.1001 77.28 74.6701 78.05C73.1901 78.84 71.6201 79.32 69.2901 79.3C66.4001 79.28 63.2201 77.85 61.8701 76.66C60.9401 77.74 59.7201 78.49 58.4401 78.48C57.1601 78.48 54.3701 77.08 54.3001 71C57.6301 70.32 57.8201 61.69 57.7801 58.38C57.7301 53.29 57.7001 50.75 57.6401 45.66L57.6701 45.65Z" fill="#ED5C2D" stroke="#231F20" stroke-width="0.77" stroke-miterlimit="10"/>
<path d="M95.4202 78.33C94.4602 77.85 92.9702 77.23 92.0802 77.21C91.0202 77.19 89.8002 77.7 88.5902 78.76C87.5302 77.75 87.3302 74.33 88.7602 72.53C87.9202 71.58 87.2902 69.31 87.2702 67.38C87.2502 64.6 88.8402 61.54 90.7302 61.67C91.8402 61.75 92.8502 62.28 93.6902 63.01C92.5602 68.83 96.4802 72.48 101.1 72.65C103.16 72.73 104.71 71.76 104.69 69.07C104.67 66.08 102.71 64.21 100.42 62.87C92.2002 57.86 87.9202 51.61 87.8502 42.82C87.7902 35.26 91.7802 30.94 97.8702 32.01C98.4802 32.12 99.1502 32.01 99.4902 31.62C99.7702 31.3 100.15 30.63 100.55 30.7C100.89 30.76 101.22 31.41 101.68 32.01C102.36 32.86 103.36 33.18 105.43 33.55C107.27 33.87 108.84 33.5 110.28 33.05C110.56 33.39 110.73 34.06 110.74 34.84C110.74 35.77 110.47 36.79 110.08 37.44C109.86 37.83 109.69 38.16 109.7 38.59C109.7 38.95 110.21 39.96 110.32 40.47C110.66 41.38 110.89 43.05 110.9 44.4C110.9 45.75 110.36 47.17 109.97 47.98C109.75 48.38 109.53 49 109.53 49.71C109.53 50.64 109.82 51.53 110.33 52.66C107.26 52.32 104.28 47.85 103.15 44.77C101.67 40.77 100.04 38.88 98.1402 38.59C96.4602 38.34 94.9102 39.15 94.9302 42.16C94.9502 45.25 97.3202 48.42 101.4 51.3C108.68 56.3 112.09 59.72 112.13 67.45C112.17 75.25 107.7 79.65 101.25 79.57C98.5302 79.54 96.6702 78.93 95.4102 78.3L95.4202 78.33Z" fill="#ED5C2D" stroke="#231F20" stroke-width="0.77" stroke-miterlimit="10"/>
<path d="M129.11 63.64C129.11 66.24 129.48 73.05 132.82 73.78C132.84 78.44 130.01 79.43 128.73 79.41C127.45 79.38 126.28 78.76 125.33 77.86C124.33 78.71 123.11 79.3 121.83 79.28C120.55 79.26 117.77 78.09 117.74 73.16C121.07 72.67 121.32 65.7 121.31 63.02C121.29 58.91 121.28 56.85 121.26 52.73C121.23 47.04 120.15 41.36 117.61 35.84C118.28 35.54 118.89 35.51 119.56 35.63C120.12 35.73 120.68 35.98 121.13 36.19C121.62 36.42 122.14 36.5 122.69 36.6C123.25 36.7 123.73 36.37 124.08 36.04C124.47 35.67 124.75 35.15 125.14 35.22C125.48 35.28 125.87 36.03 126.15 36.42C126.49 36.88 127.21 37.42 127.77 37.52C128.27 37.61 128.62 37.68 129.11 37.63C129.55 37.59 130.06 37.54 130.67 37.65C131.34 37.77 131.95 38.02 132.63 38.53C130.13 42.87 129.04 48.13 129.06 53.66C129.08 57.65 129.08 59.65 129.1 63.65L129.11 63.64Z" fill="#ED5C2D" stroke="#231F20" stroke-width="0.77" stroke-miterlimit="10"/>
<path d="M156.67 68.96C156.67 67.35 156.11 65.89 154.1 64.2C155.43 62.4 158.66 63.33 160 64.74C161.84 63.62 164.45 63.21 165.96 65.29C163.68 66.5 163.18 68.85 163.18 70.7C163.18 74 163.24 78.12 164.79 80.23C162.46 80.17 160.34 79.77 159.01 78.43C157.68 79.74 155.14 80.56 151.68 80.45C140.99 80.1 138.09 67.91 138.17 59.23C138.29 45.84 143.75 40.21 149.84 41.33C150.4 41.43 150.99 41.35 151.35 41.06C151.74 40.74 152.13 40.3 152.52 40.37C152.91 40.44 153.33 40.88 153.75 41.39C154.31 42.06 155.15 42.49 157.16 42.86C159.11 43.22 161.07 43.35 162.63 42.89C162.91 43.29 163.08 43.9 163.08 44.6C163.08 45.12 162.75 45.81 162.36 46.33C162.14 46.64 162.03 46.91 162.03 47.26C162.03 47.55 162.53 48.39 162.64 48.81C162.98 49.56 163.2 50.93 163.2 52.03C163.2 53.13 162.7 54.27 162.25 54.91C162.03 55.23 161.8 55.72 161.8 56.25C161.8 56.83 162.02 57.56 162.58 58.73C159.52 58.36 156.29 53.92 155.5 51C154.84 48.57 154.05 47.59 152.93 47.41C147.46 46.53 147.48 53.03 147.49 59.46C147.51 69.11 148.24 74.58 152.47 74.78C155.53 74.92 156.69 72.06 156.69 68.97L156.67 68.96Z" fill="#ED5C2D" stroke="#231F20" stroke-width="0.77" stroke-miterlimit="10"/>
<path d="M180.43 68.01C180.43 70.09 180.75 75.57 184.09 76.21C184.09 79.94 181.25 80.69 180.13 80.66C178.96 80.63 178.07 80.12 177.19 79.38C176.3 80.05 175.41 80.52 174.24 80.49C173.07 80.46 170.29 79.49 170.3 75.51C173.64 75.17 173.92 69.58 173.92 67.43C173.92 64.12 173.92 62.47 173.92 59.17C173.92 54.6 172.87 50 170.36 45.44C171.03 45.23 171.64 45.23 172.31 45.36C172.87 45.47 173.43 45.69 173.87 45.88C174.36 46.09 174.99 46.2 175.49 46.29C175.99 46.38 176.53 46.15 176.83 45.89C177.11 45.65 177.5 45.21 177.89 45.28C178.28 45.36 178.67 45.97 178.95 46.29C179.28 46.68 180.01 47.14 180.46 47.22C180.85 47.29 181.3 47.37 181.69 47.35C182.13 47.32 182.58 47.31 182.97 47.38C183.3 47.44 183.75 47.64 184.08 47.91C184.85 51.42 188.18 59.51 191.96 63.4C191.97 59.26 191.43 54.01 189.72 48.67C190.17 48.81 190.61 49 191 49.12C191.44 49.26 191.84 49.38 192.23 49.46C193.07 49.62 193.85 49.46 194.18 49.23C194.46 49.03 194.85 48.61 195.24 48.69C195.63 48.77 196.02 49.34 196.3 49.64C196.63 50 197.25 50.41 197.91 50.54C198.41 50.64 198.75 50.71 199.25 50.7C199.69 50.7 200.37 50.72 201.2 50.89C198.45 54.93 198.35 67.54 198.33 72.13C198.33 74.52 198.75 78.75 199.35 81.25C197.74 81.2 195.96 80.75 194.69 80C193.63 80.66 192.13 81.01 190.63 80.97C189.42 75.4 186.22 67.14 180.83 59.88C180.55 60.38 180.44 61.01 180.44 61.59C180.44 64.15 180.44 65.44 180.43 68V68.01Z" fill="#ED5C2D" stroke="#231F20" stroke-width="0.77" stroke-miterlimit="10"/>
<path d="M214.45 56.9C214.43 60.21 211.8 62.09 208.73 63.05C207.56 63.4 206.68 62.29 207.68 61.79C209.06 61.1 210.25 59.91 210.26 58.36C210.26 57.4 209.82 57 209.1 56.78C208.1 56.48 206.99 55.72 206.99 54.08C206.99 52.45 208.34 51.5 210.63 51.96C212.86 52.41 214.47 54.26 214.45 56.89V56.9Z" fill="#ED5C2D" stroke="#231F20" stroke-width="0.77" stroke-miterlimit="10"/>
<path d="M227.48 81.96C226.51 81.66 225.04 81.28 224.15 81.24C223.09 81.19 221.87 81.44 220.64 82C219.59 81.4 219.43 79.47 220.89 78.52C220.06 77.96 219.46 76.66 219.46 75.57C219.47 74.01 221.09 72.38 222.99 72.56C224.1 72.67 225.1 73.01 225.93 73.47C224.74 76.62 228.62 78.81 233.23 79.09C235.29 79.22 236.85 78.77 236.86 77.33C236.87 75.73 234.94 74.63 232.66 73.78C224.51 70.61 220.3 66.79 220.33 61.86C220.36 57.62 224.39 55.61 230.46 56.82C231.07 56.94 231.74 56.95 232.08 56.78C232.36 56.64 232.75 56.31 233.14 56.39C233.47 56.46 233.81 56.85 234.25 57.21C234.92 57.74 235.92 58.02 237.98 58.43C239.82 58.8 241.38 58.77 242.83 58.69C243.11 58.9 243.27 59.27 243.27 59.68C243.27 60.17 242.98 60.67 242.59 60.97C242.37 61.15 242.2 61.31 242.19 61.54C242.19 61.73 242.68 62.31 242.79 62.59C243.12 63.1 243.33 64 243.33 64.71C243.33 65.42 242.76 66.12 242.36 66.51C242.14 66.7 241.91 67.01 241.91 67.38C241.91 67.87 242.18 68.36 242.67 68.99C239.61 68.58 236.68 65.97 235.58 64.22C234.15 61.95 232.54 60.77 230.65 60.43C228.98 60.13 227.42 60.43 227.4 62.1C227.39 63.8 229.71 65.74 233.76 67.6C240.97 70.84 244.35 72.82 244.31 76.86C244.27 80.93 239.74 83.09 233.3 82.85C230.58 82.75 228.73 82.37 227.47 81.98L227.48 81.96Z" fill="#ED5C2D" stroke="#231F20" stroke-width="0.77" stroke-miterlimit="10"/>
<path d="M40.0001 150.21C39.0601 149.85 37.5601 149.44 36.6801 149.62C35.6301 149.83 34.4301 150.71 33.2301 152.24C32.1701 151.27 31.9501 147.26 33.3501 144.8C32.5101 143.86 31.8701 141.31 31.8401 139.02C31.8001 135.72 33.3501 131.72 35.2301 131.44C36.3301 131.28 37.3401 131.67 38.1701 132.36C37.1001 139.56 41.0101 143.02 45.5901 142.19C47.6301 141.82 49.1601 140.32 49.1201 137.09C49.0801 133.51 47.1201 131.72 44.8401 130.65C36.6601 126.56 32.3701 120.14 32.2301 109.71C32.1101 100.74 36.0301 94.62 42.0801 94.36C42.6901 94.33 43.3501 94.04 43.6801 93.49C43.9501 93.04 44.3301 92.14 44.7201 92.13C45.0501 92.12 45.3901 92.81 45.8501 93.41C46.5301 94.26 47.5301 94.39 49.5801 94.31C51.4101 94.23 52.9601 93.39 54.3901 92.48C54.6701 92.81 54.8501 93.58 54.8601 94.52C54.8701 95.63 54.6101 96.93 54.2301 97.81C54.0101 98.34 53.8501 98.78 53.8601 99.29C53.8601 99.72 54.3801 100.81 54.4901 101.4C54.8301 102.41 55.0801 104.36 55.0901 105.99C55.1101 107.62 54.5701 109.46 54.2001 110.53C53.9801 111.06 53.7701 111.86 53.7801 112.72C53.7901 113.84 54.0801 114.84 54.5901 116.07C51.5501 116.4 48.5601 111.75 47.4101 108.34C45.9201 103.9 44.2901 102.05 42.4001 102.18C40.7401 102.29 39.2001 103.65 39.2501 107.23C39.3001 110.91 41.6601 114.12 45.7401 116.59C52.9901 120.84 56.4001 124.17 56.5001 133.47C56.6001 142.85 52.2001 149.14 45.8101 150.47C43.1101 151.03 41.2501 150.71 40.0101 150.24L40.0001 150.21Z" fill="#ED5C2D" stroke="#231F20" stroke-width="0.77" stroke-miterlimit="10"/>
<path d="M61.88 119.22C61.72 110.98 63.94 94.6 73.33 93.35C74.13 93.24 74.77 92.89 75.21 92.32C75.65 91.74 75.98 91.09 76.31 91.08C76.7 91.07 77.04 91.7 77.37 92.17C77.82 92.79 78.49 93.17 79.38 93.14C86.09 92.9 91.23 103.47 91.26 115.86C91.29 126.53 87.95 141.71 76.78 144.13C64.93 146.69 62.06 128.22 61.88 119.24V119.22ZM82.02 116.58C81.96 108.95 81.88 99.97 76.39 100.3C70.96 100.62 71.04 109.92 71.12 117.83C71.21 127.12 71.31 137.55 76.71 136.59C82.17 135.62 82.09 125.55 82.01 116.58H82.02Z" fill="#ED5C2D" stroke="#231F20" stroke-width="0.77" stroke-miterlimit="10"/>
<path d="M111.82 109.03C111.79 103.14 110.7 97.48 108.18 92.31C108.84 91.86 109.45 91.7 110.12 91.68C110.67 91.66 111.24 91.8 111.68 91.92C112.17 92.05 112.51 92.04 113.01 92.02C113.57 92 114.17 91.7 114.62 91.13C114.9 90.77 115.28 90.06 115.67 90.05C116 90.05 116.34 90.39 116.78 90.86C117.23 91.34 118.39 91.86 119.62 91.82C120.67 91.79 121.56 91.45 122.17 90.93C122.74 90.43 123.22 89.88 123.61 89.87C123.94 89.87 124.28 90.21 124.84 90.72C125.49 91.31 127.17 91.6 129.01 91.55C130.51 91.51 131.73 91.2 132.45 90.8C132.94 90.52 133.5 90.19 133.84 90.18C134.01 90.18 134.18 90.96 134.18 91.74C134.18 92.59 133.91 93.58 133.52 94.25C133.3 94.65 133.13 94.99 133.14 95.31C133.14 95.64 133.33 96.29 133.59 96.8C133.88 97.35 134.21 98.47 134.21 99.25C134.21 100.62 133.91 101.96 133.56 102.82C133.27 103.53 132.96 104.44 132.96 105.09C132.96 105.75 133.19 106.45 133.75 107.77C129.54 107.83 127.47 103.18 126.8 101.08C126.02 98.65 124.56 96.95 122.96 97.03C119.58 97.19 119.6 101.54 119.62 106.24C119.63 108.52 120.36 110.72 121.58 110.6C122.52 110.51 123.13 109.76 123.12 108.81C123.12 107.99 123 107.05 122.72 106.32C126.1 105.77 126.99 108.11 127 109.73C127 111.27 126.51 112.4 125.96 113.34C126.52 113.88 127.02 114.83 127.02 116.45C127.02 118.33 126.15 121.21 122.78 121.2C123.05 120.41 123.16 119.44 123.16 118.62C123.16 117.67 122.54 117.13 121.6 117.25C120.49 117.39 119.67 118.11 119.67 119.84C119.69 123.22 120.6 128.87 124.36 128.24C124.1 133.1 121.96 134.6 120.35 134.9C118.8 135.2 117.64 134.8 115.87 134.21C114.94 135.29 113.72 136.16 112.45 136.41C111.18 136.65 108.41 136.03 108.38 130.93C111.69 129.72 111.93 122.44 111.91 119.67C111.89 115.41 111.87 113.28 111.85 109.02L111.82 109.03Z" fill="#ED5C2D" stroke="#231F20" stroke-width="0.77" stroke-miterlimit="10"/>
<path d="M167.56 112.7C167.56 123.01 163.02 127.47 155.84 128.81C147.6 130.34 143.01 127.18 142.98 115.72C142.98 111.94 142.97 110.05 142.96 106.27C142.95 101.04 141.88 96.03 139.37 91.43C139.98 91.03 140.59 90.89 141.26 90.87C141.87 90.86 142.38 90.98 142.82 91.09C143.31 91.21 143.65 91.2 144.15 91.18C144.71 91.17 145.43 90.77 145.76 90.39C146.04 90.07 146.42 89.44 146.81 89.44C147.2 89.44 147.59 90.05 147.87 90.35C148.2 90.71 148.93 91.07 149.48 91.05C149.98 91.04 150.32 91.04 150.81 90.9C151.25 90.78 151.81 90.63 152.36 90.62C152.92 90.61 153.53 90.72 154.19 91.06C151.81 95.5 150.99 100.52 150.99 105.58C150.99 108.12 150.99 109.38 150.99 111.92C151 119.05 151.89 123.84 156.1 123.16C159.86 122.55 160.86 117.66 160.85 110.83C160.85 108.4 160.85 107.19 160.85 104.76C160.85 99.91 160.4 95.26 157.35 91C157.85 90.63 158.4 90.5 158.96 90.49C159.46 90.48 160.01 90.59 160.46 90.69C160.91 90.79 161.51 90.78 162.07 90.77C162.57 90.76 163.01 90.4 163.4 90.05C163.62 89.76 164.01 89.18 164.45 89.17C164.84 89.17 165.23 89.73 165.5 90.01C165.83 90.35 166.28 90.68 166.78 90.67C167.33 90.66 167.95 90.65 168.39 90.53C168.83 90.41 169.28 90.29 169.78 90.28C170.28 90.28 170.78 90.37 171.17 90.7C168.5 94.82 167.56 99.5 167.56 104.21C167.56 107.61 167.56 109.31 167.56 112.71V112.7Z" fill="#ED5C2D" stroke="#231F20" stroke-width="0.77" stroke-miterlimit="10"/>
<path d="M185.51 110.57C185.51 112.6 185.83 117.86 189.14 117.81C189.13 121.44 186.31 122.76 185.2 122.95C184.04 123.16 183.15 122.84 182.27 122.31C181.38 123.15 180.5 123.79 179.34 124C178.18 124.21 175.41 123.83 175.42 119.95C178.74 118.94 179.03 113.42 179.03 111.33C179.03 108.11 179.03 106.5 179.04 103.27C179.04 98.81 178 94.54 175.51 90.6C176.18 90.26 176.79 90.14 177.45 90.13C178 90.13 178.56 90.23 179 90.32C179.49 90.42 180.11 90.41 180.61 90.4C181.11 90.4 181.64 90.06 181.94 89.74C182.22 89.44 182.61 88.94 183 88.93C183.39 88.93 183.78 89.45 184.05 89.71C184.38 90.02 185.1 90.32 185.55 90.31C185.94 90.31 186.39 90.29 186.77 90.19C187.21 90.07 187.66 89.97 188.05 89.96C188.38 89.96 188.83 90.05 189.16 90.25C189.93 93.51 193.24 100.72 196.99 103.73C197 99.7 196.47 94.71 194.77 89.86C195.21 89.9 195.66 90 196.05 90.04C196.49 90.09 196.88 90.13 197.27 90.12C198.1 90.11 198.88 89.81 199.22 89.51C199.5 89.26 199.89 88.78 200.28 88.77C200.67 88.77 201.06 89.25 201.33 89.48C201.66 89.77 202.27 90.04 202.94 90.03C203.44 90.03 203.78 90.03 204.27 89.92C204.71 89.83 205.38 89.72 206.21 89.71C203.47 94.18 203.36 106.45 203.34 110.91C203.33 113.23 203.75 117.25 204.35 119.55C202.74 119.83 200.98 119.76 199.71 119.3C198.66 120.16 197.16 120.81 195.67 121.07C194.47 115.9 191.29 108.52 185.92 102.55C185.64 103.09 185.53 103.72 185.53 104.3C185.53 106.8 185.53 108.05 185.52 110.55L185.51 110.57Z" fill="#ED5C2D" stroke="#231F20" stroke-width="0.77" stroke-miterlimit="10"/>
<defs>
<linearGradient id="paint0_linear_442_17542" x1="1.97021" y1="86.31" x2="260.52" y2="86.31" gradientUnits="userSpaceOnUse">
<stop stop-color="#F9D17C"/>
<stop offset="0.13" stop-color="#F9D791"/>
<stop offset="0.36" stop-color="#F9E1AE"/>
<stop offset="0.58" stop-color="#F9E8C3"/>
<stop offset="0.8" stop-color="#F9ECD0"/>
<stop offset="1" stop-color="#FAEED5"/>
</linearGradient>
<linearGradient id="paint1_linear_442_17542" x1="275.55" y1="88.4805" x2="225.088" y2="325.887" gradientUnits="userSpaceOnUse">
<stop stop-color="#F8B733"/>
<stop offset="1" stop-color="white" stop-opacity="0"/>
</linearGradient>
<linearGradient id="paint2_linear_442_17542" x1="266.387" y1="76.7751" x2="114.162" y2="286.294" gradientUnits="userSpaceOnUse">
<stop stop-color="#F8B733"/>
<stop offset="1" stop-color="white" stop-opacity="0"/>
</linearGradient>
<linearGradient id="paint3_linear_442_17542" x1="274.683" y1="72.06" x2="33.3046" y2="211.42" gradientUnits="userSpaceOnUse">
<stop stop-color="#F8B733"/>
<stop offset="1" stop-color="white" stop-opacity="0"/>
</linearGradient>
<linearGradient id="paint4_linear_442_17542" x1="284.826" y1="85.4557" x2="-2.45127" y2="115.65" gradientUnits="userSpaceOnUse">
<stop stop-color="#F8B733"/>
<stop offset="1" stop-color="white" stop-opacity="0"/>
</linearGradient>
<linearGradient id="paint5_linear_442_17542" x1="280.892" y1="104.348" x2="9.22281" y2="16.0772" gradientUnits="userSpaceOnUse">
<stop stop-color="#F8B733"/>
<stop offset="1" stop-color="white" stop-opacity="0"/>
</linearGradient>
<linearGradient id="paint6_linear_442_17542" x1="268.958" y1="108.792" x2="68.8361" y2="-71.3978" gradientUnits="userSpaceOnUse">
<stop stop-color="#F8B733"/>
<stop offset="1" stop-color="white" stop-opacity="0"/>
</linearGradient>
<linearGradient id="paint7_linear_442_17542" x1="268.625" y1="98.0077" x2="167.111" y2="-129.995" gradientUnits="userSpaceOnUse">
<stop stop-color="#F8B733"/>
<stop offset="1" stop-color="white" stop-opacity="0"/>
</linearGradient>
<linearGradient id="paint8_linear_442_17542" x1="285.37" y1="90.56" x2="285.37" y2="-149" gradientUnits="userSpaceOnUse">
<stop stop-color="#F8B733"/>
<stop offset="1" stop-color="white" stop-opacity="0"/>
</linearGradient>
<linearGradient id="paint9_linear_442_17542" x1="275.55" y1="88.4805" x2="225.088" y2="325.887" gradientUnits="userSpaceOnUse">
<stop stop-color="#F8B733"/>
<stop offset="1" stop-color="white" stop-opacity="0"/>
</linearGradient>
<linearGradient id="paint10_linear_442_17542" x1="266.387" y1="76.7751" x2="114.162" y2="286.294" gradientUnits="userSpaceOnUse">
<stop stop-color="#F8B733"/>
<stop offset="1" stop-color="white" stop-opacity="0"/>
</linearGradient>
<linearGradient id="paint11_linear_442_17542" x1="274.683" y1="72.06" x2="33.3046" y2="211.42" gradientUnits="userSpaceOnUse">
<stop stop-color="#F8B733"/>
<stop offset="1" stop-color="white" stop-opacity="0"/>
</linearGradient>
<linearGradient id="paint12_linear_442_17542" x1="284.826" y1="85.4557" x2="-2.45127" y2="115.65" gradientUnits="userSpaceOnUse">
<stop stop-color="#F8B733"/>
<stop offset="1" stop-color="white" stop-opacity="0"/>
</linearGradient>
<linearGradient id="paint13_linear_442_17542" x1="280.892" y1="104.348" x2="9.22281" y2="16.0772" gradientUnits="userSpaceOnUse">
<stop stop-color="#F8B733"/>
<stop offset="1" stop-color="white" stop-opacity="0"/>
</linearGradient>
<linearGradient id="paint14_linear_442_17542" x1="268.958" y1="108.792" x2="68.8361" y2="-71.3978" gradientUnits="userSpaceOnUse">
<stop stop-color="#F8B733"/>
<stop offset="1" stop-color="white" stop-opacity="0"/>
</linearGradient>
<linearGradient id="paint15_linear_442_17542" x1="268.625" y1="98.0077" x2="167.111" y2="-129.995" gradientUnits="userSpaceOnUse">
<stop stop-color="#F8B733"/>
<stop offset="1" stop-color="white" stop-opacity="0"/>
</linearGradient>
<linearGradient id="paint16_linear_442_17542" x1="285.37" y1="90.56" x2="285.37" y2="-149" gradientUnits="userSpaceOnUse">
<stop stop-color="#F8B733"/>
<stop offset="1" stop-color="white" stop-opacity="0"/>
</linearGradient>
</defs>
</svg>
