<svg width="89" height="42" viewBox="0 0 89 42" fill="none" xmlns="http://www.w3.org/2000/svg">
<path d="M87.5543 12.7383C87.7939 13.5657 87.9723 14.4053 88.1201 15.2509C83.0654 31.031 70.4027 41.1876 51.8711 41.3233C24.9026 41.5207 14.6558 18.8787 12.8497 17.8328C11.0436 16.7869 1.22547 12.902 1.22547 12.902C-1.29476 2.00217 6.11003 0.759089 6.11003 0.759089L15.8267 9.49293L22.5532 8.51246C29.2993 7.53458 42.9611 24.4895 58.3766 21.0142C68.1255 18.813 75.6544 11.0304 80.8107 8.69532C81.0013 8.59993 81.1786 8.53272 81.3668 8.45695C84.1744 7.36831 86.2424 8.13859 87.5347 12.7358L87.5543 12.7383Z" fill="#EE5229" stroke="#130000" stroke-miterlimit="10"/>
</svg>
