<svg width="54" height="54" viewBox="0 0 54 54" fill="none" xmlns="http://www.w3.org/2000/svg">
<path d="M41.65 39.0715C44.9944 35.0204 46.378 29.9946 45.9099 25.1471C45.6189 22.1275 44.6048 19.1723 42.8994 16.5682C42.3072 15.6633 41.63 14.8014 40.8712 13.9915C40.3717 13.4572 39.8342 12.9457 39.2591 12.4631C39.2089 12.4175 39.1556 12.369 39.0997 12.3296C38.3533 11.7141 37.5709 11.1633 36.7677 10.6795C34 9.01721 30.9332 8.13125 27.8454 7.99943C22.0967 7.75145 16.3038 10.104 12.361 14.8828C7.82802 20.3738 6.89672 27.6494 9.29577 33.851C9.69641 34.8911 10.1883 35.8938 10.7743 36.856C11.5784 38.1769 12.5555 39.4145 13.7012 40.5361C14.0853 40.9139 14.4864 41.2728 14.9081 41.6218C14.9863 41.687 15.0644 41.7523 15.1454 41.8145C17.0358 43.3266 19.1343 44.4207 21.3183 45.1057C22.7134 45.5433 24.1424 45.8112 25.5788 45.9198C31.5169 46.3628 37.5709 44.0128 41.65 39.0715Z" fill="#F8B733" stroke="#130000" stroke-miterlimit="10"/>
<path d="M15.1454 41.8146C15.3983 42.0215 15.964 42.4326 16.1687 42.5729C26.5215 42.4063 38.8094 33.3621 37.6984 15.7241C37.6944 15.6403 37.6807 15.3529 37.6807 15.3529C37.6807 15.3529 26.6479 34.17 15.1454 41.8146Z" fill="#EE5229" stroke="#130000" stroke-width="0.4" stroke-miterlimit="10"/>
<path d="M13.1641 39.9735C13.3161 40.1403 13.8456 40.6732 14.0381 40.871C15.4494 36.111 21.6113 17.2711 37.6833 15.3496C37.6833 15.3496 29.3508 9.49386 19.4909 18.4254C12.6052 24.6647 11.5052 37.1482 13.167 39.9704L13.1641 39.9735Z" fill="#EE5229" stroke="#130000" stroke-width="0.4" stroke-miterlimit="10"/>
<path d="M12.358 14.8799C7.43184 20.8097 6.18505 30.2157 11.2195 37.5699C10.1951 33.328 7.634 21.0851 19.6021 13.7663C31.4564 6.51603 37.6804 15.3468 37.6804 15.3468C37.6804 15.3468 36.2132 10.943 27.8424 7.99655C22.0936 7.74856 16.3193 10.1122 12.358 14.8799Z" fill="#EE5229" stroke="#130000" stroke-width="0.4" stroke-miterlimit="10"/>
<path d="M37.6836 15.3497C51.6643 30.7958 32.1955 48.6979 19.1764 44.2928C25.7085 47.5669 36.2879 46.3634 41.653 39.0684C44.7668 34.8363 46.3811 29.9915 45.9129 25.144C45.8681 24.9601 45.8174 24.7765 45.7606 24.5932C43.6076 17.4467 37.6836 15.3497 37.6836 15.3497Z" fill="#EE5229" stroke="#130000" stroke-width="0.4" stroke-miterlimit="10"/>
<path d="M37.6836 15.3498C37.6836 15.3498 38.5375 14.0009 39.2593 12.4632C39.2091 12.4176 39.1558 12.3691 39.0999 12.3298C38.3534 11.7143 37.5711 11.1635 36.7679 10.6797C37.4588 12.081 37.9769 13.7606 37.6836 15.3498Z" fill="#EE5229" stroke="#130000" stroke-width="0.4" stroke-miterlimit="10"/>
<path d="M42.8965 16.5654C42.3043 15.6605 41.6271 14.7986 40.8683 13.9886C39.9132 14.5983 38.756 15.1845 37.6806 15.3468C37.6806 15.3468 37.6806 15.3468 37.6837 15.3497C37.8174 15.3853 40.672 16.1644 42.8965 16.5654Z" fill="#EE5229" stroke="#130000" stroke-width="0.4" stroke-miterlimit="10"/>
</svg>
