<svg width="124" height="50" viewBox="0 0 124 50" fill="none" xmlns="http://www.w3.org/2000/svg">
<g filter="url(#filter0_d_449_17663)">
<path d="M5.26016 19.67L5.32016 19.18C5.70016 17.33 6.18016 15.23 6.75016 12.88C7.53016 9.57997 8.12016 6.93997 8.50016 4.96997L8.53016 4.65997C8.53016 3.96997 8.17016 3.65997 7.44016 3.70997C6.24016 3.76997 5.16016 3.91997 4.20016 4.14997C3.24016 4.38997 2.25016 4.77997 1.22016 5.33997C1.18016 5.35997 1.12016 5.36997 1.05016 5.36997C0.950156 5.36997 0.910156 5.32997 0.910156 5.25997C0.910156 5.15997 0.980156 5.07997 1.11016 4.99997C3.27016 3.48997 5.81016 2.63997 8.73016 2.44997C9.89016 2.36997 11.5802 2.33997 13.7702 2.33997L18.3002 2.36997C18.3602 2.36997 18.4002 2.38997 18.4402 2.42997C18.4802 2.46997 18.5002 2.50997 18.5002 2.53997C18.5002 2.64997 18.4302 2.74997 18.3002 2.82997C17.4802 3.35997 16.8002 3.68997 16.2702 3.79997C15.9302 3.85997 15.5102 3.88997 15.0102 3.88997C14.3802 3.88997 13.6602 3.85997 12.8602 3.79997L11.0302 3.70997C10.8402 4.85997 10.5602 6.25997 10.1802 7.91997C9.81016 9.57997 9.44016 11.2 9.08016 12.76C8.39016 15.83 7.97016 17.74 7.82016 18.46L7.79016 18.69C7.79016 18.9 7.85016 19.06 7.98016 19.16C8.11016 19.26 8.27016 19.32 8.48016 19.32C8.71016 19.32 9.01016 19.24 9.37016 19.09L9.46016 19.06C9.56016 19.06 9.60016 19.1 9.60016 19.17C9.60016 19.24 9.55016 19.31 9.46016 19.37C8.89016 19.71 8.29016 20.01 7.67016 20.26C7.05016 20.51 6.57016 20.63 6.22016 20.63C5.59016 20.63 5.27016 20.31 5.27016 19.66L5.26016 19.67Z" fill="#F43430" stroke="#130000" stroke-width="0.27" stroke-miterlimit="10"/>
<path d="M16.29 20.33C16.29 20.22 16.32 20.04 16.38 19.8C16.44 19.56 16.5 19.3 16.58 19.01C17.15 16.74 17.88 13.76 18.76 10.09C19.64 6.41001 20.19 3.94001 20.42 2.66001C20.44 2.56001 20.45 2.44001 20.45 2.29001C20.45 1.89001 20.27 1.69001 19.91 1.69001C19.76 1.69001 19.52 1.74001 19.19 1.83001L19.1 1.86001C19.04 1.86001 19.01 1.83001 19.01 1.76001C19.01 1.69001 19.05 1.64001 19.12 1.60001C19.65 1.29001 20.27 0.970015 20.95 0.640015C21.64 0.310015 22.14 0.140015 22.47 0.140015C22.72 0.140015 22.84 0.300015 22.84 0.630015C22.84 0.840015 22.82 1.02001 22.78 1.17001C22.45 2.62001 21.95 4.87001 21.26 7.90001C20.57 10.94 20.15 12.7 20 13.2C20.63 12.26 21.38 11.37 22.26 10.52C23.14 9.67001 24.03 8.99001 24.92 8.49001C25.82 7.98001 26.58 7.73001 27.21 7.73001C28.2 7.73001 28.7 8.37001 28.7 9.65001C28.7 10.26 28.59 10.95 28.38 11.71C28.28 12.07 28.18 12.43 28.08 12.78C27.97 13.13 27.87 13.49 27.78 13.85C27.23 15.68 26.85 17.2 26.66 18.4C26.62 18.67 26.66 18.89 26.79 19.06C26.91 19.23 27.12 19.32 27.41 19.32C27.58 19.32 27.81 19.27 28.1 19.18L28.21 19.15C28.29 19.15 28.32 19.18 28.31 19.25C28.31 19.32 28.26 19.37 28.18 19.41C26.71 20.21 25.7 20.61 25.14 20.61C24.85 20.61 24.63 20.52 24.48 20.35C24.33 20.18 24.25 19.92 24.25 19.58C24.27 19.39 24.29 19.2 24.31 19.01C24.5 17.98 24.7 17.06 24.91 16.25C25.12 15.44 25.41 14.47 25.77 13.34L26.09 12.28C26.3 11.59 26.41 11 26.41 10.5C26.41 9.68001 26.1 9.27001 25.49 9.27001C24.94 9.27001 24.25 9.58001 23.44 10.19C22.63 10.8 21.86 11.6 21.15 12.58C20.43 13.56 19.92 14.57 19.62 15.6L18.85 18.49C18.68 19.16 18.48 19.63 18.25 19.89C18.02 20.16 17.6 20.39 16.99 20.58C16.82 20.64 16.68 20.67 16.59 20.67C16.38 20.67 16.27 20.56 16.27 20.33H16.29Z" fill="#F43430" stroke="#130000" stroke-width="0.27" stroke-miterlimit="10"/>
<path d="M31.97 19.8C31.46 19.06 31.21 18.05 31.21 16.75C31.21 16.2 31.27 15.6 31.38 14.95C31.59 13.71 32.07 12.53 32.81 11.41C33.55 10.29 34.44 9.39004 35.47 8.70004C36.5 8.01004 37.5 7.67004 38.48 7.67004C39 7.67004 39.5 7.79004 40 8.03004C40.5 8.27004 40.87 8.60004 41.12 9.02004C41.22 8.87004 41.44 8.68004 41.81 8.45004C42.18 8.22004 42.47 8.11004 42.7 8.11004C42.91 8.11004 43.02 8.23004 43.02 8.48004L42.96 8.82004C42.64 9.87004 42.2 11.7 41.64 14.29C41.09 16.89 40.81 18.38 40.81 18.76C40.81 19.28 41.05 19.53 41.53 19.53C41.8 19.53 42.07 19.46 42.36 19.33L42.45 19.3C42.51 19.3 42.54 19.33 42.55 19.4C42.55 19.47 42.53 19.52 42.45 19.56C42.03 19.81 41.49 20.07 40.82 20.35C40.15 20.63 39.65 20.77 39.3 20.77C38.73 20.77 38.44 20.4 38.44 19.65C38.44 19.21 38.55 18.58 38.78 17.76C38 18.72 37.17 19.48 36.3 20.05C35.43 20.62 34.62 20.91 33.88 20.91C33.14 20.91 32.48 20.54 31.98 19.81L31.97 19.8ZM36.99 18.94C37.57 18.43 38.11 17.76 38.61 16.91C39.11 16.06 39.47 15.17 39.7 14.23C39.93 13.33 40.04 12.53 40.04 11.82C40.04 10.77 39.82 9.94004 39.38 9.34004C38.94 8.74004 38.36 8.44004 37.63 8.44004C37.21 8.44004 36.75 8.55004 36.26 8.78004C35.4 9.22004 34.73 10.1 34.24 11.42C33.75 12.74 33.51 14.14 33.51 15.63C33.51 17.02 33.68 18.05 34.01 18.71C34.34 19.37 34.79 19.7 35.34 19.7C35.86 19.7 36.4 19.45 36.99 18.94Z" fill="#F43430" stroke="#130000" stroke-width="0.27" stroke-miterlimit="10"/>
<path d="M44.99 20.27C44.99 20.14 45.08 19.71 45.25 18.98C45.44 18.18 45.74 17.14 46.14 15.86C46.87 13.43 47.35 11.52 47.6 10.1C47.62 10.04 47.63 9.95002 47.63 9.81002C47.63 9.60002 47.57 9.43002 47.44 9.31002C47.32 9.19002 47.15 9.12002 46.94 9.12002C46.67 9.12002 46.4 9.19002 46.11 9.32002C46.09 9.34002 46.06 9.35002 46.02 9.35002C45.96 9.35002 45.93 9.32002 45.93 9.25002C45.93 9.18002 45.97 9.13002 46.04 9.09002C47.55 8.31002 48.56 7.92002 49.08 7.92002C49.65 7.92002 49.94 8.26002 49.94 8.95002C49.94 9.05002 49.92 9.23002 49.88 9.49002C49.75 10.22 49.54 11.09 49.25 12.13C49.23 12.26 49.18 12.46 49.11 12.73C49.66 11.91 50.36 11.12 51.2 10.35C52.04 9.59002 52.89 8.97002 53.74 8.49002C54.59 8.01002 55.32 7.77002 55.93 7.77002C56.92 7.77002 57.42 8.41002 57.42 9.69002C57.42 10.28 57.32 10.96 57.13 11.72C57 12.24 56.78 12.99 56.47 13.98C56.16 14.97 55.93 15.78 55.75 16.39C55.58 17 55.44 17.67 55.35 18.4C55.31 18.65 55.37 18.86 55.52 19.04C55.67 19.22 55.88 19.31 56.15 19.31C56.36 19.31 56.59 19.25 56.84 19.14L56.93 19.11C57.01 19.11 57.04 19.15 57.04 19.22C57.04 19.29 57 19.35 56.93 19.39C56.3 19.71 55.72 19.99 55.2 20.22C54.67 20.45 54.23 20.56 53.87 20.56C53.3 20.56 53.01 20.23 53.01 19.56L53.07 18.99C53.24 17.98 53.43 17.07 53.64 16.27C53.85 15.47 54.14 14.49 54.5 13.35L54.82 12.29C55.03 11.54 55.14 10.96 55.14 10.54C55.14 9.72002 54.83 9.31002 54.22 9.31002C53.69 9.31002 53.01 9.62002 52.19 10.23C51.37 10.84 50.6 11.63 49.87 12.59C49.14 13.55 48.63 14.53 48.32 15.53C48.19 15.95 48.05 16.49 47.92 17.16L47.6 18.45C47.41 19.12 47.2 19.59 46.98 19.85C46.76 20.12 46.34 20.35 45.73 20.54C45.56 20.6 45.41 20.63 45.3 20.63C45.09 20.63 44.98 20.51 44.98 20.26L44.99 20.27Z" fill="#F43430" stroke="#130000" stroke-width="0.27" stroke-miterlimit="10"/>
<path d="M59.7803 20.39C59.7803 20.18 59.8803 19.72 60.0703 19.02C60.6203 16.9 61.3303 14.05 62.1803 10.47C63.0303 6.89003 63.6003 4.28002 63.8803 2.64002C63.9003 2.54002 63.9103 2.42002 63.9103 2.27002C63.9103 1.89002 63.7303 1.70002 63.3703 1.70002C63.2203 1.70002 62.9703 1.75002 62.6303 1.84002H62.5703C62.5103 1.84002 62.4803 1.81002 62.4703 1.75002C62.4703 1.69002 62.4903 1.65002 62.5703 1.61002C64.3703 0.640024 65.4903 0.150024 65.9503 0.150024C66.2003 0.150024 66.3203 0.290024 66.3203 0.580024C66.3203 0.730024 66.2903 0.920024 66.2303 1.15002C65.4903 4.70002 64.5303 8.94002 63.3703 13.87C63.9403 12.95 64.6903 12.03 65.6203 11.11C66.5503 10.18 67.3603 9.46002 68.0703 8.95002C68.9703 8.28002 69.8203 7.93002 70.6203 7.89002C71.0003 7.89002 71.3003 7.97002 71.5103 8.13002C71.7203 8.29002 71.8203 8.51003 71.8203 8.77003C71.8203 9.17003 71.6003 9.59002 71.1503 10.03C70.7003 10.47 70.2503 10.79 69.7903 11C69.7703 11.02 69.7303 11.03 69.6803 11.03C69.6303 11.03 69.5903 11 69.5903 10.94C69.5903 10.88 69.6203 10.82 69.6803 10.74C69.7903 10.57 69.8503 10.4 69.8503 10.22C69.8503 10.01 69.7703 9.83003 69.6203 9.68003C69.4703 9.53003 69.2703 9.45002 69.0203 9.45002C68.5403 9.45002 67.9903 9.73002 67.3603 10.28C66.7903 10.76 66.2503 11.24 65.7603 11.74C66.2403 13.08 66.7903 14.33 67.4203 15.51C68.0503 16.68 68.6903 17.69 69.3403 18.53C69.8203 19.16 70.3303 19.48 70.8903 19.48C71.1403 19.48 71.3903 19.42 71.6303 19.31C71.6503 19.29 71.6903 19.28 71.7403 19.28C71.7903 19.28 71.8303 19.31 71.8303 19.38C71.8303 19.45 71.7903 19.49 71.7203 19.51C71.3803 19.72 70.9103 19.95 70.3203 20.21C69.7303 20.47 69.3003 20.6 69.0303 20.6C68.5303 20.6 68.0403 20.28 67.5403 19.63C67.0103 18.9 66.4403 17.95 65.8403 16.78C65.2403 15.61 64.7503 14.49 64.3603 13.44C63.5403 14.55 63.0203 15.57 62.8103 16.51C62.6803 16.97 62.5103 17.64 62.3203 18.52C62.1903 19.17 62.0003 19.63 61.7803 19.91C61.5503 20.19 61.1203 20.42 60.4903 20.61C60.3203 20.67 60.1703 20.7 60.0603 20.7C59.8903 20.7 59.8003 20.6 59.8003 20.41L59.7803 20.39Z" fill="#F43430" stroke="#130000" stroke-width="0.27" stroke-miterlimit="10"/>
<path d="M73.14 20.39C72.52 19.99 72.21 19.49 72.21 18.9C72.21 18.44 72.4 17.98 72.78 17.52C73.16 17.06 73.72 16.65 74.44 16.29C74.5 16.25 74.56 16.23 74.64 16.23C74.75 16.23 74.76 16.32 74.67 16.49C74.5 16.78 74.41 17.13 74.41 17.55C74.41 18.22 74.66 18.8 75.17 19.3C75.68 19.8 76.44 20.05 77.45 20.05C78.46 20.05 79.18 19.84 79.73 19.41C80.27 18.98 80.55 18.45 80.55 17.82C80.55 17.19 80.35 16.66 79.95 16.16C79.55 15.66 78.84 15.18 77.83 14.7C76.61 14.13 75.78 13.61 75.34 13.14C74.9 12.67 74.68 12.14 74.68 11.55C74.68 10.82 74.95 10.18 75.5 9.60005C76.05 9.02005 76.75 8.58005 77.61 8.27005C78.47 7.95005 79.36 7.80005 80.27 7.80005C81.18 7.80005 81.91 7.91005 82.56 8.14005C83.21 8.37005 83.53 8.76005 83.53 9.31005C83.53 9.67005 83.35 10.03 82.99 10.38C82.63 10.73 82.25 10.99 81.84 11.14C81.63 11.22 81.53 11.17 81.55 11C81.61 10.16 81.36 9.53005 80.82 9.11005C80.28 8.69005 79.64 8.48005 78.91 8.48005C78.28 8.48005 77.77 8.65005 77.39 8.98005C77.01 9.31005 76.82 9.73005 76.82 10.23C76.82 10.76 76.99 11.25 77.32 11.68C77.65 12.11 78.3 12.53 79.25 12.95C80.47 13.48 81.31 14.03 81.77 14.58C82.23 15.13 82.46 15.75 82.46 16.44C82.46 17.2 82.15 17.94 81.53 18.65C80.91 19.36 80.08 19.92 79.04 20.35C78 20.78 76.9 20.99 75.73 20.99C74.56 20.99 73.76 20.79 73.14 20.39Z" fill="#F43430" stroke="#130000" stroke-width="0.27" stroke-miterlimit="10"/>
<path d="M84.59 28.04C84.19 27.83 83.98 27.52 83.96 27.12C83.96 26.34 84.71 25.54 86.22 24.74C86.24 24.72 86.27 24.71 86.31 24.71C86.39 24.71 86.43 24.74 86.45 24.81C86.47 24.88 86.45 24.95 86.36 25.02C86.11 25.27 85.99 25.57 85.99 25.94C85.99 26.32 86.13 26.65 86.42 26.93C86.71 27.21 87.1 27.35 87.59 27.35C88.41 27.35 89.07 27.07 89.57 26.52C90.07 25.97 90.47 25.11 90.77 23.94C91.38 21.74 92.1 18.64 92.92 14.63L94.07 9.38998C92.9 9.42998 91.99 9.58998 91.32 9.87998L91.21 9.90998C91.13 9.90998 91.1 9.87998 91.1 9.81998C91.1 9.73998 91.16 9.67998 91.27 9.61998C91.75 9.29998 92.29 8.96998 92.9 8.64998C93.51 8.32998 94.02 8.11998 94.42 8.01998L94.76 6.38998C95.26 4.53998 96.15 3.04998 97.44 1.91998C98.73 0.78998 100.25 0.22998 102.01 0.22998C102.58 0.22998 103.05 0.33998 103.41 0.55998C103.77 0.77998 103.95 1.06998 103.95 1.42998C103.95 1.86998 103.69 2.32998 103.18 2.79998C102.66 3.27998 102.12 3.66998 101.55 3.96998C101.53 3.98998 101.49 3.99998 101.44 3.99998C101.39 3.99998 101.34 3.96998 101.33 3.90998C101.31 3.84998 101.33 3.78998 101.42 3.70998C101.67 3.39998 101.79 3.03998 101.79 2.61998C101.79 2.19998 101.66 1.83998 101.4 1.54998C101.14 1.24998 100.76 1.10998 100.27 1.10998C99.51 1.10998 98.9 1.35998 98.45 1.86998C98 2.37998 97.65 3.10998 97.4 4.05998L96.91 6.23998C96.83 6.63998 96.7 7.23998 96.51 8.04998L100.15 8.07998C100.25 8.07998 100.29 8.11998 100.29 8.18998C100.29 8.24998 100.24 8.31998 100.15 8.41998C99.19 9.00998 98.54 9.32998 98.17 9.36998C97.88 9.42998 97.21 9.45998 96.16 9.45998C95.99 10.19 95.83 10.91 95.67 11.62C95.52 12.34 95.36 13.06 95.21 13.78C94.83 15.61 94.5 17.14 94.22 18.36C93.94 19.58 93.62 20.81 93.26 22.06C92.92 23.21 92.38 24.26 91.66 25.21C90.93 26.16 90.08 26.93 89.1 27.5C88.12 28.07 87.09 28.36 86.02 28.36C85.47 28.36 84.99 28.25 84.59 28.04Z" fill="#F43430" stroke="#130000" stroke-width="0.27" stroke-miterlimit="10"/>
<path d="M100.53 19.7301C99.9304 18.9301 99.6304 17.8601 99.6304 16.5201C99.6304 15.9701 99.6904 15.3901 99.8004 14.8001C100.05 13.6001 100.56 12.4601 101.35 11.3901C102.13 10.3201 103.06 9.46006 104.14 8.80006C105.22 8.14006 106.32 7.81006 107.45 7.81006C108.58 7.81006 109.38 8.20006 109.93 8.97006C110.47 9.74006 110.75 10.8101 110.75 12.1601C110.75 12.6801 110.69 13.2401 110.58 13.8501C110.33 15.1301 109.83 16.3101 109.08 17.3901C108.33 18.4701 107.42 19.3301 106.37 19.9701C105.32 20.6101 104.25 20.9301 103.16 20.9301C102.01 20.9301 101.14 20.5301 100.54 19.7301H100.53ZM106.93 18.9901C107.52 18.5501 107.97 17.8901 108.28 17.0101C108.59 16.1301 108.74 15.1801 108.74 14.1401C108.74 12.7101 108.47 11.4601 107.94 10.4001C107.41 9.34006 106.68 8.81006 105.76 8.81006C105.17 8.81006 104.57 9.04006 103.96 9.50006C103.31 9.98006 102.8 10.7301 102.44 11.7601C102.08 12.7901 101.9 13.8901 101.9 15.0501C101.9 16.4101 102.14 17.5501 102.63 18.4901C103.12 19.4301 103.8 19.8901 104.68 19.8901C105.35 19.8901 106.1 19.5801 106.94 18.9701L106.93 18.9901Z" fill="#F43430" stroke="#130000" stroke-width="0.27" stroke-miterlimit="10"/>
<path d="M112.6 20.3C112.6 20.17 112.69 19.74 112.86 19.01C112.92 18.82 113.2 17.78 113.72 15.89C114.1 14.61 114.41 13.54 114.64 12.68C114.87 11.82 115.06 10.96 115.21 10.1C115.23 10.01 115.24 9.90996 115.24 9.80996C115.24 9.34996 115.01 9.11996 114.55 9.11996C114.28 9.11996 114.01 9.18996 113.72 9.31996C113.7 9.33996 113.67 9.34996 113.63 9.34996C113.57 9.34996 113.54 9.30996 113.53 9.23996C113.53 9.15996 113.55 9.11996 113.63 9.09996C114.15 8.80996 114.7 8.54996 115.29 8.29996C115.88 8.04996 116.35 7.92996 116.69 7.92996C117.24 7.92996 117.52 8.25996 117.52 8.92996L117.46 9.52996C117.35 10.27 117.1 11.26 116.72 12.48C117.45 11.28 118.22 10.26 119.04 9.42996C119.86 8.59996 120.63 8.03996 121.33 7.74996C121.62 7.63996 121.89 7.57996 122.16 7.57996C122.5 7.57996 122.78 7.65996 122.99 7.81996C123.2 7.97996 123.31 8.20996 123.31 8.48996C123.31 8.79996 123.2 9.09996 122.97 9.40996C122.59 9.90996 121.94 10.45 121.02 11.04C121 11.06 120.96 11.07 120.91 11.07C120.86 11.07 120.82 11.04 120.82 10.98C120.82 10.9 120.86 10.83 120.93 10.75C121.12 10.54 121.22 10.29 121.22 9.99996C121.22 9.70996 121.13 9.52996 120.96 9.45996C120.86 9.37996 120.72 9.34996 120.53 9.34996C120.05 9.34996 119.48 9.71996 118.83 10.45C118.17 11.19 117.56 12.05 117.01 13.04C116.46 14.03 116.09 14.86 115.92 15.53C115.58 16.79 115.33 17.77 115.18 18.48C115.03 19.13 114.84 19.6 114.61 19.88C114.38 20.17 113.96 20.4 113.35 20.57C113.18 20.63 113.03 20.66 112.92 20.66C112.71 20.66 112.6 20.54 112.6 20.29V20.3Z" fill="#F43430" stroke="#130000" stroke-width="0.27" stroke-miterlimit="10"/>
<path d="M7.21033 48.67C6.84033 42.97 4.52033 35.95 1.34033 30.79C1.57033 30.62 1.80033 30.56 2.03033 30.56C2.32033 30.56 2.57033 30.62 2.80033 30.67C3.06033 30.73 3.23033 30.73 3.49033 30.73C3.78033 30.73 4.15033 30.56 4.32033 30.39C4.46033 30.25 4.66033 29.96 4.86033 29.96C5.06033 29.96 5.26033 30.25 5.40033 30.39C5.57033 30.56 5.94033 30.73 6.23033 30.73C6.49033 30.73 6.66033 30.73 6.92033 30.67C7.15033 30.61 7.46033 30.56 7.69033 30.56C7.92033 30.56 8.26033 30.62 8.55033 30.79C8.12033 33.37 8.89033 38.93 10.3303 42.57C11.5303 39.07 12.5603 34.38 11.7303 30.56C11.9603 30.56 12.1903 30.62 12.4203 30.67C12.6803 30.73 12.9903 30.73 13.2503 30.73C13.5403 30.73 13.7703 30.56 13.9403 30.39C14.0803 30.25 14.2803 29.96 14.4803 29.96C14.6803 29.96 14.8803 30.25 15.0203 30.39C15.1903 30.56 15.4203 30.73 15.7103 30.73C15.9703 30.73 16.2803 30.73 16.5403 30.67C16.7703 30.61 17.0003 30.56 17.2303 30.56C17.5203 30.56 17.7703 30.62 17.9703 30.79C16.1403 34.29 12.7303 44.63 12.9003 48.67C11.9803 48.67 11.0103 48.41 10.1203 47.87C9.43033 48.41 8.14033 48.67 7.20033 48.67H7.21033Z" fill="#F43430" stroke="#130000" stroke-width="0.27" stroke-miterlimit="10"/>
<path d="M25.9703 41.88C25.9703 43 26.1403 45.92 27.8603 46.18C27.8603 48.21 26.4003 48.67 25.7403 48.67C25.0803 48.67 24.4803 48.41 23.9903 48.04C23.4703 48.41 22.8403 48.67 22.1803 48.67C21.5203 48.67 20.0903 48.21 20.0903 46.18C21.8103 45.92 21.9503 43 21.9503 41.88V37.58C21.9503 35.2 21.4103 32.88 20.1203 30.79C20.4603 30.62 20.7803 30.56 21.1203 30.56C21.4103 30.56 21.6903 30.62 21.9203 30.67C22.1803 30.73 22.4403 30.73 22.7203 30.73C23.0003 30.73 23.2403 30.56 23.4403 30.39C23.6403 30.19 23.7803 29.96 23.9803 29.96C24.1503 29.96 24.3503 30.25 24.5003 30.39C24.6703 30.56 25.0403 30.73 25.3303 30.73C25.5903 30.73 25.7603 30.73 26.0203 30.67C26.2503 30.61 26.5103 30.56 26.8203 30.56C27.1603 30.56 27.4803 30.62 27.8203 30.79C26.5303 32.88 25.9603 35.2 25.9603 37.58V41.88H25.9703Z" fill="#F43430" stroke="#130000" stroke-width="0.27" stroke-miterlimit="10"/>
<path d="M34.45 48.47C33.93 48.3 33.19 48.07 32.73 48.07C32.19 48.07 31.56 48.27 30.92 48.67C30.38 48.3 30.29 47.04 31.03 46.35C30.6 46.01 30.29 45.18 30.29 44.46C30.29 43.43 31.12 42.25 32.1 42.25C32.67 42.25 33.19 42.42 33.62 42.68C33.02 44.91 35.02 46.23 37.4 46.23C38.46 46.23 39.26 45.83 39.26 44.77C39.26 43.6 38.26 42.91 37.08 42.45C32.87 40.73 30.69 38.58 30.69 35.32C30.69 32.51 32.75 30.65 35.88 30.65C36.2 30.65 36.54 30.56 36.71 30.39C36.85 30.25 37.05 29.96 37.25 29.96C37.42 29.96 37.59 30.19 37.82 30.39C38.16 30.68 38.68 30.73 39.74 30.73C40.69 30.73 41.49 30.47 42.23 30.19C42.37 30.3 42.46 30.56 42.46 30.88C42.46 31.25 42.32 31.68 42.12 31.97C42.01 32.14 41.92 32.29 41.92 32.46C41.92 32.6 42.18 32.98 42.24 33.18C42.41 33.52 42.53 34.18 42.53 34.73C42.53 35.28 42.24 35.88 42.04 36.22C41.93 36.39 41.81 36.65 41.81 36.94C41.81 37.31 41.95 37.66 42.21 38.09C40.63 38.09 39.12 36.46 38.54 35.31C37.79 33.82 36.96 33.19 35.99 33.19C35.13 33.19 34.33 33.59 34.33 34.74C34.33 35.89 35.53 37 37.63 37.95C41.35 39.58 43.1 40.87 43.1 44C43.1 47.13 40.78 48.96 37.46 48.96C36.06 48.96 35.11 48.76 34.45 48.5V48.47Z" fill="#F43430" stroke="#130000" stroke-width="0.27" stroke-miterlimit="10"/>
<path d="M51.84 41.88C51.84 43 52.01 45.92 53.73 46.18C53.73 48.21 52.27 48.67 51.61 48.67C50.95 48.67 50.35 48.41 49.86 48.04C49.34 48.41 48.71 48.67 48.05 48.67C47.39 48.67 45.96 48.21 45.96 46.18C47.68 45.92 47.82 43 47.82 41.88V37.58C47.82 35.2 47.28 32.88 45.99 30.79C46.33 30.62 46.65 30.56 46.99 30.56C47.28 30.56 47.56 30.62 47.79 30.67C48.05 30.73 48.31 30.73 48.59 30.73C48.87 30.73 49.11 30.56 49.31 30.39C49.51 30.19 49.65 29.96 49.85 29.96C50.02 29.96 50.22 30.25 50.37 30.39C50.54 30.56 50.91 30.73 51.2 30.73C51.46 30.73 51.63 30.73 51.89 30.67C52.12 30.61 52.38 30.56 52.69 30.56C53.03 30.56 53.35 30.62 53.69 30.79C52.4 32.88 51.83 35.2 51.83 37.58V41.88H51.84Z" fill="#F43430" stroke="#130000" stroke-width="0.27" stroke-miterlimit="10"/>
<path d="M66.0803 41.8801C66.0803 43.0001 66.2503 45.9201 67.9703 46.1801C67.9703 48.2101 66.5103 48.6701 65.8503 48.6701C65.1903 48.6701 64.5903 48.4101 64.0703 48.0401C63.5803 48.4101 62.9503 48.6701 62.2903 48.6701C61.6303 48.6701 60.2003 48.2101 60.2003 46.1801C61.9203 45.9201 62.0903 43.0001 62.0903 41.8801V37.5801C62.0903 36.9801 62.0903 32.9701 60.7703 32.9701C59.8803 32.9701 59.6503 34.1401 59.4803 35.4901C59.2803 37.4101 58.2803 38.6101 56.4103 38.6101C56.6703 38.0701 56.7803 37.7201 56.7803 37.4101C56.7803 37.1001 56.6903 36.5801 56.5503 36.2401C56.3803 35.8701 56.0903 35.2701 56.0903 34.7201C56.0903 34.1701 56.2003 33.5201 56.3503 33.1701C56.4403 32.9701 56.6903 32.6001 56.6903 32.4501C56.6903 32.2801 56.6003 32.1401 56.4903 31.9601C56.2903 31.6701 56.1503 31.2401 56.1503 30.8701C56.1503 30.5301 56.2403 30.3001 56.3203 30.1501C56.5503 30.2101 56.8603 30.3201 57.2103 30.4901C57.5503 30.6601 57.9803 30.7201 58.5003 30.7201C58.9603 30.7201 59.4703 30.5501 59.7003 30.2901C59.9603 30.0601 60.1303 29.9501 60.2403 29.9501C60.3803 29.9501 60.5003 30.0601 60.7303 30.2701C61.1003 30.5801 61.8203 30.7301 62.2803 30.7301C62.8003 30.7301 63.1703 30.5901 63.4303 30.3901C63.6903 30.2201 63.9203 29.9601 64.0603 29.9601C64.2003 29.9601 64.4303 30.2201 64.6903 30.3901C64.9503 30.5901 65.3203 30.7301 65.8403 30.7301C66.3003 30.7301 67.0403 30.5901 67.3903 30.2701C67.6203 30.0701 67.7303 29.9501 67.8803 29.9501C68.0303 29.9501 68.1703 30.0601 68.4203 30.2901C68.6503 30.5501 69.1903 30.7201 69.6203 30.7201C70.1403 30.7201 70.5903 30.6101 70.9103 30.4601C71.2303 30.2901 71.5703 30.2001 71.8003 30.1401C71.8903 30.2801 72.0003 30.5101 72.0003 30.8601C72.0003 31.2301 71.8303 31.6601 71.6303 31.9501C71.5203 32.1201 71.4603 32.2701 71.4603 32.4401C71.4603 32.5801 71.6903 32.9601 71.7803 33.1601C71.9203 33.5001 72.0403 34.1601 72.0403 34.7101C72.0403 35.2601 71.7503 35.8601 71.5803 36.2301C71.4703 36.5701 71.3503 37.0901 71.3503 37.4001C71.3503 37.7101 71.4603 38.0601 71.7203 38.6001C69.9103 38.6001 68.8803 37.4001 68.6503 35.4801C68.5103 34.1301 68.2803 32.9601 67.3903 32.9601C66.0703 32.9601 66.0703 36.9701 66.0703 37.5701V41.8701L66.0803 41.8801Z" fill="#F43430" stroke="#130000" stroke-width="0.27" stroke-miterlimit="10"/>
<path d="M80.4601 41.88C80.4601 43 80.6301 45.92 82.3501 46.18C82.3501 48.21 80.8901 48.67 80.2301 48.67C79.5701 48.67 78.9701 48.41 78.4801 48.04C77.9601 48.41 77.3301 48.67 76.6701 48.67C76.0101 48.67 74.5801 48.21 74.5801 46.18C76.3001 45.92 76.4401 43 76.4401 41.88V37.58C76.4401 35.2 75.9001 32.88 74.6101 30.79C74.9501 30.62 75.2701 30.56 75.6101 30.56C75.9001 30.56 76.1801 30.62 76.4101 30.67C76.6701 30.73 76.9301 30.73 77.2101 30.73C77.4901 30.73 77.7301 30.56 77.9301 30.39C78.1301 30.19 78.2701 29.96 78.4701 29.96C78.6401 29.96 78.8401 30.25 78.9901 30.39C79.1601 30.56 79.5301 30.73 79.8201 30.73C80.0801 30.73 80.2501 30.73 80.5101 30.67C80.7401 30.61 81.0001 30.56 81.3101 30.56C81.6501 30.56 81.9701 30.62 82.3101 30.79C81.0201 32.88 80.4501 35.2 80.4501 37.58V41.88H80.4601Z" fill="#F43430" stroke="#130000" stroke-width="0.27" stroke-miterlimit="10"/>
<path d="M90.0601 41.88C90.0601 43 90.2301 45.92 91.9501 46.18C91.9501 48.21 90.4901 48.67 89.9201 48.67C89.3201 48.67 88.8601 48.41 88.4001 48.04C87.9401 48.41 87.4801 48.67 86.8801 48.67C86.2801 48.67 84.8501 48.21 84.8501 46.18C86.5701 45.92 86.7101 43 86.7101 41.88V37.58C86.7101 35.2 86.1701 32.88 84.8801 30.79C85.2201 30.62 85.5401 30.56 85.8801 30.56C86.1701 30.56 86.4501 30.62 86.6801 30.67C86.9401 30.73 87.2501 30.73 87.5101 30.73C87.7701 30.73 88.0001 30.56 88.2001 30.39C88.3401 30.19 88.5401 29.96 88.7401 29.96C88.9401 29.96 89.1401 30.25 89.2801 30.39C89.4501 30.56 89.8201 30.73 90.0501 30.73C90.2501 30.73 90.4801 30.73 90.6801 30.67C90.9101 30.61 91.1401 30.56 91.3401 30.56C91.5101 30.56 91.7401 30.62 91.9101 30.73C92.3101 32.56 94.0301 36.72 95.9801 38.67C95.9801 36.32 95.6901 33.37 94.8101 30.56C95.0401 30.59 95.2701 30.65 95.4701 30.67C95.7001 30.7 95.9001 30.73 96.1001 30.73C96.5301 30.73 96.9301 30.56 97.1001 30.39C97.2401 30.25 97.4401 29.96 97.6401 29.96C97.8401 29.96 98.0401 30.25 98.1801 30.39C98.3501 30.56 98.6701 30.73 99.0101 30.73C99.2701 30.73 99.4401 30.73 99.7001 30.67C99.9301 30.61 100.27 30.56 100.7 30.56C99.3001 33.28 99.2701 40.65 99.2701 43.34C99.2701 44.74 99.5001 47.21 99.8101 48.67C98.9801 48.67 98.0601 48.44 97.4001 48.04C96.8601 48.44 96.0801 48.67 95.3101 48.67C94.6801 45.55 93.0201 41.02 90.2401 37.5C90.1001 37.79 90.0401 38.13 90.0401 38.45V41.89L90.0601 41.88Z" fill="#F43430" stroke="#130000" stroke-width="0.27" stroke-miterlimit="10"/>
<path d="M113.46 43.35C113.46 42.58 113.17 41.89 112.14 41.17C112.83 40.25 114.49 40.54 115.18 41.17C116.13 40.54 117.47 40.2 118.25 41.17C117.08 41.89 116.82 43.06 116.82 43.98C116.82 45.61 116.85 47.65 117.65 48.68C116.45 48.68 115.36 48.51 114.67 47.88C113.98 48.54 112.69 48.94 110.89 48.94C105.42 48.94 103.96 43.78 103.96 39.6C103.96 33.55 106.85 30.66 109.98 30.66C110.27 30.66 110.55 30.57 110.75 30.4C110.95 30.2 111.15 29.97 111.35 29.97C111.55 29.97 111.75 30.14 111.98 30.34C112.27 30.63 112.7 30.74 113.73 30.74C114.76 30.74 115.74 30.63 116.54 30.25C116.68 30.42 116.77 30.71 116.77 31.05C116.77 31.31 116.6 31.68 116.4 31.97C116.29 32.14 116.23 32.29 116.23 32.46C116.23 32.6 116.49 32.98 116.55 33.18C116.72 33.52 116.84 34.18 116.84 34.73C116.84 35.28 116.58 35.88 116.35 36.22C116.24 36.39 116.12 36.65 116.12 36.91C116.12 37.2 116.23 37.54 116.52 38.08C114.94 38.08 113.28 36.13 112.88 34.79C112.54 33.67 112.13 33.27 111.56 33.27C108.75 33.27 108.75 36.28 108.75 39.26C108.75 43.73 109.12 46.25 111.3 46.25C112.88 46.25 113.48 44.85 113.48 43.36L113.46 43.35Z" fill="#F43430" stroke="#130000" stroke-width="0.27" stroke-miterlimit="10"/>
</g>
<defs>
<filter id="filter0_d_449_17663" x="0.00539064" y="0.00500488" width="123.44" height="49.86" filterUnits="userSpaceOnUse" color-interpolation-filters="sRGB">
<feFlood flood-opacity="0" result="BackgroundImageFix"/>
<feColorMatrix in="SourceAlpha" type="matrix" values="0 0 0 0 0 0 0 0 0 0 0 0 0 0 0 0 0 0 127 0" result="hardAlpha"/>
<feOffset dx="-0.77" dy="0.77"/>
<feColorMatrix type="matrix" values="0 0 0 0 0 0 0 0 0 0 0 0 0 0 0 0 0 0 0.75 0"/>
<feBlend mode="normal" in2="BackgroundImageFix" result="effect1_dropShadow_449_17663"/>
<feBlend mode="normal" in="SourceGraphic" in2="effect1_dropShadow_449_17663" result="shape"/>
</filter>
</defs>
</svg>
