<svg width="59" height="64" viewBox="0 0 59 64" fill="none" xmlns="http://www.w3.org/2000/svg">
<path d="M57.307 49.4529C57.047 50.0967 56.7417 50.718 56.4139 51.3279C50.1858 62.7475 32.2702 68.4517 15.8013 55.8912C-1.54928 42.6531 7.60632 17.2272 6.97334 15.6685C6.34036 14.1097 2 6.77903 2 6.77903C5.83182 -1.38752 11.1896 1.49277 11.1896 1.49277L13.0432 11.8506L17.8359 14.5615C22.6398 17.2837 22.9111 34.8141 34.5083 40.2471C41.8441 43.6809 50.5475 42.4723 55.0123 43.5454C55.1819 43.5793 55.3289 43.6245 55.4871 43.6697C57.8269 44.37 58.7651 45.8835 57.2956 49.4416L57.307 49.4529Z" fill="#F8B733" stroke="#130000" stroke-width="2" stroke-miterlimit="10"/>
</svg>
