<svg width="76" height="17" viewBox="0 0 76 17" fill="none" xmlns="http://www.w3.org/2000/svg">
<g clip-path="url(#clip0_346_7366)">
<path d="M14.2416 2.48781C12.5694 0.907714 10.4259 0.145684 8.29355 0.201716C6.96927 0.235335 5.645 0.582731 4.45539 1.25511C4.04015 1.49044 3.64736 1.74819 3.26579 2.06197C3.01889 2.26368 2.77199 2.48781 2.54754 2.72314C2.52509 2.74555 2.50264 2.76796 2.4802 2.79038C2.18841 3.09295 1.91907 3.41793 1.68339 3.75412C0.875356 4.89717 0.39278 6.20831 0.235663 7.55307C-0.0561269 10.0521 0.796797 12.6519 2.76077 14.5234C5.01653 16.675 8.1701 17.3026 10.9533 16.4509C11.4135 16.3052 11.8736 16.1259 12.3113 15.9018C12.9173 15.588 13.4896 15.207 14.0059 14.7363C14.1855 14.5794 14.3538 14.4113 14.5221 14.2432C14.5558 14.2096 14.5783 14.176 14.6119 14.1424C15.3302 13.3692 15.8689 12.4839 16.2392 11.5537C16.4749 10.9598 16.632 10.3434 16.7218 9.71589C17.1034 7.13843 16.2617 4.4265 14.2303 2.48781H14.2416Z" fill="#F43430" stroke="#130000" stroke-width="0.33" stroke-miterlimit="10"/>
<path d="M14.6119 14.1312C14.7129 14.0303 14.9037 13.795 14.971 13.7053C15.2179 9.18919 11.6491 3.5412 3.90546 3.48517C3.87179 3.48517 3.73712 3.48517 3.73712 3.48517C3.73712 3.48517 11.6154 8.87541 14.6007 14.1312H14.6119Z" fill="#025A8B" stroke="#130000" stroke-width="0.07" stroke-miterlimit="10"/>
<path d="M13.7478 14.938C13.8263 14.8708 14.0732 14.6579 14.163 14.5794C12.1317 13.8174 4.08504 10.5452 3.74836 3.47396C3.74836 3.47396 0.931465 6.92551 4.53395 11.5089C7.04783 14.7027 12.4684 15.5768 13.7478 14.938Z" fill="#025A8B" stroke="#130000" stroke-width="0.07" stroke-miterlimit="10"/>
<path d="M2.76077 14.5122C5.19609 16.8431 9.26992 17.6836 12.6367 15.7113C10.7513 16.0251 5.33076 16.7647 2.50264 11.3184C-0.325471 5.87212 3.74836 3.48517 3.74836 3.48517C3.74836 3.48517 1.78439 3.98945 0.235663 7.55307C-0.0561269 10.0521 0.796797 12.6407 2.76077 14.5234V14.5122Z" fill="#025A8B" stroke="#130000" stroke-width="0.07" stroke-miterlimit="10"/>
<path d="M3.75958 3.48517C10.9421 -2.1292 18.1583 6.9143 15.824 12.4502C17.4513 9.70468 17.2605 5.05405 14.2416 2.48781C12.4908 0.997363 10.4259 0.145682 8.29354 0.201714C8.21499 0.21292 8.1252 0.235333 8.04665 0.246539C4.85941 0.963744 3.75958 3.48517 3.75958 3.48517Z" fill="#025A8B" stroke="#130000" stroke-width="0.07" stroke-miterlimit="10"/>
<path d="M3.75961 3.48517C3.75961 3.48517 3.19847 3.07053 2.54756 2.71193C2.52511 2.73434 2.50267 2.75675 2.48022 2.77917C2.18843 3.08174 1.91909 3.40672 1.68341 3.74291C2.31188 3.48517 3.0638 3.30586 3.74838 3.48517H3.75961Z" fill="#025A8B" stroke="#130000" stroke-width="0.07" stroke-miterlimit="10"/>
<path d="M4.44418 1.2439C4.02894 1.47924 3.63615 1.73698 3.25458 2.05076C3.49025 2.48781 3.71471 3.0145 3.74838 3.48517C3.77082 3.42914 4.19728 2.20765 4.44418 1.25511V1.2439Z" fill="#025A8B" stroke="#130000" stroke-width="0.07" stroke-miterlimit="10"/>
<path d="M44.9693 13.033C46.2262 11.1055 46.5854 8.853 46.1365 6.76863C45.8559 5.46869 45.2723 4.236 44.4082 3.19381C44.1051 2.824 43.7685 2.48781 43.3981 2.17403C43.1512 1.96111 42.8931 1.7706 42.6238 1.5913C42.6013 1.56889 42.5789 1.55768 42.5452 1.53527C42.1861 1.29994 41.8269 1.09822 41.4454 0.930129C40.166 0.3474 38.7856 0.112067 37.4276 0.201718C34.9138 0.369812 32.5121 1.68095 31.0307 3.95584C29.3249 6.56691 29.28 9.77192 30.6267 12.3494C30.8512 12.7752 31.1205 13.1899 31.4235 13.5821C31.8388 14.12 32.3213 14.6018 32.8825 15.0389C33.062 15.1846 33.264 15.3191 33.466 15.4535C33.4997 15.4759 33.5446 15.4984 33.5783 15.5208C34.4761 16.0811 35.4412 16.4621 36.4288 16.6526C37.0573 16.7759 37.697 16.8207 38.3255 16.7983C40.9291 16.6974 43.4542 15.3863 44.9805 13.033H44.9693Z" fill="#F43430" stroke="#130000" stroke-width="0.33" stroke-miterlimit="10"/>
<path d="M33.567 15.5208C33.6905 15.5992 33.9486 15.7449 34.0496 15.8009C38.5499 15.2182 43.4542 10.6908 42.0963 3.08175C42.0963 3.04813 42.0738 2.92486 42.0738 2.92486C42.0738 2.92486 38.202 11.6434 33.567 15.532V15.5208Z" fill="#025A8B" stroke="#130000" stroke-width="0.07" stroke-miterlimit="10"/>
<path d="M32.6131 14.8148C32.6917 14.882 32.9498 15.0837 33.0396 15.1622C33.4212 13.0218 35.1719 4.53857 42.0738 2.91365C42.0738 2.91365 38.1571 0.77324 34.3078 5.14371C31.6143 8.19183 31.749 13.6717 32.6131 14.8148Z" fill="#025A8B" stroke="#130000" stroke-width="0.07" stroke-miterlimit="10"/>
<path d="M31.0304 3.95605C29.1787 6.78004 29.1001 10.9264 31.6477 13.8736C30.9968 12.0806 29.2797 6.89211 34.1279 3.11557C38.9312 -0.616135 42.0735 2.91386 42.0735 2.91386C42.0735 2.91386 41.2206 1.07602 37.4274 0.201927C34.9135 0.370022 32.5118 1.68116 31.0304 3.95605Z" fill="#025A8B" stroke="#130000" stroke-width="0.07" stroke-miterlimit="10"/>
<path d="M42.0738 2.91365C48.9197 8.94265 41.3219 17.6724 35.4412 16.3949C38.4489 17.4931 42.9941 16.4509 44.9693 13.0218C46.114 11.027 46.5853 8.8418 46.1364 6.75742C46.1028 6.67898 46.0803 6.60053 46.0467 6.52209C44.756 3.51879 42.0738 2.90244 42.0738 2.90244V2.91365Z" fill="#025A8B" stroke="#130000" stroke-width="0.07" stroke-miterlimit="10"/>
<path d="M42.0738 2.91365C42.0738 2.91365 42.3769 2.28609 42.6125 1.5801C42.5901 1.55768 42.5676 1.54648 42.534 1.52406C42.1748 1.28873 41.8157 1.08702 41.4341 0.918922C41.8045 1.49045 42.1075 2.19644 42.0626 2.90244L42.0738 2.91365Z" fill="#025A8B" stroke="#130000" stroke-width="0.07" stroke-miterlimit="10"/>
<path d="M44.3969 3.19381C44.0939 2.824 43.7572 2.48781 43.3869 2.17403C43.0053 2.48781 42.5228 2.80159 42.0626 2.92486C42.1187 2.92486 43.3981 3.13778 44.3857 3.19381H44.3969Z" fill="#025A8B" stroke="#130000" stroke-width="0.07" stroke-miterlimit="10"/>
<path d="M62.9926 15.4984C64.9342 16.7423 67.1899 17.0784 69.2661 16.619C70.568 16.3388 71.7912 15.7449 72.8349 14.8596C73.1941 14.557 73.542 14.2208 73.845 13.8398C74.047 13.5933 74.249 13.3355 74.4286 13.0554C74.451 13.033 74.4622 13.0105 74.4847 12.9769C74.7091 12.6183 74.9111 12.2485 75.0795 11.8787C75.663 10.59 75.8875 9.2116 75.7753 7.86684C75.5845 5.35663 74.2602 2.96968 71.9708 1.50165C69.3447 -0.1793 66.135 -0.201713 63.565 1.16546C63.1385 1.38959 62.7233 1.65854 62.3305 1.96111C61.803 2.37574 61.3092 2.86882 60.8828 3.42914C60.7369 3.61964 60.6022 3.81015 60.4788 4.01187C60.4563 4.04549 60.4339 4.09031 60.4114 4.12393C59.8503 5.02044 59.4912 5.99539 59.3004 6.97034C59.1882 7.59789 59.1433 8.23665 59.1657 8.86421C59.2779 11.4641 60.6247 13.9743 62.9814 15.4871L62.9926 15.4984Z" fill="#F43430" stroke="#130000" stroke-width="0.33" stroke-miterlimit="10"/>
<path d="M60.4229 4.12393C60.3443 4.2472 60.1984 4.51615 60.1423 4.6058C60.7596 9.08833 65.3272 13.9519 72.9362 12.5511C72.9699 12.5511 73.0933 12.5287 73.0933 12.5287C73.0933 12.5287 64.3396 8.71853 60.4117 4.12393H60.4229Z" fill="#025A8B" stroke="#130000" stroke-width="0.07" stroke-miterlimit="10"/>
<path d="M61.1187 3.17139C61.0514 3.24983 60.8494 3.50758 60.7708 3.59723C62.9143 3.96704 71.4324 5.65919 73.1045 12.5287C73.1045 12.5287 75.2144 8.60646 70.8151 4.7851C67.7401 2.11799 62.2522 2.29729 61.1187 3.16018V3.17139Z" fill="#025A8B" stroke="#130000" stroke-width="0.07" stroke-miterlimit="10"/>
<path d="M71.9823 1.51286C69.1429 -0.313775 64.9905 -0.369807 62.0614 2.19644C63.857 1.53527 69.0419 -0.224125 72.8464 4.5946C76.6172 9.36849 73.1045 12.5287 73.1045 12.5287C73.1045 12.5287 74.945 11.6658 75.7867 7.87805C75.596 5.36783 74.2605 2.98089 71.9823 1.51286Z" fill="#025A8B" stroke="#130000" stroke-width="0.07" stroke-miterlimit="10"/>
<path d="M73.1045 12.5399C67.1229 19.4094 58.313 11.8899 59.5588 6.00659C58.4814 9.00989 59.5588 13.5484 63.0041 15.4984C65.0018 16.6302 67.2014 17.0784 69.2776 16.619C69.3562 16.5854 69.4347 16.563 69.5133 16.5293C72.5097 15.2182 73.1158 12.5399 73.1158 12.5399H73.1045Z" fill="#025A8B" stroke="#130000" stroke-width="0.07" stroke-miterlimit="10"/>
<path d="M73.1046 12.5399C73.1046 12.5399 73.733 12.8425 74.4401 13.0778C74.4625 13.0554 74.4737 13.033 74.4962 12.9993C74.7206 12.6407 74.9226 12.2709 75.091 11.9011C74.5186 12.2709 73.8116 12.5847 73.1046 12.5399Z" fill="#025A8B" stroke="#130000" stroke-width="0.07" stroke-miterlimit="10"/>
<path d="M72.8464 14.8596C73.2056 14.557 73.5535 14.2208 73.8565 13.8398C73.5422 13.4588 73.228 12.9881 73.1046 12.5287C73.1046 12.5847 72.9025 13.8734 72.8464 14.8596Z" fill="#025A8B" stroke="#130000" stroke-width="0.07" stroke-miterlimit="10"/>
</g>
<defs>
<clipPath id="clip0_346_7366">
<rect width="76" height="17" fill="white"/>
</clipPath>
</defs>
</svg>
