<svg width="50" height="57" viewBox="0 0 50 57" fill="none" xmlns="http://www.w3.org/2000/svg">
<path d="M49.2297 44.0101C48.9997 44.5801 48.7297 45.1301 48.4397 45.6701C42.9297 55.7801 27.0798 60.83 12.5098 49.71C-2.84023 37.99 5.25971 15.48 4.69971 14.1C4.13971 12.72 0.299805 6.23005 0.299805 6.23005C3.6898 -0.999947 8.42981 1.55003 8.42981 1.55003L10.0697 10.72L14.3098 13.12C18.5598 15.53 18.7998 31.05 29.0598 35.86C35.5498 38.9 43.2497 37.83 47.1997 38.78C47.3497 38.81 47.4798 38.8501 47.6198 38.8901C49.6898 39.5101 50.5197 40.85 49.2197 44L49.2297 44.0101Z" fill="#130000" stroke="#130000" stroke-width="0.31" stroke-miterlimit="10"/>
</svg>
