<svg width="246" height="151" viewBox="0 0 246 151" fill="none" xmlns="http://www.w3.org/2000/svg">
<path d="M61.63 145.97C62.05 139.82 61.53 127.74 53.01 117.26C44.5 106.79 30.33 100.8 10.84 99.4C13.37 98.86 16.16 98.17 19.01 97.29C32.28 93.17 40.4 87.06 43.16 79.11C46.77 68.71 40.8 55.68 25.41 40.35C35.18 44.27 57.46 52.36 74.66 52.37C84.95 52.37 92.03 49.5 95.7 43.84C99.78 37.55 99.53 27.84 94.99 14.91C102.05 24.08 115.89 37.81 135.37 37.81C151.84 37.81 169.08 28.18 186.71 9.14001C180.65 20.29 172.75 38.34 178.29 48.74C181.09 53.98 186.92 56.64 195.63 56.64C205.77 56.64 220.11 53.02 238.3 45.85C228.96 53.21 213.63 67.97 213.3 85.85C213.07 97.79 219.66 109.04 232.89 119.35C221.76 115.72 198.06 108.89 177.54 108.89C162.1 108.89 151.18 112.7 145.06 120.21C140.43 125.9 138.58 133.72 139.55 143.51C137.93 140.47 135.65 136.63 132.71 132.77C124.21 121.56 114.32 115.64 104.1 115.64C90.49 115.64 76.2 125.84 61.61 145.97H61.63Z" fill="url(#paint0_radial_334_7055)"/>
<path d="M182.79 14.65C177.47 25.75 172.6 40.18 177.42 49.22C180.4 54.81 186.54 57.65 195.65 57.65C204.76 57.65 217.47 54.71 233.22 48.88C231.8 50.15 230.33 51.53 228.85 53.03C218.24 63.77 212.53 75.12 212.32 85.84C212.11 96.84 217.48 107.23 228.3 116.83C216.02 113.08 195.78 107.9 177.55 107.9C161.81 107.9 150.62 111.83 144.31 119.59C140.23 124.61 138.23 131.19 138.33 139.23C132.21 128.97 120.69 114.65 104.13 114.65C90.78 114.65 76.88 124.12 62.74 142.82C62.72 136.06 61.21 125.76 53.81 116.64C46.01 107.05 33.62 101.14 16.87 99C27.67 96 40.38 90.25 44.13 79.45C47.61 69.43 42.64 57.19 29.36 42.97C32.07 44 35.24 45.14 38.69 46.28C52.99 50.99 65.1 53.38 74.69 53.38C85.34 53.38 92.71 50.36 96.57 44.4C100.31 38.63 100.67 30.49 97.62 19.72C98.58 20.81 99.62 21.92 100.73 23.03C111.08 33.36 123.07 38.83 135.4 38.83C150.7 38.83 166.6 30.72 182.81 14.67M193.34 0C170.57 27.81 151.08 36.81 135.38 36.81C106.53 36.81 90.5 6.39 90.5 6.39C106.3 41.72 93.44 51.37 74.67 51.37C52.06 51.37 20.88 37.37 20.88 37.37C81.23 93.5 0 100.09 0 100.09C0.53 100.09 1.05 100.09 1.57 100.09C70.53 100.09 60.15 149.8 60.15 149.8C77.31 124.95 92.07 116.65 104.11 116.65C128.31 116.65 141.59 150.12 141.59 150.12C135.04 118.53 154.39 109.9 177.54 109.9C205.48 109.9 238.94 122.49 238.94 122.49C179.71 82.64 245.85 41.69 245.85 41.69C222.21 51.69 206.19 55.64 195.63 55.64C156.01 55.64 193.33 0 193.33 0L193.34 0Z" fill="#130000"/>
<path d="M68.79 71.45C69.12 71.29 69.49 71.09 69.72 71.09C69.9 71.09 69.94 71.47 69.94 71.86C69.94 72.37 69.78 72.76 69.64 73.03C69.45 73.41 69.27 73.93 69.27 74.17C69.27 74.36 69.4 74.79 69.6 75.17C69.81 75.58 70.01 76.2 70.01 77.09C70.01 77.79 69.68 78.5 69.49 78.94C69.3 79.38 69.08 79.78 69.08 80.17C69.08 80.48 69.23 81.06 69.6 81.85C67.56 81.9 65.42 79.31 64.89 77.47C64.45 75.94 63.93 75.38 63.19 75.39C59.56 75.43 59.56 79.66 59.56 83.88C59.56 89.81 60.34 93.74 62.86 93.52C64.57 93.37 66.2 91.21 65.12 87.6C66.45 87.5 67.38 87.78 68.05 88.31C68.72 87.66 69.72 87.23 70.94 87.11C70.53 88.23 70.35 89.18 70.16 90.01C68.97 95.83 65.9 96.96 62.38 97.32C55.26 98.05 53.37 90.56 53.37 84.47C53.37 75.67 57.11 71.66 61.15 71.72C61.52 71.72 62 71.61 62.22 71.37C62.41 71.17 62.67 70.77 62.92 70.78C63.18 70.78 63.44 71.19 63.59 71.38C63.89 71.7 64.66 71.86 66 71.86C67 71.86 68.19 71.72 68.78 71.44L68.79 71.45Z" fill="#F98D36" stroke="#130000" stroke-linecap="round" stroke-linejoin="round"/>
<path d="M74.13 83.23C74.13 77.03 77.47 71.59 81.95 71.33C82.54 71.29 82.91 71.09 83.21 70.81C83.51 70.54 83.73 70.23 83.95 70.22C84.21 70.2 84.43 70.48 84.65 70.68C84.95 70.95 85.39 71.1 85.98 71.06C90.47 70.75 93.8 75.29 93.8 80.93C93.8 86.19 91.47 92.94 83.94 94.27C76.41 95.6 74.12 89.02 74.12 83.23H74.13ZM87.62 81.61C87.62 78.15 87.62 74.1 83.95 74.39C80.32 74.68 80.32 78.88 80.32 82.46C80.32 86.67 80.32 91.42 83.95 90.84C87.62 90.25 87.62 85.67 87.62 81.6V81.61Z" fill="#F98D36" stroke="#130000" stroke-linecap="round" stroke-linejoin="round"/>
<path d="M104.15 82.21C104.15 83.49 104.37 86.8 106.6 86.64C106.6 88.94 104.71 89.86 103.97 90.02C103.19 90.18 102.6 90.02 102 89.7C101.41 90.25 100.81 90.68 100.04 90.84C99.27 91 97.41 90.84 97.41 88.43C99.63 87.71 99.82 84.25 99.82 82.94V77.91C99.82 75.13 99.12 72.51 97.45 70.19C97.9 69.94 98.3 69.84 98.75 69.8C99.12 69.77 99.49 69.8 99.79 69.84C100.12 69.88 100.53 69.84 100.87 69.8C101.2 69.77 101.55 69.54 101.76 69.31C101.95 69.11 102.21 68.77 102.46 68.75C102.72 68.73 102.98 69.03 103.16 69.18C103.38 69.36 103.87 69.5 104.16 69.47C104.42 69.44 104.72 69.41 104.98 69.32C105.27 69.22 105.57 69.13 105.83 69.1C106.05 69.08 106.35 69.11 106.57 69.22C107.09 71.24 109.31 75.62 111.83 77.37C111.83 74.79 111.46 71.62 110.31 68.64C110.61 68.64 110.91 68.67 111.16 68.68C111.45 68.68 111.72 68.68 111.98 68.65C112.54 68.59 113.05 68.35 113.28 68.13C113.47 67.95 113.72 67.62 113.98 67.59C114.24 67.56 114.5 67.85 114.68 67.98C114.9 68.14 115.31 68.28 115.75 68.23C116.08 68.19 116.31 68.17 116.64 68.07C116.93 67.98 117.38 67.87 117.94 67.81C116.12 70.89 116.09 78.81 116.09 81.7C116.09 83.2 116.39 85.78 116.8 87.25C115.73 87.49 114.54 87.5 113.69 87.25C112.99 87.84 111.99 88.31 110.98 88.53C110.16 85.26 108.01 80.68 104.42 77.18C104.23 77.53 104.16 77.94 104.16 78.3V82.23L104.15 82.21Z" fill="#F98D36" stroke="#130000" stroke-linecap="round" stroke-linejoin="round"/>
<path d="M134.14 76.95C134.14 78.02 134.36 80.79 136.59 80.6C136.59 82.52 134.7 83.35 133.85 83.53C133.04 83.7 132.22 83.63 131.55 83.4C130.92 83.9 130.1 84.32 129.25 84.51C128.44 84.69 126.54 84.63 126.54 82.59C128.76 81.88 128.99 78.94 128.99 77.83V73.57C128.99 72.97 128.99 68.99 127.28 69.2C126.13 69.34 125.81 70.58 125.61 71.96C125.33 73.91 124.05 75.37 121.64 75.75C121.97 75.13 122.12 74.76 122.12 74.43C122.12 74.1 122.01 73.58 121.82 73.26C121.61 72.91 121.23 72.33 121.23 71.77C121.23 71.21 121.38 70.5 121.56 70.12C121.67 69.9 122.01 69.47 122.01 69.32C122.01 69.14 121.9 69.01 121.75 68.85C121.49 68.58 121.3 68.16 121.3 67.77C121.3 67.41 121.41 67.16 121.52 67C121.82 67.03 122.23 67.1 122.67 67.23C123.12 67.36 123.67 67.36 124.34 67.28C124.93 67.22 125.6 66.94 125.9 66.68C126.2 66.41 126.46 66.27 126.6 66.26C126.78 66.24 126.93 66.34 127.23 66.51C127.71 66.78 128.64 66.82 129.23 66.76C129.9 66.69 130.38 66.48 130.71 66.27C131.03 66.06 131.34 65.79 131.52 65.77C131.71 65.75 132.02 65.97 132.34 66.11C132.67 66.25 133.16 66.36 133.82 66.29C134.41 66.23 135.38 66 135.82 65.65C136.12 65.43 136.27 65.31 136.45 65.29C136.63 65.27 136.85 65.36 137.15 65.55C137.44 65.73 138.15 65.86 138.71 65.81C139.38 65.75 139.99 65.59 140.38 65.42C140.78 65.24 141.23 65.11 141.53 65.03C141.64 65.15 141.79 65.35 141.79 65.66C141.79 66 141.57 66.41 141.31 66.7C141.16 66.87 141.09 67.01 141.09 67.17C141.09 67.3 141.39 67.61 141.5 67.78C141.69 68.08 141.83 68.66 141.83 69.16C141.83 69.66 141.42 70.26 141.24 70.62C141.08 70.92 140.94 71.45 140.94 71.74C140.94 72.03 141.09 72.33 141.42 72.78C139.08 73.1 137.73 72.16 137.45 70.4C137.25 69.17 136.97 68.08 135.82 68.21C134.11 68.4 134.12 72.26 134.12 72.83V76.96L134.14 76.95Z" fill="#F98D36" stroke="#130000" stroke-linecap="round" stroke-linejoin="round"/>
<path d="M150.45 74.85C150.26 74.88 150.08 74.98 150 75.16C149.74 75.67 149.48 76.58 149.48 77.3C149.48 77.8 150.18 78.15 151.18 77.99C151.18 79.73 149.25 80.47 148.4 80.63C147.55 80.79 146.77 80.71 146.06 80.51C145.43 80.96 144.65 81.34 143.8 81.51C143.13 81.64 141.69 81.38 141.69 79.65C142.8 79.45 144.14 78.68 144.84 77.23C146.36 74.18 148.29 67.23 148.29 66.48C148.29 65.8 148.29 65.35 148.14 64.91C148.32 64.85 148.51 64.81 148.73 64.79C149.03 64.77 149.29 64.8 149.58 64.83C149.91 64.86 150.32 64.83 150.62 64.81C150.99 64.78 151.32 64.61 151.55 64.45C151.74 64.32 151.99 64.06 152.25 64.04C152.47 64.03 152.77 64.25 152.92 64.36C153.18 64.49 153.62 64.61 154.03 64.58C154.33 64.56 154.59 64.55 154.88 64.48C155.18 64.41 155.62 64.34 155.95 64.32C156.28 64.3 156.51 64.34 156.73 64.4C156.66 64.78 156.62 65.07 156.62 65.4C156.62 67.26 159.33 72.56 160.55 74.22C161.7 75.78 162.96 76.25 163.92 76.13C163.92 77.71 162.07 78.34 161.21 78.46C160.36 78.59 159.58 78.5 158.87 78.31C158.2 78.71 157.42 79.05 156.57 79.19C155.72 79.33 153.86 79.26 153.86 77.55C154.97 77.38 155.53 76.84 155.53 76.37C155.53 75.75 155.05 74.68 154.83 74.49C154.68 74.39 154.53 74.29 154.27 74.32C152.73 74.52 151.96 74.63 150.42 74.85H150.45ZM152.9 72.26C153.2 72.22 153.6 72.13 153.6 71.84C153.6 70.88 153.04 69.32 152.08 68.68C151.3 69.49 150.67 71.21 150.67 72.19C150.67 72.49 150.86 72.51 151.08 72.48C151.81 72.39 152.17 72.35 152.9 72.26Z" fill="#F98D36" stroke="#130000" stroke-linecap="round" stroke-linejoin="round"/>
<path d="M181.25 63.96C181.58 63.9 181.95 63.82 182.18 63.83C182.36 63.83 182.4 64.03 182.4 64.22C182.4 64.47 182.24 64.65 182.1 64.78C181.91 64.95 181.73 65.21 181.73 65.32C181.73 65.42 181.88 65.64 182.06 65.83C182.28 66.05 182.47 66.36 182.47 66.79C182.47 67.13 182.14 67.47 181.95 67.68C181.76 67.89 181.54 68.08 181.54 68.27C181.54 68.42 181.69 68.71 182.06 69.11C180.02 69.07 177.87 67.76 177.35 66.84C176.91 66.07 176.39 65.78 175.64 65.78C172.01 65.78 172.01 68 172.01 70.18C172.01 73.23 172.79 75.19 175.31 74.98C177.01 74.84 178.65 73.74 177.57 71.94C178.9 71.88 179.83 72.02 180.5 72.29C181.17 71.97 182.17 71.77 183.39 71.75C182.98 72.29 182.8 72.75 182.61 73.15C181.42 75.99 178.35 76.58 174.82 76.93C167.7 77.64 165.81 74.05 165.81 70.84C165.81 66.21 169.55 63.89 173.59 63.92C173.96 63.92 174.44 63.87 174.66 63.75C174.84 63.65 175.11 63.45 175.36 63.46C175.62 63.46 175.88 63.67 176.03 63.78C176.33 63.95 177.1 64.04 178.44 64.07C179.44 64.1 180.63 64.08 181.22 63.97L181.25 63.96Z" fill="#F98D36" stroke="#130000" stroke-linecap="round" stroke-linejoin="round"/>
<path d="M208.6 70.11C208.6 70.11 207.02 56.52 187.33 67.88C187.33 67.88 193.58 65.51 199.72 65.98C193.65 73.56 168.79 95.91 115.19 93.37C115.19 93.37 181.81 114.3 200.48 66.05C203.55 66.41 206.53 67.54 208.6 70.11Z" fill="#F72D37" stroke="#130000" stroke-linecap="round" stroke-linejoin="round"/>
<defs>
<radialGradient id="paint0_radial_334_7055" cx="0" cy="0" r="1" gradientUnits="userSpaceOnUse" gradientTransform="translate(117.781 77.4363) rotate(2.94) scale(99.8789 89.001)">
<stop stop-color="#FAEED5"/>
<stop offset="0.46" stop-color="#F9EDD3"/>
<stop offset="0.63" stop-color="#F9EBCC"/>
<stop offset="0.74" stop-color="#F9E7C0"/>
<stop offset="0.84" stop-color="#F9E1AF"/>
<stop offset="0.92" stop-color="#F9DA99"/>
<stop offset="0.99" stop-color="#F9D27F"/>
<stop offset="1" stop-color="#F9D17C"/>
</radialGradient>
</defs>
</svg>
