<svg width="324" height="250" viewBox="0 0 324 250" fill="none" xmlns="http://www.w3.org/2000/svg">
<path d="M261.084 248.308C260.666 248.099 219.05 227.33 190.459 212.446C189.547 212.634 188.697 212.794 187.868 212.94C186.036 213.254 184.191 213.539 182.373 213.797C175.352 214.786 168.645 215.287 162.425 215.287C154.555 215.287 145.988 214.5 136.961 212.94C136.077 212.787 135.144 212.606 134.05 212.383C105.452 227.281 63.7109 248.106 63.293 248.315L61.3498 249.283L60.319 216.471L6.39627 199.428L31.7905 176.855L0.63623 143.938L4.71074 144.6C4.71074 144.6 7.53154 145.053 11.8428 145.053C16.4258 145.053 20.9252 144.572 25.2295 143.625C21.4197 128.929 28.3637 114.233 42.1474 108.222C43.8399 106.996 45.5184 105.603 47.1552 104.071C46.7721 75.9603 52.0934 43.2877 93.2006 13.4359C105.368 4.59737 118.971 0.118896 133.625 0.118896C145.417 0.118896 155.586 3.06508 162.182 5.62818C168.784 3.06508 178.946 0.118896 190.738 0.118896C205.392 0.118896 218.995 4.59737 231.162 13.4359C272.193 43.232 277.549 75.6887 277.215 103.583L280.043 106.07L279.952 106.105C280.851 106.857 281.756 107.567 282.668 108.222C296.494 114.254 303.431 128.992 299.565 143.722C303.737 144.607 308.083 145.06 312.506 145.06C316.929 145.06 319.631 144.607 319.659 144.607L323.734 143.938L292.579 176.855L317.974 199.428L264.058 216.471L263.027 249.283L261.084 248.315V248.308Z" fill="#130000"/>
<path d="M319.889 145.972C319.889 145.972 298.667 149.476 280.892 137.426C263.118 125.377 301.202 66.0076 230.355 14.5575C203.567 -4.89565 175.889 1.70016 162.189 7.1189C148.488 1.70016 120.81 -4.89565 94.0225 14.5575C23.1749 66.0076 61.2523 125.377 43.4847 137.426C25.7102 149.476 4.48792 145.972 4.48792 145.972L33.7895 176.939L9.15445 198.836L61.6772 215.434L62.6732 247.062C62.6732 247.062 124.021 216.458 149.491 202.625L162.195 202.187L174.9 202.625C200.363 216.458 261.718 247.062 261.718 247.062L262.714 215.434L315.237 198.836L290.601 176.939L319.903 145.972H319.889Z" fill="#130000"/>
<path d="M211.528 203.656C204.535 207.347 196.393 210.036 187.625 211.561C185.786 211.875 183.961 212.16 182.171 212.411C175.143 213.4 168.464 213.887 162.418 213.887C154.799 213.887 146.218 213.114 137.191 211.561C124.146 209.298 112.514 204.457 103.934 197.589C93.904 189.587 88.0465 178.854 88.938 166.345C90.6026 143.117 105.424 137.837 105.424 137.837C87.4475 108.842 90.9161 70.7784 114.304 62.4762C116.094 61.8494 117.822 61.2991 119.493 60.8603C148.774 52.9899 160.022 72.6659 162.411 77.7713C164.926 72.3665 177.358 50.6915 210.504 62.4762C210.567 62.4901 210.616 62.525 210.679 62.5389C233.907 70.9595 237.32 108.919 219.385 137.837C219.385 137.837 234.22 143.117 235.871 166.345C237.02 182.357 227.088 195.465 211.528 203.656Z" fill="#F8B733" stroke="#130000" stroke-miterlimit="10"/>
<path d="M142.415 135.17C142.415 135.17 158.602 147.254 162.307 146.592C166.012 145.931 181.523 134.069 181.523 134.069C181.523 134.069 166.549 142.197 161.966 142.197C156.846 142.197 142.408 135.17 142.408 135.17H142.415Z" fill="#130000"/>
<g style="mix-blend-mode:overlay" opacity="0.3">
<path d="M142.415 135.17C142.415 135.17 158.602 148.828 162.307 148.166C166.012 147.505 181.523 134.069 181.523 134.069C181.523 134.069 166.549 143.772 161.966 143.772C156.846 143.772 142.408 135.17 142.408 135.17H142.415Z" fill="#130000"/>
</g>
<path d="M95.3596 114.003C95.1368 114.602 91.0832 135.351 73.8797 133.366C60.0891 131.778 58.7657 130.183 58.7657 130.183L64.3377 117.186L95.3666 114.003" fill="#414042"/>
<path d="M228.655 114.003C228.655 114.003 236.344 134.954 250.135 133.366C263.926 131.778 265.249 130.183 265.249 130.183L259.677 117.186L228.648 114.003" fill="#414042"/>
<path d="M72.9395 136.89C72.9395 153.885 69.3526 165.941 50.1293 163.928C40.7614 162.946 32.3686 157.263 28.4961 148.675C18.9959 127.592 34.1586 107.108 54.1063 107.108C69.854 107.108 72.9395 121.135 72.9395 136.883V136.89Z" fill="#F8B733" stroke="#130000" stroke-miterlimit="10"/>
<path d="M71.254 131.269C70.7735 128.79 69.7914 126.435 68.3148 124.381C64.512 119.094 56.2515 110.318 45.4558 114.393C33.901 118.76 30.307 130.823 35.4402 139.3C39.0968 145.338 43.4499 147.149 45.6508 147.692C46.1871 147.825 46.612 147.233 46.3264 146.766C44.3484 143.513 39.6122 134.257 46.7374 130.057C54.0575 125.753 66.9636 132.711 70.9336 135.065C71.3933 135.337 71.9645 134.933 71.86 134.403L71.254 131.262V131.269Z" fill="#F98D36"/>
<path d="M53.9253 142.065L58.7659 148.222L66.1139 145.527L61.7539 152.032L66.5945 158.189L59.0584 156.051L54.6914 162.556L54.3989 154.727L46.8628 152.589L54.2178 149.894L53.9253 142.065Z" fill="#F43430"/>
<path d="M251.89 136.89C251.89 153.885 255.477 165.941 274.7 163.928C284.068 162.946 292.461 157.263 296.334 148.675C305.834 127.592 290.671 107.108 270.723 107.108C254.976 107.108 251.89 121.135 251.89 136.883V136.89Z" fill="#F8B733" stroke="#130000" stroke-miterlimit="10"/>
<path d="M253.569 131.269C254.049 128.79 255.031 126.435 256.508 124.381C260.311 119.094 268.571 110.318 279.367 114.393C290.922 118.76 294.516 130.823 289.383 139.3C285.726 145.338 281.373 147.149 279.172 147.692C278.636 147.825 278.211 147.233 278.496 146.766C280.474 143.513 285.211 134.257 278.085 130.057C270.765 125.753 257.859 132.711 253.889 135.065C253.429 135.337 252.858 134.933 252.963 134.403L253.569 131.262V131.269Z" fill="#F98D36"/>
<path d="M270.898 142.065L266.064 148.222L258.709 145.527L263.069 152.032L258.228 158.189L265.764 156.051L270.131 162.556L270.424 154.727L277.96 152.589L270.605 149.894L270.898 142.065Z" fill="#F43430"/>
<path d="M203.268 212.634L257.399 241.95L257.776 213.762L288.602 203.607L252.893 210.377V232.554L203.268 212.634Z" fill="#414042"/>
<path d="M120.914 212.634L66.7825 241.95L66.4064 213.762L35.5795 203.607L71.2958 210.377V232.554L120.914 212.634Z" fill="#414042"/>
<path d="M166.563 71.1824C166.563 71.1824 190.849 41.0799 207.37 50.3921C217.748 56.2357 215.749 63.7996 215.749 63.7996C215.749 63.7996 185.633 49.4866 166.563 71.1894V71.1824Z" fill="#414042"/>
<path d="M287.829 174.313L310.939 150.743L301.836 149.357L305.91 151.531L287.829 174.313Z" fill="#414042"/>
<path d="M35.468 173.895L12.3513 150.332L21.4545 148.939L17.38 151.112L35.468 173.895Z" fill="#414042"/>
<path d="M158.65 71.5514C158.65 71.5514 131.501 42.814 117.843 50.761C107.548 56.7439 109.464 64.1685 109.464 64.1685C109.464 64.1685 139.58 49.8555 158.65 71.5583V71.5514Z" fill="#414042"/>
<path d="M149.672 51.7572C149.672 51.7572 105.696 46.5614 101.879 85.983C94.1548 165.704 38.4282 112.206 38.4282 112.206C38.4282 112.206 64.6164 99.4881 67.7019 62.1768C69.1436 44.7087 122.662 20.3174 123.937 20.3174C125.212 20.3174 149.672 51.7642 149.672 51.7642V51.7572Z" fill="#130000"/>
<path d="M175.15 51.7572C175.15 51.7572 219.127 46.5614 222.944 85.983C230.668 165.704 286.395 112.206 286.395 112.206C286.395 112.206 260.206 99.4881 257.121 62.1768C255.679 44.7087 202.16 20.3174 200.886 20.3174C199.604 20.3174 175.15 51.7642 175.15 51.7642V51.7572Z" fill="#130000"/>
<g style="mix-blend-mode:overlay" opacity="0.5">
<path d="M163.867 140.33C163.867 140.33 162.794 136.353 164.947 135.128C167.099 133.902 179.281 131.715 179.281 132.948C179.281 134.18 165.406 142.176 163.874 140.33H163.867Z" fill="#130000"/>
</g>
<g style="mix-blend-mode:overlay" opacity="0.5">
<path d="M198.065 209.137C201.84 205.634 218.145 194.239 221.53 187.929C229.003 174.013 227.722 163.176 224.608 154.637C220.945 144.593 210.971 143.465 209.745 141.027C208.533 138.575 230.229 114.442 223.104 108.452C217.741 103.946 219.406 87.4596 218.319 79.3175C217.233 71.2033 214.697 69.0651 210.686 62.5459C233.914 70.9665 237.326 108.926 219.392 137.844C219.392 137.844 234.227 143.124 235.878 166.352C237.027 182.364 226.6 198.787 198.065 209.137Z" fill="#130000"/>
</g>
<g style="mix-blend-mode:overlay" opacity="0.5">
<path d="M127.378 209.137C123.603 205.634 107.298 194.239 103.913 187.929C96.4393 174.013 97.7209 163.176 100.834 154.637C104.498 144.593 114.472 143.465 115.697 141.027C116.909 138.575 95.2135 114.442 102.339 108.452C107.702 103.946 106.037 87.4596 107.124 79.3175C108.21 71.2033 110.745 69.0651 114.757 62.5459C91.529 70.9665 88.1162 108.926 106.051 137.844C106.051 137.844 91.2156 143.124 89.5649 166.352C88.4157 182.364 98.8422 198.787 127.378 209.137Z" fill="#130000"/>
</g>
<path d="M262.533 111.175L277.403 105.589L276.031 104.384C276.031 104.384 271.678 97.6004 262.533 111.175Z" fill="#414042"/>
<path d="M60.737 112.909L45.8668 107.323L47.2389 106.118C47.2389 106.118 51.592 99.3346 60.737 112.909Z" fill="#414042"/>
<path d="M134.001 54.9191C134.001 54.9191 133.841 54.9052 133.549 54.8564C133.848 54.8077 134.001 54.8216 134.001 54.9191Z" fill="#F98D36"/>
<path d="M191.037 158.272C191.037 158.272 189.059 167.773 200.538 169.946C200.538 169.946 193.412 167.376 191.037 158.272Z" fill="#130000"/>
<path d="M131.146 158.272C131.146 158.272 133.124 167.773 121.645 169.946C121.645 169.946 128.771 167.376 131.146 158.272Z" fill="#130000"/>
<g style="mix-blend-mode:overlay" opacity="0.5">
<path d="M200.106 115.02C200.823 109.469 200.621 104.377 197.863 101.501C204.347 101.891 210.518 102.33 210.518 102.33C210.518 102.33 194.596 88.4346 174.433 101.201C174.433 101.201 180.088 100.93 186.559 101.013C183.968 102.65 182.282 105.38 182.303 110.472C182.331 116.127 183.118 122.591 187.304 124.255C184.748 125.551 183.369 126.972 183.369 126.972C198.789 122.549 208.331 124.109 208.331 124.109C206.207 123.413 198.789 121.678 197.097 122.222C198.587 120.689 199.667 118.377 200.099 115.027L200.106 115.02Z" fill="#130000"/>
</g>
<g style="mix-blend-mode:overlay" opacity="0.5">
<path d="M126.068 115.02C125.351 109.469 125.553 104.377 128.311 101.501C121.827 101.891 115.656 102.33 115.656 102.33C115.656 102.33 131.578 88.4346 151.741 101.201C151.741 101.201 146.086 100.93 139.615 101.013C142.206 102.65 143.892 105.38 143.871 110.472C143.843 116.127 143.056 122.591 138.87 124.255C141.426 125.551 142.805 126.972 142.805 126.972C127.385 122.549 117.843 124.109 117.843 124.109C119.967 123.413 127.385 121.678 129.077 122.222C127.587 120.689 126.507 118.377 126.075 115.027L126.068 115.02Z" fill="#130000"/>
</g>
<path d="M182.881 109.956C182.909 116.295 183.801 123.657 188.955 124.304C194.102 124.952 198.685 122.849 199.681 114.581C200.6 106.948 199.932 100.171 193.802 98.6941C192.695 98.4294 191.511 98.4433 190.417 98.7777C186.099 100.101 182.846 102.622 182.888 109.963L182.881 109.956Z" fill="#130000"/>
<path d="M175.457 100.568C175.457 100.568 184.254 100.108 192.18 100.547C199.716 100.965 209.508 101.71 209.508 101.71C209.508 101.71 194.485 87.6337 175.457 100.561V100.568Z" fill="#130000"/>
<path d="M194.701 112.129C196.305 112.129 197.605 110.651 197.605 108.828C197.605 107.005 196.305 105.527 194.701 105.527C193.097 105.527 191.797 107.005 191.797 108.828C191.797 110.651 193.097 112.129 194.701 112.129Z" fill="#FAEED5"/>
<path d="M183.891 126.679C183.891 126.679 190.842 118.948 202.432 123.009C202.432 123.009 192.82 123.824 183.891 126.679Z" fill="#130000"/>
<path d="M143.327 109.956C143.299 116.295 142.408 123.657 137.254 124.304C132.1 124.952 127.524 122.849 126.528 114.581C125.609 106.948 126.277 100.171 132.406 98.6941C133.514 98.4294 134.698 98.4433 135.791 98.7777C140.11 100.101 143.362 102.622 143.32 109.963L143.327 109.956Z" fill="#130000"/>
<path d="M150.759 100.568C150.759 100.568 141.962 100.108 134.036 100.547C126.5 100.965 116.707 101.71 116.707 101.71C116.707 101.71 131.731 87.6337 150.759 100.561V100.568Z" fill="#130000"/>
<path d="M131.515 112.129C133.119 112.129 134.419 110.651 134.419 108.828C134.419 107.005 133.119 105.527 131.515 105.527C129.911 105.527 128.61 107.005 128.61 108.828C128.61 110.651 129.911 112.129 131.515 112.129Z" fill="#FAEED5"/>
<path d="M142.324 126.679C142.324 126.679 135.373 118.948 123.784 123.009C123.784 123.009 133.395 123.824 142.324 126.679Z" fill="#130000"/>
<g style="mix-blend-mode:overlay" opacity="0.5">
<path d="M128.583 164.52C128.583 164.52 160.956 186.139 193.587 164.52C193.587 164.52 180.012 180.31 160.043 179.613C150.71 179.286 139.977 175.357 128.576 164.52H128.583Z" fill="#130000"/>
</g>
<path d="M128.583 164.52C128.583 164.52 160.956 182.274 193.587 164.52C193.587 164.52 180.012 177.489 160.043 176.918C150.71 176.653 139.977 173.421 128.576 164.52H128.583Z" fill="#130000"/>
</svg>
