<svg width="610" height="451" viewBox="0 0 610 451" fill="none" xmlns="http://www.w3.org/2000/svg">
<mask id="mask0_184_6194" style="mask-type:luminance" maskUnits="userSpaceOnUse" x="1" y="1" width="608" height="449">
<path d="M383.14 1.81616H227.23C196.124 1.81616 165.834 11.7761 140.795 30.2402L60.5652 89.4075C23.3375 116.856 1.37 160.36 1.37 206.614V245.116C1.37 291.37 23.3444 334.874 60.5652 362.322L140.795 421.49C165.834 439.954 196.117 449.914 227.23 449.914H383.14C414.246 449.914 444.536 439.954 469.575 421.49L549.805 362.322C587.033 334.874 609 291.37 609 245.116V206.614C609 160.36 587.026 116.856 549.805 89.4075L469.575 30.2402C444.536 11.7761 414.253 1.81616 383.14 1.81616Z" fill="white"/>
</mask>
<g mask="url(#mask0_184_6194)">
<path d="M135.397 -29.8813H67.4816V498.334H135.397V-29.8813Z" fill="#025A8B" stroke="#F9D17C" stroke-width="2" stroke-miterlimit="10"/>
<path d="M271.227 -29.8813H203.312V498.334H271.227V-29.8813Z" fill="#025A8B" stroke="#F9D17C" stroke-width="2" stroke-miterlimit="10"/>
<path d="M407.058 -29.8813H339.143V498.334H407.058V-29.8813Z" fill="#025A8B" stroke="#F9D17C" stroke-width="2" stroke-miterlimit="10"/>
<path d="M542.889 -29.8813H474.973V498.334H542.889V-29.8813Z" fill="#025A8B" stroke="#F9D17C" stroke-width="2" stroke-miterlimit="10"/>
<path d="M67.4815 -29.8813H-0.433838V498.334H67.4815V-29.8813Z" fill="#F72D37" stroke="#F9D17C" stroke-width="2" stroke-miterlimit="10"/>
<path d="M203.312 -29.8813H135.397V498.334H203.312V-29.8813Z" fill="#F72D37" stroke="#F9D17C" stroke-width="2" stroke-miterlimit="10"/>
<path d="M339.143 -29.8813H271.227V498.334H339.143V-29.8813Z" fill="#F72D37" stroke="#F9D17C" stroke-width="2" stroke-miterlimit="10"/>
<path d="M474.973 -29.8813H407.058V498.334H474.973V-29.8813Z" fill="#F72D37" stroke="#F9D17C" stroke-width="2" stroke-miterlimit="10"/>
<path d="M610.804 -29.8813H542.889V498.334H610.804V-29.8813Z" fill="#F72D37" stroke="#F9D17C" stroke-width="2" stroke-miterlimit="10"/>
</g>
<path d="M383.14 1.81616H227.23C196.124 1.81616 165.834 11.7761 140.795 30.2402L60.5652 89.4075C23.3375 116.856 1.37 160.36 1.37 206.614V245.116C1.37 291.37 23.3444 334.874 60.5652 362.322L140.795 421.49C165.834 439.954 196.117 449.914 227.23 449.914H383.14C414.246 449.914 444.536 439.954 469.575 421.49L549.805 362.322C587.033 334.874 609 291.37 609 245.116V206.614C609 160.36 587.026 116.856 549.805 89.4075L469.575 30.2402C444.536 11.7761 414.253 1.81616 383.14 1.81616Z" stroke="#F9D17C" stroke-width="2" stroke-miterlimit="10"/>
</svg>
