<svg width="280" height="140" viewBox="0 0 280 140" fill="none" xmlns="http://www.w3.org/2000/svg">
<g clip-path="url(#clip0_346_7401)">
<path d="M59.21 34.88L59.31 34.06C59.86 31.18 60.89 26.59 62.4 20.31C63.02 17.56 63.66 14.73 64.33 11.81C65 8.89 65.52 6.42 65.9 4.39C65.93 4.29 65.95 4.13 65.95 3.93C65.95 3.38 65.71 3.11 65.23 3.11C65.06 3.11 64.6 3.21 63.84 3.42L63.69 3.47C63.45 3.47 63.33 3.35 63.33 3.11C63.33 2.9 63.43 2.75 63.64 2.65C64.46 2.24 65.71 1.72 67.37 1.08C69.03 0.450001 70.16 0.130001 70.74 0.130001C71.25 0.130001 71.64 0.270001 71.9 0.540001C72.16 0.820001 72.23 1.23 72.13 1.78C71.61 4.66 70.28 10.84 68.11 20.32C66.5 27.36 65.55 31.58 65.28 32.99C65.25 33.09 65.23 33.25 65.23 33.45C65.23 34.14 65.56 34.48 66.21 34.48C66.55 34.48 67.09 34.36 67.81 34.12L68.07 34.07C68.28 34.07 68.38 34.17 68.38 34.38C68.38 34.55 68.29 34.69 68.12 34.79C67.23 35.27 66.12 35.73 64.8 36.18C63.48 36.63 62.41 36.85 61.58 36.85C60 36.85 59.21 36.2 59.21 34.89V34.88Z" fill="#F43430" stroke="#130000" stroke-width="0.25" stroke-miterlimit="10"/>
<path d="M74.94 35.5C73.55 34.09 72.86 32.14 72.86 29.63C72.86 27.12 73.51 24.64 74.82 22.19C76.13 19.74 77.92 17.73 80.2 16.17C82.48 14.61 84.98 13.83 87.69 13.83C89.17 13.83 90.42 14.14 91.45 14.76C92.48 15.38 92.99 16.29 92.99 17.49C92.99 19.62 91.7 21.53 89.13 23.23C86.55 24.93 83.16 26.29 78.93 27.32C79 29.48 79.46 31.28 80.32 32.73C81.18 34.17 82.34 34.89 83.82 34.89C85.54 34.89 87.61 33.72 90.05 31.39C90.15 31.29 90.27 31.24 90.41 31.24C90.55 31.24 90.66 31.28 90.74 31.37C90.83 31.46 90.87 31.57 90.87 31.7C90.87 31.8 90.82 31.94 90.72 32.11C89.52 33.48 87.96 34.75 86.03 35.9C84.11 37.05 82.2 37.62 80.32 37.62C78.12 37.62 76.33 36.92 74.94 35.51V35.5ZM84.7 23.3C85.94 22.03 86.55 20.55 86.55 18.87C86.55 17.98 86.38 17.19 86.04 16.5C85.7 15.81 85.11 15.47 84.29 15.47C82.68 15.47 81.44 16.57 80.58 18.77C79.72 20.97 79.17 23.42 78.93 26.13C81.54 25.51 83.46 24.57 84.7 23.3Z" fill="#F43430" stroke="#130000" stroke-width="0.25" stroke-miterlimit="10"/>
<path d="M98.03 36.06C97.21 35.17 96.79 34 96.79 32.56C96.79 32.18 96.86 31.58 97 30.76C97.55 28.12 98.08 25.68 98.6 23.45L100.09 16.76C98.82 16.83 97.81 16.91 97.05 16.99C96.29 17.08 95.66 17.22 95.14 17.43L94.99 17.48C94.92 17.48 94.86 17.44 94.81 17.35C94.76 17.26 94.73 17.19 94.73 17.12C94.73 16.91 94.81 16.76 94.99 16.66C95.71 16.21 96.65 15.73 97.8 15.19C98.95 14.66 99.9 14.32 100.66 14.19C101.04 12.85 101.52 11.71 102.1 10.77C102.68 9.83 103.4 9.01 104.26 8.32C104.77 7.94 105.54 7.51 106.55 7.03C107.56 6.55 108.26 6.31 108.64 6.31C108.81 6.31 108.95 6.35 109.05 6.44C109.15 6.53 109.2 6.64 109.2 6.77C109.2 6.94 109.1 7.08 108.89 7.18C108.58 7.32 108.31 7.57 108.09 7.95C107.87 8.33 107.64 8.97 107.42 9.88C107.2 10.79 106.86 12.26 106.42 14.28L111.83 14.33L113.27 14.38C113.51 14.38 113.63 14.48 113.63 14.69C113.63 14.86 113.53 15 113.32 15.1C112.84 15.41 112.23 15.74 111.49 16.08C110.75 16.42 110.18 16.63 109.77 16.7C109.32 16.8 108.65 16.85 107.76 16.85H105.86L103.44 28.02L103.18 29.1C102.97 30.03 102.8 30.88 102.67 31.65C102.53 32.42 102.46 33.02 102.46 33.43C102.46 34.49 102.99 35.03 104.06 35.03C104.78 35.03 105.6 34.77 106.51 34.26C107.42 33.75 108.18 33.16 108.8 32.51C108.94 32.37 109.09 32.3 109.26 32.3C109.4 32.3 109.52 32.34 109.62 32.43C109.72 32.52 109.77 32.63 109.77 32.76C109.77 32.89 109.7 33.05 109.56 33.22C108.67 34.28 107.47 35.25 105.98 36.1C104.49 36.95 103.07 37.39 101.73 37.39C100.08 37.39 98.85 36.94 98.02 36.05L98.03 36.06Z" fill="#F43430" stroke="#130000" stroke-width="0.25" stroke-miterlimit="10"/>
<path d="M117.7 16.14C117.7 16 117.79 15.9 117.96 15.83C118.92 15.21 119.88 14.22 120.84 12.84C121.8 11.47 122.28 10.08 122.28 8.67C122.28 7.88 122.11 7.14 121.76 6.46C121.66 6.25 121.61 6.07 121.61 5.89C121.61 5.62 121.76 5.38 122.07 5.17C122.82 4.72 123.82 4.24 125.06 3.73C126.3 3.22 127.24 2.96 127.89 2.96C128.27 2.96 128.57 3.15 128.79 3.53C129.01 3.91 129.12 4.41 129.12 5.02C129.12 6.46 128.48 8.08 127.21 9.89C125.94 11.69 124.44 13.24 122.71 14.52C120.98 15.81 119.51 16.45 118.31 16.45C117.9 16.45 117.69 16.35 117.69 16.14H117.7Z" fill="#F43430" stroke="#130000" stroke-width="0.25" stroke-miterlimit="10"/>
<path d="M125.58 36.32C124.38 35.5 123.78 34.52 123.78 33.39C123.78 32.67 124.05 31.97 124.58 31.28C125.11 30.59 125.74 30.04 126.46 29.61C127.18 29.18 127.78 28.97 128.26 28.97C128.64 28.97 128.92 29.07 129.11 29.28C129.3 29.49 129.32 29.74 129.19 30.05C129.02 30.5 128.93 30.94 128.93 31.39C128.93 32.52 129.39 33.53 130.32 34.4C131.25 35.28 132.43 35.71 133.87 35.71C135.48 35.71 136.74 35.43 137.65 34.86C138.56 34.29 139.01 33.57 139.01 32.67C139.01 31.77 138.68 30.91 138.01 30.17C137.34 29.43 136.05 28.65 134.12 27.83C131.89 26.87 130.31 25.87 129.38 24.82C128.45 23.77 127.99 22.63 127.99 21.4C127.99 20.27 128.39 19.16 129.2 18.08C130.01 17 131.06 16.09 132.37 15.35C133.67 14.61 135.01 14.14 136.39 13.93C137.21 13.79 138.16 13.72 139.22 13.72C140.8 13.72 142.09 13.95 143.08 14.41C144.08 14.87 144.57 15.6 144.57 16.6C144.57 17.22 144.35 17.78 143.9 18.3C143.45 18.82 142.92 19.23 142.3 19.54C141.68 19.85 141.12 20 140.6 20C140.12 20 139.79 19.9 139.62 19.69C139.45 19.48 139.41 19.24 139.52 18.97C139.69 18.63 139.78 18.23 139.78 17.79C139.78 16.97 139.48 16.31 138.88 15.81C138.28 15.31 137.46 15.06 136.43 15.06C135.4 15.06 134.54 15.36 133.86 15.96C133.17 16.56 132.83 17.27 132.83 18.1C132.83 18.93 133.1 19.67 133.63 20.34C134.16 21.01 135.23 21.67 136.85 22.32C139.18 23.28 140.78 24.28 141.64 25.33C142.5 26.38 142.93 27.55 142.93 28.86C142.93 30.37 142.38 31.79 141.28 33.13C140.18 34.47 138.68 35.54 136.78 36.35C134.87 37.16 132.81 37.56 130.57 37.56C128.33 37.56 126.78 37.15 125.58 36.32Z" fill="#F43430" stroke="#130000" stroke-width="0.25" stroke-miterlimit="10"/>
<path d="M162.18 16.76C162.18 12.18 161.36 8.21 158.89 4.56C159.3 4.25 160.02 4.15 160.59 4.15C161.16 4.15 161.72 4.25 162.13 4.36C162.59 4.46 163.06 4.46 163.52 4.46C163.88 4.46 164.4 4.31 164.86 3.84C165.12 3.58 165.48 3.07 165.84 3.07C166.15 3.07 166.46 3.48 166.82 3.79C167.23 4.2 167.75 4.46 168.26 4.46C168.72 4.46 169.29 4.41 169.91 4.31C170.73 4.21 171.61 4.16 172.33 4.16C181.29 4.16 186.08 9.87 186.08 19.19C186.08 29.85 182.58 37.16 173.26 37.16C169.97 37.16 167.65 36.54 165.9 35.46C164.87 36.28 163.79 36.7 162.61 36.7C161.43 36.7 158.85 35.88 158.85 32.22C161.94 31.76 162.2 26.51 162.2 24.5V16.78L162.18 16.76ZM169.39 24.48C169.39 29.42 169.39 32.31 172.63 32.31C176.54 32.31 177.67 28.14 177.67 19.28C177.67 12.69 176.38 8.98 172.63 8.98C169.39 8.98 169.39 12.17 169.39 16.75V24.47V24.48Z" fill="#F43430" stroke="#130000" stroke-width="0.25" stroke-miterlimit="10"/>
<path d="M191.64 20.05C191.64 11.66 196.27 4.45 202.5 4.45C203.32 4.45 203.84 4.19 204.25 3.83C204.66 3.47 204.97 3.06 205.28 3.06C205.64 3.06 205.95 3.47 206.26 3.78C206.67 4.19 207.29 4.45 208.11 4.45C214.34 4.45 218.97 11.66 218.97 20.05C218.97 27.88 215.73 37.14 205.28 37.14C194.83 37.14 191.64 27.87 191.64 20.05ZM210.38 19.85C210.38 14.86 210.38 8.99 205.28 8.99C200.18 8.99 200.24 14.86 200.24 19.85C200.24 25.72 200.24 32.31 205.28 32.31C210.32 32.31 210.38 25.72 210.38 19.85Z" fill="#F43430" stroke="#130000" stroke-width="0.25" stroke-miterlimit="10"/>
<path d="M7.59 80.32C6.66 80.01 5.33 79.6 4.5 79.6C3.52 79.6 2.39 79.96 1.26 80.68C0.280005 80.01 0.130005 77.75 1.47 76.51C0.700005 75.89 0.130005 74.4 0.130005 73.11C0.130005 71.26 1.62 69.15 3.37 69.15C4.4 69.15 5.33 69.46 6.1 69.92C5.02 73.94 8.62001 76.3 12.89 76.3C14.8 76.3 16.24 75.58 16.24 73.67C16.24 71.56 14.44 70.32 12.33 69.5C4.76 66.41 0.850005 62.55 0.850005 56.68C0.850005 51.64 4.56 48.29 10.17 48.29C10.74 48.29 11.35 48.14 11.66 47.83C11.92 47.57 12.28 47.06 12.64 47.06C12.95 47.06 13.26 47.47 13.67 47.83C14.29 48.35 15.21 48.45 17.12 48.45C18.82 48.45 20.26 47.99 21.6 47.47C21.86 47.68 22.01 48.14 22.01 48.71C22.01 49.38 21.75 50.15 21.39 50.67C21.18 50.98 21.03 51.24 21.03 51.55C21.03 51.81 21.49 52.48 21.6 52.84C21.91 53.46 22.11 54.64 22.11 55.62C22.11 56.6 21.6 57.68 21.23 58.3C21.02 58.61 20.82 59.07 20.82 59.59C20.82 60.26 21.08 60.88 21.54 61.65C18.71 61.65 15.98 58.72 14.95 56.66C13.61 53.98 12.12 52.85 10.37 52.85C8.83 52.85 7.38 53.57 7.38 55.63C7.38 57.69 9.54 59.7 13.3 61.4C19.99 64.33 23.13 66.65 23.13 72.26C23.13 77.87 18.96 81.17 12.99 81.17C10.47 81.17 8.77 80.81 7.58 80.35L7.59 80.32Z" fill="#F43430" stroke="#130000" stroke-width="0.25" stroke-miterlimit="10"/>
<path d="M28.29 64.05C28.29 55.66 32.92 48.45 39.15 48.45C39.97 48.45 40.49 48.19 40.9 47.83C41.31 47.47 41.62 47.06 41.93 47.06C42.29 47.06 42.6 47.47 42.91 47.78C43.32 48.19 43.94 48.45 44.76 48.45C50.99 48.45 55.62 55.66 55.62 64.05C55.62 71.88 52.38 81.14 41.93 81.14C31.48 81.14 28.29 71.87 28.29 64.05ZM47.03 63.85C47.03 58.86 47.03 52.99 41.93 52.99C36.83 52.99 36.89 58.86 36.89 63.85C36.89 69.72 36.89 76.31 41.93 76.31C46.97 76.31 47.03 69.72 47.03 63.85Z" fill="#F43430" stroke="#130000" stroke-width="0.25" stroke-miterlimit="10"/>
<path d="M69.99 69.15C69.99 72.14 69.99 75.74 72.82 76.2C72.82 79.86 70.76 80.68 69.73 80.68C68.65 80.68 67.82 80.22 67 79.55C66.18 80.22 65.35 80.68 64.27 80.68C63.19 80.68 60.61 79.86 60.61 76.2C63.7 75.74 63.96 70.49 63.96 68.48V60.76C63.96 56.49 62.98 52.32 60.67 48.56C61.29 48.25 61.85 48.15 62.47 48.15C62.98 48.15 63.5 48.25 63.91 48.36C64.37 48.46 64.89 48.46 65.35 48.46C65.86 48.46 66.28 48.15 66.64 47.84C66.9 47.58 67.26 47.07 67.62 47.07C67.93 47.07 68.29 47.58 68.55 47.84C68.86 48.15 69.53 48.46 70.04 48.46C70.5 48.46 70.81 48.46 71.28 48.36C71.69 48.26 72.16 48.15 72.72 48.15C73.34 48.15 73.9 48.25 74.52 48.56C75.34 52.52 77.2 58.08 79.41 62.72C81.73 58.14 83.68 52.68 84.56 48.56C84.92 48.3 85.38 48.15 85.85 48.15C86.26 48.15 86.62 48.25 87.09 48.36C87.5 48.46 87.86 48.46 88.27 48.46C88.78 48.46 89.35 48.15 89.66 47.84C89.92 47.58 90.28 47.07 90.64 47.07C90.95 47.07 91.26 47.48 91.57 47.84C91.88 48.15 92.39 48.46 92.96 48.46C93.53 48.46 93.84 48.46 94.3 48.36C94.71 48.26 95.18 48.15 95.74 48.15C96.36 48.15 96.92 48.25 97.54 48.56C95.22 52.32 94.19 56.49 94.19 60.76V68.48C94.19 70.49 94.5 75.74 97.59 76.2C97.59 79.86 94.96 80.68 93.83 80.68C92.7 80.68 91.51 80.22 90.59 79.55C89.71 80.22 88.58 80.68 87.3 80.68C86.27 80.68 84.31 79.86 84.31 76.2C87.04 75.74 87.04 72.13 87.04 69.15V61.99C87.04 61.42 86.94 61.01 86.83 60.6C82.61 68.58 81.37 76.04 82.25 80.68C80.91 80.68 79.68 80.42 78.54 79.55C77.56 80.43 76.17 80.68 74.68 80.68C75.4 76.3 74.53 68.22 70.35 60.6C70.14 61.48 69.99 62.3 69.99 63.43V69.14V69.15Z" fill="#F43430" stroke="#130000" stroke-width="0.25" stroke-miterlimit="10"/>
<path d="M105.47 60.76C105.47 56.49 104.39 52.37 102.18 48.56C102.8 48.25 103.36 48.15 103.98 48.15C104.49 48.15 105.01 48.25 105.42 48.36C105.88 48.46 106.19 48.46 106.66 48.46C107.17 48.46 107.74 48.25 108.15 47.84C108.41 47.58 108.77 47.07 109.13 47.07C109.44 47.07 109.75 47.33 110.16 47.69C110.57 48.05 111.65 48.46 112.78 48.46C113.76 48.46 114.58 48.25 115.15 47.84C115.72 47.48 116.13 47.07 116.49 47.07C116.8 47.07 117.11 47.33 117.62 47.74C118.24 48.2 119.78 48.46 121.48 48.46C122.87 48.46 124 48.25 124.67 47.95C125.13 47.74 125.65 47.49 125.96 47.49C126.12 47.49 126.27 48.11 126.27 48.73C126.27 49.4 126.01 50.17 125.65 50.69C125.44 51 125.29 51.26 125.29 51.51C125.29 51.76 125.44 52.28 125.7 52.69C125.96 53.15 126.27 54.03 126.27 54.65C126.27 55.73 126.01 56.76 125.65 57.43C125.39 58 125.08 58.67 125.08 59.18C125.08 59.69 125.29 60.26 125.8 61.34C121.89 61.08 119.98 57.38 119.36 55.73C118.64 53.83 117.3 52.49 115.81 52.49C112.67 52.49 112.67 55.73 112.67 59.23C112.67 60.93 113.34 62.63 114.47 62.63C115.35 62.63 115.91 62.12 115.91 61.39C115.91 60.77 115.81 60.05 115.55 59.49C118.69 59.28 119.51 61.14 119.51 62.37C119.51 63.6 119.05 64.38 118.53 65.05C119.04 65.51 119.51 66.29 119.51 67.52C119.51 68.96 118.69 71.07 115.55 70.71C115.81 70.14 115.91 69.42 115.91 68.8C115.91 68.08 115.34 67.62 114.47 67.62C113.44 67.62 112.67 68.08 112.67 69.37C112.67 71.58 112.67 75.96 117.41 75.96C119.88 75.96 122.35 73.8 122.35 71.38C122.35 70.61 122.04 69.73 121.58 69.01C124.31 69.01 127.5 69.89 127.5 73.44C127.5 74.57 126.99 75.81 126.37 76.63C127.09 77.3 127.91 78.38 127.91 80.7C126.42 79.72 125.13 79.46 124.25 79.46C123.32 79.46 122.24 79.82 120.9 80.34C119.51 80.85 118.07 81.16 115.91 81.16C113.23 81.16 110.3 80.28 109.06 79.56C108.18 80.23 107.05 80.69 105.87 80.69C104.69 80.69 102.11 79.87 102.11 76.21C105.2 75.75 105.46 70.5 105.46 68.49V60.77L105.47 60.76Z" fill="#F43430" stroke="#130000" stroke-width="0.25" stroke-miterlimit="10"/>
<path d="M149.96 68.48C149.96 70.49 150.27 75.74 153.36 76.2C153.36 79.86 150.73 80.68 149.55 80.68C148.37 80.68 147.28 80.22 146.36 79.55C145.48 80.22 144.35 80.68 143.17 80.68C141.99 80.68 139.41 79.86 139.41 76.2C142.5 75.74 142.81 70.49 142.81 68.48V60.76C142.81 59.68 142.81 52.47 140.44 52.47C138.84 52.47 138.43 54.58 138.12 57C137.76 60.45 135.96 62.61 132.61 62.61C133.07 61.63 133.28 61.01 133.28 60.45C133.28 59.89 133.13 58.96 132.87 58.34C132.56 57.67 132.05 56.59 132.05 55.61C132.05 54.63 132.26 53.45 132.51 52.83C132.66 52.47 133.13 51.8 133.13 51.54C133.13 51.23 132.98 50.97 132.77 50.66C132.41 50.15 132.15 49.37 132.15 48.7C132.15 48.08 132.3 47.67 132.46 47.41C132.87 47.51 133.44 47.72 134.06 48.03C134.68 48.34 135.45 48.44 136.38 48.44C137.2 48.44 138.13 48.13 138.54 47.67C139 47.26 139.31 47.05 139.52 47.05C139.78 47.05 139.98 47.26 140.4 47.62C141.07 48.19 142.36 48.44 143.18 48.44C144.11 48.44 144.78 48.18 145.24 47.82C145.7 47.51 146.12 47.05 146.37 47.05C146.62 47.05 147.04 47.51 147.5 47.82C147.96 48.18 148.63 48.44 149.56 48.44C150.38 48.44 151.72 48.18 152.34 47.62C152.75 47.26 152.96 47.05 153.22 47.05C153.48 47.05 153.73 47.26 154.2 47.67C154.61 48.13 155.59 48.44 156.36 48.44C157.29 48.44 158.11 48.23 158.68 47.98C159.25 47.67 159.86 47.52 160.28 47.41C160.44 47.67 160.64 48.08 160.64 48.7C160.64 49.37 160.33 50.14 159.97 50.66C159.76 50.97 159.66 51.23 159.66 51.54C159.66 51.8 160.07 52.47 160.23 52.83C160.49 53.45 160.69 54.63 160.69 55.61C160.69 56.59 160.18 57.67 159.87 58.34C159.66 58.96 159.46 59.88 159.46 60.45C159.46 61.02 159.67 61.63 160.13 62.61C156.89 62.61 155.03 60.45 154.62 57C154.36 54.58 153.95 52.47 152.36 52.47C149.99 52.47 149.99 59.68 149.99 60.76V68.48H149.96Z" fill="#F43430" stroke="#130000" stroke-width="0.25" stroke-miterlimit="10"/>
<path d="M176.68 66.63C176.11 66.63 175.8 67.04 175.8 67.35C175.8 71.16 175.9 72.86 176.37 74.09C176.94 75.53 178.33 76.2 179.2 76.2C179.2 79.86 176.58 80.68 175.39 80.68C174.2 80.68 173.13 80.22 172.2 79.55C171.32 80.22 170.19 80.68 169.01 80.68C167.83 80.68 165.25 79.86 165.25 76.2C168.34 75.74 168.6 70.49 168.6 68.48V60.76C168.6 56.49 167.62 52.32 165.31 48.56C165.93 48.25 166.49 48.15 167.11 48.15C167.63 48.15 168.14 48.25 168.55 48.36C169.17 48.46 169.58 48.46 169.99 48.46C170.35 48.46 170.81 48.05 171.23 47.69C171.54 47.38 171.9 47.07 172.21 47.07C172.52 47.07 172.83 47.38 173.09 47.58C173.45 47.89 174.17 48.46 174.63 48.46C175.09 48.46 175.4 48.46 175.87 48.36C176.28 48.26 176.75 48.15 177.31 48.15C177.93 48.15 178.49 48.25 179.11 48.56C177.72 51.7 175.82 56.9 175.82 60.66C175.82 61.23 176.13 61.48 176.7 61.48H184.47C185.04 61.48 185.29 61.22 185.29 60.66C185.29 56.9 183.39 51.7 182 48.56C182.62 48.25 183.18 48.15 183.85 48.15C184.36 48.15 184.88 48.25 185.29 48.36C185.7 48.46 186.06 48.46 186.47 48.46C186.93 48.46 187.55 48.1 187.91 47.79C188.27 47.48 188.58 47.07 188.94 47.07C189.25 47.07 189.56 47.43 189.97 47.74C190.33 48.05 190.79 48.46 191.36 48.46C191.82 48.46 192.13 48.46 192.6 48.36C193.01 48.26 193.48 48.15 193.99 48.15C194.66 48.15 195.23 48.25 195.84 48.56C193.52 52.32 192.49 56.49 192.49 60.76V68.48C192.49 70.49 192.8 75.74 195.89 76.2C195.89 79.86 193.27 80.68 192.08 80.68C190.89 80.68 189.81 80.22 188.94 79.55C187.96 80.22 186.88 80.68 185.7 80.68C184.52 80.68 181.94 79.86 181.94 76.2C182.76 76.2 184.15 75.53 184.72 74.09C185.24 72.85 185.29 71.16 185.29 67.35C185.29 67.04 185.03 66.63 184.47 66.63H176.7H176.68Z" fill="#F43430" stroke="#130000" stroke-width="0.25" stroke-miterlimit="10"/>
<path d="M210.97 68.48C210.97 70.49 211.28 75.74 214.37 76.2C214.37 79.86 211.75 80.68 210.56 80.68C209.37 80.68 208.3 80.22 207.42 79.55C206.49 80.22 205.36 80.68 204.18 80.68C203 80.68 200.42 79.86 200.42 76.2C203.51 75.74 203.77 70.49 203.77 68.48V60.76C203.77 56.49 202.79 52.32 200.48 48.56C201.1 48.25 201.66 48.15 202.28 48.15C202.79 48.15 203.31 48.25 203.72 48.36C204.18 48.46 204.65 48.46 205.16 48.46C205.67 48.46 206.09 48.15 206.45 47.84C206.81 47.48 207.07 47.07 207.43 47.07C207.74 47.07 208.1 47.58 208.36 47.84C208.67 48.15 209.34 48.46 209.85 48.46C210.31 48.46 210.62 48.46 211.09 48.36C211.5 48.26 211.97 48.15 212.53 48.15C213.15 48.15 213.71 48.25 214.33 48.56C212.01 52.32 210.98 56.49 210.98 60.76V68.48H210.97Z" fill="#F43430" stroke="#130000" stroke-width="0.25" stroke-miterlimit="10"/>
<path d="M228.22 68.48C228.22 70.49 228.53 75.74 231.62 76.2C231.62 79.86 228.99 80.68 227.96 80.68C226.88 80.68 226.05 80.22 225.23 79.55C224.41 80.22 223.58 80.68 222.5 80.68C221.42 80.68 218.84 79.86 218.84 76.2C221.93 75.74 222.19 70.49 222.19 68.48V60.76C222.19 56.49 221.21 52.32 218.9 48.56C219.52 48.25 220.08 48.15 220.7 48.15C221.22 48.15 221.73 48.25 222.14 48.36C222.6 48.46 223.17 48.46 223.63 48.46C224.09 48.46 224.51 48.15 224.87 47.84C225.13 47.48 225.49 47.07 225.85 47.07C226.21 47.07 226.57 47.58 226.83 47.84C227.14 48.15 227.81 48.46 228.22 48.46C228.58 48.46 228.99 48.46 229.35 48.36C229.76 48.26 230.17 48.15 230.53 48.15C230.84 48.15 231.25 48.25 231.56 48.46C232.28 51.75 235.37 59.22 238.87 62.72C238.87 58.5 238.36 53.2 236.76 48.15C237.17 48.2 237.58 48.3 237.94 48.36C238.35 48.41 238.71 48.46 239.07 48.46C239.84 48.46 240.56 48.15 240.87 47.84C241.13 47.58 241.49 47.07 241.85 47.07C242.21 47.07 242.57 47.58 242.83 47.84C243.14 48.15 243.71 48.46 244.32 48.46C244.78 48.46 245.09 48.46 245.56 48.36C245.97 48.26 246.59 48.15 247.36 48.15C244.84 53.04 244.79 66.27 244.79 71.11C244.79 73.63 245.2 78.06 245.77 80.69C244.28 80.69 242.63 80.28 241.44 79.56C240.46 80.28 239.07 80.69 237.68 80.69C236.55 75.08 233.56 66.94 228.57 60.61C228.31 61.12 228.21 61.74 228.21 62.31V68.49L228.22 68.48Z" fill="#F43430" stroke="#130000" stroke-width="0.25" stroke-miterlimit="10"/>
<path d="M270.28 71.11C270.28 69.72 269.77 68.49 267.91 67.2C269.15 65.55 272.13 66.07 273.37 67.2C275.07 66.07 277.49 65.45 278.88 67.2C276.77 68.49 276.31 70.6 276.31 72.24C276.31 75.17 276.36 78.83 277.8 80.68C275.64 80.68 273.68 80.37 272.45 79.24C271.21 80.42 268.9 81.14 265.65 81.14C255.82 81.14 253.19 71.87 253.19 64.36C253.19 53.5 258.39 48.3 264 48.3C264.51 48.3 265.03 48.15 265.39 47.84C265.75 47.48 266.11 47.07 266.47 47.07C266.83 47.07 267.19 47.38 267.6 47.74C268.11 48.25 268.89 48.46 270.74 48.46C272.59 48.46 274.34 48.25 275.78 47.58C276.04 47.89 276.19 48.4 276.19 49.02C276.19 49.48 275.88 50.15 275.52 50.67C275.31 50.98 275.21 51.24 275.21 51.55C275.21 51.81 275.67 52.48 275.78 52.84C276.09 53.46 276.3 54.64 276.3 55.62C276.3 56.6 275.84 57.68 275.42 58.3C275.21 58.61 275.01 59.07 275.01 59.54C275.01 60.05 275.22 60.67 275.73 61.65C272.9 61.65 269.91 58.15 269.19 55.73C268.57 53.72 267.85 53 266.82 53C261.78 53 261.78 58.41 261.78 63.76C261.78 71.79 262.45 76.32 266.36 76.32C269.19 76.32 270.27 73.8 270.27 71.12L270.28 71.11Z" fill="#F43430" stroke="#130000" stroke-width="0.25" stroke-miterlimit="10"/>
<path d="M58.05 121.39C58.05 120.57 58.15 119.69 58.36 118.76L59.96 111.29C60.27 110.05 60.77 107.86 61.45 104.7C59.25 104.8 57.62 105.09 56.56 105.58C56.53 105.61 56.46 105.63 56.35 105.63C56.21 105.63 56.14 105.58 56.14 105.48C56.14 105.38 56.23 105.27 56.4 105.17C56.88 104.86 57.47 104.48 58.18 104.04C58.88 103.59 59.58 103.2 60.26 102.86C60.94 102.52 61.53 102.29 62.01 102.19C62.8 99.51 64 97.56 65.61 96.32C66.74 95.43 67.77 94.78 68.7 94.36C68.91 94.26 69.06 94.21 69.16 94.21C69.37 94.21 69.47 94.3 69.47 94.47C69.47 94.64 69.35 94.8 69.11 94.93C68.42 95.27 67.86 95.76 67.41 96.4C66.96 97.03 66.59 98.04 66.28 99.41L66.02 100.65C65.92 101.03 65.8 101.6 65.66 102.35L73.64 102.4C73.85 102.4 73.95 102.47 73.95 102.61C73.95 102.75 73.85 102.87 73.64 102.97C73.13 103.31 72.5 103.67 71.76 104.03C71.02 104.39 70.45 104.61 70.04 104.67C69.59 104.77 68.67 104.82 67.26 104.82H65.1L62.68 116.04C62.34 117.65 62.17 119.04 62.17 120.21C62.17 121.24 62.33 122.04 62.66 122.6C62.99 123.16 63.58 123.45 64.44 123.45C65.13 123.45 65.9 123.17 66.76 122.6C67.62 122.03 68.39 121.41 69.08 120.72C69.25 120.55 69.39 120.46 69.49 120.46C69.7 120.46 69.8 120.58 69.8 120.82C69.8 120.92 69.75 121.06 69.65 121.23C68.69 122.36 67.54 123.34 66.2 124.17C64.86 124.99 63.54 125.41 62.24 125.41C59.46 125.41 58.07 124.07 58.07 121.39H58.05Z" fill="#F43430" stroke="#130000" stroke-width="0.25" stroke-miterlimit="10"/>
<path d="M75.07 123.29C73.99 121.85 73.45 119.93 73.45 117.52C73.45 116.52 73.55 115.5 73.76 114.43C74.21 112.27 75.13 110.22 76.54 108.3C77.95 106.38 79.62 104.83 81.56 103.64C83.5 102.45 85.48 101.86 87.51 101.86C89.54 101.86 90.99 102.56 91.96 103.94C92.94 105.33 93.43 107.24 93.43 109.68C93.43 110.61 93.33 111.62 93.12 112.72C92.67 115.02 91.77 117.14 90.42 119.08C89.06 121.02 87.44 122.56 85.55 123.71C83.66 124.86 81.74 125.43 79.78 125.43C77.72 125.43 76.15 124.71 75.07 123.27V123.29ZM86.58 121.95C87.64 121.16 88.45 119.98 89 118.4C89.55 116.82 89.82 115.1 89.82 113.25C89.82 110.68 89.34 108.44 88.38 106.53C87.42 104.63 86.11 103.67 84.47 103.67C83.41 103.67 82.32 104.08 81.23 104.91C80.06 105.77 79.15 107.12 78.5 108.98C77.85 110.83 77.52 112.81 77.52 114.9C77.52 117.34 77.96 119.4 78.83 121.08C79.71 122.76 80.93 123.6 82.51 123.6C83.71 123.6 85.07 123.05 86.58 121.95Z" fill="#F43430" stroke="#130000" stroke-width="0.25" stroke-miterlimit="10"/>
<path d="M93.63 137.99C92.74 137.22 92.29 136.25 92.29 135.08C92.29 133.84 92.75 132.55 93.65 131.19C94.56 129.83 95.91 128.57 97.69 127.4C97.86 127.3 98.02 127.25 98.15 127.25C98.36 127.25 98.46 127.34 98.46 127.51C98.46 127.65 98.37 127.8 98.2 127.97C96.59 129.38 95.78 130.8 95.78 132.24C95.78 133.68 96.36 134.74 97.53 135.53C98.7 136.32 99.97 136.71 101.34 136.71C103.26 136.71 104.82 135.96 106.03 134.47C107.23 132.98 108.12 131.25 108.71 129.3C109.29 127.34 109.84 125.01 110.36 122.3L110.82 119.93C109.34 121.58 107.83 122.91 106.29 123.92C104.75 124.93 103.3 125.44 101.96 125.44C100.52 125.44 99.34 124.8 98.43 123.51C97.52 122.22 97.07 120.41 97.07 118.08C97.07 117.05 97.17 115.95 97.38 114.79C97.76 112.46 98.6 110.29 99.9 108.3C101.2 106.31 102.77 104.73 104.61 103.56C106.45 102.39 108.36 101.81 110.35 101.81C111.31 101.81 112.25 102.02 113.16 102.45C114.07 102.88 114.64 103.52 114.88 104.38C115.22 103.9 115.69 103.45 116.3 103.02C116.9 102.59 117.41 102.38 117.82 102.38C118.3 102.38 118.47 102.72 118.33 103.41L117.09 108.61C115.85 113.79 115.06 117.28 114.72 119.06C113.79 123.66 112.57 127.41 111.06 130.31C109.55 133.21 107.42 135.42 104.68 136.93C103.55 137.55 102.29 138.07 100.92 138.5C99.55 138.93 98.26 139.14 97.06 139.14C95.65 139.14 94.5 138.75 93.61 137.98L93.63 137.99ZM108.72 120.85C110.09 119.36 111.26 117.34 112.22 114.8C112.84 113.29 113.15 111.71 113.15 110.06C113.15 108.17 112.73 106.58 111.89 105.3C111.05 104.02 109.86 103.37 108.31 103.37C106.63 103.37 105.25 103.96 104.17 105.15C103.09 106.33 102.31 107.83 101.83 109.63C101.35 111.43 101.11 113.29 101.11 115.22C101.11 117.86 101.44 119.84 102.11 121.14C102.78 122.44 103.68 123.1 104.81 123.1C106.05 123.1 107.35 122.35 108.72 120.86V120.85Z" fill="#F43430" stroke="#130000" stroke-width="0.25" stroke-miterlimit="10"/>
<path d="M123.54 123.58C122.3 122.26 121.69 120.38 121.69 117.94C121.69 116.81 121.84 115.55 122.15 114.18C122.49 112.57 123.08 111.04 123.93 109.6C124.77 108.16 125.74 106.91 126.84 105.84C128.35 104.36 129.82 103.33 131.24 102.72C132.66 102.11 134.22 101.82 135.9 101.82C137.27 101.82 138.39 102.18 139.25 102.9C140.11 103.62 140.54 104.51 140.54 105.58C140.54 107.64 139.12 109.55 136.27 111.32C133.42 113.09 129.87 114.5 125.61 115.57C125.68 117.9 126.2 119.84 127.18 121.39C128.16 122.93 129.49 123.71 131.17 123.71C132.23 123.71 133.37 123.38 134.57 122.71C135.77 122.04 136.85 121.24 137.81 120.32C137.95 120.18 138.08 120.11 138.22 120.11C138.46 120.11 138.58 120.23 138.58 120.47C138.58 120.61 138.51 120.74 138.37 120.88C137.1 122.29 135.5 123.42 133.58 124.28C131.66 125.14 129.98 125.57 128.53 125.57C126.44 125.57 124.77 124.91 123.54 123.59V123.58ZM133.25 111.45C135.33 110.11 136.37 108.65 136.37 107.07C136.37 106.11 136.05 105.28 135.42 104.57C134.78 103.87 133.95 103.51 132.92 103.51C132.34 103.51 131.76 103.61 131.2 103.82C130.64 104.03 130.18 104.25 129.84 104.49C128.47 105.45 127.42 106.89 126.7 108.82C125.98 110.74 125.62 112.65 125.62 114.53C128.64 113.81 131.19 112.78 133.27 111.44L133.25 111.45Z" fill="#F43430" stroke="#130000" stroke-width="0.25" stroke-miterlimit="10"/>
<path d="M144.86 121.39C144.86 120.57 144.96 119.69 145.17 118.76L146.77 111.29C147.08 110.05 147.58 107.86 148.26 104.7C146.06 104.8 144.43 105.09 143.37 105.58C143.34 105.61 143.27 105.63 143.16 105.63C143.02 105.63 142.95 105.58 142.95 105.48C142.95 105.38 143.04 105.27 143.21 105.17C143.69 104.86 144.28 104.48 144.99 104.04C145.69 103.59 146.39 103.2 147.07 102.86C147.75 102.52 148.34 102.29 148.82 102.19C149.61 99.51 150.81 97.56 152.42 96.32C153.55 95.43 154.58 94.78 155.51 94.36C155.72 94.26 155.87 94.21 155.97 94.21C156.18 94.21 156.28 94.3 156.28 94.47C156.28 94.64 156.16 94.8 155.92 94.93C155.23 95.27 154.67 95.76 154.22 96.4C153.77 97.03 153.4 98.04 153.09 99.41L152.83 100.65C152.73 101.03 152.61 101.6 152.47 102.35L160.45 102.4C160.66 102.4 160.76 102.47 160.76 102.61C160.76 102.75 160.66 102.87 160.45 102.97C159.94 103.31 159.31 103.67 158.57 104.03C157.83 104.39 157.26 104.61 156.85 104.67C156.4 104.77 155.48 104.82 154.07 104.82H151.91L149.49 116.04C149.15 117.65 148.98 119.04 148.98 120.21C148.98 121.24 149.14 122.04 149.47 122.6C149.8 123.16 150.39 123.45 151.25 123.45C151.94 123.45 152.71 123.17 153.57 122.6C154.43 122.03 155.2 121.41 155.89 120.72C156.06 120.55 156.2 120.46 156.3 120.46C156.51 120.46 156.61 120.58 156.61 120.82C156.61 120.92 156.56 121.06 156.46 121.23C155.5 122.36 154.35 123.34 153.01 124.17C151.67 124.99 150.35 125.41 149.05 125.41C146.27 125.41 144.88 124.07 144.88 121.39H144.86Z" fill="#F43430" stroke="#130000" stroke-width="0.25" stroke-miterlimit="10"/>
<path d="M160.67 124.37C160.67 124.16 160.72 123.85 160.82 123.42C160.92 122.99 161.04 122.52 161.18 122C162.21 117.92 163.51 112.57 165.09 105.96C166.67 99.35 167.67 94.9 168.08 92.6C168.11 92.43 168.13 92.21 168.13 91.93C168.13 91.21 167.8 90.85 167.15 90.85C166.88 90.85 166.45 90.94 165.86 91.11L165.71 91.16C165.61 91.16 165.56 91.1 165.56 90.98C165.56 90.86 165.63 90.77 165.77 90.7C166.73 90.15 167.83 89.58 169.06 88.97C170.3 88.37 171.2 88.07 171.79 88.07C172.24 88.07 172.46 88.36 172.46 88.95C172.46 89.33 172.43 89.65 172.36 89.93C171.78 92.54 170.87 96.57 169.63 102.03C168.39 107.49 167.64 110.66 167.36 111.56C168.49 109.88 169.85 108.27 171.43 106.75C173.01 105.22 174.6 104 176.22 103.09C177.83 102.18 179.21 101.73 180.34 101.73C182.12 101.73 183.02 102.88 183.02 105.18C183.02 106.28 182.83 107.51 182.45 108.89C182.28 109.54 182.1 110.19 181.91 110.82C181.72 111.45 181.54 112.1 181.37 112.75C180.37 116.04 179.7 118.77 179.36 120.94C179.29 121.42 179.36 121.82 179.59 122.12C179.81 122.43 180.18 122.58 180.7 122.58C181.01 122.58 181.42 122.5 181.94 122.32L182.15 122.27C182.29 122.27 182.35 122.33 182.33 122.45C182.31 122.57 182.24 122.66 182.1 122.73C179.46 124.17 177.64 124.89 176.64 124.89C176.12 124.89 175.73 124.74 175.46 124.43C175.18 124.12 175.05 123.66 175.05 123.04C175.08 122.7 175.12 122.35 175.15 122.01C175.49 120.16 175.85 118.5 176.23 117.04C176.61 115.58 177.12 113.84 177.77 111.81L178.34 109.9C178.72 108.66 178.91 107.6 178.91 106.71C178.91 105.23 178.36 104.5 177.26 104.5C176.26 104.5 175.04 105.05 173.58 106.15C172.12 107.25 170.75 108.68 169.46 110.45C168.17 112.22 167.25 114.03 166.71 115.88L165.32 121.08C165.01 122.28 164.65 123.12 164.24 123.6C163.83 124.08 163.07 124.49 161.97 124.84C161.66 124.94 161.42 124.99 161.25 124.99C160.87 124.99 160.68 124.78 160.68 124.37H160.67Z" fill="#F43430" stroke="#130000" stroke-width="0.25" stroke-miterlimit="10"/>
<path d="M189.4 123.58C188.16 122.26 187.55 120.38 187.55 117.94C187.55 116.81 187.7 115.55 188.01 114.18C188.35 112.57 188.94 111.04 189.79 109.6C190.63 108.16 191.6 106.91 192.7 105.84C194.21 104.36 195.68 103.33 197.1 102.72C198.52 102.11 200.08 101.82 201.76 101.82C203.13 101.82 204.25 102.18 205.11 102.9C205.97 103.62 206.4 104.51 206.4 105.58C206.4 107.64 204.98 109.55 202.13 111.32C199.28 113.09 195.73 114.5 191.47 115.57C191.54 117.9 192.06 119.84 193.04 121.39C194.02 122.93 195.35 123.71 197.03 123.71C198.09 123.71 199.23 123.38 200.43 122.71C201.63 122.04 202.71 121.24 203.67 120.32C203.81 120.18 203.94 120.11 204.08 120.11C204.32 120.11 204.44 120.23 204.44 120.47C204.44 120.61 204.37 120.74 204.23 120.88C202.96 122.29 201.36 123.42 199.44 124.28C197.52 125.14 195.84 125.57 194.39 125.57C192.3 125.57 190.63 124.91 189.4 123.59V123.58ZM199.1 111.45C201.18 110.11 202.22 108.65 202.22 107.07C202.22 106.11 201.9 105.28 201.27 104.57C200.63 103.87 199.8 103.51 198.77 103.51C198.19 103.51 197.61 103.61 197.05 103.82C196.49 104.03 196.03 104.25 195.69 104.49C194.32 105.45 193.27 106.89 192.55 108.82C191.83 110.74 191.47 112.65 191.47 114.53C194.49 113.81 197.04 112.78 199.12 111.44L199.1 111.45Z" fill="#F43430" stroke="#130000" stroke-width="0.25" stroke-miterlimit="10"/>
<path d="M208.55 124.32C208.55 124.08 208.7 123.31 209.01 122C209.11 121.66 209.63 119.79 210.55 116.39C211.24 114.09 211.79 112.17 212.2 110.62C212.61 109.07 212.95 107.53 213.23 105.99C213.26 105.82 213.28 105.65 213.28 105.48C213.28 104.66 212.87 104.24 212.04 104.24C211.56 104.24 211.06 104.36 210.55 104.6C210.51 104.64 210.46 104.65 210.4 104.65C210.3 104.65 210.24 104.58 210.22 104.44C210.2 104.3 210.26 104.22 210.4 104.18C211.33 103.67 212.32 103.18 213.39 102.74C214.45 102.29 215.3 102.07 215.91 102.07C216.91 102.07 217.4 102.67 217.4 103.87L217.3 104.95C217.09 106.29 216.65 108.06 215.96 110.25C217.26 108.09 218.65 106.26 220.13 104.77C221.61 103.28 222.98 102.27 224.25 101.76C224.76 101.55 225.26 101.45 225.74 101.45C226.36 101.45 226.86 101.6 227.23 101.89C227.61 102.18 227.8 102.59 227.8 103.1C227.8 103.65 227.59 104.2 227.18 104.75C226.49 105.64 225.33 106.62 223.68 107.69C223.64 107.72 223.58 107.74 223.47 107.74C223.36 107.74 223.32 107.69 223.32 107.59C223.32 107.45 223.39 107.32 223.53 107.18C223.87 106.8 224.04 106.36 224.04 105.84C224.04 105.32 223.89 105 223.58 104.86C223.41 104.72 223.15 104.65 222.81 104.65C221.95 104.65 220.93 105.31 219.75 106.63C218.57 107.95 217.48 109.51 216.48 111.29C215.48 113.08 214.83 114.57 214.52 115.77C213.9 118.03 213.46 119.8 213.18 121.07C212.9 122.24 212.56 123.08 212.15 123.59C211.74 124.1 210.98 124.52 209.88 124.83C209.57 124.93 209.31 124.98 209.11 124.98C208.73 124.98 208.54 124.76 208.54 124.31L208.55 124.32Z" fill="#F43430" stroke="#130000" stroke-width="0.25" stroke-miterlimit="10"/>
</g>
<defs>
<clipPath id="clip0_346_7401">
<rect width="279.07" height="139.28" fill="white"/>
</clipPath>
</defs>
</svg>
