<svg width="427" height="316" viewBox="0 0 427 316" fill="none" xmlns="http://www.w3.org/2000/svg">
<path d="M268.17 0H158.83C136.9 0 115.55 7.04 97.91 20.07L41.55 61.74C15.42 81.07 0 111.64 0 144.14V171.56C0 204.06 15.42 234.63 41.55 253.96L97.91 295.63C115.54 308.67 136.9 315.7 158.83 315.7H268.17C290.1 315.7 311.45 308.66 329.09 295.63L385.45 253.96C411.58 234.64 427 204.06 427 171.56V144.14C427 111.64 411.58 81.07 385.45 61.74L329.09 20.07C311.45 7.04 290.1 0 268.17 0Z" fill="white"/>
</svg>
