<svg width="324" height="83" viewBox="0 0 324 83" fill="none" xmlns="http://www.w3.org/2000/svg">
<g clip-path="url(#clip0_348_15155)">
<path d="M19.9099 75.62C17.7299 74.44 15.1699 72.89 12.2199 71.01C11.4899 70.55 11.1199 70.33 10.3899 69.88C9.96993 73.32 9.94993 76.11 10.3099 78.3C10.3499 78.6 10.4299 78.86 10.5299 79.11C10.8099 79.77 11.2499 80.21 11.8599 80.41C12.4699 80.62 13.1399 80.58 13.8599 80.29C14.0799 80.2 14.3199 80.08 14.5799 79.93C14.6199 79.91 14.6399 79.89 14.6699 79.87C14.7799 79.83 14.8499 79.84 14.8799 79.91C14.9199 80 14.8899 80.06 14.8099 80.11C13.4099 81.37 12.2399 82.18 11.2699 82.57C10.1699 83.01 9.45993 82.85 9.12993 82.08C9.03993 81.87 8.97993 81.58 8.95993 81.21C8.88993 80.19 8.91993 78.67 9.05993 76.63C9.10993 75.8 9.14993 74.91 9.18993 73.96C9.22993 73.02 9.22993 72.12 9.20993 71.3C9.19993 70.64 9.11993 70.1 8.94993 69.7C8.66993 69.02 8.13993 68.85 7.35993 69.2C6.87993 69.42 6.25993 69.87 5.49993 70.57C5.47993 70.59 5.43993 70.62 5.36993 70.65C5.27993 70.69 5.20993 70.68 5.17993 70.63C5.13993 70.57 5.15993 70.5 5.22993 70.42C5.64993 69.93 6.21993 69.37 6.94993 68.76C7.67993 68.14 8.39993 67.67 9.10993 67.35C9.97993 66.96 10.6799 66.89 11.1999 67.1C11.7599 67.33 12.4099 67.64 13.1199 68.06C13.8199 68.48 14.7399 69.04 15.8399 69.77C17.4899 70.86 18.8899 71.76 20.0299 72.44C21.1699 73.12 22.2299 73.62 23.2099 73.92C23.2299 73.23 23.2399 72.89 23.2599 72.2C23.3599 69.02 23.3799 66.84 23.2799 65.72C23.2499 65.42 23.1899 65.16 23.0999 64.93C22.8499 64.27 22.4099 63.86 21.7699 63.71C21.1299 63.57 20.4699 63.64 19.7799 63.93C19.4799 64.06 19.1999 64.22 18.9299 64.42C18.8799 64.45 18.8499 64.47 18.7999 64.5C18.6799 64.55 18.6199 64.54 18.5899 64.48C18.5699 64.42 18.5999 64.34 18.6999 64.25C20.2899 62.73 21.5199 61.78 22.3999 61.41C22.9099 61.2 23.3199 61.16 23.6299 61.29C23.9399 61.42 24.1599 61.65 24.2799 61.97C24.4499 62.43 24.5299 63.06 24.5199 63.88C24.5099 64.7 24.4499 65.83 24.3599 67.25C24.2299 69.19 24.1799 70.75 24.1799 71.95C24.1799 73.14 24.3499 74.16 24.6599 75C24.9299 75.7 25.3199 76.21 25.8499 76.51C25.9299 76.58 25.9699 76.64 25.9899 76.67C26.0299 76.78 25.9699 76.89 25.8199 77C25.6699 77.12 25.5199 77.18 25.3699 77.2C23.8999 77.33 22.0799 76.79 19.8999 75.61L19.9099 75.62Z" fill="#130000" stroke="#130000" stroke-width="0.31" stroke-miterlimit="10"/>
<path d="M31.48 74.14C30.53 73.75 29.86 73.02 29.48 71.95C29.32 71.51 29.22 71.02 29.19 70.49C29.13 69.42 29.43 68.27 30.06 67.04C30.69 65.82 31.57 64.69 32.68 63.65C33.8 62.62 35.04 61.84 36.4 61.33C37.74 60.83 38.85 60.78 39.73 61.2C40.6 61.61 41.2299 62.4 41.5999 63.54C41.7399 63.98 41.83 64.48 41.86 65.04C41.92 66.22 41.63 67.43 41.03 68.64C40.42 69.85 39.5799 70.94 38.5099 71.9C37.4399 72.86 36.2499 73.56 34.9599 74.01C33.5999 74.48 32.44 74.53 31.5 74.13L31.48 74.14ZM38.91 70.85C39.49 70.24 39.85 69.51 39.97 68.65C40.09 67.79 40.01 66.92 39.72 66.06C39.32 64.86 38.65 63.93 37.71 63.28C36.77 62.63 35.74 62.52 34.63 62.93C33.91 63.2 33.25 63.67 32.65 64.32C32.01 65.01 31.61 65.85 31.47 66.86C31.33 67.86 31.43 68.83 31.76 69.78C32.15 70.88 32.77 71.7 33.62 72.26C34.47 72.82 35.42 72.91 36.4599 72.55C37.2599 72.27 38.07 71.71 38.91 70.86V70.85Z" fill="#130000" stroke="#130000" stroke-width="0.31" stroke-miterlimit="10"/>
<path d="M47.07 67.83C46.95 67.44 46.88 67 46.88 66.51C46.86 64.94 46.85 64.16 46.83 62.58C46.85 61.92 46.86 60.75 46.85 59.07C45.38 59.63 44.32 60.16 43.67 60.64C43.65 60.66 43.61 60.69 43.54 60.71C43.45 60.74 43.39 60.73 43.38 60.69C43.36 60.64 43.41 60.57 43.51 60.48C43.79 60.22 44.13 59.9 44.54 59.52C44.95 59.14 45.36 58.78 45.77 58.46C46.18 58.13 46.55 57.89 46.86 57.72C47 56.24 47.53 55.01 48.44 54.02C49.08 53.31 49.69 52.75 50.26 52.32C50.39 52.22 50.48 52.16 50.56 52.13C50.7 52.08 50.78 52.1 50.81 52.18C50.84 52.26 50.77 52.37 50.63 52.49C50.21 52.82 49.89 53.2 49.68 53.61C49.47 54.03 49.36 54.61 49.35 55.35V56.01C49.35 56.22 49.35 56.52 49.36 56.92C51.53 56.18 52.62 55.82 54.8 55.11C54.94 55.06 55.02 55.07 55.04 55.14C55.06 55.21 55.01 55.29 54.88 55.39C54.58 55.68 54.2 55.99 53.75 56.34C53.3 56.69 52.93 56.92 52.67 57.05C52.39 57.19 51.76 57.44 50.8 57.76C50.21 57.96 49.92 58.06 49.33 58.26C49.33 60.66 49.34 61.86 49.36 64.24C49.36 65.09 49.46 65.8 49.63 66.36C49.78 66.86 50.01 67.21 50.31 67.41C50.61 67.61 51.05 67.63 51.62 67.45C52.08 67.31 52.55 67.01 53.05 66.55C53.54 66.09 53.97 65.63 54.33 65.15C54.42 65.03 54.5 64.96 54.57 64.94C54.71 64.9 54.79 64.94 54.83 65.05C54.84 65.1 54.83 65.18 54.79 65.28C54.31 66.04 53.68 66.75 52.91 67.43C52.13 68.11 51.31 68.58 50.44 68.85C48.58 69.43 47.45 69.09 47.05 67.81L47.07 67.83Z" fill="#130000" stroke="#130000" stroke-width="0.31" stroke-miterlimit="10"/>
<path d="M58.09 65.98C58.06 65.88 58.05 65.71 58.06 65.48C58.06 65.25 58.08 64.99 58.1 64.7C58.21 62.46 58.33 59.53 58.47 55.87C58.61 52.21 58.68 49.73 58.64 48.48C58.64 48.39 58.62 48.27 58.58 48.13C58.48 47.77 58.2 47.66 57.75 47.81C57.56 47.87 57.28 48.02 56.9 48.24C56.86 48.26 56.84 48.28 56.8 48.3C56.73 48.32 56.69 48.3 56.67 48.25C56.65 48.19 56.69 48.13 56.77 48.06C57.36 47.56 58.03 47.01 58.8 46.42C59.57 45.83 60.16 45.46 60.56 45.33C60.87 45.23 61.06 45.33 61.14 45.62C61.19 45.81 61.21 45.99 61.2 46.14C61.15 47.61 61.08 49.87 60.99 52.91C60.9 55.95 60.83 57.7 60.77 58.21C61.3 57.13 62 56.03 62.87 54.92C63.74 53.81 64.66 52.85 65.64 52.04C66.62 51.23 67.5 50.71 68.28 50.47C69.51 50.1 70.27 50.52 70.57 51.72C70.71 52.29 70.75 52.98 70.67 53.77C70.64 54.14 70.6 54.52 70.56 54.88C70.52 55.25 70.48 55.62 70.45 55.99C70.21 57.9 70.12 59.44 70.18 60.63C70.2 60.89 70.3 61.08 70.49 61.2C70.68 61.32 70.95 61.33 71.3 61.24C71.51 61.18 71.78 61.06 72.1 60.88C72.15 60.85 72.18 60.84 72.23 60.82C72.32 60.79 72.37 60.82 72.38 60.88C72.38 60.95 72.34 61.01 72.26 61.07C70.66 62.3 69.54 63.01 68.86 63.19C68.51 63.29 68.23 63.28 68 63.17C67.77 63.06 67.59 62.83 67.53 62.53C67.5 62.36 67.48 62.17 67.46 61.98C67.44 60.96 67.46 60.04 67.52 59.22C67.58 58.4 67.69 57.4 67.86 56.22C67.91 55.78 67.94 55.56 67.99 55.12C68.08 54.4 68.07 53.82 67.95 53.35C67.75 52.59 67.28 52.32 66.53 52.55C65.85 52.76 65.08 53.3 64.24 54.17C63.39 55.04 62.66 56.06 62.03 57.22C61.4 58.38 61.03 59.49 60.92 60.53C60.84 61.69 60.79 62.27 60.71 63.42C60.67 64.08 60.55 64.58 60.34 64.9C60.13 65.22 59.68 65.58 58.99 65.96C58.8 66.07 58.64 66.15 58.53 66.18C58.28 66.26 58.12 66.19 58.06 65.99L58.09 65.98Z" fill="#130000" stroke="#130000" stroke-width="0.31" stroke-miterlimit="10"/>
<path d="M76.3899 60.02C76.3699 59.83 76.3599 59.73 76.3499 59.54C76.3099 58.88 76.3199 58.14 76.3699 57.33C76.4199 56.52 76.4999 55.72 76.5799 54.95C76.6599 54.22 76.7199 53.45 76.7799 52.65C76.8399 51.85 76.8499 51.13 76.8199 50.47C76.8199 50.37 76.8199 50.28 76.7899 50.19C76.6999 49.81 76.4199 49.68 75.9399 49.81C75.7499 49.86 75.4899 49.99 75.1599 50.18C75.1299 50.18 75.1199 50.19 75.0899 50.2C74.9999 50.23 74.9399 50.21 74.9099 50.15C74.8799 50.09 74.9099 50.03 74.9999 49.96C75.5599 49.55 76.2799 49.04 77.1699 48.44C78.0599 47.84 78.6599 47.5 78.9399 47.42C79.2999 47.32 79.4799 47.45 79.4799 47.8C79.5399 49.04 79.4499 50.9 79.2299 53.37C79.1599 54.25 79.0999 55.14 79.0599 56.05C79.0099 56.96 78.9999 57.71 79.0199 58.31C79.0399 58.4 79.0399 58.51 79.0499 58.59C79.0899 58.97 79.4699 59.15 79.9999 59.02C80.2799 58.95 80.6099 58.79 80.9999 58.53C81.0199 58.51 81.0599 58.48 81.1299 58.47C81.1999 58.45 81.2399 58.48 81.2599 58.55C81.2799 58.62 81.2399 58.69 81.1599 58.75C79.6499 59.89 78.5199 60.55 77.7499 60.75C77.0099 60.94 76.5499 60.69 76.3799 60L76.3899 60.02ZM77.7599 44.02C77.6399 44.06 77.4899 44.02 77.3199 43.91C76.9199 43.61 76.4999 43.33 76.0499 43.05C75.9899 43.03 75.9599 42.99 75.9499 42.93C75.9199 42.82 75.9699 42.71 76.0999 42.59C76.7499 42.1 77.5299 41.55 78.4399 40.95C78.5199 40.91 78.5599 40.9 78.6499 40.86C78.7899 40.82 78.9599 40.84 79.1599 40.92C79.7899 41.21 80.2199 41.48 80.4499 41.73C80.5199 41.83 80.5599 41.9 80.5699 41.93C80.5899 42.01 80.5399 42.09 80.4399 42.18C79.3399 43.03 78.4799 43.63 77.8699 43.96C77.8299 43.98 77.8099 44 77.7699 44.02H77.7599Z" fill="#130000" stroke="#130000" stroke-width="0.31" stroke-miterlimit="10"/>
<path d="M84.7399 58.74C84.7099 58.61 84.7199 58.16 84.7699 57.41C84.8299 56.57 84.9599 55.46 85.1799 54.09C85.5399 51.49 85.7299 49.44 85.7399 47.97C85.7499 47.91 85.7399 47.81 85.7099 47.68C85.6599 47.47 85.5499 47.33 85.3699 47.25C85.1899 47.17 84.9699 47.16 84.7099 47.23C84.3799 47.32 84.0499 47.48 83.7199 47.7C83.6999 47.73 83.6699 47.74 83.6199 47.76C83.5499 47.78 83.5099 47.76 83.4899 47.69C83.4799 47.63 83.5099 47.56 83.5999 47.5C85.2999 46.23 86.4799 45.5 87.1199 45.33C87.8299 45.14 88.2599 45.39 88.4099 46.07C88.4299 46.17 88.4499 46.35 88.4499 46.63C88.4399 47.39 88.3599 48.33 88.2299 49.45C88.2299 49.59 88.2199 49.8 88.1799 50.09C88.6899 49.1 89.3899 48.1 90.2699 47.07C91.1499 46.04 92.0799 45.15 93.0399 44.41C93.9999 43.66 94.8699 43.19 95.6299 43C96.8699 42.69 97.6199 43.2 97.8699 44.5C97.9899 45.1 97.9999 45.83 97.9099 46.66C97.8499 47.22 97.7199 48.06 97.5399 49.16C97.3599 50.26 97.2199 51.14 97.1299 51.81C97.0399 52.48 97.0199 53.2 97.0399 53.96C97.0399 54.22 97.1599 54.42 97.3799 54.57C97.5999 54.71 97.8799 54.75 98.2099 54.68C98.4699 54.62 98.7399 54.51 99.0199 54.32C99.0599 54.3 99.0799 54.29 99.1199 54.27C99.2099 54.25 99.2699 54.27 99.2799 54.36C99.2899 54.45 99.2599 54.51 99.1699 54.57C98.4599 55.07 97.8099 55.5 97.2099 55.87C96.6099 56.24 96.0899 56.48 95.6499 56.57C94.9499 56.72 94.5299 56.47 94.3899 55.79C94.3699 55.55 94.3599 55.44 94.3399 55.2C94.3399 54.13 94.3899 53.17 94.4899 52.3C94.5899 51.43 94.7399 50.37 94.9599 49.1C95.0299 48.63 95.0699 48.4 95.1399 47.93C95.2499 47.11 95.2599 46.49 95.1799 46.07C95.0099 45.24 94.5499 44.92 93.7899 45.1C93.1199 45.27 92.3399 45.79 91.4499 46.65C90.5499 47.52 89.7599 48.55 89.0699 49.73C88.3799 50.91 87.9499 52.04 87.7799 53.11C87.7099 53.57 87.6599 54.14 87.6399 54.84C87.5999 55.39 87.5699 55.66 87.5299 56.2C87.4399 56.92 87.2899 57.43 87.0799 57.76C86.8699 58.09 86.4099 58.43 85.7099 58.8C85.5099 58.91 85.3399 58.98 85.2099 59.01C84.9499 59.07 84.7999 58.98 84.7399 58.74Z" fill="#130000" stroke="#130000" stroke-width="0.31" stroke-miterlimit="10"/>
<path d="M102.18 62.96C101.49 62.63 101.09 62.14 100.96 61.48C100.82 60.78 100.99 59.98 101.46 59.09C101.93 58.2 102.71 57.29 103.8 56.38C103.91 56.3 104.01 56.25 104.1 56.23C104.24 56.2 104.32 56.23 104.34 56.34C104.35 56.42 104.31 56.52 104.21 56.64C103.26 57.67 102.87 58.59 103.02 59.42C103.17 60.23 103.68 60.78 104.56 61.08C105.43 61.39 106.33 61.46 107.26 61.29C108.56 61.06 109.54 60.44 110.2 59.42C110.86 58.4 111.3 57.28 111.5 56.06C111.7 54.84 111.85 53.4 111.94 51.73C111.97 51.15 111.99 50.86 112.03 50.27C111.18 51.44 110.27 52.42 109.32 53.21C108.36 54.01 107.43 54.49 106.52 54.67C105.54 54.86 104.66 54.65 103.91 54.04C103.15 53.43 102.65 52.45 102.4 51.11C102.29 50.52 102.25 49.87 102.26 49.17C102.28 47.78 102.62 46.4 103.32 45.05C104.02 43.7 104.94 42.54 106.11 41.57C107.27 40.6 108.55 39.96 109.95 39.66C110.62 39.51 111.3 39.5 111.98 39.62C112.66 39.74 113.12 40.04 113.37 40.51C113.56 40.18 113.85 39.84 114.23 39.49C114.61 39.15 114.94 38.94 115.23 38.88C115.57 38.81 115.72 38.99 115.69 39.42C115.54 40.74 115.46 41.39 115.31 42.7C114.94 45.96 114.73 48.14 114.66 49.24C114.46 52.09 113.99 54.46 113.24 56.36C112.49 58.25 111.27 59.8 109.57 61C108.87 61.49 108.07 61.95 107.19 62.36C106.31 62.77 105.46 63.05 104.65 63.2C103.7 63.37 102.88 63.3 102.2 62.97L102.18 62.96ZM110.66 51.08C111.45 50.02 112.06 48.68 112.48 47.04C112.76 46.06 112.82 45.08 112.66 44.11C112.48 42.99 112.03 42.11 111.32 41.48C110.61 40.84 109.71 40.65 108.63 40.88C107.45 41.14 106.55 41.7 105.92 42.56C105.29 43.42 104.9 44.4 104.75 45.52C104.6 46.64 104.63 47.75 104.83 48.86C105.11 50.39 105.54 51.48 106.13 52.15C106.72 52.81 107.41 53.07 108.18 52.92C109.03 52.75 109.85 52.15 110.64 51.09L110.66 51.08Z" fill="#130000" stroke="#130000" stroke-width="0.31" stroke-miterlimit="10"/>
<path d="M127.61 49.32C127.61 49.1 127.61 48.99 127.61 48.77C127.63 48.01 127.7 47.18 127.82 46.28C127.94 45.38 128.08 44.48 128.23 43.62C128.37 42.8 128.5 41.94 128.62 41.05C128.75 40.16 128.83 39.34 128.85 38.6C128.86 38.49 128.85 38.38 128.85 38.28C128.79 37.83 128.52 37.65 128.04 37.74C127.85 37.78 127.58 37.88 127.23 38.05C127.2 38.05 127.19 38.05 127.16 38.06C127.06 38.08 127 38.06 126.98 37.98C126.96 37.91 126.99 37.84 127.08 37.78C127.67 37.39 128.43 36.92 129.38 36.37C130.32 35.82 130.94 35.52 131.23 35.47C131.59 35.41 131.76 35.57 131.74 35.97C131.69 37.38 131.45 39.47 131.01 42.21C130.87 43.19 130.73 44.19 130.61 45.21C130.49 46.23 130.41 47.08 130.37 47.75C130.38 47.86 130.37 47.98 130.37 48.07C130.37 48.51 130.74 48.76 131.28 48.68C131.56 48.64 131.91 48.5 132.31 48.26C132.33 48.24 132.38 48.22 132.45 48.21C132.52 48.2 132.56 48.24 132.57 48.32C132.58 48.41 132.54 48.48 132.45 48.53C130.85 49.62 129.67 50.22 128.89 50.33C128.13 50.45 127.7 50.1 127.59 49.3L127.61 49.32ZM130.35 31.46C130.23 31.48 130.08 31.42 129.92 31.28C129.55 30.89 129.15 30.51 128.72 30.13C128.67 30.1 128.63 30.05 128.63 29.98C128.61 29.85 128.67 29.73 128.81 29.62C129.5 29.16 130.33 28.65 131.29 28.09C131.38 28.06 131.42 28.05 131.51 28.02C131.66 27.99 131.83 28.04 132.01 28.15C132.61 28.56 133.02 28.93 133.23 29.24C133.29 29.36 133.33 29.44 133.33 29.48C133.34 29.57 133.29 29.65 133.17 29.74C131.99 30.55 131.09 31.1 130.46 31.39C130.42 31.41 130.4 31.42 130.35 31.44V31.46Z" fill="#130000" stroke="#130000" stroke-width="0.31" stroke-miterlimit="10"/>
<path d="M136.42 49.06C135.6 48.71 135.14 48.21 135.06 47.54C135 47.02 135.17 46.47 135.59 45.89C136 45.3 136.64 44.74 137.5 44.19C137.57 44.14 137.65 44.1 137.74 44.09C137.88 44.07 137.91 44.17 137.81 44.38C137.63 44.74 137.57 45.15 137.63 45.63C137.72 46.39 138.11 47 138.8 47.48C139.49 47.96 140.47 48.12 141.72 47.96C142.93 47.8 143.85 47.44 144.47 46.86C145.1 46.28 145.37 45.63 145.3 44.9C145.23 44.19 144.91 43.59 144.35 43.08C143.79 42.57 142.84 42.13 141.52 41.77C139.92 41.33 138.81 40.9 138.19 40.45C137.58 40 137.23 39.44 137.15 38.77C137.06 37.95 137.31 37.15 137.93 36.39C138.54 35.63 139.38 34.98 140.43 34.44C141.48 33.91 142.59 33.55 143.76 33.37C144.88 33.2 145.86 33.19 146.71 33.33C147.56 33.48 148.02 33.87 148.08 34.52C148.12 34.94 147.93 35.39 147.51 35.87C147.09 36.35 146.63 36.71 146.14 36.96C145.88 37.09 145.76 37.04 145.76 36.84C145.76 35.88 145.36 35.17 144.62 34.78C143.88 34.4 143.05 34.28 142.13 34.42C141.33 34.54 140.71 34.84 140.27 35.3C139.83 35.76 139.64 36.27 139.7 36.84C139.77 37.45 140.04 37.97 140.51 38.4C140.98 38.83 141.85 39.19 143.1 39.51C144.7 39.91 145.82 40.4 146.46 40.96C147.1 41.53 147.46 42.21 147.53 43.01C147.62 43.9 147.31 44.8 146.62 45.71C145.93 46.62 144.96 47.41 143.72 48.06C142.48 48.71 141.14 49.13 139.7 49.32C138.33 49.5 137.23 49.42 136.41 49.07L136.42 49.06Z" fill="#130000" stroke="#130000" stroke-width="0.31" stroke-miterlimit="10"/>
<path d="M159.38 45.3C159.39 45.06 159.4 44.95 159.41 44.71C159.47 43.9 159.58 43.02 159.75 42.05C159.92 41.09 160.11 40.14 160.31 39.23C160.49 38.36 160.67 37.45 160.84 36.51C161.02 35.57 161.14 34.7 161.2 33.9C161.22 33.78 161.22 33.67 161.21 33.55C161.18 33.07 160.92 32.85 160.43 32.91C160.23 32.93 159.96 33.02 159.6 33.18C159.57 33.18 159.56 33.18 159.53 33.18C159.43 33.19 159.38 33.16 159.36 33.08C159.34 33 159.38 32.93 159.47 32.88C160.08 32.51 160.87 32.06 161.84 31.54C162.81 31.02 163.45 30.74 163.74 30.71C164.11 30.67 164.27 30.86 164.22 31.28C164.1 32.78 163.74 35 163.15 37.91C162.95 38.95 162.76 40.01 162.58 41.1C162.4 42.18 162.28 43.09 162.21 43.81C162.21 43.93 162.21 44.05 162.2 44.16C162.18 44.64 162.53 44.93 163.08 44.88C163.37 44.85 163.72 44.73 164.14 44.51C164.16 44.48 164.21 44.47 164.28 44.46C164.35 44.46 164.39 44.5 164.4 44.59C164.41 44.68 164.36 44.76 164.27 44.81C162.61 45.86 161.4 46.42 160.61 46.49C159.85 46.56 159.44 46.16 159.37 45.3H159.38ZM163.1 26.36C162.98 26.38 162.84 26.3 162.68 26.13C162.33 25.69 161.95 25.25 161.55 24.81C161.5 24.77 161.47 24.72 161.46 24.65C161.46 24.51 161.52 24.39 161.66 24.28C162.38 23.84 163.23 23.35 164.22 22.83C164.31 22.8 164.35 22.79 164.44 22.77C164.59 22.75 164.75 22.81 164.94 22.95C165.52 23.44 165.9 23.86 166.1 24.21C166.16 24.34 166.19 24.43 166.19 24.48C166.19 24.57 166.14 24.66 166.02 24.75C164.8 25.53 163.87 26.05 163.22 26.32C163.18 26.34 163.15 26.35 163.11 26.37L163.1 26.36Z" fill="#130000" stroke="#130000" stroke-width="0.31" stroke-miterlimit="10"/>
<path d="M167.78 45.57C167.78 45.43 167.78 45.21 167.83 44.92C167.87 44.62 167.93 44.31 168.01 43.98C168.18 43.12 168.5 41.82 168.9 40.11C169.18 38.91 169.44 37.64 169.72 36.34C170 35.05 170.21 33.87 170.35 32.82C170.37 32.75 170.38 32.63 170.37 32.47C170.36 32.21 170.27 32.02 170.1 31.88C169.93 31.74 169.72 31.69 169.45 31.72C169.13 31.75 168.8 31.87 168.44 32.07C168.42 32.1 168.37 32.11 168.3 32.12C168.23 32.12 168.19 32.09 168.18 31.99C168.17 31.89 168.22 31.83 168.32 31.8C170.19 30.64 171.46 30.03 172.12 29.97C172.83 29.9 173.2 30.27 173.24 31.07C173.23 31.37 173.22 31.52 173.2 31.82C173.11 32.52 172.91 33.64 172.6 35.18C172.54 35.47 172.51 35.61 172.45 35.9C173.46 34.23 174.76 32.69 176.35 31.29C177.94 29.89 179.29 29.13 180.36 29.04C181.54 28.94 182.15 29.7 182.2 31.31C182.22 31.81 182.16 32.44 182.04 33.2C181.92 33.95 181.78 34.55 181.63 35C182.69 33.34 184 31.82 185.57 30.45C187.14 29.08 188.47 28.35 189.55 28.28C190.09 28.24 190.52 28.42 190.83 28.8C191.14 29.18 191.31 29.79 191.32 30.63C191.33 31.36 191.23 32.27 191 33.33C190.82 34.14 190.52 35.22 190.15 36.53C189.78 37.83 189.52 38.86 189.34 39.57C189.16 40.29 189.03 41.09 188.92 41.97C188.88 42.29 188.94 42.55 189.12 42.77C189.29 42.98 189.56 43.08 189.92 43.07C190.23 43.06 190.52 42.99 190.78 42.85C190.8 42.83 190.85 42.81 190.92 42.81C190.99 42.81 191.03 42.85 191.03 42.93C191.03 43.02 190.98 43.1 190.89 43.17C189.21 44.26 187.97 44.81 187.16 44.85C186.42 44.88 186 44.42 186.02 43.59C186.02 43.36 186.05 43.1 186.07 42.86C186.28 41.59 186.49 40.46 186.72 39.46C186.95 38.46 187.25 37.25 187.63 35.82C187.8 35.18 187.89 34.86 188.07 34.23C188.34 33.19 188.47 32.39 188.45 31.83C188.44 31.34 188.34 30.98 188.15 30.75C187.96 30.52 187.72 30.41 187.43 30.43C186.82 30.47 186.05 30.92 185.12 31.77C184.19 32.62 183.31 33.69 182.47 34.96C181.64 36.23 181.04 37.5 180.67 38.77C180.52 39.28 180.36 40 180.21 40.92C180.09 41.55 180.03 41.86 179.91 42.48C179.7 43.33 179.47 43.94 179.21 44.3C178.95 44.66 178.44 44.98 177.69 45.27C177.45 45.35 177.27 45.4 177.12 45.41C176.83 45.43 176.68 45.27 176.67 44.94C176.66 44.7 176.74 44.17 176.92 43.35C177.04 42.82 177.34 41.67 177.82 39.89C178.11 38.8 178.39 37.67 178.66 36.52C178.93 35.37 179.13 34.3 179.27 33.33C179.29 32.97 179.29 32.79 179.31 32.43C179.27 31.5 178.94 31.06 178.31 31.11C177.7 31.16 176.93 31.62 176.02 32.47C175.1 33.32 174.23 34.39 173.41 35.67C172.58 36.95 171.99 38.2 171.62 39.43C171.5 39.87 171.31 40.72 171.07 41.98C170.99 42.42 170.95 42.65 170.88 43.09C170.71 43.95 170.5 44.55 170.26 44.9C170.02 45.25 169.52 45.57 168.77 45.86C168.54 45.95 168.35 46 168.2 46.01C167.94 46.03 167.8 45.89 167.78 45.59V45.57Z" fill="#130000" stroke="#130000" stroke-width="0.31" stroke-miterlimit="10"/>
<path d="M193.01 54.77C192.92 54.69 192.87 54.57 192.86 54.42C192.86 54.35 192.88 54.24 192.93 54.09C193.31 52.69 194.1 48.96 195.37 42.86C196.64 36.75 197.43 32.77 197.68 30.97C197.7 30.85 197.71 30.72 197.71 30.6C197.71 30.3 197.63 30.08 197.47 29.92C197.31 29.77 197.09 29.7 196.83 29.71C196.56 29.72 196.21 29.84 195.77 30.06C195.75 30.09 195.7 30.1 195.62 30.1C195.55 30.1 195.51 30.06 195.51 29.96C195.51 29.86 195.56 29.78 195.66 29.73C196.32 29.38 197.05 29.01 197.86 28.63C198.67 28.25 199.27 28.06 199.66 28.04C200.37 28.01 200.73 28.49 200.73 29.49C200.73 30.11 200.58 30.94 200.29 31.98C201.31 30.69 202.4 29.63 203.54 28.8C204.68 27.97 205.73 27.53 206.66 27.5C207.64 27.46 208.46 27.92 209.09 28.86C209.73 29.8 210.03 31.14 210.01 32.87C210 33.63 209.91 34.46 209.76 35.35C209.48 36.99 208.88 38.57 207.94 40.05C207 41.53 205.9 42.71 204.64 43.6C203.38 44.49 202.16 44.94 200.96 44.95C200.31 44.95 199.72 44.81 199.19 44.51C198.66 44.21 198.21 43.79 197.88 43.25C197.45 45.43 197.23 46.52 196.81 48.69C196.49 50.43 196.25 51.78 196.03 52.67C195.89 53.25 195.66 53.68 195.41 53.9C195.21 54.07 194.86 54.29 194.38 54.53C193.9 54.78 193.57 54.9 193.38 54.91C193.24 54.91 193.12 54.87 193.03 54.78L193.01 54.77ZM203.46 43.52C204.61 42.93 205.51 41.76 206.16 40C206.81 38.24 207.15 36.38 207.17 34.44C207.19 32.62 206.98 31.29 206.55 30.44C206.12 29.6 205.54 29.19 204.83 29.21C204.17 29.23 203.46 29.59 202.71 30.27C201.96 30.95 201.27 31.85 200.62 32.95C199.98 34.06 199.49 35.24 199.19 36.49C198.97 37.39 198.87 38.28 198.87 39.15C198.87 40.54 199.15 41.69 199.69 42.6C200.23 43.51 200.97 43.96 201.9 43.95C202.4 43.95 202.92 43.8 203.44 43.52H203.46Z" fill="#130000" stroke="#130000" stroke-width="0.31" stroke-miterlimit="10"/>
<path d="M213.57 43.24C212.84 42.16 212.49 40.73 212.52 38.95C212.53 38.21 212.62 37.44 212.78 36.65C213.11 35.05 213.81 33.51 214.85 32.07C215.88 30.62 217.11 29.45 218.52 28.54C219.93 27.63 221.37 27.17 222.82 27.16C224.25 27.16 225.29 27.68 225.95 28.74C226.61 29.8 226.89 31.26 226.81 33.12C226.78 33.83 226.67 34.6 226.49 35.43C226.11 37.17 225.4 38.78 224.39 40.23C223.38 41.68 222.2 42.83 220.86 43.67C219.51 44.51 218.17 44.91 216.81 44.89C215.38 44.87 214.3 44.31 213.57 43.23V43.24ZM221.63 42.35C222.39 41.77 222.99 40.88 223.42 39.69C223.85 38.5 224.09 37.2 224.15 35.79C224.23 33.83 223.95 32.13 223.32 30.68C222.69 29.24 221.78 28.52 220.6 28.53C219.84 28.53 219.05 28.86 218.25 29.48C217.4 30.13 216.72 31.16 216.22 32.55C215.72 33.94 215.46 35.42 215.42 36.98C215.38 38.8 215.65 40.34 216.23 41.61C216.81 42.88 217.65 43.52 218.75 43.54C219.59 43.55 220.54 43.16 221.63 42.35Z" fill="#130000" stroke="#130000" stroke-width="0.31" stroke-miterlimit="10"/>
<path d="M228.89 44.49C228.14 43.91 227.78 43.21 227.82 42.4C227.85 41.77 228.12 41.15 228.63 40.53C229.14 39.91 229.87 39.37 230.81 38.9C230.89 38.85 230.97 38.83 231.07 38.83C231.21 38.83 231.22 38.95 231.09 39.19C230.85 39.58 230.72 40.06 230.69 40.64C230.64 41.56 230.92 42.38 231.52 43.09C232.12 43.8 233.05 44.19 234.32 44.25C235.54 44.31 236.51 44.06 237.23 43.49C237.95 42.92 238.34 42.2 238.39 41.32C238.44 40.46 238.24 39.68 237.78 38.96C237.32 38.24 236.46 37.52 235.22 36.82C233.72 35.97 232.7 35.22 232.17 34.56C231.64 33.9 231.4 33.16 231.44 32.34C231.49 31.34 231.89 30.45 232.63 29.66C233.37 28.88 234.31 28.28 235.44 27.86C236.57 27.44 237.73 27.25 238.92 27.27C240.05 27.3 241.03 27.48 241.85 27.83C242.67 28.18 243.05 28.74 242.99 29.52C242.95 30.03 242.69 30.53 242.19 31.01C241.69 31.49 241.18 31.83 240.65 32.02C240.37 32.12 240.26 32.04 240.3 31.81C240.47 30.66 240.2 29.74 239.53 29.13C238.86 28.52 238.07 28.21 237.13 28.19C236.32 28.17 235.65 28.39 235.13 28.85C234.61 29.3 234.34 29.88 234.3 30.57C234.26 31.31 234.44 31.99 234.83 32.6C235.22 33.21 236.01 33.83 237.19 34.45C238.7 35.25 239.72 36.06 240.25 36.86C240.78 37.66 241.01 38.55 240.95 39.52C240.88 40.59 240.42 41.61 239.57 42.56C238.73 43.51 237.63 44.25 236.3 44.78C234.96 45.31 233.57 45.54 232.11 45.47C230.73 45.41 229.66 45.08 228.91 44.5L228.89 44.49Z" fill="#130000" stroke="#130000" stroke-width="0.31" stroke-miterlimit="10"/>
<path d="M244.09 45.3C243.35 44.68 243.02 43.95 243.07 43.12C243.12 42.47 243.4 41.84 243.93 41.22C244.46 40.6 245.2 40.06 246.15 39.6C246.23 39.55 246.31 39.53 246.41 39.53C246.55 39.53 246.56 39.66 246.41 39.9C246.16 40.29 246.02 40.79 245.97 41.38C245.9 42.33 246.15 43.17 246.73 43.92C247.31 44.67 248.23 45.09 249.5 45.19C250.72 45.28 251.69 45.05 252.43 44.49C253.16 43.93 253.58 43.19 253.66 42.29C253.74 41.41 253.56 40.59 253.11 39.85C252.67 39.1 251.83 38.34 250.6 37.57C249.12 36.65 248.12 35.85 247.61 35.16C247.1 34.46 246.88 33.7 246.94 32.86C247.02 31.83 247.44 30.92 248.2 30.14C248.96 29.36 249.92 28.77 251.06 28.37C252.21 27.97 253.37 27.8 254.55 27.87C255.68 27.93 256.66 28.15 257.46 28.53C258.27 28.91 258.63 29.5 258.55 30.3C258.5 30.82 258.22 31.33 257.7 31.81C257.18 32.29 256.66 32.62 256.13 32.81C255.85 32.9 255.74 32.82 255.78 32.58C255.98 31.4 255.73 30.45 255.09 29.8C254.45 29.15 253.65 28.81 252.72 28.76C251.91 28.72 251.24 28.93 250.7 29.38C250.17 29.83 249.88 30.41 249.82 31.12C249.76 31.88 249.92 32.58 250.29 33.22C250.67 33.86 251.44 34.51 252.6 35.19C254.09 36.06 255.09 36.92 255.6 37.76C256.11 38.6 256.32 39.52 256.22 40.51C256.12 41.61 255.63 42.64 254.76 43.59C253.89 44.54 252.78 45.27 251.42 45.78C250.07 46.29 248.67 46.48 247.21 46.38C245.83 46.28 244.77 45.91 244.04 45.3H244.09Z" fill="#130000" stroke="#130000" stroke-width="0.31" stroke-miterlimit="10"/>
<path d="M259.88 45.26C259.94 44.98 259.97 44.84 260.02 44.56C260.24 43.6 260.52 42.56 260.88 41.45C261.23 40.33 261.61 39.24 261.98 38.18C262.33 37.18 262.68 36.12 263.04 35.03C263.4 33.94 263.69 32.92 263.91 31.98C263.95 31.84 263.98 31.71 263.99 31.57C264.05 30.98 263.83 30.67 263.34 30.64C263.14 30.63 262.85 30.68 262.47 30.79C262.44 30.79 262.43 30.79 262.4 30.79C262.3 30.79 262.25 30.73 262.25 30.63C262.25 30.53 262.3 30.46 262.4 30.41C263.07 30.09 263.94 29.73 265 29.31C266.06 28.9 266.74 28.7 267.04 28.72C267.41 28.75 267.53 29.01 267.4 29.51C266.98 31.28 266.19 33.86 265.05 37.23C264.65 38.44 264.26 39.67 263.87 40.93C263.48 42.19 263.18 43.25 262.97 44.1C262.96 44.24 262.91 44.39 262.89 44.51C262.78 45.09 263.06 45.5 263.61 45.56C263.9 45.59 264.27 45.52 264.72 45.34C264.75 45.31 264.8 45.3 264.87 45.31C264.94 45.31 264.97 45.38 264.96 45.49C264.95 45.6 264.89 45.68 264.79 45.73C262.95 46.64 261.65 47.05 260.86 46.97C260.1 46.89 259.77 46.33 259.87 45.28L259.88 45.26ZM267.24 23.36C267.12 23.36 266.99 23.23 266.87 23C266.61 22.39 266.32 21.78 266.01 21.17C265.97 21.11 265.95 21.04 265.96 20.96C265.98 20.79 266.07 20.66 266.23 20.56C267.02 20.19 267.96 19.79 269.04 19.38C269.13 19.37 269.18 19.36 269.27 19.35C269.42 19.35 269.57 19.47 269.73 19.68C270.21 20.39 270.51 20.97 270.63 21.44C270.66 21.61 270.67 21.73 270.67 21.78C270.66 21.89 270.58 21.99 270.45 22.06C269.09 22.73 268.07 23.15 267.37 23.33C267.32 23.34 267.3 23.35 267.25 23.36H267.24Z" fill="#130000" stroke="#130000" stroke-width="0.31" stroke-miterlimit="10"/>
<path d="M270.11 46.81C269.6 45.58 269.45 44.05 269.66 42.22C269.8 41.04 270.06 39.84 270.44 38.62C270.88 37.22 271.65 34.81 272.8 31.4C274.09 27.55 275.14 24.28 275.92 21.6C275.96 21.49 275.99 21.33 276.01 21.14C276.08 20.54 275.87 20.23 275.37 20.19C275.17 20.18 274.87 20.22 274.48 20.34C274.43 20.35 274.41 20.36 274.36 20.37C274.26 20.37 274.22 20.3 274.23 20.19C274.24 20.08 274.3 20 274.41 19.95C274.75 19.8 274.91 19.73 275.25 19.58C276.83 18.87 277.97 18.41 278.69 18.21C278.85 18.19 278.92 18.18 279.08 18.15C279.51 18.18 279.65 18.47 279.51 19C278.85 21.25 277.2 26.26 274.65 33.98C275.89 32.7 277.13 31.7 278.37 30.99C279.6 30.28 280.72 29.97 281.7 30.07C282.69 30.17 283.43 30.8 283.94 31.94C284.44 33.09 284.56 34.64 284.29 36.6C284.16 37.55 283.98 38.42 283.75 39.21C283.18 41.24 282.34 43.03 281.26 44.56C280.18 46.09 278.92 47.25 277.48 48.04C276.05 48.82 274.54 49.11 272.95 48.91C271.57 48.74 270.63 48.04 270.12 46.81H270.11ZM277.95 46.73C278.81 45.83 279.5 44.64 280.04 43.18C280.57 41.72 280.95 40.2 281.16 38.63C281.45 36.43 281.43 34.74 281.09 33.59C280.75 32.44 280.18 31.82 279.39 31.74C278.53 31.65 277.54 32.17 276.44 33.3C275.33 34.43 274.32 36 273.38 38.02C272.87 39.17 272.55 40.38 272.39 41.65C272.2 43.26 272.31 44.66 272.72 45.86C273.13 47.06 273.87 47.72 274.95 47.86C276.09 48 277.09 47.63 277.95 46.72V46.73Z" fill="#130000" stroke="#130000" stroke-width="0.31" stroke-miterlimit="10"/>
<path d="M285.43 48.68C285.47 48.39 285.55 48.06 285.68 47.7C286.41 45.33 287.67 41.58 289.52 36.42C290.3 34.16 291.11 31.83 291.95 29.42C292.79 27.01 293.49 24.96 294.02 23.28C294.07 23.14 294.1 22.99 294.12 22.85C294.21 22.24 294.02 21.91 293.55 21.86C293.3 21.83 292.97 21.89 292.57 22.02C292.54 22.02 292.53 22.02 292.5 22.02C292.43 22.02 292.39 21.96 292.41 21.86C292.42 21.76 292.49 21.68 292.6 21.64C293.07 21.4 293.88 21.03 295.03 20.55C296.19 20.07 296.94 19.85 297.29 19.89C297.69 19.93 297.81 20.22 297.66 20.73C296.88 23.29 295.04 28.61 292.22 36.62C290.33 42 289.12 45.52 288.58 47.22C288.54 47.33 288.5 47.49 288.48 47.69C288.39 48.33 288.61 48.69 289.16 48.77C289.42 48.81 289.8 48.75 290.28 48.58C290.33 48.57 290.35 48.56 290.39 48.55C290.49 48.56 290.52 48.63 290.51 48.75C290.49 48.87 290.43 48.96 290.32 49.03C288.26 49.93 286.92 50.33 286.28 50.24C285.59 50.14 285.31 49.63 285.44 48.7L285.43 48.68Z" fill="#130000" stroke="#130000" stroke-width="0.31" stroke-miterlimit="10"/>
<path d="M295.23 50.5C294.55 49.23 294.37 47.57 294.7 45.49C294.85 44.53 295.13 43.47 295.52 42.34C295.98 41.01 296.6 39.76 297.39 38.62C298.18 37.48 299.04 36.51 299.97 35.71C301.25 34.61 302.45 33.86 303.55 33.49C304.65 33.12 305.81 33.03 307.01 33.21C307.99 33.36 308.74 33.79 309.24 34.51C309.74 35.23 309.91 36.06 309.75 36.98C309.43 38.77 308.13 40.26 305.85 41.45C303.57 42.64 300.88 43.45 297.75 43.9C297.48 45.9 297.58 47.62 298.04 49.05C298.5 50.49 299.31 51.31 300.48 51.51C301.22 51.64 302.05 51.49 302.98 51.06C303.91 50.63 304.78 50.08 305.58 49.4C305.7 49.3 305.8 49.26 305.9 49.27C306.07 49.3 306.13 49.42 306.1 49.63C306.08 49.75 306.01 49.86 305.89 49.96C304.8 51.02 303.52 51.79 302.07 52.29C300.62 52.79 299.4 52.95 298.41 52.78C296.97 52.53 295.91 51.77 295.23 50.5ZM303.71 41.21C305.37 40.29 306.32 39.15 306.56 37.79C306.7 36.96 306.6 36.21 306.25 35.53C305.9 34.85 305.36 34.46 304.63 34.35C304.21 34.29 303.79 34.32 303.35 34.43C302.92 34.55 302.56 34.69 302.28 34.86C301.16 35.54 300.22 36.67 299.44 38.24C298.66 39.81 298.15 41.4 297.89 43.01C300.11 42.72 302.05 42.13 303.7 41.21H303.71Z" fill="#130000" stroke="#130000" stroke-width="0.31" stroke-miterlimit="10"/>
<path d="M310.65 54.57C310.41 54.52 310.29 54.36 310.26 54.07C310.15 53.55 310.1 53.29 309.98 52.76C309.88 52.33 309.83 52.12 309.73 51.69C309.7 51.59 309.69 51.48 309.72 51.36C309.75 51.18 309.83 51.07 309.96 51.04C310.37 50.84 310.87 50.64 311.47 50.45C312.07 50.26 312.6 50.09 313.04 49.96C313.12 49.94 313.18 49.94 313.23 49.95C313.37 49.98 313.54 50.15 313.69 50.46C313.82 50.72 313.92 51.09 314.01 51.53C314.1 51.97 314.15 52.35 314.17 52.66C314.17 52.83 314.17 52.91 314.17 53.08C314.15 53.2 314.07 53.29 313.93 53.36C313.46 53.61 312.93 53.85 312.34 54.09C311.74 54.33 311.23 54.48 310.8 54.55C310.74 54.55 310.71 54.56 310.65 54.57ZM313.43 46.17C314.67 42.18 316.22 36.91 318.1 30.35C318.43 29.26 318.74 28.16 319.06 27.11C319.17 26.73 319.31 26.45 319.45 26.29C319.58 26.13 319.85 25.97 320.2 25.8C320.62 25.6 321.22 25.35 321.98 25.08C322.74 24.81 323.23 24.7 323.46 24.73C323.61 24.75 323.71 24.85 323.77 25.01C323.83 25.18 323.83 25.36 323.79 25.58C323.75 25.72 323.73 25.79 323.68 25.94C322.92 27.72 321.75 30.41 320.16 33.95C317.97 38.85 316.29 42.71 315.16 45.51C315.02 45.83 314.79 46.11 314.44 46.35C314.1 46.6 313.82 46.7 313.6 46.66C313.41 46.62 313.35 46.46 313.43 46.16V46.17Z" fill="#130000" stroke="#130000" stroke-width="0.31" stroke-miterlimit="10"/>
</g>
<g clip-path="url(#clip1_348_15155)">
<path d="M35.8641 41.7353L27.6228 39.3613C24.9841 38.5999 22.587 41.1192 23.4711 43.7176L26.2337 51.84L22.0817 44.3245C20.7551 41.9196 17.2733 42.0087 16.0618 44.4698L12.2784 52.1645L14.6524 43.9233C15.4138 41.2846 12.8945 38.8875 10.2961 39.7716L2.17365 42.5342L9.6892 38.3822C12.0941 37.0556 12.005 33.5738 9.5439 32.3623L1.84913 28.5789L10.0904 30.9529C12.7291 31.7142 15.1262 29.1949 14.2421 26.5966L11.4795 18.4741L15.6315 25.9897C16.9581 28.3945 20.4399 28.3055 21.6513 25.8444L25.4348 18.1496L23.0608 26.3908C22.2994 29.0295 24.8187 31.4267 27.4171 30.5426L35.5395 27.7799L28.024 31.9319C25.6191 33.2586 25.7082 36.7404 28.1693 37.9518L35.8641 41.7353Z" fill="#F43430" stroke="#130000" stroke-width="0.25" stroke-miterlimit="10"/>
</g>
<g clip-path="url(#clip2_348_15155)">
<path d="M72.4779 29.7998L66.6994 26.4709C64.8495 25.404 62.5583 27.0353 62.7324 29.2906L63.276 36.3404L61.5667 29.5451C61.0212 27.371 58.3722 26.849 56.9883 28.6356L52.6647 34.222L56.0268 27.9525C57.1042 25.9453 55.6557 23.574 53.5233 23.8466L46.8577 24.6982L53.3287 22.6179C55.399 21.9538 55.9939 19.1186 54.3638 17.7176L49.2666 13.3403L55.045 16.6693C56.8949 17.7362 59.1862 16.1048 59.012 13.8495L58.4685 6.79974L60.1778 13.5951C60.7232 15.7691 63.3722 16.2911 64.7561 14.5046L69.0797 8.91815L65.7177 15.1877C64.6402 17.1948 66.0888 19.5661 68.2212 19.2935L74.8868 18.442L68.4157 20.5223C66.3454 21.1864 65.7506 24.0215 67.3806 25.4226L72.4779 29.7998Z" fill="#F43430" stroke="#130000" stroke-width="0.25" stroke-miterlimit="10"/>
</g>
<g clip-path="url(#clip3_348_15155)">
<path d="M108.48 21.4643L103.449 18.8713C101.838 18.0403 99.9634 19.3641 100.203 21.1596L100.951 26.7722L99.2255 21.3745C98.6748 19.6476 96.4092 19.2591 95.3096 20.6972L91.8741 25.1941L94.4671 20.1628C95.2981 18.5521 93.9743 16.6773 92.1788 16.9167L86.5662 17.6645L91.9639 15.9395C93.6908 15.3888 94.0793 13.1232 92.6412 12.0235L88.1443 8.58808L93.1756 11.181C94.7863 12.0121 96.6611 10.6882 96.4217 8.89271L95.6739 3.28015L97.3989 8.67783C97.9496 10.4048 100.215 10.7932 101.315 9.35513L104.75 4.85823L102.157 9.88951C101.326 11.5003 102.65 13.375 104.446 13.1356L110.058 12.3878L104.661 14.1129C102.934 14.6636 102.545 16.9292 103.983 18.0288L108.48 21.4643Z" fill="#F43430" stroke="#130000" stroke-width="0.25" stroke-miterlimit="10"/>
</g>
<defs>
<clipPath id="clip0_348_15155">
<rect width="318.96" height="64.96" fill="white" transform="translate(4.99994 18)"/>
</clipPath>
<clipPath id="clip1_348_15155">
<rect width="34.85" height="34.85" fill="white" transform="translate(2.52008 16.7077) rotate(3.47582)"/>
</clipPath>
<clipPath id="clip2_348_15155">
<rect width="27" height="29" fill="white" transform="translate(52.0316 3.84035) rotate(16.4522)"/>
</clipPath>
<clipPath id="clip3_348_15155">
<rect width="23" height="23" fill="white" transform="translate(90.0998 0.98851) rotate(14.6712)"/>
</clipPath>
</defs>
</svg>
