<svg width="319" height="65" viewBox="0 0 319 65" fill="none" xmlns="http://www.w3.org/2000/svg">
<g clip-path="url(#clip0_346_7341)">
<path d="M14.91 57.62C12.73 56.44 10.17 54.89 7.21999 53.01C6.48999 52.55 6.11999 52.33 5.38999 51.88C4.96999 55.32 4.94999 58.11 5.30999 60.3C5.34999 60.6 5.42999 60.86 5.52999 61.11C5.80999 61.77 6.24999 62.21 6.85999 62.41C7.46999 62.62 8.13999 62.58 8.85999 62.29C9.07999 62.2 9.31999 62.08 9.57999 61.93C9.61999 61.91 9.63999 61.89 9.66999 61.87C9.77999 61.83 9.84999 61.84 9.87999 61.91C9.91999 62 9.88999 62.06 9.80999 62.11C8.40999 63.37 7.23999 64.18 6.26999 64.57C5.16999 65.01 4.45999 64.85 4.12999 64.08C4.03999 63.87 3.97999 63.58 3.95999 63.21C3.88999 62.19 3.91999 60.67 4.05999 58.63C4.10999 57.8 4.14999 56.91 4.18999 55.96C4.22999 55.02 4.22999 54.12 4.20999 53.3C4.19999 52.64 4.11999 52.1 3.94999 51.7C3.66999 51.02 3.13999 50.85 2.35999 51.2C1.87999 51.42 1.25999 51.87 0.499994 52.57C0.479994 52.59 0.439994 52.62 0.369994 52.65C0.279994 52.69 0.209994 52.68 0.179994 52.63C0.139994 52.57 0.159994 52.5 0.229994 52.42C0.649994 51.93 1.21999 51.37 1.94999 50.76C2.67999 50.14 3.39999 49.67 4.10999 49.35C4.97999 48.96 5.67999 48.89 6.19999 49.1C6.75999 49.33 7.40999 49.64 8.11999 50.06C8.81999 50.48 9.73999 51.04 10.84 51.77C12.49 52.86 13.89 53.76 15.03 54.44C16.17 55.12 17.23 55.62 18.21 55.92C18.23 55.23 18.24 54.89 18.26 54.2C18.36 51.02 18.38 48.84 18.28 47.72C18.25 47.42 18.19 47.16 18.1 46.93C17.85 46.27 17.41 45.86 16.77 45.71C16.13 45.57 15.47 45.64 14.78 45.93C14.48 46.06 14.2 46.22 13.93 46.42C13.88 46.45 13.85 46.47 13.8 46.5C13.68 46.55 13.62 46.54 13.59 46.48C13.57 46.42 13.6 46.34 13.7 46.25C15.29 44.73 16.52 43.78 17.4 43.41C17.91 43.2 18.32 43.16 18.63 43.29C18.94 43.42 19.16 43.65 19.28 43.97C19.45 44.43 19.53 45.06 19.52 45.88C19.51 46.7 19.45 47.83 19.36 49.25C19.23 51.19 19.18 52.75 19.18 53.95C19.18 55.14 19.35 56.16 19.66 57C19.93 57.7 20.32 58.21 20.85 58.51C20.93 58.58 20.97 58.64 20.99 58.67C21.03 58.78 20.97 58.89 20.82 59C20.67 59.12 20.52 59.18 20.37 59.2C18.9 59.33 17.08 58.79 14.9 57.61L14.91 57.62Z" fill="#130000" stroke="#130000" stroke-width="0.31" stroke-miterlimit="10"/>
<path d="M26.48 56.14C25.53 55.75 24.86 55.02 24.48 53.95C24.32 53.51 24.22 53.02 24.19 52.49C24.13 51.42 24.43 50.27 25.06 49.04C25.69 47.82 26.57 46.69 27.68 45.65C28.8 44.62 30.04 43.84 31.4 43.33C32.74 42.83 33.85 42.78 34.73 43.2C35.6 43.61 36.23 44.4 36.6 45.54C36.74 45.98 36.83 46.48 36.86 47.04C36.92 48.22 36.63 49.43 36.03 50.64C35.42 51.85 34.58 52.94 33.51 53.9C32.44 54.86 31.25 55.56 29.96 56.01C28.6 56.48 27.44 56.53 26.5 56.13L26.48 56.14ZM33.91 52.85C34.49 52.24 34.85 51.51 34.97 50.65C35.09 49.79 35.01 48.92 34.72 48.06C34.32 46.86 33.65 45.93 32.71 45.28C31.77 44.63 30.74 44.52 29.63 44.93C28.91 45.2 28.25 45.67 27.65 46.32C27.01 47.01 26.61 47.85 26.47 48.86C26.33 49.86 26.43 50.83 26.76 51.78C27.15 52.88 27.77 53.7 28.62 54.26C29.47 54.82 30.42 54.91 31.46 54.55C32.26 54.27 33.07 53.71 33.91 52.86V52.85Z" fill="#130000" stroke="#130000" stroke-width="0.31" stroke-miterlimit="10"/>
<path d="M42.07 49.83C41.95 49.44 41.88 49 41.88 48.51C41.86 46.94 41.85 46.16 41.83 44.58C41.85 43.92 41.86 42.75 41.85 41.07C40.38 41.63 39.32 42.16 38.67 42.64C38.65 42.66 38.61 42.69 38.54 42.71C38.45 42.74 38.39 42.73 38.38 42.69C38.36 42.64 38.41 42.57 38.51 42.48C38.79 42.22 39.13 41.9 39.54 41.52C39.95 41.14 40.36 40.78 40.77 40.46C41.18 40.13 41.55 39.89 41.86 39.72C42 38.24 42.53 37.01 43.44 36.02C44.08 35.31 44.69 34.75 45.26 34.32C45.39 34.22 45.48 34.16 45.56 34.13C45.7 34.08 45.78 34.1 45.81 34.18C45.84 34.26 45.77 34.37 45.63 34.49C45.21 34.82 44.89 35.2 44.68 35.61C44.47 36.03 44.36 36.61 44.35 37.35V38.01C44.35 38.22 44.35 38.52 44.36 38.92C46.53 38.18 47.62 37.82 49.8 37.11C49.94 37.06 50.02 37.07 50.04 37.14C50.06 37.21 50.01 37.29 49.88 37.39C49.58 37.68 49.2 37.99 48.75 38.34C48.3 38.69 47.93 38.92 47.67 39.05C47.39 39.19 46.76 39.44 45.8 39.76C45.21 39.96 44.92 40.06 44.33 40.26C44.33 42.66 44.34 43.86 44.36 46.24C44.36 47.09 44.46 47.8 44.63 48.36C44.78 48.86 45.01 49.21 45.31 49.41C45.61 49.61 46.05 49.63 46.62 49.45C47.08 49.31 47.55 49.01 48.05 48.55C48.54 48.09 48.97 47.63 49.33 47.15C49.42 47.03 49.5 46.96 49.57 46.94C49.71 46.9 49.79 46.94 49.83 47.05C49.84 47.1 49.83 47.18 49.79 47.28C49.31 48.04 48.68 48.75 47.91 49.43C47.13 50.11 46.31 50.58 45.44 50.85C43.58 51.43 42.45 51.09 42.05 49.81L42.07 49.83Z" fill="#130000" stroke="#130000" stroke-width="0.31" stroke-miterlimit="10"/>
<path d="M53.09 47.98C53.06 47.88 53.05 47.71 53.06 47.48C53.06 47.25 53.08 46.99 53.1 46.7C53.21 44.46 53.33 41.53 53.47 37.87C53.61 34.21 53.68 31.73 53.64 30.48C53.64 30.39 53.62 30.27 53.58 30.13C53.48 29.77 53.2 29.66 52.75 29.81C52.56 29.87 52.28 30.02 51.9 30.24C51.86 30.26 51.84 30.28 51.8 30.3C51.73 30.32 51.69 30.3 51.67 30.25C51.65 30.19 51.69 30.13 51.77 30.06C52.36 29.56 53.03 29.01 53.8 28.42C54.57 27.83 55.16 27.46 55.56 27.33C55.87 27.23 56.06 27.33 56.14 27.62C56.19 27.81 56.21 27.99 56.2 28.14C56.15 29.61 56.08 31.87 55.99 34.91C55.9 37.95 55.83 39.7 55.77 40.21C56.3 39.13 57 38.03 57.87 36.92C58.74 35.81 59.66 34.85 60.64 34.04C61.62 33.23 62.5 32.71 63.28 32.47C64.51 32.1 65.27 32.52 65.57 33.72C65.71 34.29 65.75 34.98 65.67 35.77C65.64 36.14 65.6 36.52 65.56 36.88C65.52 37.25 65.48 37.62 65.45 37.99C65.21 39.9 65.12 41.44 65.18 42.63C65.2 42.89 65.3 43.08 65.49 43.2C65.68 43.32 65.95 43.33 66.3 43.24C66.51 43.18 66.78 43.06 67.1 42.88C67.15 42.85 67.18 42.84 67.23 42.82C67.32 42.79 67.37 42.82 67.38 42.88C67.38 42.95 67.34 43.01 67.26 43.07C65.66 44.3 64.54 45.01 63.86 45.19C63.51 45.29 63.23 45.28 63 45.17C62.77 45.06 62.59 44.83 62.53 44.53C62.5 44.36 62.48 44.17 62.46 43.98C62.44 42.96 62.46 42.04 62.52 41.22C62.58 40.4 62.69 39.4 62.86 38.22C62.91 37.78 62.94 37.56 62.99 37.12C63.08 36.4 63.07 35.82 62.95 35.35C62.75 34.59 62.28 34.32 61.53 34.55C60.85 34.76 60.08 35.3 59.24 36.17C58.39 37.04 57.66 38.06 57.03 39.22C56.4 40.38 56.03 41.49 55.92 42.53C55.84 43.69 55.79 44.27 55.71 45.42C55.67 46.08 55.55 46.58 55.34 46.9C55.13 47.22 54.68 47.58 53.99 47.96C53.8 48.07 53.64 48.15 53.53 48.18C53.28 48.26 53.12 48.19 53.06 47.99L53.09 47.98Z" fill="#130000" stroke="#130000" stroke-width="0.31" stroke-miterlimit="10"/>
<path d="M71.39 42.02C71.37 41.83 71.36 41.73 71.35 41.54C71.31 40.88 71.32 40.14 71.37 39.33C71.42 38.52 71.5 37.72 71.58 36.95C71.66 36.22 71.72 35.45 71.78 34.65C71.84 33.85 71.85 33.13 71.82 32.47C71.82 32.37 71.82 32.28 71.79 32.19C71.7 31.81 71.42 31.68 70.94 31.81C70.75 31.86 70.49 31.99 70.16 32.18C70.13 32.18 70.12 32.19 70.09 32.2C70 32.23 69.94 32.21 69.91 32.15C69.88 32.09 69.91 32.03 70 31.96C70.56 31.55 71.28 31.04 72.17 30.44C73.06 29.84 73.66 29.5 73.94 29.42C74.3 29.32 74.48 29.45 74.48 29.8C74.54 31.04 74.45 32.9 74.23 35.37C74.16 36.25 74.1 37.14 74.06 38.05C74.01 38.96 74 39.71 74.02 40.31C74.04 40.4 74.04 40.51 74.05 40.59C74.09 40.97 74.47 41.15 75 41.02C75.28 40.95 75.61 40.79 76 40.53C76.02 40.51 76.06 40.48 76.13 40.47C76.2 40.45 76.24 40.48 76.26 40.55C76.28 40.62 76.24 40.69 76.16 40.75C74.65 41.89 73.52 42.55 72.75 42.75C72.01 42.94 71.55 42.69 71.38 42L71.39 42.02ZM72.76 26.02C72.64 26.06 72.49 26.02 72.32 25.91C71.92 25.61 71.5 25.33 71.05 25.05C70.99 25.03 70.96 24.99 70.95 24.93C70.92 24.82 70.97 24.71 71.1 24.59C71.75 24.1 72.53 23.55 73.44 22.95C73.52 22.91 73.56 22.9 73.65 22.86C73.79 22.82 73.96 22.84 74.16 22.92C74.79 23.21 75.22 23.48 75.45 23.73C75.52 23.83 75.56 23.9 75.57 23.93C75.59 24.01 75.54 24.09 75.44 24.18C74.34 25.03 73.48 25.63 72.87 25.96C72.83 25.98 72.81 26 72.77 26.02H72.76Z" fill="#130000" stroke="#130000" stroke-width="0.31" stroke-miterlimit="10"/>
<path d="M79.74 40.74C79.71 40.61 79.72 40.16 79.77 39.41C79.83 38.57 79.96 37.46 80.18 36.09C80.54 33.49 80.73 31.44 80.74 29.97C80.75 29.91 80.74 29.81 80.71 29.68C80.66 29.47 80.55 29.33 80.37 29.25C80.19 29.17 79.97 29.16 79.71 29.23C79.38 29.32 79.05 29.48 78.72 29.7C78.7 29.73 78.67 29.74 78.62 29.76C78.55 29.78 78.51 29.76 78.49 29.69C78.48 29.63 78.51 29.56 78.6 29.5C80.3 28.23 81.48 27.5 82.12 27.33C82.83 27.14 83.26 27.39 83.41 28.07C83.43 28.17 83.45 28.35 83.45 28.63C83.44 29.39 83.36 30.33 83.23 31.45C83.23 31.59 83.22 31.8 83.18 32.09C83.69 31.1 84.39 30.1 85.27 29.07C86.15 28.04 87.08 27.15 88.04 26.41C89 25.66 89.87 25.19 90.63 25C91.87 24.69 92.62 25.2 92.87 26.5C92.99 27.1 93 27.83 92.91 28.66C92.85 29.22 92.72 30.06 92.54 31.16C92.36 32.26 92.22 33.14 92.13 33.81C92.04 34.48 92.02 35.2 92.04 35.96C92.04 36.22 92.16 36.42 92.38 36.57C92.6 36.71 92.88 36.75 93.21 36.68C93.47 36.62 93.74 36.51 94.02 36.32C94.06 36.3 94.08 36.29 94.12 36.27C94.21 36.25 94.27 36.27 94.28 36.36C94.29 36.45 94.26 36.51 94.17 36.57C93.46 37.07 92.81 37.5 92.21 37.87C91.61 38.24 91.09 38.48 90.65 38.57C89.95 38.72 89.53 38.47 89.39 37.79C89.37 37.55 89.36 37.44 89.34 37.2C89.34 36.13 89.39 35.17 89.49 34.3C89.59 33.43 89.74 32.37 89.96 31.1C90.03 30.63 90.07 30.4 90.14 29.93C90.25 29.11 90.26 28.49 90.18 28.07C90.01 27.24 89.55 26.92 88.79 27.1C88.12 27.27 87.34 27.79 86.45 28.65C85.55 29.52 84.76 30.55 84.07 31.73C83.38 32.91 82.95 34.04 82.78 35.11C82.71 35.57 82.66 36.14 82.64 36.84C82.6 37.39 82.57 37.66 82.53 38.2C82.44 38.92 82.29 39.43 82.08 39.76C81.87 40.09 81.41 40.43 80.71 40.8C80.51 40.91 80.34 40.98 80.21 41.01C79.95 41.07 79.8 40.98 79.74 40.74Z" fill="#130000" stroke="#130000" stroke-width="0.31" stroke-miterlimit="10"/>
<path d="M97.18 44.96C96.49 44.63 96.09 44.14 95.96 43.48C95.82 42.78 95.99 41.98 96.46 41.09C96.93 40.2 97.71 39.29 98.8 38.38C98.91 38.3 99.01 38.25 99.1 38.23C99.24 38.2 99.32 38.23 99.34 38.34C99.35 38.42 99.31 38.52 99.21 38.64C98.26 39.67 97.87 40.59 98.02 41.42C98.17 42.23 98.68 42.78 99.56 43.08C100.43 43.39 101.33 43.46 102.26 43.29C103.56 43.06 104.54 42.44 105.2 41.42C105.86 40.4 106.3 39.28 106.5 38.06C106.7 36.84 106.85 35.4 106.94 33.73C106.97 33.15 106.99 32.86 107.03 32.27C106.18 33.44 105.27 34.42 104.32 35.21C103.36 36.01 102.43 36.49 101.52 36.67C100.54 36.86 99.66 36.65 98.91 36.04C98.15 35.43 97.65 34.45 97.4 33.11C97.29 32.52 97.25 31.87 97.26 31.17C97.28 29.78 97.62 28.4 98.32 27.05C99.02 25.7 99.94 24.54 101.11 23.57C102.27 22.6 103.55 21.96 104.95 21.66C105.62 21.51 106.3 21.5 106.98 21.62C107.66 21.74 108.12 22.04 108.37 22.51C108.56 22.18 108.85 21.84 109.23 21.49C109.61 21.15 109.94 20.94 110.23 20.88C110.57 20.81 110.72 20.99 110.69 21.42C110.54 22.74 110.46 23.39 110.31 24.7C109.94 27.96 109.73 30.14 109.66 31.24C109.46 34.09 108.99 36.46 108.24 38.36C107.49 40.25 106.27 41.8 104.57 43C103.87 43.49 103.07 43.95 102.19 44.36C101.31 44.77 100.46 45.05 99.65 45.2C98.7 45.37 97.88 45.3 97.2 44.97L97.18 44.96ZM105.66 33.08C106.45 32.02 107.06 30.68 107.48 29.04C107.76 28.06 107.82 27.08 107.66 26.11C107.48 24.99 107.03 24.11 106.32 23.48C105.61 22.84 104.71 22.65 103.63 22.88C102.45 23.14 101.55 23.7 100.92 24.56C100.29 25.42 99.9 26.4 99.75 27.52C99.6 28.64 99.63 29.75 99.83 30.86C100.11 32.39 100.54 33.48 101.13 34.15C101.72 34.81 102.41 35.07 103.18 34.92C104.03 34.75 104.85 34.15 105.64 33.09L105.66 33.08Z" fill="#130000" stroke="#130000" stroke-width="0.31" stroke-miterlimit="10"/>
<path d="M122.61 31.32C122.61 31.1 122.61 30.99 122.61 30.77C122.63 30.01 122.7 29.18 122.82 28.28C122.94 27.38 123.08 26.48 123.23 25.62C123.37 24.8 123.5 23.94 123.62 23.05C123.75 22.16 123.83 21.34 123.85 20.6C123.86 20.49 123.85 20.38 123.85 20.28C123.79 19.83 123.52 19.65 123.04 19.74C122.85 19.78 122.58 19.88 122.23 20.05C122.2 20.05 122.19 20.05 122.16 20.06C122.06 20.08 122 20.06 121.98 19.98C121.96 19.91 121.99 19.84 122.08 19.78C122.67 19.39 123.43 18.92 124.38 18.37C125.32 17.82 125.94 17.52 126.23 17.47C126.59 17.41 126.76 17.57 126.74 17.97C126.69 19.38 126.45 21.47 126.01 24.21C125.87 25.19 125.73 26.19 125.61 27.21C125.49 28.23 125.41 29.08 125.37 29.75C125.38 29.86 125.37 29.98 125.37 30.07C125.37 30.51 125.74 30.76 126.28 30.68C126.56 30.64 126.91 30.5 127.31 30.26C127.33 30.24 127.38 30.22 127.45 30.21C127.52 30.2 127.56 30.24 127.57 30.32C127.58 30.41 127.54 30.48 127.45 30.53C125.85 31.62 124.67 32.22 123.89 32.33C123.13 32.45 122.7 32.1 122.59 31.3L122.61 31.32ZM125.35 13.46C125.23 13.48 125.08 13.42 124.92 13.28C124.55 12.89 124.15 12.51 123.72 12.13C123.67 12.1 123.63 12.05 123.63 11.98C123.61 11.85 123.67 11.73 123.81 11.62C124.5 11.16 125.33 10.65 126.29 10.09C126.38 10.06 126.42 10.05 126.51 10.02C126.66 9.99 126.83 10.04 127.01 10.15C127.61 10.56 128.02 10.93 128.23 11.24C128.29 11.36 128.33 11.44 128.33 11.48C128.34 11.57 128.29 11.65 128.17 11.74C126.99 12.55 126.09 13.1 125.46 13.39C125.42 13.41 125.4 13.42 125.35 13.44V13.46Z" fill="#130000" stroke="#130000" stroke-width="0.31" stroke-miterlimit="10"/>
<path d="M131.42 31.06C130.6 30.71 130.14 30.21 130.06 29.54C130 29.02 130.17 28.47 130.59 27.89C131 27.3 131.64 26.74 132.5 26.19C132.57 26.14 132.65 26.1 132.74 26.09C132.88 26.07 132.91 26.17 132.81 26.38C132.63 26.74 132.57 27.15 132.63 27.63C132.72 28.39 133.11 29 133.8 29.48C134.49 29.96 135.47 30.12 136.72 29.96C137.93 29.8 138.85 29.44 139.47 28.86C140.1 28.28 140.37 27.63 140.3 26.9C140.23 26.19 139.91 25.59 139.35 25.08C138.79 24.57 137.84 24.13 136.52 23.77C134.92 23.33 133.81 22.9 133.19 22.45C132.58 22 132.23 21.44 132.15 20.77C132.06 19.95 132.31 19.15 132.93 18.39C133.54 17.63 134.38 16.98 135.43 16.44C136.48 15.91 137.59 15.55 138.76 15.37C139.88 15.2 140.86 15.19 141.71 15.33C142.56 15.48 143.02 15.87 143.08 16.52C143.12 16.94 142.93 17.39 142.51 17.87C142.09 18.35 141.63 18.71 141.14 18.96C140.88 19.09 140.76 19.04 140.76 18.84C140.76 17.88 140.36 17.17 139.62 16.78C138.88 16.4 138.05 16.28 137.13 16.42C136.33 16.54 135.71 16.84 135.27 17.3C134.83 17.76 134.64 18.27 134.7 18.84C134.77 19.45 135.04 19.97 135.51 20.4C135.98 20.83 136.85 21.19 138.1 21.51C139.7 21.91 140.82 22.4 141.46 22.96C142.1 23.53 142.46 24.21 142.53 25.01C142.62 25.9 142.31 26.8 141.62 27.71C140.93 28.62 139.96 29.41 138.72 30.06C137.48 30.71 136.14 31.13 134.7 31.32C133.33 31.5 132.23 31.42 131.41 31.07L131.42 31.06Z" fill="#130000" stroke="#130000" stroke-width="0.31" stroke-miterlimit="10"/>
<path d="M154.38 27.3C154.39 27.06 154.4 26.95 154.41 26.71C154.47 25.9 154.58 25.02 154.75 24.05C154.92 23.09 155.11 22.14 155.31 21.23C155.49 20.36 155.67 19.45 155.84 18.51C156.02 17.57 156.14 16.7 156.2 15.9C156.22 15.78 156.22 15.67 156.21 15.55C156.18 15.07 155.92 14.85 155.43 14.91C155.23 14.93 154.96 15.02 154.6 15.18C154.57 15.18 154.56 15.18 154.53 15.18C154.43 15.19 154.38 15.16 154.36 15.08C154.34 15 154.38 14.93 154.47 14.88C155.08 14.51 155.87 14.06 156.84 13.54C157.81 13.02 158.45 12.74 158.74 12.71C159.11 12.67 159.27 12.86 159.22 13.28C159.1 14.78 158.74 17 158.15 19.91C157.95 20.95 157.76 22.01 157.58 23.1C157.4 24.18 157.28 25.09 157.21 25.81C157.21 25.93 157.21 26.05 157.2 26.16C157.18 26.64 157.53 26.93 158.08 26.88C158.37 26.85 158.72 26.73 159.14 26.51C159.16 26.48 159.21 26.47 159.28 26.46C159.35 26.46 159.39 26.5 159.4 26.59C159.41 26.68 159.36 26.76 159.27 26.81C157.61 27.86 156.4 28.42 155.61 28.49C154.85 28.56 154.44 28.16 154.37 27.3H154.38ZM158.1 8.36C157.98 8.38 157.84 8.3 157.68 8.13C157.33 7.69 156.95 7.25 156.55 6.81C156.5 6.77 156.47 6.72 156.46 6.65C156.46 6.51 156.52 6.39 156.66 6.28C157.38 5.84 158.23 5.35 159.22 4.83C159.31 4.8 159.35 4.79 159.44 4.77C159.59 4.75 159.75 4.81 159.94 4.95C160.52 5.44 160.9 5.86 161.1 6.21C161.16 6.34 161.19 6.43 161.19 6.48C161.19 6.57 161.14 6.66 161.02 6.75C159.8 7.53 158.87 8.05 158.22 8.32C158.18 8.34 158.15 8.35 158.11 8.37L158.1 8.36Z" fill="#130000" stroke="#130000" stroke-width="0.31" stroke-miterlimit="10"/>
<path d="M162.78 27.57C162.78 27.43 162.78 27.21 162.83 26.92C162.87 26.62 162.93 26.31 163.01 25.98C163.18 25.12 163.5 23.82 163.9 22.11C164.18 20.91 164.44 19.64 164.72 18.34C165 17.05 165.21 15.87 165.35 14.82C165.37 14.75 165.38 14.63 165.37 14.47C165.36 14.21 165.27 14.02 165.1 13.88C164.93 13.74 164.72 13.69 164.45 13.72C164.13 13.75 163.8 13.87 163.44 14.07C163.42 14.1 163.37 14.11 163.3 14.12C163.23 14.12 163.19 14.09 163.18 13.99C163.17 13.89 163.22 13.83 163.32 13.8C165.19 12.64 166.46 12.03 167.12 11.97C167.83 11.9 168.2 12.27 168.24 13.07C168.23 13.37 168.22 13.52 168.2 13.82C168.11 14.52 167.91 15.64 167.6 17.18C167.54 17.47 167.51 17.61 167.45 17.9C168.46 16.23 169.76 14.69 171.35 13.29C172.94 11.89 174.29 11.13 175.36 11.04C176.54 10.94 177.15 11.7 177.2 13.31C177.22 13.81 177.16 14.44 177.04 15.2C176.92 15.95 176.78 16.55 176.63 17C177.69 15.34 179 13.82 180.57 12.45C182.14 11.08 183.47 10.35 184.55 10.28C185.09 10.24 185.52 10.42 185.83 10.8C186.14 11.18 186.31 11.79 186.32 12.63C186.33 13.36 186.23 14.27 186 15.33C185.82 16.14 185.52 17.22 185.15 18.53C184.78 19.83 184.52 20.86 184.34 21.57C184.16 22.29 184.03 23.09 183.92 23.97C183.88 24.29 183.94 24.55 184.12 24.77C184.29 24.98 184.56 25.08 184.92 25.07C185.23 25.06 185.52 24.99 185.78 24.85C185.8 24.83 185.85 24.81 185.92 24.81C185.99 24.81 186.03 24.85 186.03 24.93C186.03 25.02 185.98 25.1 185.89 25.17C184.21 26.26 182.97 26.81 182.16 26.85C181.42 26.88 181 26.42 181.02 25.59C181.02 25.36 181.05 25.1 181.07 24.86C181.28 23.59 181.49 22.46 181.72 21.46C181.95 20.46 182.25 19.25 182.63 17.82C182.8 17.18 182.89 16.86 183.07 16.23C183.34 15.19 183.47 14.39 183.45 13.83C183.44 13.34 183.34 12.98 183.15 12.75C182.96 12.52 182.72 12.41 182.43 12.43C181.82 12.47 181.05 12.92 180.12 13.77C179.19 14.62 178.31 15.69 177.47 16.96C176.64 18.23 176.04 19.5 175.67 20.77C175.52 21.28 175.36 22 175.21 22.92C175.09 23.55 175.03 23.86 174.91 24.48C174.7 25.33 174.47 25.94 174.21 26.3C173.95 26.66 173.44 26.98 172.69 27.27C172.45 27.35 172.27 27.4 172.12 27.41C171.83 27.43 171.68 27.27 171.67 26.94C171.66 26.7 171.74 26.17 171.92 25.35C172.04 24.82 172.34 23.67 172.82 21.89C173.11 20.8 173.39 19.67 173.66 18.52C173.93 17.37 174.13 16.3 174.27 15.33C174.29 14.97 174.29 14.79 174.31 14.43C174.27 13.5 173.94 13.06 173.31 13.11C172.7 13.16 171.93 13.62 171.02 14.47C170.1 15.32 169.23 16.39 168.41 17.67C167.58 18.95 166.99 20.2 166.62 21.43C166.5 21.87 166.31 22.72 166.07 23.98C165.99 24.42 165.95 24.65 165.88 25.09C165.71 25.95 165.5 26.55 165.26 26.9C165.02 27.25 164.52 27.57 163.77 27.86C163.54 27.95 163.35 28 163.2 28.01C162.94 28.03 162.8 27.89 162.78 27.59V27.57Z" fill="#130000" stroke="#130000" stroke-width="0.31" stroke-miterlimit="10"/>
<path d="M188.01 36.77C187.92 36.69 187.87 36.57 187.86 36.42C187.86 36.35 187.88 36.24 187.93 36.09C188.31 34.69 189.1 30.96 190.37 24.86C191.64 18.75 192.43 14.77 192.68 12.97C192.7 12.85 192.71 12.72 192.71 12.6C192.71 12.3 192.63 12.08 192.47 11.92C192.31 11.77 192.09 11.7 191.83 11.71C191.56 11.72 191.21 11.84 190.77 12.06C190.75 12.09 190.7 12.1 190.62 12.1C190.55 12.1 190.51 12.06 190.51 11.96C190.51 11.86 190.56 11.78 190.66 11.73C191.32 11.38 192.05 11.01 192.86 10.63C193.67 10.25 194.27 10.06 194.66 10.04C195.37 10.01 195.73 10.49 195.73 11.49C195.73 12.11 195.58 12.94 195.29 13.98C196.31 12.69 197.4 11.63 198.54 10.8C199.68 9.97001 200.73 9.53001 201.66 9.50001C202.64 9.46001 203.46 9.92001 204.09 10.86C204.73 11.8 205.03 13.14 205.01 14.87C205 15.63 204.91 16.46 204.76 17.35C204.48 18.99 203.88 20.57 202.94 22.05C202 23.53 200.9 24.71 199.64 25.6C198.38 26.49 197.16 26.94 195.96 26.95C195.31 26.95 194.72 26.81 194.19 26.51C193.66 26.21 193.21 25.79 192.88 25.25C192.45 27.43 192.23 28.52 191.81 30.69C191.49 32.43 191.25 33.78 191.03 34.67C190.89 35.25 190.66 35.68 190.41 35.9C190.21 36.07 189.86 36.29 189.38 36.53C188.9 36.78 188.57 36.9 188.38 36.91C188.24 36.91 188.12 36.87 188.03 36.78L188.01 36.77ZM198.46 25.52C199.61 24.93 200.51 23.76 201.16 22C201.81 20.24 202.15 18.38 202.17 16.44C202.19 14.62 201.98 13.29 201.55 12.44C201.12 11.6 200.54 11.19 199.83 11.21C199.17 11.23 198.46 11.59 197.71 12.27C196.96 12.95 196.27 13.85 195.62 14.95C194.98 16.06 194.49 17.24 194.19 18.49C193.97 19.39 193.87 20.28 193.87 21.15C193.87 22.54 194.15 23.69 194.69 24.6C195.23 25.51 195.97 25.96 196.9 25.95C197.4 25.95 197.92 25.8 198.44 25.52H198.46Z" fill="#130000" stroke="#130000" stroke-width="0.31" stroke-miterlimit="10"/>
<path d="M208.57 25.24C207.84 24.16 207.49 22.73 207.52 20.95C207.53 20.21 207.62 19.44 207.78 18.65C208.11 17.05 208.81 15.51 209.85 14.07C210.88 12.62 212.11 11.45 213.52 10.54C214.93 9.63 216.37 9.17 217.82 9.16C219.25 9.16 220.29 9.68 220.95 10.74C221.61 11.8 221.89 13.26 221.81 15.12C221.78 15.83 221.67 16.6 221.49 17.43C221.11 19.17 220.4 20.78 219.39 22.23C218.38 23.68 217.2 24.83 215.86 25.67C214.51 26.51 213.17 26.91 211.81 26.89C210.38 26.87 209.3 26.31 208.57 25.23V25.24ZM216.63 24.35C217.39 23.77 217.99 22.88 218.42 21.69C218.85 20.5 219.09 19.2 219.15 17.79C219.23 15.83 218.95 14.13 218.32 12.68C217.69 11.24 216.78 10.52 215.6 10.53C214.84 10.53 214.05 10.86 213.25 11.48C212.4 12.13 211.72 13.16 211.22 14.55C210.72 15.94 210.46 17.42 210.42 18.98C210.38 20.8 210.65 22.34 211.23 23.61C211.81 24.88 212.65 25.52 213.75 25.54C214.59 25.55 215.54 25.16 216.63 24.35Z" fill="#130000" stroke="#130000" stroke-width="0.31" stroke-miterlimit="10"/>
<path d="M223.89 26.49C223.14 25.91 222.78 25.21 222.82 24.4C222.85 23.77 223.12 23.15 223.63 22.53C224.14 21.91 224.87 21.37 225.81 20.9C225.89 20.85 225.97 20.83 226.07 20.83C226.21 20.83 226.22 20.95 226.09 21.19C225.85 21.58 225.72 22.06 225.69 22.64C225.64 23.56 225.92 24.38 226.52 25.09C227.12 25.8 228.05 26.19 229.32 26.25C230.54 26.31 231.51 26.06 232.23 25.49C232.95 24.92 233.34 24.2 233.39 23.32C233.44 22.46 233.24 21.68 232.78 20.96C232.32 20.24 231.46 19.52 230.22 18.82C228.72 17.97 227.7 17.22 227.17 16.56C226.64 15.9 226.4 15.16 226.44 14.34C226.49 13.34 226.89 12.45 227.63 11.66C228.37 10.88 229.31 10.28 230.44 9.86C231.57 9.44 232.73 9.25 233.92 9.27C235.05 9.3 236.03 9.48 236.85 9.83C237.67 10.18 238.05 10.74 237.99 11.52C237.95 12.03 237.69 12.53 237.19 13.01C236.69 13.49 236.18 13.83 235.65 14.02C235.37 14.12 235.26 14.04 235.3 13.81C235.47 12.66 235.2 11.74 234.53 11.13C233.86 10.52 233.07 10.21 232.13 10.19C231.32 10.17 230.65 10.39 230.13 10.85C229.61 11.3 229.34 11.88 229.3 12.57C229.26 13.31 229.44 13.99 229.83 14.6C230.22 15.21 231.01 15.83 232.19 16.45C233.7 17.25 234.72 18.06 235.25 18.86C235.78 19.66 236.01 20.55 235.95 21.52C235.88 22.59 235.42 23.61 234.57 24.56C233.73 25.51 232.63 26.25 231.3 26.78C229.96 27.31 228.57 27.54 227.11 27.47C225.73 27.41 224.66 27.08 223.91 26.5L223.89 26.49Z" fill="#130000" stroke="#130000" stroke-width="0.31" stroke-miterlimit="10"/>
<path d="M239.09 27.3C238.35 26.68 238.02 25.95 238.07 25.12C238.12 24.47 238.4 23.84 238.93 23.22C239.46 22.6 240.2 22.06 241.15 21.6C241.23 21.55 241.31 21.53 241.41 21.53C241.55 21.53 241.56 21.66 241.41 21.9C241.16 22.29 241.02 22.79 240.97 23.38C240.9 24.33 241.15 25.17 241.73 25.92C242.31 26.67 243.23 27.09 244.5 27.19C245.72 27.28 246.69 27.05 247.43 26.49C248.16 25.93 248.58 25.19 248.66 24.29C248.74 23.41 248.56 22.59 248.11 21.85C247.67 21.1 246.83 20.34 245.6 19.57C244.12 18.65 243.12 17.85 242.61 17.16C242.1 16.46 241.88 15.7 241.94 14.86C242.02 13.83 242.44 12.92 243.2 12.14C243.96 11.36 244.92 10.77 246.06 10.37C247.21 9.97 248.37 9.8 249.55 9.87C250.68 9.93 251.66 10.15 252.46 10.53C253.27 10.91 253.63 11.5 253.55 12.3C253.5 12.82 253.22 13.33 252.7 13.81C252.18 14.29 251.66 14.62 251.13 14.81C250.85 14.9 250.74 14.82 250.78 14.58C250.98 13.4 250.73 12.45 250.09 11.8C249.45 11.15 248.65 10.81 247.72 10.76C246.91 10.72 246.24 10.93 245.7 11.38C245.17 11.83 244.88 12.41 244.82 13.12C244.76 13.88 244.92 14.58 245.29 15.22C245.67 15.86 246.44 16.51 247.6 17.19C249.09 18.06 250.09 18.92 250.6 19.76C251.11 20.6 251.32 21.52 251.22 22.51C251.12 23.61 250.63 24.64 249.76 25.59C248.89 26.54 247.78 27.27 246.42 27.78C245.07 28.29 243.67 28.48 242.21 28.38C240.83 28.28 239.77 27.91 239.04 27.3H239.09Z" fill="#130000" stroke="#130000" stroke-width="0.31" stroke-miterlimit="10"/>
<path d="M254.88 27.26C254.94 26.98 254.97 26.84 255.02 26.56C255.24 25.6 255.52 24.56 255.88 23.45C256.23 22.33 256.61 21.24 256.98 20.18C257.33 19.18 257.68 18.12 258.04 17.03C258.4 15.94 258.69 14.92 258.91 13.98C258.95 13.84 258.98 13.71 258.99 13.57C259.05 12.98 258.83 12.67 258.34 12.64C258.14 12.63 257.85 12.68 257.47 12.79C257.44 12.79 257.43 12.79 257.4 12.79C257.3 12.79 257.25 12.73 257.25 12.63C257.25 12.53 257.3 12.46 257.4 12.41C258.07 12.09 258.94 11.73 260 11.31C261.06 10.9 261.74 10.7 262.04 10.72C262.41 10.75 262.53 11.01 262.4 11.51C261.98 13.28 261.19 15.86 260.05 19.23C259.65 20.44 259.26 21.67 258.87 22.93C258.48 24.19 258.18 25.25 257.97 26.1C257.96 26.24 257.91 26.39 257.89 26.51C257.78 27.09 258.06 27.5 258.61 27.56C258.9 27.59 259.27 27.52 259.72 27.34C259.75 27.31 259.8 27.3 259.87 27.31C259.94 27.31 259.97 27.38 259.96 27.49C259.95 27.6 259.89 27.68 259.79 27.73C257.95 28.64 256.65 29.05 255.86 28.97C255.1 28.89 254.77 28.33 254.87 27.28L254.88 27.26ZM262.24 5.36001C262.12 5.36001 261.99 5.23001 261.87 5.00001C261.61 4.39001 261.32 3.78001 261.01 3.17001C260.97 3.11001 260.95 3.04001 260.96 2.96001C260.98 2.79001 261.07 2.66001 261.23 2.56001C262.02 2.19001 262.96 1.79001 264.04 1.38001C264.13 1.37001 264.18 1.36001 264.27 1.35001C264.42 1.35001 264.57 1.47001 264.73 1.68001C265.21 2.39001 265.51 2.97001 265.63 3.44001C265.66 3.61001 265.67 3.73001 265.67 3.78001C265.66 3.89001 265.58 3.99001 265.45 4.06001C264.09 4.73001 263.07 5.15001 262.37 5.33001C262.32 5.34001 262.3 5.35001 262.25 5.36001H262.24Z" fill="#130000" stroke="#130000" stroke-width="0.31" stroke-miterlimit="10"/>
<path d="M265.11 28.81C264.6 27.58 264.45 26.05 264.66 24.22C264.8 23.04 265.06 21.84 265.44 20.62C265.88 19.22 266.65 16.81 267.8 13.4C269.09 9.54999 270.14 6.27999 270.92 3.59999C270.96 3.48999 270.99 3.32999 271.01 3.13999C271.08 2.53999 270.87 2.22999 270.37 2.18999C270.17 2.17999 269.87 2.21999 269.48 2.33999C269.43 2.34999 269.41 2.35999 269.36 2.36999C269.26 2.36999 269.22 2.29999 269.23 2.18999C269.24 2.07999 269.3 1.99999 269.41 1.94999C269.75 1.79999 269.91 1.72999 270.25 1.57999C271.83 0.869994 272.97 0.409994 273.69 0.209994C273.85 0.189994 273.92 0.179994 274.08 0.149994C274.51 0.179994 274.65 0.469994 274.51 0.999994C273.85 3.24999 272.2 8.25999 269.65 15.98C270.89 14.7 272.13 13.7 273.37 12.99C274.6 12.28 275.72 11.97 276.7 12.07C277.69 12.17 278.43 12.8 278.94 13.94C279.44 15.09 279.56 16.64 279.29 18.6C279.16 19.55 278.98 20.42 278.75 21.21C278.18 23.24 277.34 25.03 276.26 26.56C275.18 28.09 273.92 29.25 272.48 30.04C271.05 30.82 269.54 31.11 267.95 30.91C266.57 30.74 265.63 30.04 265.12 28.81H265.11ZM272.95 28.73C273.81 27.83 274.5 26.64 275.04 25.18C275.57 23.72 275.95 22.2 276.16 20.63C276.45 18.43 276.43 16.74 276.09 15.59C275.75 14.44 275.18 13.82 274.39 13.74C273.53 13.65 272.54 14.17 271.44 15.3C270.33 16.43 269.32 18 268.38 20.02C267.87 21.17 267.55 22.38 267.39 23.65C267.2 25.26 267.31 26.66 267.72 27.86C268.13 29.06 268.87 29.72 269.95 29.86C271.09 30 272.09 29.63 272.95 28.72V28.73Z" fill="#130000" stroke="#130000" stroke-width="0.31" stroke-miterlimit="10"/>
<path d="M280.43 30.68C280.47 30.39 280.55 30.06 280.68 29.7C281.41 27.33 282.67 23.58 284.52 18.42C285.3 16.16 286.11 13.83 286.95 11.42C287.79 9.01001 288.49 6.96001 289.02 5.28001C289.07 5.14001 289.1 4.99001 289.12 4.85001C289.21 4.24001 289.02 3.91001 288.55 3.86001C288.3 3.83001 287.97 3.89001 287.57 4.02001C287.54 4.02001 287.53 4.02001 287.5 4.02001C287.43 4.02001 287.39 3.96001 287.41 3.86001C287.42 3.76001 287.49 3.68001 287.6 3.64001C288.07 3.40001 288.88 3.03001 290.03 2.55001C291.19 2.07001 291.94 1.85001 292.29 1.89001C292.69 1.93001 292.81 2.22001 292.66 2.73001C291.88 5.29001 290.04 10.61 287.22 18.62C285.33 24 284.12 27.52 283.58 29.22C283.54 29.33 283.5 29.49 283.48 29.69C283.39 30.33 283.61 30.69 284.16 30.77C284.42 30.81 284.8 30.75 285.28 30.58C285.33 30.57 285.35 30.56 285.39 30.55C285.49 30.56 285.52 30.63 285.51 30.75C285.49 30.87 285.43 30.96 285.32 31.03C283.26 31.93 281.92 32.33 281.28 32.24C280.59 32.14 280.31 31.63 280.44 30.7L280.43 30.68Z" fill="#130000" stroke="#130000" stroke-width="0.31" stroke-miterlimit="10"/>
<path d="M290.23 32.5C289.55 31.23 289.37 29.57 289.7 27.49C289.85 26.53 290.13 25.47 290.52 24.34C290.98 23.01 291.6 21.76 292.39 20.62C293.18 19.48 294.04 18.51 294.97 17.71C296.25 16.61 297.45 15.86 298.55 15.49C299.65 15.12 300.81 15.03 302.01 15.21C302.99 15.36 303.74 15.79 304.24 16.51C304.74 17.23 304.91 18.06 304.75 18.98C304.43 20.77 303.13 22.26 300.85 23.45C298.57 24.64 295.88 25.45 292.75 25.9C292.48 27.9 292.58 29.62 293.04 31.05C293.5 32.49 294.31 33.31 295.48 33.51C296.22 33.64 297.05 33.49 297.98 33.06C298.91 32.63 299.78 32.08 300.58 31.4C300.7 31.3 300.8 31.26 300.9 31.27C301.07 31.3 301.13 31.42 301.1 31.63C301.08 31.75 301.01 31.86 300.89 31.96C299.8 33.02 298.52 33.79 297.07 34.29C295.62 34.79 294.4 34.95 293.41 34.78C291.97 34.53 290.91 33.77 290.23 32.5ZM298.71 23.21C300.37 22.29 301.32 21.15 301.56 19.79C301.7 18.96 301.6 18.21 301.25 17.53C300.9 16.85 300.36 16.46 299.63 16.35C299.21 16.29 298.79 16.32 298.35 16.43C297.92 16.55 297.56 16.69 297.28 16.86C296.16 17.54 295.22 18.67 294.44 20.24C293.66 21.81 293.15 23.4 292.89 25.01C295.11 24.72 297.05 24.13 298.7 23.21H298.71Z" fill="#130000" stroke="#130000" stroke-width="0.31" stroke-miterlimit="10"/>
<path d="M305.65 36.57C305.41 36.52 305.29 36.36 305.26 36.07C305.15 35.55 305.1 35.29 304.98 34.76C304.88 34.33 304.83 34.12 304.73 33.69C304.7 33.59 304.69 33.48 304.72 33.36C304.75 33.18 304.83 33.07 304.96 33.04C305.37 32.84 305.87 32.64 306.47 32.45C307.07 32.26 307.6 32.09 308.04 31.96C308.12 31.94 308.18 31.94 308.23 31.95C308.37 31.98 308.54 32.15 308.69 32.46C308.82 32.72 308.92 33.09 309.01 33.53C309.1 33.97 309.15 34.35 309.17 34.66C309.17 34.83 309.17 34.91 309.17 35.08C309.15 35.2 309.07 35.29 308.93 35.36C308.46 35.61 307.93 35.85 307.34 36.09C306.74 36.33 306.23 36.48 305.8 36.55C305.74 36.55 305.71 36.56 305.65 36.57ZM308.43 28.17C309.67 24.18 311.22 18.91 313.1 12.35C313.43 11.26 313.74 10.16 314.06 9.11C314.17 8.73 314.31 8.45 314.45 8.29C314.58 8.13 314.85 7.97 315.2 7.8C315.62 7.6 316.22 7.35 316.98 7.08C317.74 6.81 318.23 6.7 318.46 6.73C318.61 6.75 318.71 6.85 318.77 7.01C318.83 7.18 318.83 7.36 318.79 7.58C318.75 7.72 318.73 7.79 318.68 7.94C317.92 9.72 316.75 12.41 315.16 15.95C312.97 20.85 311.29 24.71 310.16 27.51C310.02 27.83 309.79 28.11 309.44 28.35C309.1 28.6 308.82 28.7 308.6 28.66C308.41 28.62 308.35 28.46 308.43 28.16V28.17Z" fill="#130000" stroke="#130000" stroke-width="0.31" stroke-miterlimit="10"/>
</g>
<defs>
<clipPath id="clip0_346_7341">
<rect width="318.96" height="64.96" fill="white"/>
</clipPath>
</defs>
</svg>
