<svg width="533" height="183" viewBox="0 0 533 183" fill="none" xmlns="http://www.w3.org/2000/svg">
<path d="M407.619 148.322L409.702 143.488L412.467 136.279C390.214 131.898 354.17 124.808 323.392 118.769C304.684 115.099 285.537 113.232 266.488 113.232C247.439 113.232 228.292 115.092 209.584 118.769C178.876 124.801 142.923 131.87 120.663 136.251L125.308 148.349L37.919 182.812L55.22 123.861L0.698242 95.2834L73.1965 61.2039L68.328 45.7416L69.3727 45.2054C149.358 4.07032 265.388 0.761963 266.495 0.761963C267.602 0.761963 383.632 4.07032 463.617 45.2054L464.662 45.7416L459.793 61.2039L532.285 95.2834L477.763 123.861L495.064 182.812L407.619 148.329V148.322Z" fill="#130000"/>
<path d="M84.8632 57.3242L4 95.346L57.0451 123.15L40.2247 180.465L123.686 147.548L84.8632 57.3242Z" fill="#F98D36" stroke="#130000" stroke-miterlimit="10"/>
<path d="M448.448 57.3242L529.318 95.346L476.266 123.15L493.093 180.465L409.632 147.548L448.448 57.3242Z" fill="#F98D36" stroke="#130000" stroke-miterlimit="10"/>
<path d="M123.686 147.548L99.3434 139.058L118.929 135.171L123.686 147.548Z" fill="#EE5229" stroke="#130000" stroke-miterlimit="10"/>
<path d="M409.799 147.548L434.135 139.058L414.55 135.171L409.799 147.548Z" fill="#EE5229" stroke="#130000" stroke-miterlimit="10"/>
<path d="M266.655 2.14795C265.144 2.14795 149.171 5.81149 70.174 46.4381L99.3432 139.058C99.3432 139.058 160.969 126.925 209.487 117.397C247.258 109.979 286.06 109.979 323.831 117.397C372.349 126.925 433.975 139.058 433.975 139.058L463.144 46.4381C384.147 5.81149 268.167 2.14795 266.662 2.14795H266.655Z" fill="#F98D36" stroke="#130000" stroke-miterlimit="10"/>
<path d="M111.097 88.1277C110.731 87.1146 110.011 86.3481 108.238 85.9349C108.751 84.3819 111.211 83.922 112.457 84.4152C113.477 83.1222 115.21 82.0091 116.729 82.9222C115.416 84.4286 115.603 86.1082 116.023 87.3146C116.776 89.4675 117.749 92.1335 119.315 93.1133C117.676 93.6799 116.116 93.9798 114.883 93.4799C114.257 94.6797 112.697 95.8327 110.251 96.7392C102.846 99.4853 98.2467 93.6265 96.0938 88.2011C92.9879 80.3561 95.6139 74.9706 100.08 73.3043C100.493 73.151 100.879 72.8777 101.059 72.5578C101.253 72.2112 101.426 71.7846 101.713 71.678C101.999 71.5714 102.392 71.678 102.792 71.8313C103.332 72.0312 104.012 71.9779 105.492 71.4447C106.931 70.9248 108.318 70.265 109.298 69.3718C109.584 69.5251 109.838 69.8584 109.997 70.3116C110.117 70.6516 110.044 71.2314 109.884 71.7047C109.798 71.9913 109.784 72.2046 109.864 72.4312C109.931 72.6178 110.471 72.9844 110.644 73.2177C111.051 73.5843 111.51 74.3974 111.764 75.1172C112.017 75.8371 111.924 76.7569 111.764 77.3234C111.684 77.6034 111.637 78.0033 111.764 78.3432C111.897 78.7231 112.217 79.1164 112.87 79.6896C110.657 80.4628 107.405 78.7365 106.192 77.1901C105.185 75.9038 104.412 75.5838 103.592 75.8838C99.6064 77.3501 101.093 81.2959 102.566 85.1884C104.772 91.0205 106.525 94.1131 109.498 93.0134C111.65 92.2202 111.81 90.0807 111.104 88.1277H111.097Z" fill="black"/>
<path d="M120.895 76.2502C119.855 73.0975 118.002 70.3381 115.29 68.1253C115.71 67.732 116.136 67.5054 116.636 67.3388C117.049 67.1988 117.496 67.1455 117.842 67.1055C118.236 67.0655 118.489 66.9789 118.862 66.8589C119.275 66.7256 119.682 66.4256 119.915 66.0124C120.062 65.7525 120.229 65.2792 120.522 65.1859C120.768 65.1059 121.082 65.2192 121.502 65.3792C121.922 65.5392 122.888 65.5658 123.801 65.2792C124.588 65.0326 125.207 64.646 125.567 64.2261C125.921 63.8195 126.181 63.4063 126.474 63.3197C126.727 63.2397 127.04 63.3663 127.54 63.5329C128.133 63.7329 129.453 63.5329 130.826 63.1263C131.953 62.7931 132.826 62.3665 133.299 61.9799C133.626 61.7133 133.992 61.4067 134.245 61.3334C134.372 61.3001 134.625 61.72 134.759 62.1799C134.905 62.6798 134.859 63.313 134.679 63.7862C134.579 64.0661 134.512 64.2928 134.565 64.4861C134.619 64.6794 134.872 65.026 135.152 65.2726C135.459 65.5392 135.898 66.139 136.025 66.5989C136.258 67.4054 136.245 68.2519 136.132 68.8185C136.038 69.2784 135.945 69.8715 136.058 70.2581C136.172 70.6447 136.458 71.018 137.098 71.7045C133.939 72.411 131.606 70.1115 130.74 69.0384C129.74 67.7987 128.36 67.1255 127.16 67.4987C124.641 68.2786 125.401 70.6847 126.214 73.2775C126.607 74.5372 127.534 75.6303 128.427 75.3504C129.12 75.1371 129.447 74.6172 129.28 74.084C129.14 73.6241 128.893 73.1175 128.56 72.7576C131 71.8378 132.073 73.0242 132.353 73.944C132.619 74.8238 132.439 75.5503 132.186 76.1702C132.692 76.3901 133.232 76.8567 133.506 77.7765C133.826 78.8496 133.659 80.6025 131.133 81.0958C131.206 80.6159 131.119 80.056 130.98 79.5961C130.813 79.0629 130.266 78.8562 129.58 79.0695C128.773 79.3228 128.28 79.856 128.58 80.8092C129.093 82.4488 130.113 85.6748 133.766 84.5617C135.672 83.9818 137.105 81.8023 136.572 80.0027C136.398 79.4295 135.965 78.8496 135.445 78.4163C137.578 77.7831 140.264 77.7165 141.024 80.3692C141.264 81.2157 141.131 82.2488 140.831 83.002C141.531 83.3419 142.397 83.9685 142.89 85.6947C141.537 85.2882 140.491 85.3882 139.818 85.5814C139.104 85.7881 138.351 86.3146 137.438 86.9945C136.498 87.6943 135.452 88.2609 133.799 88.7674C131.753 89.4006 129.313 89.4606 128.193 89.234C127.687 89.9471 126.934 90.567 126.034 90.8603C125.134 91.1536 122.975 91.2002 122.068 88.5142C124.321 87.3811 123.248 83.4419 122.761 81.9622C122.015 79.6827 121.635 78.543 120.888 76.2635L120.895 76.2502Z" fill="black"/>
<path d="M157.654 71.978C158.02 73.491 159.227 77.3902 161.726 77.1702C162.379 79.9363 160.493 81.0427 159.58 81.2627C158.7 81.476 157.74 81.3427 156.894 81.0161C156.341 81.6892 155.554 82.2624 154.641 82.4957C153.768 82.7223 151.575 82.629 150.855 79.883C153.168 78.9032 152.395 74.8974 152.008 73.3844C151.408 71.0582 151.115 69.8985 150.515 67.5723C150.309 66.7591 148.916 61.3337 146.996 61.8336C145.703 62.1735 145.77 63.8731 146.023 65.7261C146.383 68.3655 145.423 70.3917 142.764 71.1249C142.93 70.2917 142.964 69.7852 142.85 69.3586C142.737 68.932 142.417 68.2588 142.084 67.8656C141.717 67.4323 141.064 66.7392 140.857 66.006C140.657 65.2728 140.577 64.3397 140.657 63.8198C140.704 63.5132 140.944 62.9133 140.891 62.72C140.824 62.4868 140.651 62.3335 140.417 62.1468C140.018 61.8402 139.651 61.3204 139.511 60.8205C139.384 60.3606 139.424 60.014 139.498 59.7873C139.851 59.774 140.357 59.8007 140.924 59.894C141.491 59.9873 142.137 59.894 142.89 59.6941C143.563 59.5141 144.243 59.0409 144.497 58.6476C144.75 58.2477 145.003 58.0144 145.17 57.9744C145.383 57.9211 145.59 58.0277 145.996 58.2144C146.656 58.4943 147.756 58.421 148.422 58.2477C149.176 58.0544 149.675 57.7011 149.982 57.3546C150.282 57.028 150.549 56.5947 150.762 56.5414C150.975 56.4881 151.415 56.7414 151.835 56.8947C152.268 57.048 152.875 57.1279 153.635 56.9479C154.308 56.7813 155.354 56.3281 155.761 55.7749C156.034 55.4217 156.167 55.2283 156.374 55.175C156.587 55.1217 156.874 55.2217 157.287 55.4549C157.694 55.6882 158.56 55.7749 159.193 55.6283C159.953 55.455 160.613 55.1484 161.013 54.8418C161.42 54.5285 161.906 54.2685 162.226 54.1152C162.399 54.2819 162.633 54.5552 162.739 55.0217C162.853 55.5283 162.733 56.1681 162.526 56.628C162.413 56.9013 162.373 57.1146 162.426 57.3479C162.473 57.5412 162.919 57.9744 163.106 58.221C163.419 58.6409 163.786 59.5007 163.952 60.2472C164.119 60.9937 163.846 61.9269 163.752 62.4668C163.666 62.94 163.686 63.7132 163.779 64.1397C163.879 64.5663 164.146 64.9995 164.685 65.6594C162.086 66.2393 160.2 64.9462 159.28 62.4268C158.633 60.6605 157.934 59.1275 156.634 59.4341C154.708 59.894 156.034 65.3395 156.234 66.1526C156.801 68.4855 157.087 69.6519 157.654 71.978Z" fill="black"/>
<path d="M190.053 65.3263C190.313 66.866 191.233 70.8385 193.733 70.7985C194.186 73.6046 192.233 74.571 191.306 74.7243C190.42 74.871 189.474 74.671 188.654 74.2844C188.054 74.9176 187.234 75.4308 186.308 75.5975C185.421 75.7574 183.255 75.5108 182.728 72.7181C185.094 71.9116 184.615 67.8592 184.335 66.3195C183.908 63.96 183.695 62.7802 183.268 60.4208C183.122 59.5943 182.122 54.0822 180.176 54.4421C178.869 54.682 178.816 56.3883 178.936 58.2546C179.109 60.914 178.003 62.8602 175.317 63.4001C175.543 62.5803 175.617 62.0804 175.53 61.6472C175.443 61.2139 175.183 60.5208 174.877 60.1075C174.543 59.6476 173.944 58.9077 173.79 58.1612C173.637 57.4147 173.63 56.4816 173.744 55.9684C173.817 55.6685 174.09 55.0819 174.05 54.8886C174.004 54.6554 173.837 54.482 173.624 54.2821C173.25 53.9488 172.917 53.4023 172.817 52.8957C172.724 52.4225 172.784 52.0893 172.877 51.8626C173.23 51.876 173.73 51.936 174.284 52.0693C174.837 52.2026 175.49 52.1559 176.256 52.0093C176.936 51.876 177.649 51.456 177.929 51.0828C178.209 50.7029 178.476 50.4896 178.649 50.4563C178.863 50.4163 179.062 50.5429 179.456 50.7562C180.089 51.0895 181.189 51.0895 181.869 50.9628C182.635 50.8229 183.148 50.5029 183.488 50.1897C183.808 49.8831 184.108 49.4698 184.321 49.4365C184.535 49.3965 184.955 49.6831 185.361 49.8631C185.781 50.0497 186.381 50.1763 187.147 50.043C187.827 49.9297 188.9 49.5498 189.34 49.0299C189.633 48.6967 189.78 48.51 189.993 48.4767C190.207 48.4434 190.487 48.5567 190.88 48.8233C191.273 49.0833 192.126 49.2299 192.766 49.1299C193.533 49.0099 194.212 48.75 194.632 48.4767C195.059 48.1968 195.559 47.9701 195.892 47.8435C196.052 48.0235 196.265 48.3101 196.339 48.79C196.412 49.3032 196.245 49.9364 196.012 50.3763C195.879 50.6362 195.825 50.8495 195.859 51.0895C195.885 51.2894 196.305 51.7493 196.472 52.0093C196.759 52.4558 197.059 53.3356 197.172 54.0888C197.285 54.842 196.945 55.7551 196.812 56.2883C196.692 56.7549 196.659 57.5281 196.719 57.9613C196.785 58.3945 197.025 58.8478 197.512 59.5409C194.886 59.9342 193.106 58.5078 192.366 55.9284C191.853 54.1221 191.26 52.5425 189.947 52.7558C188.001 53.0757 188.927 58.6012 189.067 59.4276C189.467 61.7938 189.66 62.9735 190.06 65.3397L190.053 65.3263Z" fill="black"/>
<path d="M202.237 59.9738C201.411 53.5752 204.404 47.4232 209.582 46.8033C210.269 46.7233 210.669 46.4701 210.982 46.1568C211.289 45.8369 211.515 45.4903 211.769 45.4636C212.069 45.4303 212.362 45.7169 212.648 45.9302C213.028 46.2101 213.562 46.3501 214.248 46.2768C219.427 45.7102 223.739 51.0157 224.386 57.441C225.039 63.9063 221.993 70.9447 214.795 71.7712C207.59 72.5977 203.064 66.4191 202.237 59.9871V59.9738ZM217.394 57.9542C216.987 54.095 216.501 49.5427 212.295 50.0293C208.129 50.5092 208.696 55.0482 209.169 58.9007C209.729 63.4264 210.356 68.4853 214.361 68.0254C218.407 67.5588 217.867 62.4865 217.387 57.9542H217.394Z" fill="black"/>
<path d="M245.961 59.4272C246.028 60.9869 246.454 65.046 248.934 65.3126C249.04 68.152 246.988 68.8718 246.054 68.9118C245.115 68.9518 244.248 68.6319 243.488 68.152C242.822 68.7052 241.942 69.1118 241.009 69.1651C240.076 69.2184 237.996 68.7052 237.823 65.8658C240.262 65.3526 240.236 61.2735 240.149 59.7205C240.016 57.3277 239.942 56.128 239.809 53.7352C239.623 50.4226 238.636 47.2299 236.523 44.4372C237.023 44.1639 237.49 44.0573 238.01 44.0239C238.436 43.9973 238.876 44.0572 239.223 44.1172C239.609 44.1772 239.956 44.1572 240.389 44.1306C240.822 44.1039 241.216 43.8506 241.482 43.5907C241.689 43.3974 241.969 42.9641 242.269 42.9508C242.529 42.9375 242.835 43.1975 243.068 43.3907C243.335 43.6107 243.828 43.9573 244.301 43.9306C244.728 43.9106 244.995 43.904 245.375 43.804C245.715 43.7173 246.101 43.6107 246.574 43.5907C247.088 43.5707 247.567 43.6307 248.094 43.8506C246.268 46.8433 245.568 50.116 245.715 53.4352L245.974 59.4272H245.961ZM251.467 43.4107C252.026 43.3907 252.46 43.4641 252.806 43.5307C253.193 43.604 253.626 43.5907 253.973 43.5774C254.406 43.564 254.746 43.3974 255.079 43.0708C255.292 42.8642 255.586 42.4576 255.839 42.4509C256.099 42.4509 256.366 42.8175 256.625 43.0375C256.952 43.3107 257.412 43.504 257.839 43.4974C258.225 43.4907 258.572 43.4774 258.998 43.3974C259.505 43.3041 259.985 43.1841 260.545 43.2174C257.492 46.97 253.873 51.8956 252.066 54.7149C254.519 56.6412 256.559 59.9205 257.579 61.7401C258.352 63.1198 259.158 64.7861 261.291 65.006C261.318 67.8454 259.252 68.5119 258.312 68.5253C257.372 68.5386 256.512 68.1986 255.766 67.6988C255.286 68.232 254.479 68.6119 253.38 68.6386C252.32 68.6652 251.4 67.8987 251.367 66.899C251.34 66.0991 251.62 65.326 252.04 64.7994C252.593 64.0862 249.727 59.1806 246.101 55.8947C248.567 53.6685 251 47.9831 251.467 43.4107Z" fill="black"/>
<path d="M272.135 59.0274C272.115 60.5871 272.309 64.6595 274.768 65.0727C274.715 67.9121 272.622 68.5187 271.809 68.5053C270.956 68.492 270.302 68.1254 269.656 67.6055C268.996 68.1188 268.343 68.4787 267.49 68.472C266.637 68.472 264.597 67.8321 264.584 64.9927C267.043 64.6262 267.263 60.5537 267.27 58.9941C267.27 56.5946 267.276 55.3948 267.283 52.9954C267.29 49.6761 266.497 46.4301 264.557 43.5175C265.07 43.2775 265.543 43.1975 266.063 43.1975C266.497 43.1975 266.93 43.2842 267.27 43.3575C267.65 43.4441 268.13 43.4375 268.516 43.4441C268.903 43.4441 269.316 43.2108 269.549 42.9709C269.769 42.7509 270.069 42.3777 270.376 42.3777C270.682 42.3777 270.976 42.7843 271.189 42.9842C271.442 43.2242 272.002 43.4708 272.349 43.4775C272.649 43.4775 272.995 43.4774 273.295 43.4108C273.635 43.3308 273.988 43.2642 274.288 43.2642C274.548 43.2642 274.888 43.3575 275.141 43.5175C275.695 46.0902 278.127 51.9356 280.893 54.7483C281 51.469 280.713 47.3366 279.494 43.3841C279.84 43.4375 280.18 43.5241 280.48 43.5708C280.82 43.6241 281.12 43.6707 281.427 43.6774C282.073 43.6974 282.68 43.4774 282.946 43.2508C283.166 43.0575 283.486 42.671 283.786 42.6843C284.086 42.6976 284.373 43.1042 284.579 43.3175C284.826 43.5641 285.292 43.824 285.806 43.844C286.192 43.8574 286.459 43.8774 286.839 43.8107C287.185 43.7507 287.705 43.6907 288.352 43.7174C286.066 47.4166 285.606 57.6877 285.446 61.4402C285.366 63.3998 285.546 66.8457 285.906 68.9052C284.726 68.8519 283.433 68.4787 282.52 67.8855C281.727 68.4187 280.614 68.6986 279.514 68.6653C278.747 64.2796 276.541 57.8876 272.522 52.9087C272.309 53.3086 272.215 53.7819 272.209 54.2218C272.182 56.1414 272.169 57.1012 272.142 59.0207L272.135 59.0274Z" fill="black"/>
<path d="M292.498 56.308C292.931 49.8694 297.057 44.4173 302.256 44.8172C302.942 44.8705 303.389 44.7038 303.755 44.4506C304.122 44.1973 304.402 43.8974 304.662 43.924C304.962 43.9507 305.195 44.2906 305.435 44.5506C305.755 44.8971 306.248 45.1438 306.935 45.1971C312.127 45.6437 315.319 51.6956 314.706 58.1142C314.086 64.5862 309.734 70.8915 302.516 70.3049C295.29 69.7184 292.071 62.7732 292.504 56.3013L292.498 56.308ZM307.741 57.2745C308.094 53.4086 308.501 48.8496 304.288 48.5097C300.116 48.1698 299.783 52.7354 299.503 56.6013C299.17 61.1469 298.803 66.2325 302.815 66.5658C306.868 66.899 307.328 61.8135 307.741 57.2745Z" fill="black"/>
<path d="M332.482 47.8633C332.822 47.91 333.155 48.0432 333.482 48.1699C333.849 48.3099 334.322 48.3699 334.708 48.4298C335.135 48.4898 335.515 48.3032 335.802 48.1033C336.042 47.9366 336.401 47.5833 336.701 47.63C337.001 47.6767 337.241 48.1166 337.421 48.3432C337.641 48.6165 337.948 48.9097 338.374 48.9764C338.761 49.0364 339.234 49.1163 339.621 49.0897C339.967 49.0697 340.327 49.0364 340.667 49.0897C341.094 49.1563 341.42 49.2896 341.727 49.5829C340.127 52.9688 340.647 60.8671 341.774 66.2459C344.14 61.6936 346.872 55.3083 346.506 50.0562C346.886 50.1228 347.219 50.2694 347.499 50.3894C347.852 50.5427 348.332 50.616 348.759 50.6894C349.139 50.756 349.525 50.5827 349.819 50.3894C350.065 50.2294 350.438 49.8895 350.732 49.9429C351.032 49.9962 351.298 50.4561 351.431 50.6827C351.685 50.976 351.985 51.2692 352.365 51.3425C352.745 51.4159 353.258 51.5092 353.611 51.4958C353.964 51.4825 354.318 51.4692 354.704 51.5425C355.084 51.6158 355.451 51.7691 355.704 52.0624C350.752 58.9675 346.293 67.0591 344.14 75.304C342.893 75.084 340.94 74.1042 340.334 73.511C339.327 73.831 337.568 74.1909 336.115 73.9576C336.521 70.6183 336.261 64.0198 335.448 59.814C333.549 63.6132 331.449 69.9718 330.983 73.1778C329.53 72.9645 327.797 72.078 327.09 71.4981C326.17 71.8581 324.511 72.278 322.931 72.078C323.144 63.1999 320.458 54.4752 317.279 46.2836C317.646 46.0837 317.959 46.037 318.345 46.077C318.772 46.1237 319.152 46.2503 319.485 46.3636C319.852 46.4903 320.118 46.5169 320.505 46.5636C320.931 46.6102 321.518 46.4369 321.805 46.2303C322.045 46.057 322.391 45.6971 322.691 45.7304C322.991 45.7638 323.244 46.197 323.431 46.4236C323.658 46.6902 323.971 46.9702 324.397 47.0235C324.784 47.0701 325.257 47.1368 325.65 47.0968C325.997 47.0635 326.357 47.0235 326.697 47.0702C327.123 47.1235 327.457 47.2501 327.77 47.5301C326.437 50.7427 326.81 58.8542 327.937 64.1331C329.956 59.8074 333.229 52.9222 332.469 47.8433L332.482 47.8633Z" fill="black"/>
<path d="M371.934 71.9179C371.4 74.1774 370.754 76.8901 372.88 77.7766C372.207 80.536 370.461 80.7693 369.667 80.5827C368.828 80.3827 368.274 79.8829 367.748 79.2297C366.988 79.5896 366.268 79.7895 365.428 79.6029C364.589 79.4163 362.729 78.3432 363.336 75.5704C365.835 75.7504 366.935 71.8246 367.281 70.3049C367.808 67.9654 368.074 66.7924 368.608 64.4529C369.341 61.2136 369.268 57.8743 368.001 54.6084C368.561 54.4884 369.041 54.5084 369.547 54.6217C369.967 54.715 370.374 54.895 370.694 55.0416C371.047 55.2082 371.48 55.3015 371.86 55.3882C372.28 55.4882 372.693 55.3349 373.02 55.1616C373.273 55.0283 373.66 54.695 373.96 54.7617C374.213 54.8216 374.42 55.2816 374.586 55.5215C374.786 55.8148 375.28 56.1747 375.699 56.2747C376.079 56.368 376.339 56.428 376.733 56.4413C377.086 56.448 377.486 56.4546 377.952 56.5679C378.459 56.6879 378.899 56.8812 379.352 57.2411C379.292 60.3937 379.752 64.9594 380.625 68.8986C383.351 65.9192 386.011 62.24 387.544 59.334C387.89 59.2207 388.297 59.2007 388.677 59.3007C389.01 59.3873 389.29 59.5473 389.643 59.7273C389.956 59.8872 390.25 59.9739 390.583 60.0672C391.003 60.1805 391.523 60.0738 391.843 59.9139C392.103 59.7806 392.502 59.474 392.796 59.5539C393.049 59.6206 393.209 60.0205 393.389 60.3404C393.556 60.6337 393.929 60.987 394.389 61.1203C394.849 61.2536 395.102 61.3269 395.495 61.3469C395.848 61.3669 396.248 61.3936 396.708 61.5269C397.208 61.6735 397.648 61.8801 398.081 62.2534C395.388 64.5129 393.689 67.3989 392.782 70.5915C392.129 72.8977 391.803 74.0508 391.149 76.3636C390.723 77.8633 389.856 81.8491 392.143 82.8889C391.349 85.6149 389.157 85.6482 388.283 85.4016C387.37 85.1417 386.597 84.5552 386.024 83.8553C385.211 84.1686 384.244 84.2752 383.251 84.0086C382.458 83.7953 381.112 82.7755 381.838 80.0295C384.051 80.2427 384.784 77.5434 385.384 75.3038C385.964 73.1577 386.251 72.0846 386.83 69.9384C386.944 69.5118 386.944 69.1852 386.95 68.8519C381.971 73.9308 379.592 79.3163 379.359 82.9755C378.326 82.7089 377.419 82.269 376.713 81.3825C375.786 81.8491 374.666 81.7757 373.513 81.4891C374.886 78.3232 375.753 72.0579 373.78 65.506C373.46 66.1258 373.187 66.719 372.98 67.5788C372.567 69.3051 372.367 70.1716 371.954 71.8979L371.934 71.9179Z" fill="black"/>
<path d="M401.714 73.2443C402.68 70.0716 402.76 66.7457 401.82 63.3731C402.387 63.2931 402.867 63.3531 403.367 63.5064C403.78 63.633 404.18 63.8397 404.487 64.013C404.833 64.2063 405.086 64.2796 405.46 64.3929C405.873 64.5195 406.379 64.5062 406.806 64.3062C407.073 64.1796 407.486 63.8863 407.772 63.9797C408.019 64.0596 408.212 64.3262 408.459 64.6995C408.706 65.0727 409.485 65.6526 410.392 65.9392C411.178 66.1925 411.905 66.2325 412.445 66.0992C412.965 65.9659 413.418 65.7859 413.711 65.8792C413.958 65.9592 414.144 66.2458 414.464 66.6724C414.838 67.1789 416.024 67.7788 417.39 68.2387C418.503 68.6119 419.47 68.7719 420.076 68.732C420.496 68.7053 420.976 68.6586 421.223 68.7453C421.349 68.7852 421.316 69.2851 421.156 69.7384C420.983 70.2316 420.583 70.7248 420.163 71.0048C419.923 71.1781 419.73 71.3247 419.67 71.5113C419.61 71.698 419.61 72.1312 419.697 72.4911C419.79 72.891 419.803 73.6309 419.65 74.0841C419.377 74.8773 418.883 75.5638 418.457 75.957C418.11 76.277 417.697 76.7102 417.57 77.0901C417.444 77.47 417.457 77.9366 417.59 78.8697C414.591 77.6233 414.004 74.3974 413.918 73.0244C413.818 71.4314 413.071 70.085 411.878 69.6984C409.372 68.8786 408.599 71.2914 407.772 73.8775C407.373 75.1372 407.499 76.5569 408.386 76.8435C409.072 77.0635 409.645 76.8302 409.819 76.297C409.965 75.8437 410.059 75.2838 409.992 74.7973C412.525 75.4505 412.718 77.0434 412.411 77.9499C412.118 78.8231 411.558 79.3096 410.992 79.6696C411.278 80.1428 411.452 80.836 411.152 81.7424C410.798 82.8022 409.645 84.1419 407.299 83.0821C407.632 82.7289 407.886 82.2223 408.039 81.7691C408.212 81.2359 407.886 80.7493 407.199 80.5293C406.399 80.2694 405.686 80.4227 405.38 81.3758C404.853 83.0155 403.827 86.2348 407.459 87.4345C409.359 88.0611 411.785 87.1079 412.391 85.3283C412.585 84.7618 412.565 84.0353 412.385 83.3821C414.498 84.0953 416.744 85.5949 415.837 88.201C415.544 89.0342 414.838 89.8007 414.158 90.2406C414.538 90.9204 414.884 91.9336 414.291 93.6332C413.411 92.5201 412.498 91.9935 411.832 91.7669C411.125 91.527 410.205 91.5203 409.066 91.547C407.886 91.5803 406.713 91.4337 405.066 90.8938C403.027 90.2273 400.994 88.8742 400.214 88.0411C399.388 88.3277 398.414 88.401 397.515 88.1277C396.615 87.8544 394.822 86.6414 395.635 83.922C398.121 84.2885 399.514 80.456 399.967 78.963C400.667 76.6702 401.021 75.5238 401.72 73.2243L401.714 73.2443Z" fill="black"/>
<path d="M433.773 73.2908C434.047 73.6907 434.407 74.084 435.107 74.3506C438.173 75.5236 439.706 78.7962 438.686 81.3623C437.879 83.4086 435.386 84.8683 431.921 86.7478C430.714 87.3944 429.694 88.0342 429.314 89.0473C429.041 89.7605 428.768 90.7203 428.501 92.12C427.601 91.6468 426.928 91.0536 426.428 90.3537C425.549 90.5337 424.689 90.5604 423.782 90.3537C424.029 88.3542 425.275 86.1746 426.482 85.0016C428.435 83.1686 431.981 81.6823 432.747 79.6694C433.147 78.6229 432.907 77.5499 432.134 77.2566C431.441 76.9966 430.414 77.8898 429.621 78.6629C428.221 80.0626 425.315 81.8822 423.109 81.0891C423.769 80.5159 424.136 80.016 424.242 79.7094C424.376 79.3361 424.309 79.0095 424.229 78.7296C424.109 78.1764 423.989 77.2366 424.242 76.5234C424.495 75.8102 424.975 75.0037 425.382 74.6372C425.555 74.4039 426.102 74.044 426.168 73.8573C426.248 73.6307 426.195 73.3974 426.115 73.1175C425.962 72.6376 425.962 71.9977 426.135 71.5112C426.295 71.0579 426.582 70.6513 426.708 70.698C426.955 70.7846 427.302 71.1246 427.575 71.3912C428.068 71.8244 428.915 72.3043 430.068 72.7242C431.007 73.0708 431.601 72.9909 432.247 72.8909C432.66 72.7909 433.034 72.6709 433.274 72.7642C433.48 72.8442 433.627 73.0708 433.773 73.2974V73.2908ZM427.055 95.8059C426.502 97.2656 425.122 97.8521 423.802 97.3522C422.483 96.859 421.796 95.4926 422.336 94.0329C422.903 92.4932 424.322 91.9067 425.655 92.4133C426.988 92.9132 427.635 94.2729 427.048 95.8059H427.055Z" fill="black"/>
</svg>
