<svg width="356" height="99" viewBox="0 0 356 99" fill="none" xmlns="http://www.w3.org/2000/svg">
<g clip-path="url(#clip0_346_7430)">
<path d="M57.0001 97.9C50.8301 97.9 47.3401 94.37 46.3601 92.5C45.8101 91.44 45.3401 90.26 44.9801 88.97C44.7801 88.26 44.6201 87.54 44.5101 86.83C44.3501 86.83 44.1201 86.81 43.8501 86.79C43.5401 86.77 43.1501 86.73 42.7201 86.68C38.2701 86.14 30.2901 84.22 26.8201 77.43C21.8901 67.79 19.5001 65.48 16.1401 62.82C6.72009 55.34 1.45009 47.24 0.450086 38.73C-0.249914 32.78 3.22009 29.1 6.41009 27.74C7.56009 27.26 8.79009 27.01 9.97009 27.01C12.0101 27.01 13.8901 27.76 15.2601 29.11C18.5701 32.37 19.9601 35.24 21.4401 38.28C22.0701 39.58 22.7201 40.93 23.5601 42.37C23.5601 42.35 23.5801 42.34 23.5901 42.32C24.3701 40.9 26.0001 38.64 28.6001 38.64C29.1001 38.64 29.6201 38.73 30.1501 38.9C30.1801 38.76 30.2101 38.58 30.2701 38.38C30.8401 36.08 33.2001 30.71 42.6901 30.71C43.0801 30.71 43.4801 30.71 43.9001 30.74C43.9001 30.72 43.6901 30.18 43.6901 30.18C42.3101 26.29 38.0801 12 47.5301 5.9C49.2101 4.82 50.8901 4.27 52.5401 4.27C52.6801 4.27 52.8201 4.27 52.9601 4.28C58.5001 4.56 62.1001 10.73 62.7101 13.81C63.0101 15.3 62.6701 17.86 62.2801 20.83C61.5501 26.44 60.5501 34.08 63.3601 38.86C64.2601 38.51 67.1101 37.51 70.3701 37.51C74.3601 37.51 77.4201 38.97 79.4801 41.86C83.6701 47.72 86.6101 54.27 76.7201 69.8C76.5701 70.04 76.4401 70.26 76.3001 70.47C77.4601 71.25 81.3701 74.22 81.5901 78.84C81.7901 82.93 79.0501 87.11 73.4301 91.26C70.4201 93.48 67.5001 95.16 64.7701 96.25C62.0501 97.34 59.4301 97.9 57.0001 97.9Z" fill="#F8B733"/>
<path d="M52.5201 4.63C52.6501 4.63 52.7901 4.63 52.9201 4.64C58.0701 4.9 61.6901 10.61 62.3401 13.88C63.1901 18.16 58.5801 31.99 63.2001 39.31C63.2001 39.31 66.5101 37.87 70.3601 37.87C73.4301 37.87 76.8301 38.78 79.1801 42.07C83.2601 47.78 86.2401 54.17 76.4101 69.61C76.2501 69.87 76.0901 70.13 75.9101 70.39C75.8701 70.45 75.8301 70.52 75.7901 70.58C75.7901 70.58 89.6101 78.84 73.2101 90.97C70.0601 93.29 67.2001 94.89 64.6301 95.92C61.7301 97.09 59.1901 97.54 57.0001 97.54C50.9901 97.54 47.6101 94.1 46.6801 92.34C46.0301 91.1 45.6101 89.88 45.3301 88.88C45.0601 87.92 44.9301 87.16 44.8701 86.77C44.8401 86.58 44.8301 86.48 44.8301 86.48C44.8301 86.48 44.4801 86.48 43.8801 86.43C43.5701 86.41 43.1901 86.37 42.7601 86.32C38.8801 85.85 30.6201 84.07 27.1401 77.26C22.0201 67.24 19.5701 65.07 16.3601 62.53C10.4401 57.83 2.10005 49.73 0.810053 38.69C0.180053 33.32 3.04005 29.57 6.55005 28.08C7.65005 27.62 8.82005 27.38 9.97005 27.38C11.8301 27.38 13.6201 28.01 15.0001 29.37C19.8501 34.14 20.4901 38 23.5801 43.14C23.5801 43.14 23.6801 42.88 23.8901 42.49C23.9001 42.46 23.9101 42.44 23.9201 42.42C24.5701 41.24 26.1101 39 28.5801 39C29.1501 39 29.7601 39.12 30.4301 39.39C30.4301 39.39 30.4501 39.04 30.6001 38.47C31.1401 36.31 33.4001 31.07 42.6701 31.07C43.2301 31.07 43.8101 31.09 44.4201 31.13C44.4201 31.13 44.3301 30.92 44.1901 30.54C44.2001 30.54 44.2001 30.54 44.1901 30.54C43.0001 27.35 38.1001 12.42 47.7101 6.21C49.4201 5.11 51.0301 4.64 52.5201 4.64M52.5201 3.9C50.8001 3.9 49.0501 4.47 47.3201 5.59C38.0101 11.61 41.6401 25.28 43.1701 29.81H43.1501L43.3501 30.35C43.1201 30.35 42.8901 30.35 42.6701 30.35C32.9301 30.35 30.4901 35.91 29.9001 38.3C29.8901 38.35 29.8801 38.4 29.8601 38.44C29.4301 38.33 29.0001 38.27 28.5801 38.27C26.0701 38.27 24.4101 40.21 23.5401 41.63C22.8601 40.41 22.3001 39.25 21.7501 38.12C20.2601 35.05 18.8601 32.15 15.5001 28.86C14.0601 27.44 12.0901 26.66 9.96005 26.66C8.73005 26.66 7.45005 26.92 6.26005 27.42C2.96005 28.82 -0.639947 32.64 0.0800527 38.78C1.09005 47.38 6.41005 55.57 15.9001 63.1C18.7701 65.37 21.2401 67.32 26.4901 77.59C28.0101 80.57 32.1401 85.76 42.6701 87.04C43.1201 87.09 43.5101 87.13 43.8301 87.15C43.9701 87.16 44.0901 87.17 44.2001 87.18C44.3101 87.81 44.4501 88.44 44.6301 89.08C45.0001 90.39 45.4701 91.6 46.0401 92.68C47.0601 94.61 50.6501 98.27 57.0001 98.27C59.4801 98.27 62.1401 97.71 64.9001 96.59C67.6601 95.48 70.6001 93.79 73.6401 91.55C79.3601 87.32 82.1501 83.04 81.9501 78.82C81.7301 74.38 78.2401 71.42 76.7901 70.37C76.8701 70.24 76.9501 70.11 77.0301 69.98C87.0301 54.27 84.0401 47.61 79.7701 41.64C77.6701 38.69 74.4101 37.14 70.3601 37.14C67.3401 37.14 64.6601 37.98 63.5101 38.41C60.9501 33.72 61.9101 26.32 62.6301 20.87C63.0401 17.75 63.3601 15.28 63.0501 13.74C62.2901 9.9 58.2501 4.19 52.9601 3.92C52.8201 3.92 52.6701 3.91 52.5301 3.91L52.5201 3.9Z" fill="#130000"/>
<path d="M43.79 29.97C45.06 31.41 45.83 33.18 46.34 35.01C46.84 36.77 47.44 38.86 47.32 40.57C46.86 36.82 44.71 33.46 43.79 29.97Z" fill="#130000"/>
<path d="M52.7801 52.29C52.7801 52.29 49.8001 54.26 50.0001 54.74C50.2001 55.22 51.7801 63.36 59.4801 62.3C67.1801 61.24 71.6 57.68 71.6 57.68L60.4401 59.02L52.7901 52.28L52.7801 52.29Z" fill="#F98D36"/>
<path d="M51.3 55.34C51.3 55.34 45.76 58.14 45.42 64.7C45.08 71.26 47.13 73.79 48.91 75.57C48.91 75.57 45.01 61.49 51.3 55.34Z" fill="#F98D36"/>
<path d="M48.7201 74.77C44.6801 68.68 46.6601 60.01 51.6701 55.1L51.7801 55.2C49.6401 57.9 48.2501 61.13 48.0001 64.56C47.8401 67.99 48.3301 71.28 48.8501 74.71L48.7201 74.77Z" fill="#130000"/>
<path d="M23.92 42.42C23.92 42.42 20.91 50.85 24.61 56.89C27.59 61.75 30.17 62.93 31.19 63.29C32.21 63.65 34.83 64.4 36.99 62.75C36.99 62.75 29.32 63.86 25.91 57.1C22.5 50.34 23.23 46.24 23.92 42.41V42.42Z" fill="#F98D36"/>
<path d="M30.42 39.02C30.42 39.02 31.16 46.95 35.1 51.18C39.04 55.41 41.82 57.89 46.64 56.43C51.46 54.97 51.54 50.87 51.54 50.87C51.54 50.87 48.69 56.34 43.44 55.39C39.14 54.61 32.54 49.24 30.42 39.01V39.02Z" fill="#F98D36"/>
<path d="M24.1501 41.93C22.6301 46.54 22.0101 51.79 24.1901 56.23C26.3501 60.17 30.4901 64.89 35.4701 63.59C38.6101 62.61 40.7401 59.3 41.1001 56.24C41.0401 59.58 38.8101 62.91 35.6001 64.03C30.3501 65.49 25.8501 60.76 23.5101 56.57C21.3001 52.05 21.9901 46.16 24.1401 41.93H24.1501Z" fill="#130000"/>
<path d="M30.31 38.12C30.74 42.55 31.85 47.18 34.7 50.68C39.1 56.37 46.04 59.82 51.08 52.8C55.22 46.07 46.89 40.42 42.53 36.63C47.4 40.33 55.62 46.13 51.49 53.06C46.37 60.49 38.67 57.26 34.16 51.12C31.39 47.5 30.15 42.49 30.32 38.13L30.31 38.12Z" fill="#130000"/>
<path d="M69.9301 57.95C67.5101 58.83 55.7701 62.97 51.1101 54.28C46.4501 45.59 63.5501 39.51 63.5501 39.51" fill="#F8B733"/>
<path d="M69.9401 57.98C65.1301 60.01 58.9401 61.28 54.2201 58.23C51.2501 56.21 48.9101 52.18 50.6501 48.68C53.2101 43.8 58.6801 41.41 63.5401 39.47C59.0301 41.63 53.4301 44.02 51.0701 48.86C49.5101 52.17 51.8201 55.85 54.6101 57.64C59.2401 60.51 65.0701 59.17 69.9501 57.97L69.9401 57.98Z" fill="#130000"/>
<path d="M76.8201 69.36C76.8201 69.36 70.4401 77.37 63.3701 77.59Z" fill="#130000"/>
<path d="M76.8501 69.38C73.9101 73.84 68.8101 77.38 63.3801 77.63V77.56C68.9601 77.14 72.8701 72.59 76.8501 69.39V69.38Z" fill="#130000"/>
<path d="M64.6301 95.92C53.7801 100.28 47.9401 94.74 46.6801 92.34C46.0301 91.1 45.6101 89.88 45.3301 88.88C45.0601 87.92 44.9301 87.16 44.8701 86.77C44.8401 86.58 44.8301 86.48 44.8301 86.48C44.8301 86.48 44.4801 86.48 43.8801 86.43C43.5701 86.41 43.1901 86.37 42.7601 86.32L42.9401 86L49.6201 85.67C49.6201 85.67 46.8601 88.98 48.4101 91.47C49.9301 93.91 57.0301 98.03 64.6301 95.92Z" fill="#F98D36"/>
<path d="M53.29 85.24C53.29 85.24 44.93 87.16 44.87 86.77C44.53 86.69 44.2 86.58 43.88 86.43C40.79 86.19 31.01 84.83 27.14 77.26C22.02 67.24 19.57 65.07 16.36 62.53C10.44 57.83 2.10004 49.73 0.81004 38.69C0.18004 33.32 3.04004 29.57 6.55004 28.08C5.00004 29.44 3.74004 32.13 3.41004 34.4C2.76004 38.8 4.63004 48.86 9.69004 53.72C16.5 60.26 22.18 63.03 24.96 68.86C27.5 74.21 34.12 86.83 53.29 85.25V85.24Z" fill="#F98D36"/>
<path d="M53.29 85.24C53.13 85.52 49.45 88.39 46.11 87.65C45.77 87.57 45.44 87.46 45.12 87.31C44.77 87.15 44.43 86.94 44.11 86.67L51.21 85.56L53.07 85.27L53.29 85.24Z" fill="#130000"/>
<path d="M53.32 85.22C51.39 87.11 48.61 88.37 45.87 87.86V87.65C45.85 87.61 46.07 87.89 46.07 87.88C45.08 87.65 44.17 87.18 43.42 86.49C46.71 85.87 49.96 85.28 53.33 85.22H53.32ZM53.26 85.26C50.32 86.14 47.21 86.59 44.16 86.97L44.31 86.44C44.88 87 45.64 87.2 46.37 87.47V87.64L46.18 87.41C48.65 87.95 51.33 86.74 53.28 85.26H53.26Z" fill="#130000"/>
<path d="M52.8601 4.81C51.3101 5.33 49.7501 6.44 48.4901 7.68C46.7001 9.44 42.5101 13.19 43.5901 20.89C44.6801 28.59 48.0401 35.19 47.3001 40.73C47.3001 40.73 47.0801 34.27 44.1301 30.71C44.1401 30.71 44.1401 30.71 44.1301 30.71C42.9401 27.52 38.0401 12.59 47.6501 6.38C49.5101 5.18 51.2601 4.73 52.8601 4.82V4.81Z" fill="#F98D36"/>
<path d="M298.81 94C296.38 94 293.77 93.44 291.04 92.35C288.31 91.26 285.39 89.57 282.38 87.36C276.76 83.21 274.02 79.03 274.22 74.94C274.45 70.32 278.35 67.36 279.51 66.57C279.34 66.32 279.21 66.11 279.08 65.9C269.19 50.37 272.13 43.82 276.32 37.96C278.38 35.07 281.45 33.61 285.43 33.61C288.69 33.61 291.54 34.61 292.44 34.96C295.25 30.18 294.25 22.54 293.52 16.93C293.13 13.96 292.8 11.4 293.09 9.91C293.7 6.83 297.3 0.659999 302.85 0.379999C302.99 0.379999 303.13 0.369999 303.27 0.369999C304.92 0.369999 306.6 0.919999 308.28 2C317.73 8.1 313.49 22.39 312.12 26.28C312.12 26.28 311.92 26.82 311.91 26.84C312.32 26.82 312.73 26.81 313.12 26.81C322.61 26.81 324.97 32.18 325.54 34.48C325.59 34.68 325.63 34.85 325.66 34.99C326.19 34.82 326.71 34.73 327.21 34.73C329.81 34.73 331.45 36.99 332.19 38.34L332.25 38.47C333.08 37.03 333.74 35.68 334.37 34.37C335.84 31.33 337.24 28.46 340.54 25.21C341.91 23.86 343.79 23.11 345.83 23.11C347.01 23.11 348.24 23.36 349.39 23.84C352.58 25.19 356.05 28.88 355.35 34.83C354.36 43.33 349.08 51.44 339.67 58.91C336.31 61.57 333.91 63.88 328.99 73.52C325.52 80.32 317.54 82.24 313.09 82.77C312.65 82.82 312.26 82.86 311.95 82.88C311.68 82.9 311.45 82.92 311.29 82.92C311.18 83.64 311.02 84.36 310.82 85.06C310.46 86.34 310 87.53 309.44 88.59C308.46 90.46 304.98 93.99 298.8 93.99L298.81 94Z" fill="#F8B733"/>
<path d="M303.29 0.72C304.78 0.72 306.4 1.19 308.1 2.29C317.71 8.5 312.81 23.43 311.62 26.62C311.61 26.62 311.61 26.62 311.62 26.62C311.48 27 311.39 27.21 311.39 27.21C312 27.17 312.58 27.15 313.14 27.15C322.41 27.15 324.67 32.39 325.21 34.55C325.36 35.12 325.38 35.47 325.38 35.47C326.04 35.19 326.66 35.08 327.23 35.08C329.7 35.08 331.24 37.32 331.89 38.5C331.9 38.52 331.91 38.54 331.92 38.57C332.13 38.96 332.23 39.22 332.23 39.22C335.32 34.08 335.96 30.22 340.81 25.45C342.19 24.09 343.99 23.46 345.84 23.46C346.99 23.46 348.15 23.7 349.26 24.16C352.77 25.65 355.63 29.4 355 34.77C353.71 45.81 345.37 53.91 339.45 58.61C336.24 61.15 333.79 63.32 328.67 73.34C325.19 80.15 316.93 81.93 313.05 82.4C312.62 82.45 312.24 82.49 311.93 82.51C311.33 82.56 310.98 82.56 310.98 82.56C310.98 82.56 310.97 82.66 310.94 82.84C310.88 83.24 310.75 84 310.48 84.96C310.2 85.96 309.78 87.18 309.13 88.42C308.21 90.18 304.82 93.62 298.81 93.62C296.62 93.62 294.08 93.16 291.18 92C288.61 90.97 285.75 89.37 282.6 87.05C266.2 74.92 280.02 66.66 280.02 66.66C279.98 66.6 279.94 66.53 279.9 66.47C279.72 66.21 279.56 65.95 279.4 65.69C269.57 50.25 272.55 43.86 276.63 38.15C278.98 34.86 282.38 33.95 285.45 33.95C289.3 33.95 292.61 35.39 292.61 35.39C297.23 28.07 292.62 14.24 293.47 9.96C294.12 6.69 297.74 0.98 302.89 0.72C303.02 0.72 303.15 0.71 303.29 0.71M303.29 0C303.14 0 303 0 302.85 0.01C297.56 0.28 293.53 5.99 292.76 9.83C292.45 11.38 292.77 13.84 293.18 16.97C293.89 22.42 294.86 29.82 292.3 34.51C291.15 34.09 288.47 33.24 285.45 33.24C281.4 33.24 278.14 34.8 276.04 37.74C271.78 43.71 268.78 50.36 278.79 66.09C278.87 66.21 278.94 66.34 279.03 66.47C277.57 67.52 274.09 70.47 273.87 74.92C273.66 79.14 276.46 83.42 282.18 87.65C285.22 89.89 288.16 91.58 290.92 92.69C293.69 93.8 296.35 94.37 298.82 94.37C305.17 94.37 308.76 90.71 309.78 88.78C310.35 87.7 310.82 86.49 311.19 85.18C311.37 84.55 311.51 83.91 311.62 83.28C311.73 83.28 311.86 83.26 312 83.25C312.31 83.23 312.7 83.19 313.14 83.14C323.67 81.86 327.8 76.67 329.32 73.69C334.57 63.42 337.04 61.46 339.9 59.2C349.39 51.66 354.71 43.48 355.72 34.88C356.44 28.74 352.84 24.92 349.54 23.52C348.35 23.02 347.07 22.76 345.84 22.76C343.71 22.76 341.74 23.54 340.3 24.96C336.95 28.26 335.54 31.16 334.05 34.22C333.5 35.35 332.94 36.51 332.26 37.73C331.37 36.29 329.72 34.37 327.22 34.37C326.8 34.37 326.37 34.43 325.94 34.54C325.93 34.49 325.92 34.44 325.9 34.39C325.31 32.01 322.87 26.45 313.13 26.45C312.91 26.45 312.68 26.45 312.45 26.45L312.65 25.91H312.63C314.16 21.38 317.79 7.7 308.48 1.69C306.74 0.57 304.99 0 303.28 0L303.29 0Z" fill="#130000"/>
<path d="M312.08 26.1C311.5 27.9 310.75 29.57 310.01 31.29C309.27 32.97 308.9 35 308.41 36.65C308.78 33.06 309.56 28.71 312.08 26.1Z" fill="#130000"/>
<path d="M303.03 48.39C303.03 48.39 306.01 50.36 305.81 50.84C305.61 51.32 304.03 59.46 296.33 58.4C288.63 57.34 284.21 53.78 284.21 53.78L295.37 55.12L303.02 48.38L303.03 48.39Z" fill="#F98D36"/>
<path d="M304.5 51.44C304.5 51.44 310.04 54.24 310.38 60.8C310.72 67.36 308.67 69.89 306.89 71.67C306.89 71.67 310.79 57.59 304.5 51.44Z" fill="#F98D36"/>
<path d="M306.96 70.81C308.12 63.88 308.85 57.06 304.03 51.3L304.14 51.2C307.96 54.93 309.87 60.59 309.06 65.9C308.71 67.66 308.13 69.39 307.09 70.87L306.96 70.81Z" fill="#130000"/>
<path d="M331.89 38.51C331.89 38.51 334.9 46.94 331.2 52.98C328.22 57.84 325.64 59.02 324.62 59.38C323.6 59.74 320.98 60.49 318.82 58.84C318.82 58.84 326.49 59.95 329.9 53.19C333.31 46.43 332.58 42.33 331.89 38.5V38.51Z" fill="#F98D36"/>
<path d="M325.39 35.11C325.39 35.11 324.65 43.04 320.71 47.27C316.77 51.5 313.99 53.98 309.17 52.52C304.35 51.06 304.27 46.96 304.27 46.96C304.27 46.96 307.12 52.43 312.37 51.48C316.67 50.7 323.27 45.33 325.39 35.1V35.11Z" fill="#F98D36"/>
<path d="M331.72 37.99C333.72 42.49 334.54 48.06 332.28 52.66C329.95 56.84 325.44 61.58 320.19 60.12C316.98 59 314.75 55.67 314.69 52.33C315.06 55.4 317.19 58.7 320.32 59.68C325.31 60.98 329.44 56.26 331.6 52.32C333.88 47.87 333 42.51 331.71 37.99H331.72Z" fill="#130000"/>
<path d="M325.57 34.21C325.5 38.76 324.51 43.52 321.66 47.2C317.15 53.33 309.44 56.56 304.33 49.14C300.2 42.21 308.41 36.41 313.29 32.71C308.93 36.5 300.6 42.16 304.74 48.88C309.78 55.9 316.72 52.45 321.12 46.76C324.05 43.29 324.97 38.46 325.58 34.2L325.57 34.21Z" fill="#130000"/>
<path d="M285.88 54.05C288.3 54.93 300.04 59.07 304.7 50.38C309.36 41.69 292.26 35.61 292.26 35.61" fill="#F8B733"/>
<path d="M285.89 54.01C290.86 55.45 296.57 56.53 301.2 53.74C303.98 51.95 306.3 48.27 304.74 44.96C302.38 40.11 296.78 37.72 292.27 35.57C297.13 37.51 302.6 39.9 305.16 44.78C306.9 48.29 304.56 52.31 301.59 54.33C296.95 57.32 290.45 56.19 285.9 54.01H285.89Z" fill="#130000"/>
<path d="M278.99 65.45C278.99 65.45 285.37 73.46 292.44 73.68Z" fill="#130000"/>
<path d="M279.02 65.43C282.97 68.89 286.9 73.15 292.44 73.65V73.72C287.25 73.54 281.53 69.79 279.02 65.43Z" fill="#130000"/>
<path d="M291.18 92.01C302.03 96.37 307.87 90.83 309.13 88.43C309.78 87.19 310.2 85.97 310.48 84.97C310.75 84.01 310.88 83.25 310.94 82.86C310.97 82.67 310.98 82.57 310.98 82.57C310.98 82.57 311.33 82.57 311.93 82.52C312.24 82.5 312.62 82.46 313.05 82.41L312.87 82.09L306.19 81.76C306.19 81.76 308.95 85.07 307.4 87.56C305.88 90 298.78 94.12 291.18 92.01Z" fill="#F98D36"/>
<path d="M302.52 81.33C302.52 81.33 310.88 83.25 310.94 82.86C311.28 82.78 311.61 82.67 311.93 82.52C315.02 82.28 324.8 80.92 328.67 73.35C333.79 63.33 336.24 61.16 339.45 58.62C345.37 53.92 353.71 45.82 355 34.78C355.63 29.41 352.77 25.66 349.26 24.17C350.81 25.53 352.07 28.22 352.4 30.49C353.05 34.89 351.18 44.95 346.12 49.81C339.31 56.35 333.63 59.12 330.85 64.95C328.31 70.3 321.69 82.92 302.52 81.34V81.33Z" fill="#F98D36"/>
<path d="M302.52 81.33C302.68 81.61 306.36 84.48 309.7 83.74C310.04 83.66 310.37 83.55 310.69 83.4C311.04 83.24 311.38 83.03 311.7 82.76L304.6 81.65L302.74 81.36L302.52 81.33Z" fill="#130000"/>
<path d="M302.55 81.35C304.49 82.83 307.17 84.04 309.65 83.5L309.46 83.74V83.56C310.18 83.29 310.95 83.08 311.52 82.53L311.67 83.06C308.62 82.69 305.51 82.23 302.57 81.35H302.55ZM302.49 81.31C305.86 81.37 309.11 81.96 312.4 82.58C311.65 83.27 310.74 83.74 309.75 83.97C309.75 83.97 309.96 83.7 309.95 83.74V83.95C307.21 84.46 304.42 83.2 302.5 81.31H302.49Z" fill="#130000"/>
<path d="M302.95 0.909998C304.5 1.43 306.06 2.54 307.32 3.78C309.11 5.54 313.3 9.29 312.22 16.99C311.13 24.69 307.77 31.29 308.51 36.83C308.51 36.83 308.73 30.37 311.68 26.81C311.67 26.81 311.67 26.81 311.68 26.81C312.87 23.62 317.77 8.69 308.16 2.48C306.3 1.28 304.55 0.829998 302.95 0.919998V0.909998Z" fill="#F98D36"/>
</g>
<defs>
<clipPath id="clip0_346_7430">
<rect width="355.81" height="98.27" fill="white"/>
</clipPath>
</defs>
</svg>
